<?xml version="1.0" encoding="utf-8" standalone="no"?>
<!DOCTYPE svg PUBLIC "-//W3C//DTD SVG 1.1//EN"
  "http://www.w3.org/Graphics/SVG/1.1/DTD/svg11.dtd">
<svg xmlns:xlink="http://www.w3.org/1999/xlink" width="708.011719pt" height="203.145pt" viewBox="0 0 708.011719 203.145" xmlns="http://www.w3.org/2000/svg" version="1.1">
 <metadata>
  <rdf:RDF xmlns:dc="http://purl.org/dc/elements/1.1/" xmlns:cc="http://creativecommons.org/ns#" xmlns:rdf="http://www.w3.org/1999/02/22-rdf-syntax-ns#">
   <cc:Work>
    <dc:type rdf:resource="http://purl.org/dc/dcmitype/StillImage"/>
    <dc:date>2025-02-05T11:06:12.381421</dc:date>
    <dc:format>image/svg+xml</dc:format>
    <dc:creator>
     <cc:Agent>
      <dc:title>Matplotlib v3.8.4, https://matplotlib.org/</dc:title>
     </cc:Agent>
    </dc:creator>
   </cc:Work>
  </rdf:RDF>
 </metadata>
 <defs>
  <style type="text/css">*{stroke-linejoin: round; stroke-linecap: butt}</style>
 </defs>
 <g id="figure_1">
  <g id="patch_1">
   <path d="M -0 203.145 
L 708.011719 203.145 
L 708.011719 0 
L -0 0 
z
" style="fill: #ffffff"/>
  </g>
  <g id="axes_1">
   <g id="patch_2">
    <path d="M 84.491719 159.2175 
L 700.811719 159.2175 
L 700.811719 25.3575 
L 84.491719 25.3575 
z
" style="fill: #ffffff"/>
   </g>
   <g id="matplotlib.axis_1">
    <g id="xtick_1">
     <g id="line2d_1">
      <path d="M 112.506264 159.2175 
L 112.506264 25.3575 
" clip-path="url(#pa418bdad6a)" style="fill: none; stroke: #cccccc; stroke-linecap: round"/>
     </g>
     <g id="text_1">
      <!-- 0 -->
      <g style="fill: #262626" transform="translate(109.006889 177.075781) scale(0.11 -0.11)">
       <defs>
        <path id="DejaVuSans-30" d="M 2034 4250 
Q 1547 4250 1301 3770 
Q 1056 3291 1056 2328 
Q 1056 1369 1301 889 
Q 1547 409 2034 409 
Q 2525 409 2770 889 
Q 3016 1369 3016 2328 
Q 3016 3291 2770 3770 
Q 2525 4250 2034 4250 
z
M 2034 4750 
Q 2819 4750 3233 4129 
Q 3647 3509 3647 2328 
Q 3647 1150 3233 529 
Q 2819 -91 2034 -91 
Q 1250 -91 836 529 
Q 422 1150 422 2328 
Q 422 3509 836 4129 
Q 1250 4750 2034 4750 
z
" transform="scale(0.015625)"/>
       </defs>
       <use xlink:href="#DejaVuSans-30"/>
      </g>
     </g>
    </g>
    <g id="xtick_2">
     <g id="line2d_2">
      <path d="M 205.891195 159.2175 
L 205.891195 25.3575 
" clip-path="url(#pa418bdad6a)" style="fill: none; stroke: #cccccc; stroke-linecap: round"/>
     </g>
     <g id="text_2">
      <!-- 5000 -->
      <g style="fill: #262626" transform="translate(191.893695 177.075781) scale(0.11 -0.11)">
       <defs>
        <path id="DejaVuSans-35" d="M 691 4666 
L 3169 4666 
L 3169 4134 
L 1269 4134 
L 1269 2991 
Q 1406 3038 1543 3061 
Q 1681 3084 1819 3084 
Q 2600 3084 3056 2656 
Q 3513 2228 3513 1497 
Q 3513 744 3044 326 
Q 2575 -91 1722 -91 
Q 1428 -91 1123 -41 
Q 819 9 494 109 
L 494 744 
Q 775 591 1075 516 
Q 1375 441 1709 441 
Q 2250 441 2565 725 
Q 2881 1009 2881 1497 
Q 2881 1984 2565 2268 
Q 2250 2553 1709 2553 
Q 1456 2553 1204 2497 
Q 953 2441 691 2322 
L 691 4666 
z
" transform="scale(0.015625)"/>
       </defs>
       <use xlink:href="#DejaVuSans-35"/>
       <use xlink:href="#DejaVuSans-30" x="63.623047"/>
       <use xlink:href="#DejaVuSans-30" x="127.246094"/>
       <use xlink:href="#DejaVuSans-30" x="190.869141"/>
      </g>
     </g>
    </g>
    <g id="xtick_3">
     <g id="line2d_3">
      <path d="M 299.276126 159.2175 
L 299.276126 25.3575 
" clip-path="url(#pa418bdad6a)" style="fill: none; stroke: #cccccc; stroke-linecap: round"/>
     </g>
     <g id="text_3">
      <!-- 10000 -->
      <g style="fill: #262626" transform="translate(281.779251 177.075781) scale(0.11 -0.11)">
       <defs>
        <path id="DejaVuSans-31" d="M 794 531 
L 1825 531 
L 1825 4091 
L 703 3866 
L 703 4441 
L 1819 4666 
L 2450 4666 
L 2450 531 
L 3481 531 
L 3481 0 
L 794 0 
L 794 531 
z
" transform="scale(0.015625)"/>
       </defs>
       <use xlink:href="#DejaVuSans-31"/>
       <use xlink:href="#DejaVuSans-30" x="63.623047"/>
       <use xlink:href="#DejaVuSans-30" x="127.246094"/>
       <use xlink:href="#DejaVuSans-30" x="190.869141"/>
       <use xlink:href="#DejaVuSans-30" x="254.492188"/>
      </g>
     </g>
    </g>
    <g id="xtick_4">
     <g id="line2d_4">
      <path d="M 392.661057 159.2175 
L 392.661057 25.3575 
" clip-path="url(#pa418bdad6a)" style="fill: none; stroke: #cccccc; stroke-linecap: round"/>
     </g>
     <g id="text_4">
      <!-- 15000 -->
      <g style="fill: #262626" transform="translate(375.164182 177.075781) scale(0.11 -0.11)">
       <use xlink:href="#DejaVuSans-31"/>
       <use xlink:href="#DejaVuSans-35" x="63.623047"/>
       <use xlink:href="#DejaVuSans-30" x="127.246094"/>
       <use xlink:href="#DejaVuSans-30" x="190.869141"/>
       <use xlink:href="#DejaVuSans-30" x="254.492188"/>
      </g>
     </g>
    </g>
    <g id="xtick_5">
     <g id="line2d_5">
      <path d="M 486.045988 159.2175 
L 486.045988 25.3575 
" clip-path="url(#pa418bdad6a)" style="fill: none; stroke: #cccccc; stroke-linecap: round"/>
     </g>
     <g id="text_5">
      <!-- 20000 -->
      <g style="fill: #262626" transform="translate(468.549113 177.075781) scale(0.11 -0.11)">
       <defs>
        <path id="DejaVuSans-32" d="M 1228 531 
L 3431 531 
L 3431 0 
L 469 0 
L 469 531 
Q 828 903 1448 1529 
Q 2069 2156 2228 2338 
Q 2531 2678 2651 2914 
Q 2772 3150 2772 3378 
Q 2772 3750 2511 3984 
Q 2250 4219 1831 4219 
Q 1534 4219 1204 4116 
Q 875 4013 500 3803 
L 500 4441 
Q 881 4594 1212 4672 
Q 1544 4750 1819 4750 
Q 2544 4750 2975 4387 
Q 3406 4025 3406 3419 
Q 3406 3131 3298 2873 
Q 3191 2616 2906 2266 
Q 2828 2175 2409 1742 
Q 1991 1309 1228 531 
z
" transform="scale(0.015625)"/>
       </defs>
       <use xlink:href="#DejaVuSans-32"/>
       <use xlink:href="#DejaVuSans-30" x="63.623047"/>
       <use xlink:href="#DejaVuSans-30" x="127.246094"/>
       <use xlink:href="#DejaVuSans-30" x="190.869141"/>
       <use xlink:href="#DejaVuSans-30" x="254.492188"/>
      </g>
     </g>
    </g>
    <g id="xtick_6">
     <g id="line2d_6">
      <path d="M 579.430919 159.2175 
L 579.430919 25.3575 
" clip-path="url(#pa418bdad6a)" style="fill: none; stroke: #cccccc; stroke-linecap: round"/>
     </g>
     <g id="text_6">
      <!-- 25000 -->
      <g style="fill: #262626" transform="translate(561.934044 177.075781) scale(0.11 -0.11)">
       <use xlink:href="#DejaVuSans-32"/>
       <use xlink:href="#DejaVuSans-35" x="63.623047"/>
       <use xlink:href="#DejaVuSans-30" x="127.246094"/>
       <use xlink:href="#DejaVuSans-30" x="190.869141"/>
       <use xlink:href="#DejaVuSans-30" x="254.492188"/>
      </g>
     </g>
    </g>
    <g id="xtick_7">
     <g id="line2d_7">
      <path d="M 672.81585 159.2175 
L 672.81585 25.3575 
" clip-path="url(#pa418bdad6a)" style="fill: none; stroke: #cccccc; stroke-linecap: round"/>
     </g>
     <g id="text_7">
      <!-- 30000 -->
      <g style="fill: #262626" transform="translate(655.318975 177.075781) scale(0.11 -0.11)">
       <defs>
        <path id="DejaVuSans-33" d="M 2597 2516 
Q 3050 2419 3304 2112 
Q 3559 1806 3559 1356 
Q 3559 666 3084 287 
Q 2609 -91 1734 -91 
Q 1441 -91 1130 -33 
Q 819 25 488 141 
L 488 750 
Q 750 597 1062 519 
Q 1375 441 1716 441 
Q 2309 441 2620 675 
Q 2931 909 2931 1356 
Q 2931 1769 2642 2001 
Q 2353 2234 1838 2234 
L 1294 2234 
L 1294 2753 
L 1863 2753 
Q 2328 2753 2575 2939 
Q 2822 3125 2822 3475 
Q 2822 3834 2567 4026 
Q 2313 4219 1838 4219 
Q 1578 4219 1281 4162 
Q 984 4106 628 3988 
L 628 4550 
Q 988 4650 1302 4700 
Q 1616 4750 1894 4750 
Q 2613 4750 3031 4423 
Q 3450 4097 3450 3541 
Q 3450 3153 3228 2886 
Q 3006 2619 2597 2516 
z
" transform="scale(0.015625)"/>
       </defs>
       <use xlink:href="#DejaVuSans-33"/>
       <use xlink:href="#DejaVuSans-30" x="63.623047"/>
       <use xlink:href="#DejaVuSans-30" x="127.246094"/>
       <use xlink:href="#DejaVuSans-30" x="190.869141"/>
       <use xlink:href="#DejaVuSans-30" x="254.492188"/>
      </g>
     </g>
    </g>
    <g id="text_8">
     <!-- Iteration -->
     <g style="fill: #262626" transform="translate(365.080547 193.241406) scale(0.13 -0.13)">
      <defs>
       <path id="DejaVuSans-49" d="M 628 4666 
L 1259 4666 
L 1259 0 
L 628 0 
L 628 4666 
z
" transform="scale(0.015625)"/>
       <path id="DejaVuSans-74" d="M 1172 4494 
L 1172 3500 
L 2356 3500 
L 2356 3053 
L 1172 3053 
L 1172 1153 
Q 1172 725 1289 603 
Q 1406 481 1766 481 
L 2356 481 
L 2356 0 
L 1766 0 
Q 1100 0 847 248 
Q 594 497 594 1153 
L 594 3053 
L 172 3053 
L 172 3500 
L 594 3500 
L 594 4494 
L 1172 4494 
z
" transform="scale(0.015625)"/>
       <path id="DejaVuSans-65" d="M 3597 1894 
L 3597 1613 
L 953 1613 
Q 991 1019 1311 708 
Q 1631 397 2203 397 
Q 2534 397 2845 478 
Q 3156 559 3463 722 
L 3463 178 
Q 3153 47 2828 -22 
Q 2503 -91 2169 -91 
Q 1331 -91 842 396 
Q 353 884 353 1716 
Q 353 2575 817 3079 
Q 1281 3584 2069 3584 
Q 2775 3584 3186 3129 
Q 3597 2675 3597 1894 
z
M 3022 2063 
Q 3016 2534 2758 2815 
Q 2500 3097 2075 3097 
Q 1594 3097 1305 2825 
Q 1016 2553 972 2059 
L 3022 2063 
z
" transform="scale(0.015625)"/>
       <path id="DejaVuSans-72" d="M 2631 2963 
Q 2534 3019 2420 3045 
Q 2306 3072 2169 3072 
Q 1681 3072 1420 2755 
Q 1159 2438 1159 1844 
L 1159 0 
L 581 0 
L 581 3500 
L 1159 3500 
L 1159 2956 
Q 1341 3275 1631 3429 
Q 1922 3584 2338 3584 
Q 2397 3584 2469 3576 
Q 2541 3569 2628 3553 
L 2631 2963 
z
" transform="scale(0.015625)"/>
       <path id="DejaVuSans-61" d="M 2194 1759 
Q 1497 1759 1228 1600 
Q 959 1441 959 1056 
Q 959 750 1161 570 
Q 1363 391 1709 391 
Q 2188 391 2477 730 
Q 2766 1069 2766 1631 
L 2766 1759 
L 2194 1759 
z
M 3341 1997 
L 3341 0 
L 2766 0 
L 2766 531 
Q 2569 213 2275 61 
Q 1981 -91 1556 -91 
Q 1019 -91 701 211 
Q 384 513 384 1019 
Q 384 1609 779 1909 
Q 1175 2209 1959 2209 
L 2766 2209 
L 2766 2266 
Q 2766 2663 2505 2880 
Q 2244 3097 1772 3097 
Q 1472 3097 1187 3025 
Q 903 2953 641 2809 
L 641 3341 
Q 956 3463 1253 3523 
Q 1550 3584 1831 3584 
Q 2591 3584 2966 3190 
Q 3341 2797 3341 1997 
z
" transform="scale(0.015625)"/>
       <path id="DejaVuSans-69" d="M 603 3500 
L 1178 3500 
L 1178 0 
L 603 0 
L 603 3500 
z
M 603 4863 
L 1178 4863 
L 1178 4134 
L 603 4134 
L 603 4863 
z
" transform="scale(0.015625)"/>
       <path id="DejaVuSans-6f" d="M 1959 3097 
Q 1497 3097 1228 2736 
Q 959 2375 959 1747 
Q 959 1119 1226 758 
Q 1494 397 1959 397 
Q 2419 397 2687 759 
Q 2956 1122 2956 1747 
Q 2956 2369 2687 2733 
Q 2419 3097 1959 3097 
z
M 1959 3584 
Q 2709 3584 3137 3096 
Q 3566 2609 3566 1747 
Q 3566 888 3137 398 
Q 2709 -91 1959 -91 
Q 1206 -91 779 398 
Q 353 888 353 1747 
Q 353 2609 779 3096 
Q 1206 3584 1959 3584 
z
" transform="scale(0.015625)"/>
       <path id="DejaVuSans-6e" d="M 3513 2113 
L 3513 0 
L 2938 0 
L 2938 2094 
Q 2938 2591 2744 2837 
Q 2550 3084 2163 3084 
Q 1697 3084 1428 2787 
Q 1159 2491 1159 1978 
L 1159 0 
L 581 0 
L 581 3500 
L 1159 3500 
L 1159 2956 
Q 1366 3272 1645 3428 
Q 1925 3584 2291 3584 
Q 2894 3584 3203 3211 
Q 3513 2838 3513 2113 
z
" transform="scale(0.015625)"/>
      </defs>
      <use xlink:href="#DejaVuSans-49"/>
      <use xlink:href="#DejaVuSans-74" x="29.492188"/>
      <use xlink:href="#DejaVuSans-65" x="68.701172"/>
      <use xlink:href="#DejaVuSans-72" x="130.224609"/>
      <use xlink:href="#DejaVuSans-61" x="171.337891"/>
      <use xlink:href="#DejaVuSans-74" x="232.617188"/>
      <use xlink:href="#DejaVuSans-69" x="271.826172"/>
      <use xlink:href="#DejaVuSans-6f" x="299.609375"/>
      <use xlink:href="#DejaVuSans-6e" x="360.791016"/>
     </g>
    </g>
   </g>
   <g id="matplotlib.axis_2">
    <g id="ytick_1">
     <g id="line2d_8">
      <path d="M 84.491719 139.212481 
L 700.811719 139.212481 
" clip-path="url(#pa418bdad6a)" style="fill: none; stroke: #cccccc; stroke-linecap: round"/>
     </g>
     <g id="text_9">
      <!-- −400000 -->
      <g style="fill: #262626" transform="translate(23.781563 143.391622) scale(0.11 -0.11)">
       <defs>
        <path id="DejaVuSans-2212" d="M 678 2272 
L 4684 2272 
L 4684 1741 
L 678 1741 
L 678 2272 
z
" transform="scale(0.015625)"/>
        <path id="DejaVuSans-34" d="M 2419 4116 
L 825 1625 
L 2419 1625 
L 2419 4116 
z
M 2253 4666 
L 3047 4666 
L 3047 1625 
L 3713 1625 
L 3713 1100 
L 3047 1100 
L 3047 0 
L 2419 0 
L 2419 1100 
L 313 1100 
L 313 1709 
L 2253 4666 
z
" transform="scale(0.015625)"/>
       </defs>
       <use xlink:href="#DejaVuSans-2212"/>
       <use xlink:href="#DejaVuSans-34" x="83.789062"/>
       <use xlink:href="#DejaVuSans-30" x="147.412109"/>
       <use xlink:href="#DejaVuSans-30" x="211.035156"/>
       <use xlink:href="#DejaVuSans-30" x="274.658203"/>
       <use xlink:href="#DejaVuSans-30" x="338.28125"/>
       <use xlink:href="#DejaVuSans-30" x="401.904297"/>
      </g>
     </g>
    </g>
    <g id="ytick_2">
     <g id="line2d_9">
      <path d="M 84.491719 106.709441 
L 700.811719 106.709441 
" clip-path="url(#pa418bdad6a)" style="fill: none; stroke: #cccccc; stroke-linecap: round"/>
     </g>
     <g id="text_10">
      <!-- −300000 -->
      <g style="fill: #262626" transform="translate(23.781563 110.888581) scale(0.11 -0.11)">
       <use xlink:href="#DejaVuSans-2212"/>
       <use xlink:href="#DejaVuSans-33" x="83.789062"/>
       <use xlink:href="#DejaVuSans-30" x="147.412109"/>
       <use xlink:href="#DejaVuSans-30" x="211.035156"/>
       <use xlink:href="#DejaVuSans-30" x="274.658203"/>
       <use xlink:href="#DejaVuSans-30" x="338.28125"/>
       <use xlink:href="#DejaVuSans-30" x="401.904297"/>
      </g>
     </g>
    </g>
    <g id="ytick_3">
     <g id="line2d_10">
      <path d="M 84.491719 74.2064 
L 700.811719 74.2064 
" clip-path="url(#pa418bdad6a)" style="fill: none; stroke: #cccccc; stroke-linecap: round"/>
     </g>
     <g id="text_11">
      <!-- −200000 -->
      <g style="fill: #262626" transform="translate(23.781563 78.385541) scale(0.11 -0.11)">
       <use xlink:href="#DejaVuSans-2212"/>
       <use xlink:href="#DejaVuSans-32" x="83.789062"/>
       <use xlink:href="#DejaVuSans-30" x="147.412109"/>
       <use xlink:href="#DejaVuSans-30" x="211.035156"/>
       <use xlink:href="#DejaVuSans-30" x="274.658203"/>
       <use xlink:href="#DejaVuSans-30" x="338.28125"/>
       <use xlink:href="#DejaVuSans-30" x="401.904297"/>
      </g>
     </g>
    </g>
    <g id="ytick_4">
     <g id="line2d_11">
      <path d="M 84.491719 41.70336 
L 700.811719 41.70336 
" clip-path="url(#pa418bdad6a)" style="fill: none; stroke: #cccccc; stroke-linecap: round"/>
     </g>
     <g id="text_12">
      <!-- −100000 -->
      <g style="fill: #262626" transform="translate(23.781563 45.8825) scale(0.11 -0.11)">
       <use xlink:href="#DejaVuSans-2212"/>
       <use xlink:href="#DejaVuSans-31" x="83.789062"/>
       <use xlink:href="#DejaVuSans-30" x="147.412109"/>
       <use xlink:href="#DejaVuSans-30" x="211.035156"/>
       <use xlink:href="#DejaVuSans-30" x="274.658203"/>
       <use xlink:href="#DejaVuSans-30" x="338.28125"/>
       <use xlink:href="#DejaVuSans-30" x="401.904297"/>
      </g>
     </g>
    </g>
    <g id="text_13">
     <!-- ELBO -->
     <g style="fill: #262626" transform="translate(17.077969 109.478984) rotate(-90) scale(0.13 -0.13)">
      <defs>
       <path id="DejaVuSans-45" d="M 628 4666 
L 3578 4666 
L 3578 4134 
L 1259 4134 
L 1259 2753 
L 3481 2753 
L 3481 2222 
L 1259 2222 
L 1259 531 
L 3634 531 
L 3634 0 
L 628 0 
L 628 4666 
z
" transform="scale(0.015625)"/>
       <path id="DejaVuSans-4c" d="M 628 4666 
L 1259 4666 
L 1259 531 
L 3531 531 
L 3531 0 
L 628 0 
L 628 4666 
z
" transform="scale(0.015625)"/>
       <path id="DejaVuSans-42" d="M 1259 2228 
L 1259 519 
L 2272 519 
Q 2781 519 3026 730 
Q 3272 941 3272 1375 
Q 3272 1813 3026 2020 
Q 2781 2228 2272 2228 
L 1259 2228 
z
M 1259 4147 
L 1259 2741 
L 2194 2741 
Q 2656 2741 2882 2914 
Q 3109 3088 3109 3444 
Q 3109 3797 2882 3972 
Q 2656 4147 2194 4147 
L 1259 4147 
z
M 628 4666 
L 2241 4666 
Q 2963 4666 3353 4366 
Q 3744 4066 3744 3513 
Q 3744 3084 3544 2831 
Q 3344 2578 2956 2516 
Q 3422 2416 3680 2098 
Q 3938 1781 3938 1306 
Q 3938 681 3513 340 
Q 3088 0 2303 0 
L 628 0 
L 628 4666 
z
" transform="scale(0.015625)"/>
       <path id="DejaVuSans-4f" d="M 2522 4238 
Q 1834 4238 1429 3725 
Q 1025 3213 1025 2328 
Q 1025 1447 1429 934 
Q 1834 422 2522 422 
Q 3209 422 3611 934 
Q 4013 1447 4013 2328 
Q 4013 3213 3611 3725 
Q 3209 4238 2522 4238 
z
M 2522 4750 
Q 3503 4750 4090 4092 
Q 4678 3434 4678 2328 
Q 4678 1225 4090 567 
Q 3503 -91 2522 -91 
Q 1538 -91 948 565 
Q 359 1222 359 2328 
Q 359 3434 948 4092 
Q 1538 4750 2522 4750 
z
" transform="scale(0.015625)"/>
      </defs>
      <use xlink:href="#DejaVuSans-45"/>
      <use xlink:href="#DejaVuSans-4c" x="63.183594"/>
      <use xlink:href="#DejaVuSans-42" x="118.896484"/>
      <use xlink:href="#DejaVuSans-4f" x="185.75"/>
     </g>
    </g>
   </g>
   <g id="PolyCollection_1"/>
   <g id="line2d_12">
    <path d="M 112.506264 151.93859 
L 112.562295 153.132955 
L 112.599649 151.540912 
L 112.637003 150.488331 
L 112.935835 141.220359 
L 113.458791 126.543767 
L 114.131162 95.964862 
L 115.00898 67.354033 
L 115.643998 53.885845 
L 116.204307 47.019703 
L 116.633878 44.680667 
L 117.194188 43.604826 
L 117.380958 43.402632 
L 117.717143 42.937182 
L 118.744378 41.892673 
L 121.471218 40.220202 
L 122.498452 39.802886 
L 122.75993 39.700739 
L 126.009725 38.744092 
L 126.215172 38.689659 
L 126.738128 38.561882 
L 126.924898 38.531085 
L 127.09299 38.495141 
L 127.858747 38.329588 
L 128.045517 38.305296 
L 128.232287 38.259312 
L 128.867304 38.149313 
L 129.091428 38.08456 
L 129.296875 38.044521 
L 129.81983 37.9404 
L 129.987923 37.939011 
L 130.19337 37.885718 
L 130.847065 37.780762 
L 131.033835 37.742402 
L 131.74356 37.618374 
L 131.93033 37.610087 
L 132.229162 37.565581 
L 132.434608 37.509981 
L 133.144334 37.407303 
L 133.331104 37.403449 
L 133.629936 37.370093 
L 133.854059 37.314706 
L 134.078183 37.274414 
L 134.769232 37.210766 
L 134.956002 37.178671 
L 135.591019 37.101829 
L 135.796466 37.052514 
L 136.468838 36.953494 
L 136.954439 36.91986 
L 137.850934 36.800028 
L 138.037704 36.773867 
L 138.691399 36.710474 
L 138.859492 36.686986 
L 139.73731 36.586103 
L 139.998788 36.550855 
L 140.988668 36.442777 
L 141.175438 36.440886 
L 141.399562 36.406681 
L 142.109287 36.322254 
L 142.27738 36.324528 
L 143.192553 36.225312 
L 144.257141 36.141387 
L 144.57465 36.101585 
L 144.742742 36.082035 
L 145.900716 35.992924 
L 146.143516 35.970335 
L 147.040012 35.888163 
L 147.992538 35.788653 
L 148.160631 35.800209 
L 149.393312 35.684346 
L 149.561405 35.689508 
L 150.233776 35.61005 
L 150.401869 35.621139 
L 151.914705 35.493 
L 152.101475 35.502029 
L 152.362953 35.481332 
L 153.315479 35.382757 
L 153.483572 35.390092 
L 154.155943 35.319706 
L 154.324036 35.33224 
L 156.397182 35.161805 
L 156.565275 35.173688 
L 157.741925 35.082208 
L 157.910018 35.068722 
L 159.067991 35.002145 
L 159.404177 34.998192 
L 159.609623 34.96304 
L 160.039194 34.931235 
L 160.207287 34.940907 
L 160.823628 34.884887 
L 160.99172 34.870036 
L 162.747357 34.776617 
L 163.046189 34.769076 
L 163.251636 34.732916 
L 163.90533 34.706926 
L 164.073423 34.693537 
L 165.548905 34.621976 
L 165.810383 34.604099 
L 167.043064 34.528173 
L 167.211157 34.537776 
L 168.443838 34.452136 
L 168.611931 34.464999 
L 170.404921 34.337027 
L 170.573014 34.352051 
L 172.08585 34.264795 
L 172.253943 34.280857 
L 192.72392 33.409625 
L 192.948044 33.3898 
L 193.377614 33.354521 
L 193.545707 33.373713 
L 200.848409 33.136962 
L 201.109887 33.128706 
L 202.622723 33.052822 
L 202.772139 33.064304 
L 203.108324 33.073981 
L 203.295094 33.045233 
L 210.373672 32.853877 
L 210.597796 32.835225 
L 211.027366 32.811637 
L 211.176782 32.825413 
L 211.512968 32.831026 
L 211.699738 32.798841 
L 213.54876 32.734478 
L 213.698175 32.750205 
L 214.034361 32.759873 
L 214.221131 32.728495 
L 220.17909 32.593072 
L 220.384537 32.579604 
L 221.953403 32.526167 
L 222.102819 32.541268 
L 222.401651 32.537235 
L 225.221876 32.480649 
L 225.427323 32.466553 
L 226.716035 32.41911 
L 226.865451 32.436157 
L 227.164283 32.437522 
L 228.303579 32.411284 
L 228.490349 32.389129 
L 228.957273 32.368827 
L 229.106689 32.384567 
L 229.442875 32.391436 
L 229.610968 32.364219 
L 230.040538 32.35026 
L 230.862326 32.348747 
L 231.011742 32.335261 
L 231.422635 32.339929 
L 231.572051 32.326457 
L 231.982945 32.331895 
L 232.132361 32.321012 
L 232.561932 32.304462 
L 233.43975 32.287353 
L 233.589166 32.301771 
L 233.925352 32.31263 
L 234.112121 32.282092 
L 235.400833 32.242062 
L 235.531572 32.25348 
L 235.849081 32.261425 
L 283.494073 31.708098 
L 283.643489 31.698548 
L 283.88629 31.664283 
L 284.073059 31.720915 
L 284.241152 31.687797 
L 284.652046 31.695256 
L 284.801462 31.682884 
L 285.212356 31.691618 
L 285.361772 31.681302 
L 285.772665 31.689339 
L 285.922081 31.677445 
L 286.314298 31.705418 
L 286.482391 31.674652 
L 286.893284 31.683949 
L 287.0427 31.671907 
L 287.453594 31.67757 
L 287.60301 31.664187 
L 288.013904 31.672938 
L 288.163319 31.660828 
L 288.555536 31.697139 
L 288.723629 31.667593 
L 289.134523 31.678042 
L 289.283939 31.667371 
L 289.694832 31.672504 
L 289.844248 31.662235 
L 290.236465 31.689715 
L 290.404558 31.658545 
L 290.815451 31.664805 
L 290.964867 31.655209 
L 291.375761 31.662358 
L 291.525177 31.651307 
L 291.936071 31.655617 
L 292.085487 31.645088 
L 292.477703 31.67386 
L 292.645796 31.641847 
L 293.038013 31.674076 
L 293.206106 31.643568 
L 293.616999 31.650943 
L 293.766415 31.639363 
L 294.177309 31.647397 
L 294.326725 31.635215 
L 294.737619 31.643079 
L 294.887034 31.631832 
L 295.297928 31.64197 
L 295.447344 31.631522 
L 295.839561 31.662228 
L 296.007654 31.628699 
L 296.418547 31.632581 
L 296.567963 31.621514 
L 296.978857 31.632775 
L 297.128273 31.620748 
L 297.539167 31.630508 
L 297.688582 31.619882 
L 298.080799 31.652676 
L 298.248892 31.620998 
L 298.659786 31.626289 
L 298.809202 31.615767 
L 299.220095 31.625646 
L 299.369511 31.614229 
L 299.780405 31.620606 
L 299.929821 31.612373 
L 300.322037 31.642932 
L 300.49013 31.608983 
L 300.901024 31.616627 
L 301.05044 31.604742 
L 301.461334 31.617027 
L 301.61075 31.605118 
L 302.002966 31.636191 
L 302.171059 31.602947 
L 302.581953 31.610091 
L 302.731369 31.598605 
L 303.123585 31.630114 
L 303.291678 31.597695 
L 303.702572 31.60779 
L 303.851988 31.597549 
L 304.262882 31.604224 
L 304.412297 31.594757 
L 304.823191 31.605629 
L 304.972607 31.59435 
L 305.364824 31.624159 
L 305.532917 31.589177 
L 305.94381 31.591687 
L 306.093226 31.579704 
L 306.50412 31.59434 
L 306.653536 31.58707 
L 307.064429 31.599707 
L 307.213845 31.588943 
L 307.606062 31.621952 
L 307.774155 31.586691 
L 308.166372 31.615528 
L 308.334465 31.580398 
L 308.745358 31.592517 
L 308.894774 31.584348 
L 309.305668 31.596772 
L 309.455084 31.585238 
L 309.865977 31.596377 
L 310.015393 31.584596 
L 310.426287 31.594961 
L 310.575703 31.583101 
L 310.986597 31.588128 
L 311.136012 31.574458 
L 311.528229 31.607238 
L 311.696322 31.575411 
L 312.107216 31.587539 
L 312.256632 31.577077 
L 312.667525 31.58428 
L 312.816941 31.571885 
L 313.227835 31.585196 
L 313.358574 31.572069 
L 313.844175 31.567548 
L 313.974914 31.583422 
L 314.329777 31.603836 
L 314.49787 31.573042 
L 314.890087 31.600575 
L 315.05818 31.56641 
L 315.469073 31.575834 
L 315.618489 31.563689 
L 316.010706 31.598929 
L 316.178799 31.564667 
L 316.571015 31.595349 
L 316.739108 31.561446 
L 317.131325 31.591015 
L 317.299418 31.558203 
L 317.691635 31.59093 
L 317.859728 31.558922 
L 318.251944 31.591304 
L 318.420037 31.55962 
L 318.830931 31.572288 
L 318.980347 31.56094 
L 319.372563 31.591577 
L 319.540656 31.555902 
L 319.932873 31.588168 
L 320.100966 31.557293 
L 320.51186 31.569017 
L 320.661275 31.555143 
L 321.072169 31.565824 
L 321.221585 31.552612 
L 321.632479 31.565695 
L 321.763218 31.548731 
L 322.472943 31.560414 
L 322.603682 31.545156 
L 323.089284 31.540686 
L 323.220023 31.55758 
L 323.574885 31.582102 
L 323.742978 31.549986 
L 324.135195 31.579369 
L 324.303288 31.544848 
L 324.695504 31.57605 
L 324.863597 31.543411 
L 325.274491 31.55353 
L 325.40523 31.54136 
L 325.890832 31.537233 
L 326.02157 31.553815 
L 326.376433 31.577395 
L 326.544526 31.544925 
L 326.936743 31.575423 
L 327.104836 31.540156 
L 327.515729 31.553506 
L 327.646468 31.541188 
L 328.13207 31.536044 
L 328.262809 31.551996 
L 328.617672 31.572245 
L 328.785764 31.539497 
L 329.177981 31.570737 
L 329.346074 31.539896 
L 329.756968 31.552018 
L 329.906384 31.540157 
L 330.2986 31.573718 
L 330.466693 31.540446 
L 330.877587 31.552368 
L 331.027003 31.539944 
L 331.437896 31.54782 
L 331.568635 31.533478 
L 332.278361 31.547015 
L 332.427777 31.533599 
L 332.83867 31.545485 
L 332.988086 31.534897 
L 333.39898 31.549108 
L 333.548396 31.536573 
L 333.940613 31.56555 
L 334.108705 31.529902 
L 334.500922 31.56753 
L 334.669015 31.535651 
L 335.079909 31.549951 
L 335.229325 31.535043 
L 335.640218 31.543269 
L 335.770957 31.527009 
L 336.256559 31.524226 
L 336.387298 31.539937 
L 336.742161 31.567164 
L 336.910253 31.532341 
L 337.321147 31.544152 
L 337.470563 31.531992 
L 337.881457 31.541356 
L 338.012196 31.526928 
L 338.497797 31.523505 
L 338.628536 31.539913 
L 338.983399 31.5639 
L 339.151492 31.530685 
L 339.543708 31.563789 
L 339.711801 31.53108 
L 340.122695 31.537881 
L 340.253434 31.523546 
L 340.739036 31.517408 
L 340.869775 31.53479 
L 341.224637 31.561588 
L 341.39273 31.52691 
L 341.784947 31.560736 
L 341.95304 31.527869 
L 342.345256 31.564266 
L 342.513349 31.529714 
L 342.924243 31.538794 
L 343.073659 31.526186 
L 343.465876 31.560064 
L 343.633968 31.527633 
L 344.044862 31.538707 
L 344.194278 31.528166 
L 344.586495 31.559768 
L 344.754588 31.527522 
L 345.146804 31.55819 
L 345.314897 31.523485 
L 345.707114 31.556425 
L 345.85653 31.519037 
L 346.342131 31.5112 
L 346.47287 31.52991 
L 346.827733 31.554991 
L 346.995826 31.519695 
L 347.40672 31.53132 
L 347.556136 31.519112 
L 347.948352 31.556354 
L 348.097768 31.519827 
L 348.58337 31.511561 
L 348.714109 31.530851 
L 349.031617 31.544554 
L 349.890759 31.541697 
L 350.040175 31.528899 
L 350.282976 31.491067 
L 350.469745 31.551309 
L 350.637838 31.520327 
L 351.030055 31.556712 
L 351.198148 31.523868 
L 351.609042 31.531083 
L 351.73978 31.515939 
L 352.449506 31.532364 
L 352.580245 31.518598 
L 353.065846 31.51265 
L 353.196585 31.528918 
L 353.495417 31.536363 
L 353.831603 31.55555 
L 353.999696 31.516884 
L 354.41059 31.524991 
L 354.541328 31.509796 
L 355.02693 31.506276 
L 355.157669 31.524061 
L 355.475178 31.53904 
L 356.57712 31.538187 
L 356.913306 31.556744 
L 357.081399 31.520461 
L 357.492292 31.528983 
L 357.623031 31.512696 
L 358.108633 31.507118 
L 358.239372 31.525898 
L 358.55688 31.537122 
L 359.359991 31.51818 
L 359.6775 31.534605 
L 360.499287 31.532646 
L 360.835473 31.550199 
L 361.003566 31.515432 
L 361.395782 31.549908 
L 361.563875 31.514478 
L 361.956092 31.550578 
L 362.124185 31.515499 
L 362.516402 31.550821 
L 362.684494 31.516924 
L 363.095388 31.526341 
L 363.226127 31.510353 
L 363.711729 31.498936 
L 363.842468 31.516135 
L 364.159976 31.529821 
L 365.019118 31.534253 
L 365.168534 31.522745 
L 365.411334 31.48883 
L 365.598104 31.55113 
L 365.766197 31.514343 
L 366.177091 31.525913 
L 366.30783 31.510264 
L 366.793431 31.507327 
L 366.92417 31.524851 
L 367.279033 31.546391 
L 367.447126 31.508595 
L 367.839343 31.542517 
L 367.988758 31.507006 
L 368.47436 31.503083 
L 368.605099 31.520893 
L 368.922608 31.534846 
L 370.005873 31.517614 
L 370.323382 31.535669 
L 371.742833 31.530557 
L 371.892249 31.51803 
L 372.135049 31.479325 
L 372.321819 31.544079 
L 372.489912 31.5095 
L 372.882129 31.544302 
L 373.050222 31.507718 
L 373.442438 31.540148 
L 373.610531 31.504054 
L 374.002748 31.541705 
L 374.170841 31.50865 
L 374.563058 31.543906 
L 374.73115 31.510615 
L 375.123367 31.546612 
L 375.29146 31.510476 
L 375.683677 31.542925 
L 375.85177 31.507242 
L 376.243986 31.54371 
L 376.412079 31.50986 
L 376.822973 31.523926 
L 376.953712 31.509444 
L 377.663437 31.516617 
L 377.794176 31.500765 
L 378.223747 31.512252 
L 378.354486 31.498534 
L 378.784056 31.514487 
L 378.914795 31.500794 
L 379.400397 31.497182 
L 379.531136 31.515491 
L 379.885999 31.542596 
L 380.054092 31.506368 
L 380.446308 31.542474 
L 380.614401 31.507158 
L 381.006618 31.540149 
L 381.156034 31.500127 
L 381.641635 31.496096 
L 381.772374 31.51518 
L 382.089883 31.526928 
L 383.229179 31.527493 
L 383.378595 31.514374 
L 383.621396 31.478887 
L 383.808166 31.543297 
L 383.976259 31.508309 
L 384.387152 31.519351 
L 384.517891 31.501299 
L 385.003493 31.495649 
L 385.134232 31.513924 
L 385.451741 31.530159 
L 386.310882 31.522055 
L 386.460298 31.508755 
L 386.703099 31.47252 
L 386.889869 31.534395 
L 387.057961 31.499946 
L 387.450178 31.541526 
L 387.618271 31.507066 
L 388.029165 31.519734 
L 388.178581 31.504953 
L 388.589474 31.516235 
L 388.720213 31.49966 
L 389.205815 31.498744 
L 389.336554 31.516849 
L 389.654062 31.528897 
L 390.47585 31.523115 
L 390.812036 31.543359 
L 390.980128 31.508481 
L 391.372345 31.544393 
L 391.540438 31.505182 
L 391.951332 31.518206 
L 392.082071 31.502291 
L 392.567672 31.495614 
L 392.698411 31.512794 
L 393.01592 31.524898 
L 394.155216 31.52748 
L 394.304632 31.514997 
L 394.547433 31.478013 
L 394.734203 31.543381 
L 394.902296 31.505337 
L 395.313189 31.516746 
L 395.443928 31.501991 
L 395.92953 31.499874 
L 396.060269 31.517337 
L 396.415131 31.543171 
L 396.564547 31.503661 
L 397.050149 31.496871 
L 397.180888 31.512307 
L 397.442366 31.506943 
L 398.114737 31.514399 
L 398.245476 31.50003 
L 398.731078 31.495452 
L 398.861817 31.512143 
L 399.216679 31.536133 
L 399.366095 31.498621 
L 399.83302 31.495871 
L 400.878931 31.524299 
L 401.028347 31.512442 
L 401.271148 31.473772 
L 401.457918 31.537968 
L 401.626011 31.502451 
L 402.036904 31.51292 
L 402.167643 31.497831 
L 402.653245 31.489423 
L 402.783984 31.507449 
L 403.045462 31.503728 
L 403.717833 31.512979 
L 403.848572 31.497041 
L 404.334174 31.494172 
L 404.464913 31.511016 
L 404.782421 31.523836 
L 407.042337 31.523008 
L 407.191753 31.511948 
L 407.434553 31.472767 
L 407.621323 31.539116 
L 407.789416 31.502123 
L 408.20031 31.511668 
L 408.331049 31.49813 
L 408.81665 31.495466 
L 408.947389 31.515967 
L 409.264898 31.528647 
L 410.124039 31.520662 
L 410.273455 31.507352 
L 410.516256 31.471009 
L 410.703026 31.535129 
L 410.871119 31.499089 
L 411.282012 31.510436 
L 411.412751 31.494759 
L 411.898353 31.490562 
L 412.029092 31.509378 
L 412.346601 31.520997 
L 413.448543 31.517824 
L 413.803406 31.513311 
L 413.934145 31.497244 
L 414.419746 31.490967 
L 414.550485 31.508701 
L 414.793286 31.498195 
L 415.185503 31.532552 
L 415.353595 31.49917 
L 415.745812 31.535036 
L 415.913905 31.499926 
L 416.306122 31.537316 
L 416.455538 31.50012 
L 416.941139 31.493617 
L 417.071878 31.513078 
L 417.37071 31.515906 
L 417.725573 31.512251 
L 417.856312 31.496667 
L 418.341913 31.48493 
L 418.472652 31.50034 
L 418.790161 31.513434 
L 420.209612 31.520138 
L 420.359028 31.508898 
L 420.601829 31.47102 
L 420.788598 31.534849 
L 420.956691 31.500466 
L 421.348908 31.534883 
L 421.498324 31.496015 
L 421.983926 31.491052 
L 422.114664 31.508788 
L 422.376142 31.504291 
L 422.82439 31.489945 
L 422.936452 31.505973 
L 423.3847 31.492486 
L 423.515438 31.511375 
L 423.832947 31.522093 
L 424.934889 31.51506 
L 425.289752 31.50767 
L 425.420491 31.489697 
L 425.906093 31.489568 
L 426.036832 31.508616 
L 426.35434 31.523851 
L 427.456283 31.515404 
L 427.811145 31.511118 
L 427.941884 31.495121 
L 428.371455 31.513934 
L 428.502194 31.498427 
L 428.987795 31.488815 
L 429.118534 31.507038 
L 429.436043 31.518989 
L 430.239153 31.508439 
L 430.500631 31.50573 
L 430.948879 31.48836 
L 431.079618 31.505992 
L 431.397127 31.518252 
L 432.480392 31.508003 
L 432.797901 31.521471 
L 433.657042 31.519144 
L 433.806458 31.505585 
L 434.049259 31.470104 
L 434.236029 31.535169 
L 434.404121 31.498101 
L 434.796338 31.534935 
L 434.964431 31.497253 
L 435.356648 31.530527 
L 435.524741 31.493937 
L 435.916957 31.533366 
L 436.08505 31.493869 
L 436.477267 31.531797 
L 436.64536 31.494376 
L 437.037576 31.535414 
L 437.205669 31.499368 
L 437.616563 31.509107 
L 437.747302 31.493917 
L 438.176873 31.51206 
L 438.307612 31.496097 
L 438.793213 31.490519 
L 438.923952 31.507627 
L 439.278815 31.530947 
L 439.428231 31.491835 
L 439.913832 31.485105 
L 440.044571 31.500053 
L 440.306049 31.496519 
L 440.978421 31.505644 
L 441.109159 31.490889 
L 441.594761 31.486753 
L 441.7255 31.507272 
L 442.005655 31.504002 
L 442.323164 31.519248 
L 443.126274 31.505213 
L 443.481137 31.531985 
L 443.64923 31.495608 
L 444.041446 31.534221 
L 444.209539 31.498721 
L 444.601756 31.535757 
L 444.769849 31.49819 
L 445.162065 31.535012 
L 445.330158 31.499753 
L 445.722375 31.53351 
L 445.871791 31.493257 
L 446.357393 31.487554 
L 446.488131 31.503663 
L 446.80564 31.518052 
L 447.627428 31.512584 
L 447.98229 31.506434 
L 448.113029 31.490906 
L 448.598631 31.488138 
L 448.72937 31.505754 
L 449.009525 31.504942 
L 449.327033 31.518052 
L 450.746484 31.515646 
L 450.8959 31.503733 
L 451.138701 31.466077 
L 451.325471 31.531213 
L 451.493564 31.496222 
L 451.88578 31.530337 
L 452.053873 31.494351 
L 452.464767 31.504803 
L 452.595506 31.488359 
L 453.081108 31.484856 
L 453.211847 31.50319 
L 453.473324 31.501725 
L 453.921572 31.492008 
L 454.052311 31.5074 
L 454.36982 31.521223 
L 455.789271 31.519679 
L 455.938686 31.507826 
L 456.181487 31.469358 
L 456.368257 31.533971 
L 456.53635 31.497954 
L 456.928567 31.529768 
L 457.09666 31.493153 
L 457.488876 31.530026 
L 457.656969 31.494452 
L 458.067863 31.509274 
L 458.198602 31.493914 
L 458.684203 31.489086 
L 458.814942 31.506177 
L 459.169805 31.528387 
L 459.337898 31.493384 
L 459.730115 31.531274 
L 459.879531 31.495286 
L 460.365132 31.491884 
L 460.495871 31.508281 
L 460.757349 31.505413 
L 461.205597 31.488504 
L 461.336336 31.504818 
L 461.653844 31.517162 
L 462.475632 31.50829 
L 462.830494 31.500209 
L 462.961233 31.484337 
L 463.446835 31.481486 
L 463.558897 31.499279 
L 464.007145 31.491014 
L 464.137883 31.507351 
L 464.455392 31.518963 
L 465.557334 31.514647 
L 465.89352 31.531426 
L 466.061613 31.493305 
L 466.45383 31.528851 
L 466.621923 31.49334 
L 467.014139 31.525761 
L 467.182232 31.490055 
L 467.574449 31.524352 
L 467.742542 31.489286 
L 468.134758 31.527695 
L 468.302851 31.49102 
L 468.713745 31.505035 
L 468.844484 31.48747 
L 469.330086 31.482572 
L 469.460825 31.500191 
L 469.815687 31.530277 
L 469.965103 31.493022 
L 470.450705 31.490245 
L 470.581444 31.508753 
L 470.936306 31.53055 
L 471.104399 31.49531 
L 471.515293 31.504664 
L 471.664709 31.493363 
L 472.056926 31.529112 
L 472.225018 31.490972 
L 472.617235 31.528598 
L 472.785328 31.492383 
L 473.177545 31.528835 
L 473.345638 31.492508 
L 473.737854 31.52971 
L 473.905947 31.494467 
L 474.298164 31.531297 
L 474.466257 31.493255 
L 474.858474 31.531007 
L 475.026566 31.49473 
L 475.43746 31.504054 
L 475.568199 31.487807 
L 476.277924 31.506855 
L 476.408663 31.490838 
L 476.894265 31.48363 
L 477.025004 31.50103 
L 477.342513 31.515945 
L 478.481809 31.515632 
L 478.631225 31.501331 
L 478.874026 31.464992 
L 479.060795 31.531195 
L 479.228888 31.494041 
L 479.621105 31.531895 
L 479.789198 31.494149 
L 480.181415 31.528704 
L 480.33083 31.489569 
L 480.816432 31.486281 
L 480.947171 31.501591 
L 481.246003 31.509117 
L 481.600866 31.504114 
L 481.731604 31.486476 
L 482.217206 31.482102 
L 482.347945 31.501185 
L 482.702808 31.529857 
L 482.870901 31.491634 
L 483.263117 31.528973 
L 483.43121 31.492805 
L 483.823427 31.53128 
L 483.99152 31.493418 
L 484.383736 31.525355 
L 484.551829 31.486994 
L 484.962723 31.502382 
L 485.093462 31.487501 
L 485.560387 31.488199 
L 486.288789 31.506968 
L 486.643652 31.502978 
L 486.774391 31.487452 
L 487.259992 31.486368 
L 487.390731 31.506121 
L 487.670886 31.505178 
L 487.988395 31.517326 
L 488.847536 31.509277 
L 488.996952 31.495711 
L 489.239753 31.454519 
L 489.426523 31.520414 
L 489.594616 31.485262 
L 489.986832 31.523023 
L 490.136248 31.486423 
L 490.62185 31.485843 
L 490.752589 31.50442 
L 491.070098 31.516081 
L 492.17204 31.509239 
L 492.508225 31.528493 
L 492.657641 31.489092 
L 493.143243 31.483099 
L 493.273982 31.498193 
L 493.628845 31.526383 
L 493.796938 31.489106 
L 494.189154 31.528779 
L 494.357247 31.489658 
L 494.768141 31.505343 
L 494.89888 31.489094 
L 495.384481 31.486674 
L 495.51522 31.504105 
L 495.776698 31.500018 
L 496.224946 31.486619 
L 496.355685 31.505252 
L 496.617162 31.500379 
L 497.06541 31.483043 
L 497.196149 31.500072 
L 497.513658 31.513918 
L 499.493418 31.505774 
L 499.586803 31.474995 
L 499.717542 31.494611 
L 499.960343 31.485808 
L 500.35256 31.521955 
L 500.520653 31.486233 
L 500.912869 31.52106 
L 501.062285 31.482518 
L 501.547887 31.481683 
L 501.678626 31.49961 
L 502.033488 31.526643 
L 502.201581 31.491514 
L 502.593798 31.527452 
L 502.761891 31.491338 
L 503.154108 31.526667 
L 503.3222 31.490682 
L 503.714417 31.525737 
L 503.88251 31.488 
L 504.274727 31.525337 
L 504.424143 31.486526 
L 504.909744 31.483762 
L 505.021806 31.499493 
L 505.470054 31.483841 
L 505.600793 31.500756 
L 505.918302 31.513767 
L 506.777443 31.51144 
L 506.870828 31.480925 
L 507.001567 31.496542 
L 507.319076 31.507339 
L 508.402341 31.496261 
L 508.663819 31.492296 
L 509.33619 31.498195 
L 509.466929 31.48252 
L 509.952531 31.478919 
L 510.083269 31.499165 
L 510.400778 31.513583 
L 511.50272 31.505498 
L 511.857583 31.500233 
L 511.988322 31.484085 
L 512.473924 31.476821 
L 512.604663 31.494709 
L 512.903494 31.505029 
L 513.258357 31.50151 
L 513.389096 31.486862 
L 513.874698 31.481146 
L 514.005437 31.498801 
L 514.322945 31.510202 
L 515.424888 31.505404 
L 515.761073 31.523029 
L 515.929166 31.486973 
L 516.321383 31.523688 
L 516.489476 31.486552 
L 516.881692 31.525415 
L 517.049785 31.487903 
L 517.442002 31.52727 
L 517.610095 31.491932 
L 518.020989 31.505653 
L 518.151728 31.488295 
L 518.637329 31.479822 
L 518.768068 31.496131 
L 519.085577 31.510362 
L 519.944718 31.509675 
L 520.094134 31.49765 
L 520.336935 31.460794 
L 520.523705 31.528624 
L 520.691798 31.493542 
L 521.102691 31.50344 
L 521.23343 31.486673 
L 521.719032 31.481932 
L 521.849771 31.500074 
L 522.16728 31.51355 
L 523.026421 31.508512 
L 523.175837 31.495674 
L 523.418638 31.462282 
L 523.605408 31.528388 
L 523.7735 31.489953 
L 524.165717 31.524188 
L 524.33381 31.486563 
L 524.726027 31.523969 
L 524.89412 31.486416 
L 525.305013 31.500383 
L 525.435752 31.483295 
L 525.921354 31.483793 
L 526.052093 31.502 
L 526.369601 31.516249 
L 527.508898 31.51546 
L 527.602283 31.483468 
L 527.733021 31.49969 
L 528.05053 31.513276 
L 529.189826 31.507758 
L 529.339242 31.495007 
L 529.582043 31.458638 
L 529.768813 31.526189 
L 529.936906 31.490204 
L 530.3478 31.49733 
L 530.478538 31.479597 
L 530.96414 31.473563 
L 531.094879 31.492776 
L 531.356357 31.492423 
L 531.804604 31.482159 
L 531.935343 31.500092 
L 532.252852 31.511715 
L 533.111993 31.506647 
L 533.261409 31.493454 
L 533.50421 31.456327 
L 533.69098 31.520859 
L 533.859073 31.485259 
L 534.269967 31.500873 
L 534.400706 31.483777 
L 535.110431 31.498659 
L 535.24117 31.481609 
L 535.726772 31.478846 
L 535.85751 31.497457 
L 536.175019 31.50814 
L 536.996807 31.507876 
L 537.351669 31.50384 
L 537.482408 31.485724 
L 537.96801 31.478829 
L 538.098749 31.496945 
L 538.360227 31.495777 
L 538.789797 31.483093 
L 539.798355 31.504905 
L 540.13454 31.521266 
L 540.302633 31.486094 
L 540.69485 31.52328 
L 540.862943 31.485835 
L 541.255159 31.52277 
L 541.423252 31.486128 
L 541.815469 31.526441 
L 541.983562 31.489833 
L 542.394456 31.501725 
L 542.525195 31.486534 
L 543.23492 31.501391 
L 543.365659 31.483659 
L 543.851261 31.478141 
L 543.981999 31.493864 
L 544.280831 31.501204 
L 544.635694 31.499438 
L 544.766433 31.48307 
L 545.476158 31.500546 
L 545.606897 31.483828 
L 546.092499 31.478926 
L 546.223238 31.496097 
L 546.484716 31.492618 
L 546.932963 31.477424 
L 547.045025 31.492146 
L 547.493273 31.480882 
L 547.624012 31.496364 
L 547.941521 31.512403 
L 548.800662 31.504797 
L 548.950078 31.491374 
L 549.192879 31.454182 
L 549.379648 31.522919 
L 549.547741 31.487736 
L 549.939958 31.526256 
L 550.108051 31.488225 
L 550.500268 31.522709 
L 550.668361 31.48404 
L 551.060577 31.525048 
L 551.22867 31.48594 
L 551.620887 31.526621 
L 551.78898 31.489653 
L 552.181196 31.527957 
L 552.349289 31.487832 
L 552.760183 31.498605 
L 552.890922 31.480115 
L 553.600647 31.500667 
L 553.731386 31.479923 
L 554.216988 31.472067 
L 554.347727 31.48853 
L 554.665236 31.506651 
L 556.084687 31.509169 
L 556.178071 31.477538 
L 556.30881 31.49289 
L 556.626319 31.506671 
L 557.709584 31.495782 
L 558.027093 31.51081 
L 561.127473 31.510481 
L 561.276889 31.495983 
L 561.51969 31.454332 
L 561.706459 31.520816 
L 561.874552 31.482789 
L 562.266769 31.519395 
L 562.434862 31.483447 
L 562.789725 31.506729 
L 564.769485 31.508966 
L 564.918901 31.495712 
L 565.124348 31.479875 
L 566.132905 31.502167 
L 566.487768 31.496707 
L 566.618507 31.481687 
L 567.104108 31.478287 
L 567.234847 31.495838 
L 567.552356 31.509479 
L 569.251962 31.504151 
L 569.401378 31.491096 
L 569.644178 31.45379 
L 569.830948 31.521462 
L 569.999041 31.483897 
L 570.391258 31.521035 
L 570.559351 31.482663 
L 570.951568 31.521755 
L 571.11966 31.483366 
L 571.511877 31.52173 
L 571.67997 31.485426 
L 572.090864 31.49831 
L 572.24028 31.48404 
L 572.632496 31.521015 
L 572.800589 31.482397 
L 573.192806 31.517309 
L 573.360899 31.478298 
L 573.753115 31.516866 
L 573.921208 31.481446 
L 574.313425 31.521316 
L 574.481518 31.48588 
L 574.873735 31.521543 
L 575.041828 31.48305 
L 575.452721 31.496797 
L 575.58346 31.480966 
L 576.293186 31.500472 
L 576.442601 31.486955 
L 576.834818 31.524184 
L 577.002911 31.484553 
L 577.395128 31.519727 
L 577.544544 31.479113 
L 578.030145 31.473696 
L 578.160884 31.490923 
L 578.422362 31.487343 
L 578.87061 31.472137 
L 579.001349 31.487857 
L 579.318857 31.502718 
L 580.458154 31.506519 
L 580.607569 31.49263 
L 580.85037 31.454434 
L 581.03714 31.522049 
L 581.186556 31.481915 
L 581.672158 31.477762 
L 581.802897 31.492887 
L 582.064374 31.486944 
L 582.512622 31.473379 
L 582.643361 31.492697 
L 582.904839 31.492637 
L 583.353086 31.480493 
L 583.483825 31.496881 
L 583.745303 31.490463 
L 584.193551 31.472296 
L 584.32429 31.489116 
L 584.548413 31.479284 
L 585.258139 31.496038 
L 585.388878 31.47767 
L 585.87448 31.474316 
L 586.005218 31.490579 
L 586.266696 31.486677 
L 586.714944 31.477235 
L 586.845683 31.49327 
L 587.088484 31.485861 
L 587.4807 31.518797 
L 587.648793 31.481528 
L 588.04101 31.518396 
L 588.209103 31.482074 
L 588.601319 31.518738 
L 588.769412 31.482313 
L 589.161629 31.520772 
L 589.329722 31.482477 
L 589.740616 31.495031 
L 589.871355 31.477227 
L 590.58108 31.495287 
L 590.730496 31.481055 
L 591.122713 31.517139 
L 591.290806 31.482828 
L 591.683022 31.520526 
L 591.851115 31.484276 
L 592.243332 31.51846 
L 592.411425 31.482419 
L 592.803641 31.520718 
L 592.971734 31.483739 
L 593.363951 31.517938 
L 593.532044 31.479272 
L 593.924261 31.51455 
L 594.092353 31.47619 
L 594.48457 31.517505 
L 594.652663 31.480352 
L 595.063557 31.495163 
L 595.212973 31.481081 
L 595.623866 31.492919 
L 595.754605 31.475486 
L 596.240207 31.474967 
L 596.370946 31.490563 
L 596.632424 31.486475 
L 597.080671 31.476484 
L 597.21141 31.493968 
L 597.472888 31.492639 
L 597.921136 31.477837 
L 598.051875 31.493802 
L 598.369383 31.504498 
L 600.031635 31.503147 
L 600.386498 31.499467 
L 600.517237 31.482095 
L 601.002838 31.476216 
L 601.133577 31.489537 
L 601.451086 31.503735 
L 603.113338 31.50138 
L 603.468201 31.498946 
L 603.598939 31.481763 
L 604.084541 31.478963 
L 604.21528 31.495601 
L 604.476758 31.490265 
L 604.925005 31.474724 
L 605.055744 31.492704 
L 605.317222 31.488872 
L 605.76547 31.470395 
L 605.896209 31.486834 
L 606.213717 31.502712 
L 607.353014 31.50516 
L 607.50243 31.489267 
L 607.707876 31.476748 
L 609.033942 31.505309 
L 609.183358 31.49109 
L 609.426159 31.452124 
L 609.612929 31.51773 
L 609.781022 31.479615 
L 610.173239 31.513967 
L 610.341331 31.478471 
L 610.752225 31.494627 
L 610.882964 31.479766 
L 611.59269 31.496358 
L 611.742105 31.481479 
L 612.134322 31.515758 
L 612.302415 31.477591 
L 612.713309 31.493761 
L 612.844048 31.47847 
L 613.329649 31.474935 
L 613.460388 31.492731 
L 613.721866 31.489366 
L 614.170114 31.476973 
L 614.300853 31.492361 
L 614.56233 31.48602 
L 615.234702 31.496399 
L 615.365441 31.479424 
L 616.075166 31.493361 
L 616.205905 31.475975 
L 616.691507 31.472151 
L 616.822246 31.491023 
L 617.139754 31.505945 
L 618.83936 31.50469 
L 618.932745 31.475854 
L 619.063484 31.49083 
L 619.362316 31.496481 
L 619.698502 31.513486 
L 619.866594 31.473661 
L 620.258811 31.513294 
L 620.426904 31.478442 
L 620.819121 31.516116 
L 620.987214 31.477742 
L 621.37943 31.515764 
L 621.547523 31.478783 
L 621.93974 31.517253 
L 622.107833 31.479234 
L 622.500049 31.519546 
L 622.668142 31.484186 
L 623.060359 31.519418 
L 623.228452 31.482432 
L 623.620669 31.515514 
L 623.788761 31.477527 
L 624.180978 31.513981 
L 624.349071 31.47743 
L 624.741288 31.518263 
L 624.909381 31.47909 
L 625.301597 31.516428 
L 625.46969 31.477736 
L 625.880584 31.49354 
L 626.011323 31.478741 
L 626.496924 31.477273 
L 626.627663 31.494103 
L 626.851787 31.480774 
L 627.561513 31.495712 
L 627.692252 31.477353 
L 628.401977 31.494674 
L 628.532716 31.477269 
L 629.242441 31.493177 
L 629.37318 31.476647 
L 629.858782 31.472146 
L 629.989521 31.487159 
L 630.250999 31.484262 
L 630.680569 31.47318 
L 631.689127 31.500854 
L 632.043989 31.497406 
L 632.174728 31.480251 
L 632.66033 31.471652 
L 632.791069 31.487761 
L 633.108578 31.501646 
L 634.528029 31.503707 
L 634.677444 31.488948 
L 634.920245 31.44984 
L 635.107015 31.515578 
L 635.275108 31.476806 
L 635.667325 31.515971 
L 635.835418 31.477514 
L 636.227634 31.515365 
L 636.395727 31.477847 
L 636.787944 31.516591 
L 636.956037 31.477861 
L 637.348253 31.514051 
L 637.516346 31.476559 
L 637.908563 31.514413 
L 638.076656 31.478357 
L 638.468873 31.514427 
L 638.636966 31.476101 
L 639.029182 31.510609 
L 639.197275 31.47321 
L 639.589492 31.513364 
L 639.757585 31.476692 
L 640.149801 31.51305 
L 640.317894 31.47606 
L 640.710111 31.515328 
L 640.878204 31.479961 
L 641.270421 31.517166 
L 641.438513 31.478885 
L 641.83073 31.514936 
L 641.998823 31.477242 
L 642.39104 31.512574 
L 642.559133 31.475738 
L 642.951349 31.514266 
L 643.119442 31.475578 
L 643.511659 31.515917 
L 643.679752 31.476376 
L 644.071969 31.512247 
L 644.240061 31.475811 
L 644.632278 31.51632 
L 644.800371 31.479371 
L 645.192588 31.519922 
L 645.360681 31.482653 
L 645.771574 31.497056 
L 645.92099 31.480605 
L 646.313207 31.516028 
L 646.4813 31.479627 
L 646.873516 31.517853 
L 647.041609 31.480538 
L 647.433826 31.516563 
L 647.601919 31.479717 
L 647.994136 31.519078 
L 648.162228 31.48204 
L 648.554445 31.522307 
L 648.722538 31.483711 
L 649.114755 31.517019 
L 649.282848 31.477755 
L 649.675064 31.510359 
L 649.843157 31.470951 
L 650.235374 31.5104 
L 650.403467 31.474071 
L 650.795684 31.515608 
L 650.963776 31.4768 
L 651.355993 31.514292 
L 651.524086 31.477606 
L 651.916303 31.517146 
L 652.084396 31.480534 
L 652.495289 31.498489 
L 652.626028 31.481268 
L 653.11163 31.47497 
L 653.242369 31.49142 
L 653.559878 31.503627 
L 654.979328 31.498607 
L 655.128744 31.48435 
L 655.371545 31.446936 
L 655.558315 31.515828 
L 655.726408 31.47974 
L 656.118625 31.517133 
L 656.286717 31.479017 
L 656.678934 31.513637 
L 656.847027 31.478863 
L 657.257921 31.49238 
L 657.38866 31.476912 
L 658.098385 31.49022 
L 658.229124 31.471713 
L 658.93885 31.492388 
L 659.069588 31.479778 
L 659.779314 31.494253 
L 659.910053 31.476508 
L 660.619778 31.488393 
L 660.750517 31.471158 
L 661.236119 31.467389 
L 661.348181 31.481179 
L 661.740397 31.492438 
L 661.871136 31.474687 
L 662.356738 31.47103 
L 662.487477 31.487191 
L 662.711601 31.472398 
L 663.421326 31.495509 
L 663.552065 31.478825 
L 664.037667 31.473826 
L 664.168406 31.489959 
L 664.485914 31.501812 
L 666.18552 31.503868 
L 666.278905 31.475097 
L 666.409644 31.488818 
L 666.671122 31.483819 
L 667.119369 31.470265 
L 667.250108 31.487363 
L 667.511586 31.485587 
L 667.959834 31.47369 
L 668.090573 31.490149 
L 668.408082 31.502353 
L 669.827532 31.494434 
L 669.976948 31.483147 
L 670.219749 31.445759 
L 670.406519 31.511653 
L 670.574612 31.473795 
L 670.966829 31.512588 
L 671.134922 31.476223 
L 671.527138 31.518263 
L 671.695231 31.48119 
L 672.087448 31.515688 
L 672.255541 31.477287 
L 672.647757 31.512538 
L 672.797173 31.469443 
L 672.797173 31.469443 
" clip-path="url(#pa418bdad6a)" style="fill: none; stroke: #2c3e50; stroke-width: 1.5; stroke-linecap: round"/>
   </g>
   <g id="patch_3">
    <path d="M 84.491719 159.2175 
L 84.491719 25.3575 
" style="fill: none; stroke: #cccccc; stroke-width: 1.25; stroke-linejoin: miter; stroke-linecap: square"/>
   </g>
   <g id="patch_4">
    <path d="M 700.811719 159.2175 
L 700.811719 25.3575 
" style="fill: none; stroke: #cccccc; stroke-width: 1.25; stroke-linejoin: miter; stroke-linecap: square"/>
   </g>
   <g id="patch_5">
    <path d="M 84.491719 159.2175 
L 700.811719 159.2175 
" style="fill: none; stroke: #cccccc; stroke-width: 1.25; stroke-linejoin: miter; stroke-linecap: square"/>
   </g>
   <g id="patch_6">
    <path d="M 84.491719 25.3575 
L 700.811719 25.3575 
" style="fill: none; stroke: #cccccc; stroke-width: 1.25; stroke-linejoin: miter; stroke-linecap: square"/>
   </g>
   <g id="text_14">
    <!-- ELBO over Iterations -->
    <g style="fill: #262626" transform="translate(310.465469 19.3575) scale(0.16 -0.16)">
     <defs>
      <path id="DejaVuSans-20" transform="scale(0.015625)"/>
      <path id="DejaVuSans-76" d="M 191 3500 
L 800 3500 
L 1894 563 
L 2988 3500 
L 3597 3500 
L 2284 0 
L 1503 0 
L 191 3500 
z
" transform="scale(0.015625)"/>
      <path id="DejaVuSans-73" d="M 2834 3397 
L 2834 2853 
Q 2591 2978 2328 3040 
Q 2066 3103 1784 3103 
Q 1356 3103 1142 2972 
Q 928 2841 928 2578 
Q 928 2378 1081 2264 
Q 1234 2150 1697 2047 
L 1894 2003 
Q 2506 1872 2764 1633 
Q 3022 1394 3022 966 
Q 3022 478 2636 193 
Q 2250 -91 1575 -91 
Q 1294 -91 989 -36 
Q 684 19 347 128 
L 347 722 
Q 666 556 975 473 
Q 1284 391 1588 391 
Q 1994 391 2212 530 
Q 2431 669 2431 922 
Q 2431 1156 2273 1281 
Q 2116 1406 1581 1522 
L 1381 1569 
Q 847 1681 609 1914 
Q 372 2147 372 2553 
Q 372 3047 722 3315 
Q 1072 3584 1716 3584 
Q 2034 3584 2315 3537 
Q 2597 3491 2834 3397 
z
" transform="scale(0.015625)"/>
     </defs>
     <use xlink:href="#DejaVuSans-45"/>
     <use xlink:href="#DejaVuSans-4c" x="63.183594"/>
     <use xlink:href="#DejaVuSans-42" x="118.896484"/>
     <use xlink:href="#DejaVuSans-4f" x="185.75"/>
     <use xlink:href="#DejaVuSans-20" x="264.460938"/>
     <use xlink:href="#DejaVuSans-6f" x="296.248047"/>
     <use xlink:href="#DejaVuSans-76" x="357.429688"/>
     <use xlink:href="#DejaVuSans-65" x="416.609375"/>
     <use xlink:href="#DejaVuSans-72" x="478.132812"/>
     <use xlink:href="#DejaVuSans-20" x="519.246094"/>
     <use xlink:href="#DejaVuSans-49" x="551.033203"/>
     <use xlink:href="#DejaVuSans-74" x="580.525391"/>
     <use xlink:href="#DejaVuSans-65" x="619.734375"/>
     <use xlink:href="#DejaVuSans-72" x="681.257812"/>
     <use xlink:href="#DejaVuSans-61" x="722.371094"/>
     <use xlink:href="#DejaVuSans-74" x="783.650391"/>
     <use xlink:href="#DejaVuSans-69" x="822.859375"/>
     <use xlink:href="#DejaVuSans-6f" x="850.642578"/>
     <use xlink:href="#DejaVuSans-6e" x="911.824219"/>
     <use xlink:href="#DejaVuSans-73" x="975.203125"/>
    </g>
   </g>
  </g>
 </g>
 <defs>
  <clipPath id="pa418bdad6a">
   <rect x="84.491719" y="25.3575" width="616.32" height="133.86"/>
  </clipPath>
 </defs>
</svg>
