<?xml version="1.0" encoding="utf-8" standalone="no"?>
<!DOCTYPE svg PUBLIC "-//W3C//DTD SVG 1.1//EN"
  "http://www.w3.org/Graphics/SVG/1.1/DTD/svg11.dtd">
<svg xmlns:xlink="http://www.w3.org/1999/xlink" width="708.032969pt" height="203.145pt" viewBox="0 0 708.032969 203.145" xmlns="http://www.w3.org/2000/svg" version="1.1">
 <metadata>
  <rdf:RDF xmlns:dc="http://purl.org/dc/elements/1.1/" xmlns:cc="http://creativecommons.org/ns#" xmlns:rdf="http://www.w3.org/1999/02/22-rdf-syntax-ns#">
   <cc:Work>
    <dc:type rdf:resource="http://purl.org/dc/dcmitype/StillImage"/>
    <dc:date>2025-02-04T18:50:47.148715</dc:date>
    <dc:format>image/svg+xml</dc:format>
    <dc:creator>
     <cc:Agent>
      <dc:title>Matplotlib v3.8.4, https://matplotlib.org/</dc:title>
     </cc:Agent>
    </dc:creator>
   </cc:Work>
  </rdf:RDF>
 </metadata>
 <defs>
  <style type="text/css">*{stroke-linejoin: round; stroke-linecap: butt}</style>
 </defs>
 <g id="figure_1">
  <g id="patch_1">
   <path d="M 0 203.145 
L 708.032969 203.145 
L 708.032969 0 
L 0 0 
z
" style="fill: #ffffff"/>
  </g>
  <g id="axes_1">
   <g id="patch_2">
    <path d="M 77.492969 159.2175 
L 700.832969 159.2175 
L 700.832969 25.3575 
L 77.492969 25.3575 
z
" style="fill: #ffffff"/>
   </g>
   <g id="matplotlib.axis_1">
    <g id="xtick_1">
     <g id="line2d_1">
      <path d="M 105.826605 159.2175 
L 105.826605 25.3575 
" clip-path="url(#p048a0b6aec)" style="fill: none; stroke: #cccccc; stroke-linecap: round"/>
     </g>
     <g id="text_1">
      <!-- 0 -->
      <g style="fill: #262626" transform="translate(102.32723 177.075781) scale(0.11 -0.11)">
       <defs>
        <path id="DejaVuSans-30" d="M 2034 4250 
Q 1547 4250 1301 3770 
Q 1056 3291 1056 2328 
Q 1056 1369 1301 889 
Q 1547 409 2034 409 
Q 2525 409 2770 889 
Q 3016 1369 3016 2328 
Q 3016 3291 2770 3770 
Q 2525 4250 2034 4250 
z
M 2034 4750 
Q 2819 4750 3233 4129 
Q 3647 3509 3647 2328 
Q 3647 1150 3233 529 
Q 2819 -91 2034 -91 
Q 1250 -91 836 529 
Q 422 1150 422 2328 
Q 422 3509 836 4129 
Q 1250 4750 2034 4750 
z
" transform="scale(0.015625)"/>
       </defs>
       <use xlink:href="#DejaVuSans-30"/>
      </g>
     </g>
    </g>
    <g id="xtick_2">
     <g id="line2d_2">
      <path d="M 230.102391 159.2175 
L 230.102391 25.3575 
" clip-path="url(#p048a0b6aec)" style="fill: none; stroke: #cccccc; stroke-linecap: round"/>
     </g>
     <g id="text_2">
      <!-- 5000 -->
      <g style="fill: #262626" transform="translate(216.104891 177.075781) scale(0.11 -0.11)">
       <defs>
        <path id="DejaVuSans-35" d="M 691 4666 
L 3169 4666 
L 3169 4134 
L 1269 4134 
L 1269 2991 
Q 1406 3038 1543 3061 
Q 1681 3084 1819 3084 
Q 2600 3084 3056 2656 
Q 3513 2228 3513 1497 
Q 3513 744 3044 326 
Q 2575 -91 1722 -91 
Q 1428 -91 1123 -41 
Q 819 9 494 109 
L 494 744 
Q 775 591 1075 516 
Q 1375 441 1709 441 
Q 2250 441 2565 725 
Q 2881 1009 2881 1497 
Q 2881 1984 2565 2268 
Q 2250 2553 1709 2553 
Q 1456 2553 1204 2497 
Q 953 2441 691 2322 
L 691 4666 
z
" transform="scale(0.015625)"/>
       </defs>
       <use xlink:href="#DejaVuSans-35"/>
       <use xlink:href="#DejaVuSans-30" x="63.623047"/>
       <use xlink:href="#DejaVuSans-30" x="127.246094"/>
       <use xlink:href="#DejaVuSans-30" x="190.869141"/>
      </g>
     </g>
    </g>
    <g id="xtick_3">
     <g id="line2d_3">
      <path d="M 354.378176 159.2175 
L 354.378176 25.3575 
" clip-path="url(#p048a0b6aec)" style="fill: none; stroke: #cccccc; stroke-linecap: round"/>
     </g>
     <g id="text_3">
      <!-- 10000 -->
      <g style="fill: #262626" transform="translate(336.881301 177.075781) scale(0.11 -0.11)">
       <defs>
        <path id="DejaVuSans-31" d="M 794 531 
L 1825 531 
L 1825 4091 
L 703 3866 
L 703 4441 
L 1819 4666 
L 2450 4666 
L 2450 531 
L 3481 531 
L 3481 0 
L 794 0 
L 794 531 
z
" transform="scale(0.015625)"/>
       </defs>
       <use xlink:href="#DejaVuSans-31"/>
       <use xlink:href="#DejaVuSans-30" x="63.623047"/>
       <use xlink:href="#DejaVuSans-30" x="127.246094"/>
       <use xlink:href="#DejaVuSans-30" x="190.869141"/>
       <use xlink:href="#DejaVuSans-30" x="254.492188"/>
      </g>
     </g>
    </g>
    <g id="xtick_4">
     <g id="line2d_4">
      <path d="M 478.653962 159.2175 
L 478.653962 25.3575 
" clip-path="url(#p048a0b6aec)" style="fill: none; stroke: #cccccc; stroke-linecap: round"/>
     </g>
     <g id="text_4">
      <!-- 15000 -->
      <g style="fill: #262626" transform="translate(461.157087 177.075781) scale(0.11 -0.11)">
       <use xlink:href="#DejaVuSans-31"/>
       <use xlink:href="#DejaVuSans-35" x="63.623047"/>
       <use xlink:href="#DejaVuSans-30" x="127.246094"/>
       <use xlink:href="#DejaVuSans-30" x="190.869141"/>
       <use xlink:href="#DejaVuSans-30" x="254.492188"/>
      </g>
     </g>
    </g>
    <g id="xtick_5">
     <g id="line2d_5">
      <path d="M 602.929748 159.2175 
L 602.929748 25.3575 
" clip-path="url(#p048a0b6aec)" style="fill: none; stroke: #cccccc; stroke-linecap: round"/>
     </g>
     <g id="text_5">
      <!-- 20000 -->
      <g style="fill: #262626" transform="translate(585.432873 177.075781) scale(0.11 -0.11)">
       <defs>
        <path id="DejaVuSans-32" d="M 1228 531 
L 3431 531 
L 3431 0 
L 469 0 
L 469 531 
Q 828 903 1448 1529 
Q 2069 2156 2228 2338 
Q 2531 2678 2651 2914 
Q 2772 3150 2772 3378 
Q 2772 3750 2511 3984 
Q 2250 4219 1831 4219 
Q 1534 4219 1204 4116 
Q 875 4013 500 3803 
L 500 4441 
Q 881 4594 1212 4672 
Q 1544 4750 1819 4750 
Q 2544 4750 2975 4387 
Q 3406 4025 3406 3419 
Q 3406 3131 3298 2873 
Q 3191 2616 2906 2266 
Q 2828 2175 2409 1742 
Q 1991 1309 1228 531 
z
" transform="scale(0.015625)"/>
       </defs>
       <use xlink:href="#DejaVuSans-32"/>
       <use xlink:href="#DejaVuSans-30" x="63.623047"/>
       <use xlink:href="#DejaVuSans-30" x="127.246094"/>
       <use xlink:href="#DejaVuSans-30" x="190.869141"/>
       <use xlink:href="#DejaVuSans-30" x="254.492188"/>
      </g>
     </g>
    </g>
    <g id="text_6">
     <!-- Iteration -->
     <g style="fill: #262626" transform="translate(361.591797 193.241406) scale(0.13 -0.13)">
      <defs>
       <path id="DejaVuSans-49" d="M 628 4666 
L 1259 4666 
L 1259 0 
L 628 0 
L 628 4666 
z
" transform="scale(0.015625)"/>
       <path id="DejaVuSans-74" d="M 1172 4494 
L 1172 3500 
L 2356 3500 
L 2356 3053 
L 1172 3053 
L 1172 1153 
Q 1172 725 1289 603 
Q 1406 481 1766 481 
L 2356 481 
L 2356 0 
L 1766 0 
Q 1100 0 847 248 
Q 594 497 594 1153 
L 594 3053 
L 172 3053 
L 172 3500 
L 594 3500 
L 594 4494 
L 1172 4494 
z
" transform="scale(0.015625)"/>
       <path id="DejaVuSans-65" d="M 3597 1894 
L 3597 1613 
L 953 1613 
Q 991 1019 1311 708 
Q 1631 397 2203 397 
Q 2534 397 2845 478 
Q 3156 559 3463 722 
L 3463 178 
Q 3153 47 2828 -22 
Q 2503 -91 2169 -91 
Q 1331 -91 842 396 
Q 353 884 353 1716 
Q 353 2575 817 3079 
Q 1281 3584 2069 3584 
Q 2775 3584 3186 3129 
Q 3597 2675 3597 1894 
z
M 3022 2063 
Q 3016 2534 2758 2815 
Q 2500 3097 2075 3097 
Q 1594 3097 1305 2825 
Q 1016 2553 972 2059 
L 3022 2063 
z
" transform="scale(0.015625)"/>
       <path id="DejaVuSans-72" d="M 2631 2963 
Q 2534 3019 2420 3045 
Q 2306 3072 2169 3072 
Q 1681 3072 1420 2755 
Q 1159 2438 1159 1844 
L 1159 0 
L 581 0 
L 581 3500 
L 1159 3500 
L 1159 2956 
Q 1341 3275 1631 3429 
Q 1922 3584 2338 3584 
Q 2397 3584 2469 3576 
Q 2541 3569 2628 3553 
L 2631 2963 
z
" transform="scale(0.015625)"/>
       <path id="DejaVuSans-61" d="M 2194 1759 
Q 1497 1759 1228 1600 
Q 959 1441 959 1056 
Q 959 750 1161 570 
Q 1363 391 1709 391 
Q 2188 391 2477 730 
Q 2766 1069 2766 1631 
L 2766 1759 
L 2194 1759 
z
M 3341 1997 
L 3341 0 
L 2766 0 
L 2766 531 
Q 2569 213 2275 61 
Q 1981 -91 1556 -91 
Q 1019 -91 701 211 
Q 384 513 384 1019 
Q 384 1609 779 1909 
Q 1175 2209 1959 2209 
L 2766 2209 
L 2766 2266 
Q 2766 2663 2505 2880 
Q 2244 3097 1772 3097 
Q 1472 3097 1187 3025 
Q 903 2953 641 2809 
L 641 3341 
Q 956 3463 1253 3523 
Q 1550 3584 1831 3584 
Q 2591 3584 2966 3190 
Q 3341 2797 3341 1997 
z
" transform="scale(0.015625)"/>
       <path id="DejaVuSans-69" d="M 603 3500 
L 1178 3500 
L 1178 0 
L 603 0 
L 603 3500 
z
M 603 4863 
L 1178 4863 
L 1178 4134 
L 603 4134 
L 603 4863 
z
" transform="scale(0.015625)"/>
       <path id="DejaVuSans-6f" d="M 1959 3097 
Q 1497 3097 1228 2736 
Q 959 2375 959 1747 
Q 959 1119 1226 758 
Q 1494 397 1959 397 
Q 2419 397 2687 759 
Q 2956 1122 2956 1747 
Q 2956 2369 2687 2733 
Q 2419 3097 1959 3097 
z
M 1959 3584 
Q 2709 3584 3137 3096 
Q 3566 2609 3566 1747 
Q 3566 888 3137 398 
Q 2709 -91 1959 -91 
Q 1206 -91 779 398 
Q 353 888 353 1747 
Q 353 2609 779 3096 
Q 1206 3584 1959 3584 
z
" transform="scale(0.015625)"/>
       <path id="DejaVuSans-6e" d="M 3513 2113 
L 3513 0 
L 2938 0 
L 2938 2094 
Q 2938 2591 2744 2837 
Q 2550 3084 2163 3084 
Q 1697 3084 1428 2787 
Q 1159 2491 1159 1978 
L 1159 0 
L 581 0 
L 581 3500 
L 1159 3500 
L 1159 2956 
Q 1366 3272 1645 3428 
Q 1925 3584 2291 3584 
Q 2894 3584 3203 3211 
Q 3513 2838 3513 2113 
z
" transform="scale(0.015625)"/>
      </defs>
      <use xlink:href="#DejaVuSans-49"/>
      <use xlink:href="#DejaVuSans-74" x="29.492188"/>
      <use xlink:href="#DejaVuSans-65" x="68.701172"/>
      <use xlink:href="#DejaVuSans-72" x="130.224609"/>
      <use xlink:href="#DejaVuSans-61" x="171.337891"/>
      <use xlink:href="#DejaVuSans-74" x="232.617188"/>
      <use xlink:href="#DejaVuSans-69" x="271.826172"/>
      <use xlink:href="#DejaVuSans-6f" x="299.609375"/>
      <use xlink:href="#DejaVuSans-6e" x="360.791016"/>
     </g>
    </g>
   </g>
   <g id="matplotlib.axis_2">
    <g id="ytick_1">
     <g id="line2d_6">
      <path d="M 77.492969 148.674444 
L 700.832969 148.674444 
" clip-path="url(#p048a0b6aec)" style="fill: none; stroke: #cccccc; stroke-linecap: round"/>
     </g>
     <g id="text_7">
      <!-- −40000 -->
      <g style="fill: #262626" transform="translate(23.781562 152.853585) scale(0.11 -0.11)">
       <defs>
        <path id="DejaVuSans-2212" d="M 678 2272 
L 4684 2272 
L 4684 1741 
L 678 1741 
L 678 2272 
z
" transform="scale(0.015625)"/>
        <path id="DejaVuSans-34" d="M 2419 4116 
L 825 1625 
L 2419 1625 
L 2419 4116 
z
M 2253 4666 
L 3047 4666 
L 3047 1625 
L 3713 1625 
L 3713 1100 
L 3047 1100 
L 3047 0 
L 2419 0 
L 2419 1100 
L 313 1100 
L 313 1709 
L 2253 4666 
z
" transform="scale(0.015625)"/>
       </defs>
       <use xlink:href="#DejaVuSans-2212"/>
       <use xlink:href="#DejaVuSans-34" x="83.789062"/>
       <use xlink:href="#DejaVuSans-30" x="147.412109"/>
       <use xlink:href="#DejaVuSans-30" x="211.035156"/>
       <use xlink:href="#DejaVuSans-30" x="274.658203"/>
       <use xlink:href="#DejaVuSans-30" x="338.28125"/>
      </g>
     </g>
    </g>
    <g id="ytick_2">
     <g id="line2d_7">
      <path d="M 77.492969 114.348297 
L 700.832969 114.348297 
" clip-path="url(#p048a0b6aec)" style="fill: none; stroke: #cccccc; stroke-linecap: round"/>
     </g>
     <g id="text_8">
      <!-- −30000 -->
      <g style="fill: #262626" transform="translate(23.781562 118.527437) scale(0.11 -0.11)">
       <defs>
        <path id="DejaVuSans-33" d="M 2597 2516 
Q 3050 2419 3304 2112 
Q 3559 1806 3559 1356 
Q 3559 666 3084 287 
Q 2609 -91 1734 -91 
Q 1441 -91 1130 -33 
Q 819 25 488 141 
L 488 750 
Q 750 597 1062 519 
Q 1375 441 1716 441 
Q 2309 441 2620 675 
Q 2931 909 2931 1356 
Q 2931 1769 2642 2001 
Q 2353 2234 1838 2234 
L 1294 2234 
L 1294 2753 
L 1863 2753 
Q 2328 2753 2575 2939 
Q 2822 3125 2822 3475 
Q 2822 3834 2567 4026 
Q 2313 4219 1838 4219 
Q 1578 4219 1281 4162 
Q 984 4106 628 3988 
L 628 4550 
Q 988 4650 1302 4700 
Q 1616 4750 1894 4750 
Q 2613 4750 3031 4423 
Q 3450 4097 3450 3541 
Q 3450 3153 3228 2886 
Q 3006 2619 2597 2516 
z
" transform="scale(0.015625)"/>
       </defs>
       <use xlink:href="#DejaVuSans-2212"/>
       <use xlink:href="#DejaVuSans-33" x="83.789062"/>
       <use xlink:href="#DejaVuSans-30" x="147.412109"/>
       <use xlink:href="#DejaVuSans-30" x="211.035156"/>
       <use xlink:href="#DejaVuSans-30" x="274.658203"/>
       <use xlink:href="#DejaVuSans-30" x="338.28125"/>
      </g>
     </g>
    </g>
    <g id="ytick_3">
     <g id="line2d_8">
      <path d="M 77.492969 80.022149 
L 700.832969 80.022149 
" clip-path="url(#p048a0b6aec)" style="fill: none; stroke: #cccccc; stroke-linecap: round"/>
     </g>
     <g id="text_9">
      <!-- −20000 -->
      <g style="fill: #262626" transform="translate(23.781562 84.20129) scale(0.11 -0.11)">
       <use xlink:href="#DejaVuSans-2212"/>
       <use xlink:href="#DejaVuSans-32" x="83.789062"/>
       <use xlink:href="#DejaVuSans-30" x="147.412109"/>
       <use xlink:href="#DejaVuSans-30" x="211.035156"/>
       <use xlink:href="#DejaVuSans-30" x="274.658203"/>
       <use xlink:href="#DejaVuSans-30" x="338.28125"/>
      </g>
     </g>
    </g>
    <g id="ytick_4">
     <g id="line2d_9">
      <path d="M 77.492969 45.696002 
L 700.832969 45.696002 
" clip-path="url(#p048a0b6aec)" style="fill: none; stroke: #cccccc; stroke-linecap: round"/>
     </g>
     <g id="text_10">
      <!-- −10000 -->
      <g style="fill: #262626" transform="translate(23.781562 49.875143) scale(0.11 -0.11)">
       <use xlink:href="#DejaVuSans-2212"/>
       <use xlink:href="#DejaVuSans-31" x="83.789062"/>
       <use xlink:href="#DejaVuSans-30" x="147.412109"/>
       <use xlink:href="#DejaVuSans-30" x="211.035156"/>
       <use xlink:href="#DejaVuSans-30" x="274.658203"/>
       <use xlink:href="#DejaVuSans-30" x="338.28125"/>
      </g>
     </g>
    </g>
    <g id="text_11">
     <!-- ELBO -->
     <g style="fill: #262626" transform="translate(17.077969 109.478984) rotate(-90) scale(0.13 -0.13)">
      <defs>
       <path id="DejaVuSans-45" d="M 628 4666 
L 3578 4666 
L 3578 4134 
L 1259 4134 
L 1259 2753 
L 3481 2753 
L 3481 2222 
L 1259 2222 
L 1259 531 
L 3634 531 
L 3634 0 
L 628 0 
L 628 4666 
z
" transform="scale(0.015625)"/>
       <path id="DejaVuSans-4c" d="M 628 4666 
L 1259 4666 
L 1259 531 
L 3531 531 
L 3531 0 
L 628 0 
L 628 4666 
z
" transform="scale(0.015625)"/>
       <path id="DejaVuSans-42" d="M 1259 2228 
L 1259 519 
L 2272 519 
Q 2781 519 3026 730 
Q 3272 941 3272 1375 
Q 3272 1813 3026 2020 
Q 2781 2228 2272 2228 
L 1259 2228 
z
M 1259 4147 
L 1259 2741 
L 2194 2741 
Q 2656 2741 2882 2914 
Q 3109 3088 3109 3444 
Q 3109 3797 2882 3972 
Q 2656 4147 2194 4147 
L 1259 4147 
z
M 628 4666 
L 2241 4666 
Q 2963 4666 3353 4366 
Q 3744 4066 3744 3513 
Q 3744 3084 3544 2831 
Q 3344 2578 2956 2516 
Q 3422 2416 3680 2098 
Q 3938 1781 3938 1306 
Q 3938 681 3513 340 
Q 3088 0 2303 0 
L 628 0 
L 628 4666 
z
" transform="scale(0.015625)"/>
       <path id="DejaVuSans-4f" d="M 2522 4238 
Q 1834 4238 1429 3725 
Q 1025 3213 1025 2328 
Q 1025 1447 1429 934 
Q 1834 422 2522 422 
Q 3209 422 3611 934 
Q 4013 1447 4013 2328 
Q 4013 3213 3611 3725 
Q 3209 4238 2522 4238 
z
M 2522 4750 
Q 3503 4750 4090 4092 
Q 4678 3434 4678 2328 
Q 4678 1225 4090 567 
Q 3503 -91 2522 -91 
Q 1538 -91 948 565 
Q 359 1222 359 2328 
Q 359 3434 948 4092 
Q 1538 4750 2522 4750 
z
" transform="scale(0.015625)"/>
      </defs>
      <use xlink:href="#DejaVuSans-45"/>
      <use xlink:href="#DejaVuSans-4c" x="63.183594"/>
      <use xlink:href="#DejaVuSans-42" x="118.896484"/>
      <use xlink:href="#DejaVuSans-4f" x="185.75"/>
     </g>
    </g>
   </g>
   <g id="PolyCollection_1"/>
   <g id="line2d_10">
    <path d="M 105.826605 153.132955 
L 106.000591 132.949383 
L 106.298853 122.055962 
L 106.845667 109.290855 
L 107.168784 100.253902 
L 107.665887 84.730146 
L 108.336976 69.618513 
L 109.356037 53.344742 
L 109.853141 48.006666 
L 110.62365 42.623635 
L 110.971623 41.221133 
L 111.667567 39.882448 
L 112.06525 39.586956 
L 112.88547 39.191453 
L 114.501055 38.557771 
L 114.948448 38.433901 
L 115.24671 38.360493 
L 116.265771 38.142676 
L 117.061136 37.917843 
L 117.384253 37.857821 
L 117.682515 37.839187 
L 119.720638 37.446458 
L 120.168031 37.315649 
L 120.441438 37.296193 
L 120.640279 37.262227 
L 121.485354 37.157141 
L 122.057023 37.047347 
L 123.573187 36.872651 
L 123.896304 36.828969 
L 126.356965 36.52138 
L 126.704937 36.505491 
L 127.624578 36.390501 
L 127.848274 36.317014 
L 128.196247 36.306205 
L 128.79277 36.199503 
L 128.966756 36.21108 
L 131.129155 36.031913 
L 131.526838 35.977075 
L 133.092712 35.792628 
L 133.664381 35.735585 
L 133.888078 35.732196 
L 134.086919 35.71608 
L 134.33547 35.664901 
L 134.608877 35.667714 
L 135.453952 35.665819 
L 136.497869 35.563288 
L 138.088599 35.391773 
L 138.312295 35.372482 
L 139.033095 35.302699 
L 139.281647 35.323211 
L 140.375274 35.28097 
L 142.264265 35.082022 
L 144.998333 34.966863 
L 145.222029 34.938901 
L 145.495436 34.921712 
L 157.301636 34.247926 
L 157.624753 34.230618 
L 158.121856 34.28525 
L 158.370407 34.311852 
L 158.743235 34.217681 
L 159.240338 34.202231 
L 159.58831 34.106445 
L 160.010848 34.111757 
L 160.383675 34.070683 
L 161.89984 34.040482 
L 162.098681 34.033082 
L 162.347232 33.990886 
L 162.620639 34.00979 
L 163.565135 33.932811 
L 164.236224 33.922896 
L 164.459921 33.916782 
L 165.056445 33.895277 
L 165.354706 33.852708 
L 166.398623 33.853034 
L 166.696885 33.820834 
L 166.846016 33.777739 
L 167.169133 33.788125 
L 168.213049 33.793932 
L 168.536167 33.743955 
L 168.884139 33.751295 
L 169.13269 33.730855 
L 169.530373 33.786235 
L 174.327418 33.566187 
L 174.57597 33.535396 
L 174.799666 33.52711 
L 175.222204 33.546006 
L 176.116989 33.50281 
L 176.290976 33.473068 
L 176.738368 33.400269 
L 176.98692 33.44453 
L 177.210616 33.446918 
L 179.223884 33.368634 
L 179.373015 33.34734 
L 179.671277 33.37833 
L 179.969539 33.389579 
L 182.107082 33.20061 
L 182.305924 33.177766 
L 182.778172 33.199163 
L 182.927303 33.187029 
L 190.135298 33.037708 
L 190.259574 33.060037 
L 191.576897 32.979784 
L 191.850304 32.969919 
L 192.049145 32.998602 
L 192.645669 33.001947 
L 192.869365 33.013075 
L 193.167627 33.066936 
L 193.764151 32.993817 
L 195.10633 33.003476 
L 195.354881 32.93799 
L 195.653143 32.950822 
L 196.001115 32.95037 
L 197.815542 32.961642 
L 197.964673 32.973269 
L 198.213224 32.922598 
L 198.760038 32.922071 
L 198.909169 32.90083 
L 199.132865 32.827122 
L 199.530547 32.846757 
L 199.779099 32.843576 
L 199.92823 32.822032 
L 200.947291 32.779231 
L 201.121278 32.774329 
L 202.811428 32.776691 
L 203.10969 32.748951 
L 203.432807 32.784309 
L 203.83049 32.804707 
L 204.103896 32.759448 
L 204.277882 32.794695 
L 205.172668 32.683078 
L 205.346654 32.709748 
L 205.545495 32.697419 
L 206.092309 32.703367 
L 206.340861 32.71719 
L 207.509053 32.637519 
L 207.707894 32.625962 
L 208.105577 32.612911 
L 208.229852 32.623931 
L 208.478404 32.634955 
L 209.000362 32.624239 
L 209.522321 32.663964 
L 209.770872 32.641748 
L 209.969713 32.679672 
L 210.889354 32.602 
L 211.262182 32.578465 
L 211.684719 32.54692 
L 212.007836 32.56644 
L 212.504939 32.524482 
L 213.573711 32.545321 
L 213.996249 32.550382 
L 214.14538 32.514775 
L 214.468497 32.477804 
L 215.711255 32.552982 
L 216.780027 32.437281 
L 216.929157 32.424513 
L 217.475971 32.431706 
L 219.439528 32.444185 
L 219.588659 32.455783 
L 219.886921 32.426207 
L 220.135473 32.403306 
L 220.657431 32.475325 
L 221.204244 32.452499 
L 221.552217 32.462325 
L 221.925044 32.368373 
L 222.322727 32.425689 
L 222.546423 32.403485 
L 223.018671 32.421604 
L 223.217512 32.44259 
L 223.913457 32.414743 
L 224.609401 32.389905 
L 224.758532 32.392322 
L 224.932518 32.388339 
L 225.479332 32.36542 
L 225.727883 32.330635 
L 226.150421 32.405059 
L 226.324407 32.432471 
L 227.964847 32.33223 
L 228.536516 32.291151 
L 228.760212 32.314325 
L 228.983909 32.29992 
L 231.792541 32.253269 
L 232.041093 32.309421 
L 232.36421 32.225955 
L 232.612762 32.288023 
L 233.18443 32.196778 
L 233.383271 32.19061 
L 234.029506 32.218371 
L 234.278057 32.206669 
L 234.77516 32.21556 
L 235.197698 32.189356 
L 235.346829 32.18653 
L 236.962414 32.175134 
L 237.384952 32.163449 
L 237.807489 32.166501 
L 243.126493 32.160351 
L 243.325334 32.203929 
L 244.443816 32.0783 
L 244.642658 32.06643 
L 245.114906 32.081991 
L 245.288892 32.046764 
L 245.661719 32.051339 
L 245.935126 32.078854 
L 246.307953 31.991517 
L 246.904477 32.043708 
L 247.053608 32.077689 
L 247.476146 32.09056 
L 247.625277 32.094737 
L 248.12238 32.072204 
L 248.321221 32.011348 
L 248.644338 32.021317 
L 249.04202 32.124408 
L 249.315427 32.043082 
L 249.588834 32.09122 
L 249.787675 32.100214 
L 249.936806 32.071263 
L 250.259923 32.005273 
L 250.657606 32.079884 
L 250.856447 32.036054 
L 251.204419 31.999764 
L 251.378405 31.993719 
L 251.751233 32.035887 
L 251.900364 31.943265 
L 252.447177 31.960746 
L 252.596308 31.970519 
L 252.969135 31.964926 
L 253.093411 32.006101 
L 253.317107 32.009785 
L 257.492774 31.938496 
L 257.815891 31.902328 
L 258.089298 31.923167 
L 258.43727 31.9562 
L 258.909518 31.96982 
L 259.182925 31.91165 
L 259.481186 31.945564 
L 259.729738 31.906164 
L 260.052855 31.953941 
L 260.301407 32.018134 
L 260.500248 31.982551 
L 260.748799 31.948242 
L 261.395034 31.944759 
L 261.593875 31.892131 
L 262.016412 31.962005 
L 262.165543 31.928915 
L 263.134895 31.88002 
L 263.458012 31.839487 
L 267.11172 31.876862 
L 267.409982 31.870555 
L 267.608823 31.945524 
L 268.006505 31.8987 
L 268.677595 31.909397 
L 269.547525 31.843146 
L 269.945208 31.87713 
L 270.094339 31.888366 
L 270.268325 31.884096 
L 270.790283 31.905393 
L 271.038835 31.842182 
L 271.535938 31.960263 
L 271.734779 31.940558 
L 272.132461 31.89476 
L 272.356158 31.909941 
L 272.728985 31.884943 
L 272.902971 31.836879 
L 274.617977 31.841179 
L 274.767108 31.831938 
L 274.941094 31.898063 
L 275.139935 31.851147 
L 275.239356 31.859015 
L 275.413342 31.888759 
L 275.811025 31.892158 
L 275.960156 31.875616 
L 276.109287 31.857441 
L 276.208707 31.834527 
L 276.233562 31.856236 
L 276.432404 31.877815 
L 276.680955 31.787626 
L 277.153203 31.883827 
L 277.277479 31.883583 
L 277.451465 31.835949 
L 277.774582 31.79454 
L 277.973423 31.861433 
L 278.445671 31.774369 
L 278.594802 31.781832 
L 278.818499 31.841287 
L 280.135822 31.788595 
L 280.359518 31.755994 
L 280.65778 31.826904 
L 280.906332 31.805176 
L 281.080318 31.845556 
L 282.24851 31.820178 
L 282.546772 31.789696 
L 282.795324 31.843596 
L 282.994165 31.895613 
L 285.703377 31.802731 
L 285.753088 31.829352 
L 285.802798 31.779359 
L 286.225336 31.787218 
L 286.374466 31.781025 
L 289.729913 31.777189 
L 289.903899 31.725745 
L 290.301581 31.824316 
L 290.898105 31.748591 
L 291.121801 31.794543 
L 292.140863 31.742222 
L 292.240284 31.758355 
L 292.389414 31.793936 
L 301.113575 31.701928 
L 301.362126 31.689425 
L 302.058071 31.733494 
L 302.381188 31.744149 
L 302.67945 31.767153 
L 303.201408 31.720344 
L 303.350539 31.715915 
L 304.096193 31.760946 
L 304.245324 31.767782 
L 304.543586 31.724211 
L 304.767283 31.759919 
L 305.239531 31.661509 
L 305.86091 31.754338 
L 306.109461 31.743851 
L 306.283447 31.810679 
L 307.203088 31.751245 
L 307.575915 31.713206 
L 307.849322 31.696717 
L 308.296715 31.704122 
L 308.843529 31.652551 
L 310.58339 31.716888 
L 310.881651 31.667887 
L 311.155058 31.755205 
L 311.279334 31.757139 
L 311.527885 31.691376 
L 311.776437 31.673028 
L 311.950423 31.735253 
L 314.933042 31.705778 
L 315.231304 31.746419 
L 315.40529 31.715426 
L 315.653842 31.751225 
L 316.026669 31.778608 
L 316.22551 31.715859 
L 316.474062 31.678032 
L 317.095441 31.772421 
L 317.393703 31.715079 
L 318.039937 31.705678 
L 318.363054 31.65804 
L 319.630667 31.715372 
L 320.028349 31.609052 
L 320.301756 31.687222 
L 320.500597 31.592016 
L 320.774004 31.670412 
L 321.693645 31.776139 
L 321.867631 31.726549 
L 322.48901 31.814646 
L 322.613286 31.81352 
L 322.812127 31.776002 
L 323.25952 31.795469 
L 323.508071 31.827626 
L 324.17916 31.686371 
L 324.353147 31.708019 
L 324.502277 31.675553 
L 325.148512 31.708688 
L 325.347353 31.694339 
L 325.894166 31.649027 
L 325.968732 31.678931 
L 326.018442 31.629243 
L 327.832869 31.6658 
L 328.006855 31.682915 
L 328.305117 31.774884 
L 328.479103 31.730481 
L 328.926495 31.74679 
L 329.175047 31.793451 
L 329.597585 31.642597 
L 329.970412 31.770637 
L 330.716067 31.684236 
L 331.188315 31.616612 
L 331.412011 31.614525 
L 331.909114 31.65602 
L 332.058245 31.707227 
L 332.431073 31.7402 
L 332.580204 31.751703 
L 332.85361 31.699484 
L 333.077307 31.811577 
L 333.102162 31.77793 
L 333.400424 31.665404 
L 333.67383 31.658842 
L 333.996948 31.771769 
L 335.562822 31.712959 
L 335.736809 31.69324 
L 336.184201 31.666119 
L 336.681304 31.690544 
L 337.228118 31.672634 
L 337.377249 31.664452 
L 337.650656 31.674707 
L 337.824642 31.666855 
L 338.197469 31.700904 
L 338.620007 31.674872 
L 338.893413 31.647831 
L 339.092255 31.616487 
L 339.465082 31.70181 
L 339.663923 31.75939 
L 340.011896 31.673538 
L 340.210737 31.736701 
L 340.409578 31.777009 
L 345.132058 31.726566 
L 345.380609 31.786876 
L 345.654016 31.678579 
L 346.101409 31.738602 
L 346.275395 31.695036 
L 346.573657 31.605674 
L 347.02105 31.700571 
L 347.170181 31.659104 
L 347.915836 31.663079 
L 348.089822 31.670655 
L 348.263808 31.576209 
L 350.525627 31.611489 
L 350.699613 31.650528 
L 351.097296 31.729575 
L 351.445268 31.653863 
L 351.594399 31.688229 
L 351.892661 31.728068 
L 352.116357 31.601554 
L 352.389764 31.602671 
L 352.688026 31.678228 
L 352.812301 31.640951 
L 353.035998 31.658324 
L 353.284549 31.64619 
L 353.781653 31.628572 
L 354.15448 31.596911 
L 354.378176 31.649469 
L 354.651583 31.679028 
L 354.825569 31.689791 
L 355.496658 31.625609 
L 355.596079 31.670155 
L 355.79492 31.677333 
L 356.018617 31.587756 
L 357.584492 31.705668 
L 357.783333 31.604145 
L 358.081595 31.623882 
L 358.280436 31.704153 
L 359.374063 31.635553 
L 359.423773 31.671196 
L 359.473484 31.614533 
L 359.821456 31.576597 
L 360.045152 31.640049 
L 360.318559 31.660431 
L 360.492545 31.673493 
L 361.163634 31.631833 
L 361.28791 31.679986 
L 361.486751 31.649089 
L 361.735303 31.592451 
L 362.083275 31.646384 
L 362.505813 31.650286 
L 362.754364 31.602154 
L 363.052626 31.652034 
L 363.400598 31.595359 
L 363.574584 31.544554 
L 364.021977 31.653525 
L 364.146253 31.618467 
L 364.345094 31.634807 
L 364.543936 31.637112 
L 364.717922 31.629159 
L 365.115604 31.632634 
L 365.389011 31.604153 
L 366.731189 31.680944 
L 366.930031 31.673347 
L 367.128872 31.680734 
L 367.302858 31.62457 
L 367.700541 31.661904 
L 368.048513 31.76997 
L 368.297064 31.685835 
L 368.47105 31.738526 
L 368.744457 31.78509 
L 369.042719 31.720367 
L 369.266415 31.663028 
L 369.639243 31.76073 
L 370.235767 31.635011 
L 370.434608 31.669368 
L 370.757725 31.693361 
L 370.882001 31.589617 
L 370.906856 31.605585 
L 371.229973 31.644058 
L 371.354249 31.634839 
L 372.099903 31.67518 
L 372.249034 31.690846 
L 372.522441 31.63026 
L 372.795848 31.704682 
L 372.994689 31.655884 
L 373.168675 31.669351 
L 373.342661 31.685127 
L 373.616068 31.773139 
L 373.839764 31.726789 
L 374.088316 31.688962 
L 374.461143 31.731924 
L 374.560564 31.766718 
L 374.585419 31.730183 
L 374.78426 31.615032 
L 375.057667 31.613972 
L 375.430494 31.652403 
L 375.877887 31.618305 
L 376.051873 31.63073 
L 376.424701 31.639981 
L 376.598687 31.557507 
L 377.120645 31.613143 
L 377.244921 31.600412 
L 377.418907 31.652067 
L 378.338548 31.672307 
L 378.487679 31.650602 
L 378.785941 31.603448 
L 379.158768 31.728865 
L 379.307899 31.758762 
L 379.50674 31.707489 
L 379.705581 31.668112 
L 379.978988 31.763638 
L 380.774353 31.65858 
L 381.022905 31.66284 
L 381.172036 31.617975 
L 381.594573 31.607695 
L 381.967401 31.630541 
L 382.489359 31.527385 
L 382.6882 31.549518 
L 384.055234 31.71096 
L 384.22922 31.64562 
L 384.403206 31.60837 
L 384.651758 31.597674 
L 385.04944 31.768602 
L 385.297992 31.656593 
L 385.471978 31.692499 
L 385.645964 31.719972 
L 386.093357 31.628997 
L 386.441329 31.65307 
L 386.689881 31.677875 
L 386.839012 31.663923 
L 387.186984 31.623287 
L 387.833218 31.563813 
L 388.156335 31.536326 
L 388.380031 31.573711 
L 388.603728 31.595275 
L 389.225107 31.655688 
L 389.523369 31.553083 
L 389.747065 31.669735 
L 389.77192 31.642347 
L 390.144747 31.577706 
L 390.815837 31.677024 
L 394.320414 31.656121 
L 394.469545 31.67606 
L 396.13484 31.649036 
L 396.308826 31.700084 
L 396.507668 31.653872 
L 396.706509 31.618951 
L 396.979916 31.706086 
L 397.750426 31.620975 
L 397.949267 31.685884 
L 398.694922 31.613193 
L 398.943473 31.656132 
L 399.366011 31.552309 
L 399.713983 31.602383 
L 400.385072 31.623327 
L 401.304713 31.610249 
L 401.602975 31.589352 
L 402.124933 31.687361 
L 402.39834 31.606727 
L 404.212766 31.648719 
L 404.386752 31.642794 
L 404.685014 31.639007 
L 405.231828 31.595582 
L 405.356104 31.592111 
L 408.81097 31.555784 
L 409.059522 31.566231 
L 409.457205 31.62679 
L 409.606335 31.612153 
L 409.854887 31.621425 
L 413.160623 31.688482 
L 413.284899 31.70126 
L 413.508595 31.679885 
L 413.707436 31.653954 
L 413.980843 31.756122 
L 414.403381 31.682519 
L 414.577367 31.616655 
L 415.12418 31.671329 
L 415.298166 31.623834 
L 416.018966 31.635601 
L 416.416649 31.5539 
L 418.330496 31.577861 
L 418.653613 31.579392 
L 418.927019 31.68618 
L 419.821805 31.710885 
L 419.921226 31.671007 
L 420.120067 31.570073 
L 420.393474 31.59653 
L 420.766301 31.626556 
L 421.760507 31.661598 
L 421.909638 31.565855 
L 422.580728 31.594699 
L 422.729858 31.651781 
L 423.69921 31.719139 
L 423.823485 31.637839 
L 424.072037 31.582504 
L 424.345444 31.60468 
L 424.767981 31.695861 
L 425.016533 31.625677 
L 425.215374 31.685134 
L 425.414215 31.701707 
L 425.737332 31.612526 
L 425.911319 31.562262 
L 426.358711 31.649737 
L 426.507842 31.615994 
L 427.253497 31.630862 
L 427.427483 31.642633 
L 427.601469 31.555744 
L 428.148283 31.559987 
L 428.247703 31.562631 
L 428.421689 31.604337 
L 429.24191 31.615189 
L 429.440751 31.675395 
L 429.788723 31.599255 
L 430.385247 31.775641 
L 430.633798 31.662719 
L 430.807785 31.720899 
L 430.981771 31.758527 
L 431.777136 31.67651 
L 432.000832 31.70994 
L 432.224528 31.647969 
L 432.920473 31.669424 
L 433.094459 31.680556 
L 433.268445 31.588856 
L 433.591562 31.632811 
L 433.790403 31.562923 
L 433.939534 31.589287 
L 434.312362 31.580548 
L 434.436637 31.624758 
L 434.585768 31.642637 
L 434.88403 31.587287 
L 435.082872 31.689017 
L 435.281713 31.580858 
L 435.530264 31.568847 
L 435.729106 31.62841 
L 435.977657 31.692025 
L 436.176498 31.634865 
L 436.400195 31.612142 
L 437.046429 31.641584 
L 437.294981 31.604633 
L 437.568387 31.679629 
L 437.692663 31.658716 
L 437.841794 31.627289 
L 438.438318 31.610478 
L 438.637159 31.651145 
L 439.034842 31.564313 
L 439.333103 31.618257 
L 439.581655 31.579954 
L 439.730786 31.622295 
L 440.103613 31.648221 
L 440.252744 31.640519 
L 440.401875 31.643482 
L 440.600716 31.627007 
L 440.824413 31.616561 
L 441.048109 31.559869 
L 441.744054 31.688028 
L 442.092026 31.620328 
L 442.73826 31.601603 
L 442.912246 31.544681 
L 443.334784 31.686523 
L 443.533625 31.642984 
L 443.881597 31.642162 
L 444.030728 31.637555 
L 444.304135 31.63965 
L 444.726673 31.524958 
L 445.124355 31.542356 
L 445.248631 31.540306 
L 445.422617 31.588825 
L 448.430091 31.551247 
L 448.653787 31.574661 
L 449.026615 31.679713 
L 449.15089 31.628105 
L 449.374587 31.651377 
L 449.697704 31.615987 
L 449.995966 31.62597 
L 450.368793 31.53385 
L 450.667055 31.602253 
L 450.915607 31.580198 
L 451.064738 31.615999 
L 451.41271 31.612513 
L 451.586696 31.636271 
L 451.735827 31.64422 
L 451.934668 31.634735 
L 452.133509 31.662246 
L 452.382061 31.604866 
L 452.630612 31.619715 
L 452.779743 31.690436 
L 453.10286 31.706453 
L 453.376267 31.607347 
L 453.674529 31.67758 
L 454.295908 31.570172 
L 454.569315 31.642576 
L 454.693591 31.635994 
L 454.842721 31.60545 
L 455.290114 31.627678 
L 455.563521 31.641662 
L 455.961204 31.56906 
L 456.085479 31.568357 
L 457.999326 31.585819 
L 458.272733 31.569779 
L 458.769836 31.642031 
L 459.043243 31.567098 
L 459.266939 31.642697 
L 459.515491 31.687558 
L 460.211435 31.638985 
L 460.609118 31.627383 
L 461.056511 31.629579 
L 461.305062 31.665392 
L 461.827021 31.555798 
L 462.075572 31.593974 
L 462.572675 31.636645 
L 462.721806 31.605135 
L 463.492316 31.58957 
L 463.716013 31.538604 
L 463.914854 31.546936 
L 464.08884 31.635685 
L 464.461667 31.641985 
L 464.735074 31.58531 
L 467.195735 31.589654 
L 467.419431 31.589202 
L 467.792258 31.609447 
L 467.916534 31.600066 
L 468.065665 31.636191 
L 470.799732 31.68419 
L 470.924008 31.676571 
L 471.097994 31.573386 
L 471.520532 31.639131 
L 471.694518 31.679114 
L 471.843649 31.633639 
L 476.491563 31.721908 
L 476.590984 31.684778 
L 476.81468 31.576978 
L 477.187508 31.621143 
L 477.336639 31.680582 
L 477.560335 31.636059 
L 478.107149 31.589269 
L 478.3557 31.589799 
L 479.250486 31.558662 
L 479.424472 31.622844 
L 479.822154 31.668627 
L 479.94643 31.649342 
L 480.170127 31.613347 
L 480.269547 31.664593 
L 480.493244 31.646472 
L 480.71694 31.575397 
L 480.915781 31.580105 
L 481.586871 31.646326 
L 481.810567 31.710837 
L 482.009408 31.729217 
L 482.481656 31.606596 
L 482.730208 31.617844 
L 483.12789 31.652767 
L 483.301876 31.610894 
L 483.550428 31.619246 
L 483.724414 31.628922 
L 484.022676 31.637243 
L 484.395503 31.561635 
L 484.71862 31.603896 
L 484.942317 31.610553 
L 485.240579 31.645582 
L 485.38971 31.608679 
L 485.737682 31.651161 
L 485.886813 31.592414 
L 485.911668 31.61932 
L 486.110509 31.670986 
L 486.383916 31.583632 
L 487.204136 31.575223 
L 487.378122 31.552245 
L 487.626674 31.640163 
L 488.397184 31.591702 
L 488.770011 31.634708 
L 489.167693 31.610908 
L 489.714507 31.599471 
L 489.764217 31.627776 
L 489.813928 31.565288 
L 490.137045 31.539383 
L 490.98212 31.587771 
L 491.156106 31.63653 
L 491.280382 31.62304 
L 491.504078 31.581868 
L 491.603499 31.637943 
L 491.80234 31.626131 
L 492.050892 31.538446 
L 492.249733 31.539114 
L 492.473429 31.62859 
L 492.697126 31.68843 
L 492.846257 31.625425 
L 493.094808 31.602312 
L 493.641622 31.616898 
L 494.039304 31.583216 
L 494.88438 31.646302 
L 495.058366 31.650907 
L 495.431193 31.669786 
L 495.605179 31.576461 
L 496.151993 31.560374 
L 496.251413 31.5677 
L 496.400544 31.611736 
L 496.773372 31.636714 
L 496.922502 31.647357 
L 497.220764 31.603499 
L 497.444461 31.662838 
L 497.792433 31.557201 
L 498.16526 31.671774 
L 498.289536 31.672439 
L 498.538088 31.63044 
L 498.786639 31.621683 
L 498.960625 31.684144 
L 499.532294 31.582268 
L 499.681425 31.604577 
L 499.830556 31.641527 
L 501.048459 31.609937 
L 501.098169 31.632519 
L 501.147879 31.563814 
L 501.446141 31.539179 
L 501.620127 31.610105 
L 501.794113 31.564244 
L 501.918389 31.54473 
L 502.06752 31.601324 
L 502.440347 31.619524 
L 502.589478 31.629686 
L 502.813175 31.554538 
L 503.533974 31.554723 
L 503.70796 31.588022 
L 504.080788 31.648702 
L 504.453615 31.573281 
L 504.627601 31.656679 
L 505.373256 31.597923 
L 506.0692 31.585706 
L 506.392317 31.582398 
L 506.765145 31.604754 
L 506.939131 31.515808 
L 510.74197 31.643561 
L 510.891101 31.572456 
L 511.363349 31.657999 
L 511.51248 31.628442 
L 512.133859 31.612551 
L 512.531541 31.526399 
L 512.755238 31.534723 
L 513.525747 31.587942 
L 513.650023 31.570478 
L 513.824009 31.616835 
L 513.948285 31.60444 
L 514.644229 31.559992 
L 514.892781 31.531581 
L 515.116477 31.630338 
L 515.539015 31.596954 
L 515.787567 31.572236 
L 515.961553 31.648905 
L 516.707208 31.56477 
L 517.477717 31.598546 
L 517.949965 31.628678 
L 518.297938 31.517154 
L 518.422213 31.518333 
L 518.919317 31.561193 
L 519.068447 31.605787 
L 520.162074 31.615506 
L 520.410626 31.561801 
L 520.708888 31.596405 
L 521.05686 31.684091 
L 521.305412 31.574708 
L 521.454543 31.576726 
L 521.628529 31.64112 
L 522.523314 31.593996 
L 522.6973 31.632047 
L 522.821576 31.585897 
L 523.020417 31.614269 
L 523.219259 31.606322 
L 523.393245 31.598357 
L 523.964913 31.513406 
L 524.089189 31.532079 
L 524.586292 31.557705 
L 524.760278 31.61873 
L 525.157961 31.668752 
L 525.282237 31.648011 
L 526.400719 31.637117 
L 526.59956 31.693792 
L 526.872967 31.616059 
L 527.071808 31.587514 
L 527.643477 31.606272 
L 527.941739 31.553379 
L 528.314566 31.68146 
L 529.159641 31.635025 
L 529.433048 31.64126 
L 529.607034 31.530035 
L 530.128992 31.555013 
L 530.253268 31.538095 
L 530.402399 31.58563 
L 531.595447 31.604683 
L 531.943419 31.574175 
L 532.415667 31.676703 
L 532.788494 31.594405 
L 532.96248 31.681367 
L 533.310452 31.610206 
L 533.608714 31.560837 
L 533.931831 31.672384 
L 534.130673 31.615688 
L 534.279804 31.585669 
L 535.050313 31.566298 
L 535.100024 31.603104 
L 535.149734 31.543804 
L 535.497706 31.500691 
L 535.721403 31.541721 
L 535.994809 31.561221 
L 536.218506 31.607197 
L 536.790174 31.607351 
L 536.86474 31.560742 
L 536.91445 31.60189 
L 537.163002 31.607609 
L 537.386698 31.565028 
L 538.107498 31.697503 
L 538.380905 31.610365 
L 538.629456 31.683419 
L 538.977428 31.597763 
L 539.325401 31.557517 
L 539.698228 31.639797 
L 539.822504 31.603423 
L 539.99649 31.607009 
L 540.767 31.605393 
L 540.940986 31.505294 
L 541.487799 31.521917 
L 541.58722 31.534787 
L 541.736351 31.576585 
L 542.084323 31.582282 
L 542.258309 31.602409 
L 542.531716 31.527249 
L 542.780267 31.613283 
L 543.103384 31.540684 
L 543.476212 31.641805 
L 543.650198 31.678081 
L 543.799329 31.644035 
L 544.122446 31.607025 
L 544.296432 31.671152 
L 545.091797 31.586878 
L 545.340349 31.666863 
L 545.564045 31.615723 
L 545.961727 31.5837 
L 546.3097 31.596022 
L 546.707382 31.510892 
L 546.980789 31.612826 
L 547.154775 31.54189 
L 547.254196 31.566385 
L 547.403327 31.611085 
L 547.751299 31.620389 
L 547.925285 31.651988 
L 548.099271 31.624903 
L 548.273257 31.637887 
L 548.472098 31.662405 
L 548.72065 31.602834 
L 549.391739 31.74246 
L 549.640291 31.621207 
L 549.814277 31.653001 
L 550.062828 31.66852 
L 550.385945 31.607819 
L 550.659352 31.579808 
L 551.255876 31.607637 
L 551.578993 31.601404 
L 551.752979 31.625566 
L 552.399213 31.506268 
L 552.747185 31.531117 
L 553.219433 31.598257 
L 553.691681 31.625249 
L 553.989943 31.629428 
L 554.238495 31.594641 
L 554.462191 31.545683 
L 555.182991 31.609953 
L 555.456397 31.587197 
L 555.630384 31.648309 
L 557.867348 31.481335 
L 558.091044 31.469914 
L 561.620476 31.638438 
L 561.844173 31.556345 
L 562.366131 31.642232 
L 562.515262 31.603745 
L 562.863234 31.601421 
L 563.335482 31.59757 
L 563.80773 31.527764 
L 565.025633 31.600143 
L 565.249329 31.570889 
L 565.473026 31.598258 
L 565.696722 31.521178 
L 566.16897 31.656851 
L 566.293246 31.664919 
L 566.516942 31.613916 
L 566.715784 31.56893 
L 566.93948 31.651984 
L 567.237742 31.697105 
L 567.486294 31.543406 
L 567.7597 31.581123 
L 567.958542 31.663186 
L 568.629631 31.597057 
L 569.176444 31.551561 
L 569.424996 31.542549 
L 569.797823 31.561201 
L 569.922099 31.558057 
L 570.096085 31.59247 
L 570.916305 31.578226 
L 571.115146 31.623535 
L 571.438264 31.532468 
L 571.71167 31.586415 
L 572.059642 31.668588 
L 572.308194 31.559898 
L 572.556746 31.608172 
L 572.855007 31.709066 
L 573.277545 31.550744 
L 573.625517 31.67453 
L 574.246896 31.551933 
L 574.495448 31.595739 
L 574.768855 31.621502 
L 574.942841 31.537515 
L 576.831833 31.593804 
L 577.105239 31.570006 
L 577.403501 31.599591 
L 577.627198 31.639564 
L 578.02488 31.540233 
L 578.223721 31.595942 
L 578.546838 31.641953 
L 578.646259 31.565416 
L 578.919666 31.494656 
L 579.367059 31.592054 
L 579.51619 31.556933 
L 581.778009 31.575465 
L 581.92714 31.579848 
L 582.225402 31.53011 
L 582.424243 31.627255 
L 582.69765 31.520256 
L 583.145043 31.638951 
L 583.343884 31.699203 
L 583.51787 31.634393 
L 583.716711 31.578964 
L 583.965263 31.672594 
L 584.164104 31.691621 
L 584.263525 31.659071 
L 584.462366 31.549944 
L 584.661207 31.555971 
L 585.034034 31.634003 
L 585.183165 31.601189 
L 585.705124 31.560475 
L 586.028241 31.563333 
L 586.500489 31.51839 
L 586.724185 31.571516 
L 586.997592 31.59219 
L 587.246143 31.627777 
L 587.395274 31.595013 
L 587.693536 31.623762 
L 587.966943 31.615622 
L 588.24035 31.589367 
L 588.464046 31.54787 
L 589.259411 31.602291 
L 589.557673 31.652356 
L 589.731659 31.658112 
L 590.079631 31.611641 
L 590.228762 31.538273 
L 590.576735 31.640615 
L 590.70101 31.620289 
L 590.850141 31.588282 
L 595.796318 31.528494 
L 596.044869 31.535989 
L 597.511323 31.497365 
L 597.78473 31.491949 
L 597.933861 31.563931 
L 598.132702 31.542061 
L 598.256978 31.551839 
L 598.406109 31.603315 
L 598.754081 31.597095 
L 598.928067 31.636457 
L 599.201474 31.559985 
L 599.42517 31.659734 
L 599.673722 31.557213 
L 599.947129 31.543621 
L 600.295101 31.659007 
L 600.543653 31.607404 
L 600.792204 31.583083 
L 600.941335 31.625675 
L 601.214742 31.671873 
L 601.413583 31.570505 
L 601.587569 31.503722 
L 602.258658 31.601022 
L 602.50721 31.577037 
L 603.103734 31.594066 
L 603.252865 31.50784 
L 603.948809 31.563552 
L 604.296781 31.596077 
L 604.445912 31.625468 
L 604.595043 31.637074 
L 604.86845 31.556982 
L 605.092146 31.681484 
L 605.365553 31.540879 
L 606.210628 31.579189 
L 606.434325 31.567942 
L 607.155124 31.505369 
L 607.403676 31.517738 
L 607.701938 31.576509 
L 607.851069 31.543372 
L 608.720999 31.555009 
L 608.77071 31.587468 
L 608.82042 31.536999 
L 609.168392 31.525099 
L 609.392088 31.575012 
L 609.615785 31.596307 
L 609.963757 31.611453 
L 610.088033 31.595742 
L 610.286874 31.622925 
L 610.46086 31.620339 
L 610.535426 31.568501 
L 610.585136 31.616012 
L 610.808832 31.637568 
L 611.032529 31.542857 
L 611.852749 31.645335 
L 612.05159 31.593445 
L 612.300142 31.687002 
L 613.219783 31.623306 
L 613.418624 31.591491 
L 613.866017 31.552349 
L 615.531312 31.61662 
L 615.655588 31.589651 
L 615.779864 31.63988 
L 616.00356 31.672701 
L 616.401243 31.704762 
L 616.600084 31.620826 
L 616.948056 31.597875 
L 617.445159 31.695223 
L 617.743421 31.614985 
L 618.165959 31.705572 
L 618.26538 31.672569 
L 618.489076 31.552387 
L 618.762483 31.598855 
L 618.961324 31.682329 
L 619.359006 31.572244 
L 619.657268 31.569892 
L 619.930675 31.566037 
L 620.129516 31.523568 
L 620.576909 31.552659 
L 620.651475 31.595096 
L 620.701185 31.545343 
L 621.695391 31.627402 
L 621.919088 31.588935 
L 622.117929 31.622791 
L 622.416191 31.552173 
L 622.838728 31.640882 
L 622.963004 31.660964 
L 623.186701 31.612717 
L 623.435252 31.582434 
L 627.635774 31.644565 
L 627.834615 31.618771 
L 628.058311 31.563184 
L 628.257153 31.561121 
L 628.480849 31.653077 
L 628.654835 31.687255 
L 628.803966 31.640785 
L 629.102228 31.576955 
L 629.475055 31.645118 
L 629.599331 31.630312 
L 629.798172 31.524217 
L 629.997014 31.545637 
L 630.369841 31.619206 
L 630.518972 31.592866 
L 633.377315 31.645562 
L 633.501591 31.597058 
L 633.700432 31.548732 
L 634.694638 31.556569 
L 634.89348 31.611376 
L 635.067466 31.622174 
L 635.76341 31.546642 
L 635.987107 31.608877 
L 636.832182 31.591928 
L 637.105589 31.607157 
L 637.279575 31.513205 
L 637.826388 31.507948 
L 637.925809 31.514501 
L 638.07494 31.558433 
L 638.84545 31.529881 
L 638.94487 31.584703 
L 639.243132 31.582318 
L 639.466829 31.522282 
L 640.212483 31.596053 
L 640.386469 31.565974 
L 640.635021 31.657511 
L 642.200896 31.522511 
L 642.971406 31.494205 
L 643.095682 31.502686 
L 643.592785 31.537523 
L 643.741916 31.590791 
L 644.189308 31.638361 
L 645.506632 31.661566 
L 645.630908 31.660643 
L 645.829749 31.590532 
L 646.177721 31.604772 
L 648.538961 31.56515 
L 648.762657 31.5528 
L 649.334326 31.61864 
L 649.483457 31.617753 
L 650.104836 31.619885 
L 650.353387 31.636064 
L 650.477663 31.631262 
L 650.70136 31.554865 
L 651.148752 31.636464 
L 651.347594 31.685452 
L 651.546435 31.604519 
L 651.770131 31.583038 
L 654.131371 31.566045 
L 654.529054 31.53875 
L 654.951591 31.561249 
L 655.771812 31.586252 
L 655.995508 31.630625 
L 656.542322 31.57388 
L 656.716308 31.625416 
L 657.11399 31.715583 
L 657.437107 31.617085 
L 657.83479 31.703535 
L 657.93421 31.66311 
L 658.157907 31.54059 
L 658.431313 31.568645 
L 658.65501 31.655776 
L 661.712194 31.614041 
L 661.83647 31.541378 
L 662.134732 31.497518 
L 662.507559 31.61678 
L 662.631835 31.619918 
L 662.855531 31.572297 
L 663.054373 31.531051 
L 663.302924 31.626285 
L 663.998869 31.520097 
L 664.346841 31.626413 
L 664.570537 31.575965 
L 665.390757 31.560633 
L 665.440468 31.591498 
L 665.490178 31.522838 
L 665.713874 31.462633 
L 665.987281 31.568033 
L 666.012136 31.527719 
L 666.260688 31.512603 
L 666.409819 31.565812 
L 666.732936 31.56639 
L 667.031198 31.635545 
L 667.230039 31.583958 
L 667.42888 31.682004 
L 667.702287 31.56781 
L 671.032878 31.575416 
L 671.505126 31.507236 
L 671.728823 31.531217 
L 672.002229 31.569272 
L 672.15136 31.586046 
L 672.499332 31.639401 
L 672.499332 31.639401 
" clip-path="url(#p048a0b6aec)" style="fill: none; stroke: #2c3e50; stroke-width: 1.5; stroke-linecap: round"/>
   </g>
   <g id="patch_3">
    <path d="M 77.492969 159.2175 
L 77.492969 25.3575 
" style="fill: none; stroke: #cccccc; stroke-width: 1.25; stroke-linejoin: miter; stroke-linecap: square"/>
   </g>
   <g id="patch_4">
    <path d="M 700.832969 159.2175 
L 700.832969 25.3575 
" style="fill: none; stroke: #cccccc; stroke-width: 1.25; stroke-linejoin: miter; stroke-linecap: square"/>
   </g>
   <g id="patch_5">
    <path d="M 77.492969 159.2175 
L 700.832969 159.2175 
" style="fill: none; stroke: #cccccc; stroke-width: 1.25; stroke-linejoin: miter; stroke-linecap: square"/>
   </g>
   <g id="patch_6">
    <path d="M 77.492969 25.3575 
L 700.832969 25.3575 
" style="fill: none; stroke: #cccccc; stroke-width: 1.25; stroke-linejoin: miter; stroke-linecap: square"/>
   </g>
   <g id="text_12">
    <!-- ELBO over Iterations -->
    <g style="fill: #262626" transform="translate(306.976719 19.3575) scale(0.16 -0.16)">
     <defs>
      <path id="DejaVuSans-20" transform="scale(0.015625)"/>
      <path id="DejaVuSans-76" d="M 191 3500 
L 800 3500 
L 1894 563 
L 2988 3500 
L 3597 3500 
L 2284 0 
L 1503 0 
L 191 3500 
z
" transform="scale(0.015625)"/>
      <path id="DejaVuSans-73" d="M 2834 3397 
L 2834 2853 
Q 2591 2978 2328 3040 
Q 2066 3103 1784 3103 
Q 1356 3103 1142 2972 
Q 928 2841 928 2578 
Q 928 2378 1081 2264 
Q 1234 2150 1697 2047 
L 1894 2003 
Q 2506 1872 2764 1633 
Q 3022 1394 3022 966 
Q 3022 478 2636 193 
Q 2250 -91 1575 -91 
Q 1294 -91 989 -36 
Q 684 19 347 128 
L 347 722 
Q 666 556 975 473 
Q 1284 391 1588 391 
Q 1994 391 2212 530 
Q 2431 669 2431 922 
Q 2431 1156 2273 1281 
Q 2116 1406 1581 1522 
L 1381 1569 
Q 847 1681 609 1914 
Q 372 2147 372 2553 
Q 372 3047 722 3315 
Q 1072 3584 1716 3584 
Q 2034 3584 2315 3537 
Q 2597 3491 2834 3397 
z
" transform="scale(0.015625)"/>
     </defs>
     <use xlink:href="#DejaVuSans-45"/>
     <use xlink:href="#DejaVuSans-4c" x="63.183594"/>
     <use xlink:href="#DejaVuSans-42" x="118.896484"/>
     <use xlink:href="#DejaVuSans-4f" x="185.75"/>
     <use xlink:href="#DejaVuSans-20" x="264.460938"/>
     <use xlink:href="#DejaVuSans-6f" x="296.248047"/>
     <use xlink:href="#DejaVuSans-76" x="357.429688"/>
     <use xlink:href="#DejaVuSans-65" x="416.609375"/>
     <use xlink:href="#DejaVuSans-72" x="478.132812"/>
     <use xlink:href="#DejaVuSans-20" x="519.246094"/>
     <use xlink:href="#DejaVuSans-49" x="551.033203"/>
     <use xlink:href="#DejaVuSans-74" x="580.525391"/>
     <use xlink:href="#DejaVuSans-65" x="619.734375"/>
     <use xlink:href="#DejaVuSans-72" x="681.257812"/>
     <use xlink:href="#DejaVuSans-61" x="722.371094"/>
     <use xlink:href="#DejaVuSans-74" x="783.650391"/>
     <use xlink:href="#DejaVuSans-69" x="822.859375"/>
     <use xlink:href="#DejaVuSans-6f" x="850.642578"/>
     <use xlink:href="#DejaVuSans-6e" x="911.824219"/>
     <use xlink:href="#DejaVuSans-73" x="975.203125"/>
    </g>
   </g>
  </g>
 </g>
 <defs>
  <clipPath id="p048a0b6aec">
   <rect x="77.492969" y="25.3575" width="623.34" height="133.86"/>
  </clipPath>
 </defs>
</svg>
