<?xml version="1.0" encoding="utf-8" standalone="no"?>
<!DOCTYPE svg PUBLIC "-//W3C//DTD SVG 1.1//EN"
  "http://www.w3.org/Graphics/SVG/1.1/DTD/svg11.dtd">
<svg xmlns:xlink="http://www.w3.org/1999/xlink" width="708.082656pt" height="203.145pt" viewBox="0 0 708.082656 203.145" xmlns="http://www.w3.org/2000/svg" version="1.1">
 <metadata>
  <rdf:RDF xmlns:dc="http://purl.org/dc/elements/1.1/" xmlns:cc="http://creativecommons.org/ns#" xmlns:rdf="http://www.w3.org/1999/02/22-rdf-syntax-ns#">
   <cc:Work>
    <dc:type rdf:resource="http://purl.org/dc/dcmitype/StillImage"/>
    <dc:date>2025-02-04T18:56:36.378494</dc:date>
    <dc:format>image/svg+xml</dc:format>
    <dc:creator>
     <cc:Agent>
      <dc:title>Matplotlib v3.8.4, https://matplotlib.org/</dc:title>
     </cc:Agent>
    </dc:creator>
   </cc:Work>
  </rdf:RDF>
 </metadata>
 <defs>
  <style type="text/css">*{stroke-linejoin: round; stroke-linecap: butt}</style>
 </defs>
 <g id="figure_1">
  <g id="patch_1">
   <path d="M 0 203.145 
L 708.082656 203.145 
L 708.082656 0 
L 0 0 
z
" style="fill: #ffffff"/>
  </g>
  <g id="axes_1">
   <g id="patch_2">
    <path d="M 59.992656 159.2175 
L 700.882656 159.2175 
L 700.882656 25.3575 
L 59.992656 25.3575 
z
" style="fill: #ffffff"/>
   </g>
   <g id="matplotlib.axis_1">
    <g id="xtick_1">
     <g id="line2d_1">
      <path d="M 89.12402 159.2175 
L 89.12402 25.3575 
" clip-path="url(#pc1c35d0d54)" style="fill: none; stroke: #cccccc; stroke-linecap: round"/>
     </g>
     <g id="text_1">
      <!-- 0 -->
      <g style="fill: #262626" transform="translate(85.624645 177.075781) scale(0.11 -0.11)">
       <defs>
        <path id="DejaVuSans-30" d="M 2034 4250 
Q 1547 4250 1301 3770 
Q 1056 3291 1056 2328 
Q 1056 1369 1301 889 
Q 1547 409 2034 409 
Q 2525 409 2770 889 
Q 3016 1369 3016 2328 
Q 3016 3291 2770 3770 
Q 2525 4250 2034 4250 
z
M 2034 4750 
Q 2819 4750 3233 4129 
Q 3647 3509 3647 2328 
Q 3647 1150 3233 529 
Q 2819 -91 2034 -91 
Q 1250 -91 836 529 
Q 422 1150 422 2328 
Q 422 3509 836 4129 
Q 1250 4750 2034 4750 
z
" transform="scale(0.015625)"/>
       </defs>
       <use xlink:href="#DejaVuSans-30"/>
      </g>
     </g>
    </g>
    <g id="xtick_2">
     <g id="line2d_2">
      <path d="M 180.160242 159.2175 
L 180.160242 25.3575 
" clip-path="url(#pc1c35d0d54)" style="fill: none; stroke: #cccccc; stroke-linecap: round"/>
     </g>
     <g id="text_2">
      <!-- 20000 -->
      <g style="fill: #262626" transform="translate(162.663367 177.075781) scale(0.11 -0.11)">
       <defs>
        <path id="DejaVuSans-32" d="M 1228 531 
L 3431 531 
L 3431 0 
L 469 0 
L 469 531 
Q 828 903 1448 1529 
Q 2069 2156 2228 2338 
Q 2531 2678 2651 2914 
Q 2772 3150 2772 3378 
Q 2772 3750 2511 3984 
Q 2250 4219 1831 4219 
Q 1534 4219 1204 4116 
Q 875 4013 500 3803 
L 500 4441 
Q 881 4594 1212 4672 
Q 1544 4750 1819 4750 
Q 2544 4750 2975 4387 
Q 3406 4025 3406 3419 
Q 3406 3131 3298 2873 
Q 3191 2616 2906 2266 
Q 2828 2175 2409 1742 
Q 1991 1309 1228 531 
z
" transform="scale(0.015625)"/>
       </defs>
       <use xlink:href="#DejaVuSans-32"/>
       <use xlink:href="#DejaVuSans-30" x="63.623047"/>
       <use xlink:href="#DejaVuSans-30" x="127.246094"/>
       <use xlink:href="#DejaVuSans-30" x="190.869141"/>
       <use xlink:href="#DejaVuSans-30" x="254.492188"/>
      </g>
     </g>
    </g>
    <g id="xtick_3">
     <g id="line2d_3">
      <path d="M 271.196465 159.2175 
L 271.196465 25.3575 
" clip-path="url(#pc1c35d0d54)" style="fill: none; stroke: #cccccc; stroke-linecap: round"/>
     </g>
     <g id="text_3">
      <!-- 40000 -->
      <g style="fill: #262626" transform="translate(253.69959 177.075781) scale(0.11 -0.11)">
       <defs>
        <path id="DejaVuSans-34" d="M 2419 4116 
L 825 1625 
L 2419 1625 
L 2419 4116 
z
M 2253 4666 
L 3047 4666 
L 3047 1625 
L 3713 1625 
L 3713 1100 
L 3047 1100 
L 3047 0 
L 2419 0 
L 2419 1100 
L 313 1100 
L 313 1709 
L 2253 4666 
z
" transform="scale(0.015625)"/>
       </defs>
       <use xlink:href="#DejaVuSans-34"/>
       <use xlink:href="#DejaVuSans-30" x="63.623047"/>
       <use xlink:href="#DejaVuSans-30" x="127.246094"/>
       <use xlink:href="#DejaVuSans-30" x="190.869141"/>
       <use xlink:href="#DejaVuSans-30" x="254.492188"/>
      </g>
     </g>
    </g>
    <g id="xtick_4">
     <g id="line2d_4">
      <path d="M 362.232688 159.2175 
L 362.232688 25.3575 
" clip-path="url(#pc1c35d0d54)" style="fill: none; stroke: #cccccc; stroke-linecap: round"/>
     </g>
     <g id="text_4">
      <!-- 60000 -->
      <g style="fill: #262626" transform="translate(344.735813 177.075781) scale(0.11 -0.11)">
       <defs>
        <path id="DejaVuSans-36" d="M 2113 2584 
Q 1688 2584 1439 2293 
Q 1191 2003 1191 1497 
Q 1191 994 1439 701 
Q 1688 409 2113 409 
Q 2538 409 2786 701 
Q 3034 994 3034 1497 
Q 3034 2003 2786 2293 
Q 2538 2584 2113 2584 
z
M 3366 4563 
L 3366 3988 
Q 3128 4100 2886 4159 
Q 2644 4219 2406 4219 
Q 1781 4219 1451 3797 
Q 1122 3375 1075 2522 
Q 1259 2794 1537 2939 
Q 1816 3084 2150 3084 
Q 2853 3084 3261 2657 
Q 3669 2231 3669 1497 
Q 3669 778 3244 343 
Q 2819 -91 2113 -91 
Q 1303 -91 875 529 
Q 447 1150 447 2328 
Q 447 3434 972 4092 
Q 1497 4750 2381 4750 
Q 2619 4750 2861 4703 
Q 3103 4656 3366 4563 
z
" transform="scale(0.015625)"/>
       </defs>
       <use xlink:href="#DejaVuSans-36"/>
       <use xlink:href="#DejaVuSans-30" x="63.623047"/>
       <use xlink:href="#DejaVuSans-30" x="127.246094"/>
       <use xlink:href="#DejaVuSans-30" x="190.869141"/>
       <use xlink:href="#DejaVuSans-30" x="254.492188"/>
      </g>
     </g>
    </g>
    <g id="xtick_5">
     <g id="line2d_5">
      <path d="M 453.26891 159.2175 
L 453.26891 25.3575 
" clip-path="url(#pc1c35d0d54)" style="fill: none; stroke: #cccccc; stroke-linecap: round"/>
     </g>
     <g id="text_5">
      <!-- 80000 -->
      <g style="fill: #262626" transform="translate(435.772035 177.075781) scale(0.11 -0.11)">
       <defs>
        <path id="DejaVuSans-38" d="M 2034 2216 
Q 1584 2216 1326 1975 
Q 1069 1734 1069 1313 
Q 1069 891 1326 650 
Q 1584 409 2034 409 
Q 2484 409 2743 651 
Q 3003 894 3003 1313 
Q 3003 1734 2745 1975 
Q 2488 2216 2034 2216 
z
M 1403 2484 
Q 997 2584 770 2862 
Q 544 3141 544 3541 
Q 544 4100 942 4425 
Q 1341 4750 2034 4750 
Q 2731 4750 3128 4425 
Q 3525 4100 3525 3541 
Q 3525 3141 3298 2862 
Q 3072 2584 2669 2484 
Q 3125 2378 3379 2068 
Q 3634 1759 3634 1313 
Q 3634 634 3220 271 
Q 2806 -91 2034 -91 
Q 1263 -91 848 271 
Q 434 634 434 1313 
Q 434 1759 690 2068 
Q 947 2378 1403 2484 
z
M 1172 3481 
Q 1172 3119 1398 2916 
Q 1625 2713 2034 2713 
Q 2441 2713 2670 2916 
Q 2900 3119 2900 3481 
Q 2900 3844 2670 4047 
Q 2441 4250 2034 4250 
Q 1625 4250 1398 4047 
Q 1172 3844 1172 3481 
z
" transform="scale(0.015625)"/>
       </defs>
       <use xlink:href="#DejaVuSans-38"/>
       <use xlink:href="#DejaVuSans-30" x="63.623047"/>
       <use xlink:href="#DejaVuSans-30" x="127.246094"/>
       <use xlink:href="#DejaVuSans-30" x="190.869141"/>
       <use xlink:href="#DejaVuSans-30" x="254.492188"/>
      </g>
     </g>
    </g>
    <g id="xtick_6">
     <g id="line2d_6">
      <path d="M 544.305133 159.2175 
L 544.305133 25.3575 
" clip-path="url(#pc1c35d0d54)" style="fill: none; stroke: #cccccc; stroke-linecap: round"/>
     </g>
     <g id="text_6">
      <!-- 100000 -->
      <g style="fill: #262626" transform="translate(523.308883 177.075781) scale(0.11 -0.11)">
       <defs>
        <path id="DejaVuSans-31" d="M 794 531 
L 1825 531 
L 1825 4091 
L 703 3866 
L 703 4441 
L 1819 4666 
L 2450 4666 
L 2450 531 
L 3481 531 
L 3481 0 
L 794 0 
L 794 531 
z
" transform="scale(0.015625)"/>
       </defs>
       <use xlink:href="#DejaVuSans-31"/>
       <use xlink:href="#DejaVuSans-30" x="63.623047"/>
       <use xlink:href="#DejaVuSans-30" x="127.246094"/>
       <use xlink:href="#DejaVuSans-30" x="190.869141"/>
       <use xlink:href="#DejaVuSans-30" x="254.492188"/>
       <use xlink:href="#DejaVuSans-30" x="318.115234"/>
      </g>
     </g>
    </g>
    <g id="xtick_7">
     <g id="line2d_7">
      <path d="M 635.341355 159.2175 
L 635.341355 25.3575 
" clip-path="url(#pc1c35d0d54)" style="fill: none; stroke: #cccccc; stroke-linecap: round"/>
     </g>
     <g id="text_7">
      <!-- 120000 -->
      <g style="fill: #262626" transform="translate(614.345105 177.075781) scale(0.11 -0.11)">
       <use xlink:href="#DejaVuSans-31"/>
       <use xlink:href="#DejaVuSans-32" x="63.623047"/>
       <use xlink:href="#DejaVuSans-30" x="127.246094"/>
       <use xlink:href="#DejaVuSans-30" x="190.869141"/>
       <use xlink:href="#DejaVuSans-30" x="254.492188"/>
       <use xlink:href="#DejaVuSans-30" x="318.115234"/>
      </g>
     </g>
    </g>
    <g id="text_8">
     <!-- Iteration -->
     <g style="fill: #262626" transform="translate(352.866484 193.241406) scale(0.13 -0.13)">
      <defs>
       <path id="DejaVuSans-49" d="M 628 4666 
L 1259 4666 
L 1259 0 
L 628 0 
L 628 4666 
z
" transform="scale(0.015625)"/>
       <path id="DejaVuSans-74" d="M 1172 4494 
L 1172 3500 
L 2356 3500 
L 2356 3053 
L 1172 3053 
L 1172 1153 
Q 1172 725 1289 603 
Q 1406 481 1766 481 
L 2356 481 
L 2356 0 
L 1766 0 
Q 1100 0 847 248 
Q 594 497 594 1153 
L 594 3053 
L 172 3053 
L 172 3500 
L 594 3500 
L 594 4494 
L 1172 4494 
z
" transform="scale(0.015625)"/>
       <path id="DejaVuSans-65" d="M 3597 1894 
L 3597 1613 
L 953 1613 
Q 991 1019 1311 708 
Q 1631 397 2203 397 
Q 2534 397 2845 478 
Q 3156 559 3463 722 
L 3463 178 
Q 3153 47 2828 -22 
Q 2503 -91 2169 -91 
Q 1331 -91 842 396 
Q 353 884 353 1716 
Q 353 2575 817 3079 
Q 1281 3584 2069 3584 
Q 2775 3584 3186 3129 
Q 3597 2675 3597 1894 
z
M 3022 2063 
Q 3016 2534 2758 2815 
Q 2500 3097 2075 3097 
Q 1594 3097 1305 2825 
Q 1016 2553 972 2059 
L 3022 2063 
z
" transform="scale(0.015625)"/>
       <path id="DejaVuSans-72" d="M 2631 2963 
Q 2534 3019 2420 3045 
Q 2306 3072 2169 3072 
Q 1681 3072 1420 2755 
Q 1159 2438 1159 1844 
L 1159 0 
L 581 0 
L 581 3500 
L 1159 3500 
L 1159 2956 
Q 1341 3275 1631 3429 
Q 1922 3584 2338 3584 
Q 2397 3584 2469 3576 
Q 2541 3569 2628 3553 
L 2631 2963 
z
" transform="scale(0.015625)"/>
       <path id="DejaVuSans-61" d="M 2194 1759 
Q 1497 1759 1228 1600 
Q 959 1441 959 1056 
Q 959 750 1161 570 
Q 1363 391 1709 391 
Q 2188 391 2477 730 
Q 2766 1069 2766 1631 
L 2766 1759 
L 2194 1759 
z
M 3341 1997 
L 3341 0 
L 2766 0 
L 2766 531 
Q 2569 213 2275 61 
Q 1981 -91 1556 -91 
Q 1019 -91 701 211 
Q 384 513 384 1019 
Q 384 1609 779 1909 
Q 1175 2209 1959 2209 
L 2766 2209 
L 2766 2266 
Q 2766 2663 2505 2880 
Q 2244 3097 1772 3097 
Q 1472 3097 1187 3025 
Q 903 2953 641 2809 
L 641 3341 
Q 956 3463 1253 3523 
Q 1550 3584 1831 3584 
Q 2591 3584 2966 3190 
Q 3341 2797 3341 1997 
z
" transform="scale(0.015625)"/>
       <path id="DejaVuSans-69" d="M 603 3500 
L 1178 3500 
L 1178 0 
L 603 0 
L 603 3500 
z
M 603 4863 
L 1178 4863 
L 1178 4134 
L 603 4134 
L 603 4863 
z
" transform="scale(0.015625)"/>
       <path id="DejaVuSans-6f" d="M 1959 3097 
Q 1497 3097 1228 2736 
Q 959 2375 959 1747 
Q 959 1119 1226 758 
Q 1494 397 1959 397 
Q 2419 397 2687 759 
Q 2956 1122 2956 1747 
Q 2956 2369 2687 2733 
Q 2419 3097 1959 3097 
z
M 1959 3584 
Q 2709 3584 3137 3096 
Q 3566 2609 3566 1747 
Q 3566 888 3137 398 
Q 2709 -91 1959 -91 
Q 1206 -91 779 398 
Q 353 888 353 1747 
Q 353 2609 779 3096 
Q 1206 3584 1959 3584 
z
" transform="scale(0.015625)"/>
       <path id="DejaVuSans-6e" d="M 3513 2113 
L 3513 0 
L 2938 0 
L 2938 2094 
Q 2938 2591 2744 2837 
Q 2550 3084 2163 3084 
Q 1697 3084 1428 2787 
Q 1159 2491 1159 1978 
L 1159 0 
L 581 0 
L 581 3500 
L 1159 3500 
L 1159 2956 
Q 1366 3272 1645 3428 
Q 1925 3584 2291 3584 
Q 2894 3584 3203 3211 
Q 3513 2838 3513 2113 
z
" transform="scale(0.015625)"/>
      </defs>
      <use xlink:href="#DejaVuSans-49"/>
      <use xlink:href="#DejaVuSans-74" x="29.492188"/>
      <use xlink:href="#DejaVuSans-65" x="68.701172"/>
      <use xlink:href="#DejaVuSans-72" x="130.224609"/>
      <use xlink:href="#DejaVuSans-61" x="171.337891"/>
      <use xlink:href="#DejaVuSans-74" x="232.617188"/>
      <use xlink:href="#DejaVuSans-69" x="271.826172"/>
      <use xlink:href="#DejaVuSans-6f" x="299.609375"/>
      <use xlink:href="#DejaVuSans-6e" x="360.791016"/>
     </g>
    </g>
   </g>
   <g id="matplotlib.axis_2">
    <g id="ytick_1">
     <g id="line2d_8">
      <path d="M 59.992656 140.621492 
L 700.882656 140.621492 
" clip-path="url(#pc1c35d0d54)" style="fill: none; stroke: #cccccc; stroke-linecap: round"/>
     </g>
     <g id="text_9">
      <!-- −2.0 -->
      <g style="fill: #262626" transform="translate(23.781563 144.800633) scale(0.11 -0.11)">
       <defs>
        <path id="DejaVuSans-2212" d="M 678 2272 
L 4684 2272 
L 4684 1741 
L 678 1741 
L 678 2272 
z
" transform="scale(0.015625)"/>
        <path id="DejaVuSans-2e" d="M 684 794 
L 1344 794 
L 1344 0 
L 684 0 
L 684 794 
z
" transform="scale(0.015625)"/>
       </defs>
       <use xlink:href="#DejaVuSans-2212"/>
       <use xlink:href="#DejaVuSans-32" x="83.789062"/>
       <use xlink:href="#DejaVuSans-2e" x="147.412109"/>
       <use xlink:href="#DejaVuSans-30" x="179.199219"/>
      </g>
     </g>
    </g>
    <g id="ytick_2">
     <g id="line2d_9">
      <path d="M 59.992656 113.325273 
L 700.882656 113.325273 
" clip-path="url(#pc1c35d0d54)" style="fill: none; stroke: #cccccc; stroke-linecap: round"/>
     </g>
     <g id="text_10">
      <!-- −1.5 -->
      <g style="fill: #262626" transform="translate(23.781563 117.504413) scale(0.11 -0.11)">
       <defs>
        <path id="DejaVuSans-35" d="M 691 4666 
L 3169 4666 
L 3169 4134 
L 1269 4134 
L 1269 2991 
Q 1406 3038 1543 3061 
Q 1681 3084 1819 3084 
Q 2600 3084 3056 2656 
Q 3513 2228 3513 1497 
Q 3513 744 3044 326 
Q 2575 -91 1722 -91 
Q 1428 -91 1123 -41 
Q 819 9 494 109 
L 494 744 
Q 775 591 1075 516 
Q 1375 441 1709 441 
Q 2250 441 2565 725 
Q 2881 1009 2881 1497 
Q 2881 1984 2565 2268 
Q 2250 2553 1709 2553 
Q 1456 2553 1204 2497 
Q 953 2441 691 2322 
L 691 4666 
z
" transform="scale(0.015625)"/>
       </defs>
       <use xlink:href="#DejaVuSans-2212"/>
       <use xlink:href="#DejaVuSans-31" x="83.789062"/>
       <use xlink:href="#DejaVuSans-2e" x="147.412109"/>
       <use xlink:href="#DejaVuSans-35" x="179.199219"/>
      </g>
     </g>
    </g>
    <g id="ytick_3">
     <g id="line2d_10">
      <path d="M 59.992656 86.029053 
L 700.882656 86.029053 
" clip-path="url(#pc1c35d0d54)" style="fill: none; stroke: #cccccc; stroke-linecap: round"/>
     </g>
     <g id="text_11">
      <!-- −1.0 -->
      <g style="fill: #262626" transform="translate(23.781563 90.208194) scale(0.11 -0.11)">
       <use xlink:href="#DejaVuSans-2212"/>
       <use xlink:href="#DejaVuSans-31" x="83.789062"/>
       <use xlink:href="#DejaVuSans-2e" x="147.412109"/>
       <use xlink:href="#DejaVuSans-30" x="179.199219"/>
      </g>
     </g>
    </g>
    <g id="ytick_4">
     <g id="line2d_11">
      <path d="M 59.992656 58.732833 
L 700.882656 58.732833 
" clip-path="url(#pc1c35d0d54)" style="fill: none; stroke: #cccccc; stroke-linecap: round"/>
     </g>
     <g id="text_12">
      <!-- −0.5 -->
      <g style="fill: #262626" transform="translate(23.781563 62.911974) scale(0.11 -0.11)">
       <use xlink:href="#DejaVuSans-2212"/>
       <use xlink:href="#DejaVuSans-30" x="83.789062"/>
       <use xlink:href="#DejaVuSans-2e" x="147.412109"/>
       <use xlink:href="#DejaVuSans-35" x="179.199219"/>
      </g>
     </g>
    </g>
    <g id="ytick_5">
     <g id="line2d_12">
      <path d="M 59.992656 31.436614 
L 700.882656 31.436614 
" clip-path="url(#pc1c35d0d54)" style="fill: none; stroke: #cccccc; stroke-linecap: round"/>
     </g>
     <g id="text_13">
      <!-- 0.0 -->
      <g style="fill: #262626" transform="translate(32.999219 35.615755) scale(0.11 -0.11)">
       <use xlink:href="#DejaVuSans-30"/>
       <use xlink:href="#DejaVuSans-2e" x="63.623047"/>
       <use xlink:href="#DejaVuSans-30" x="95.410156"/>
      </g>
     </g>
    </g>
    <g id="text_14">
     <!-- ELBO -->
     <g style="fill: #262626" transform="translate(17.077969 109.478984) rotate(-90) scale(0.13 -0.13)">
      <defs>
       <path id="DejaVuSans-45" d="M 628 4666 
L 3578 4666 
L 3578 4134 
L 1259 4134 
L 1259 2753 
L 3481 2753 
L 3481 2222 
L 1259 2222 
L 1259 531 
L 3634 531 
L 3634 0 
L 628 0 
L 628 4666 
z
" transform="scale(0.015625)"/>
       <path id="DejaVuSans-4c" d="M 628 4666 
L 1259 4666 
L 1259 531 
L 3531 531 
L 3531 0 
L 628 0 
L 628 4666 
z
" transform="scale(0.015625)"/>
       <path id="DejaVuSans-42" d="M 1259 2228 
L 1259 519 
L 2272 519 
Q 2781 519 3026 730 
Q 3272 941 3272 1375 
Q 3272 1813 3026 2020 
Q 2781 2228 2272 2228 
L 1259 2228 
z
M 1259 4147 
L 1259 2741 
L 2194 2741 
Q 2656 2741 2882 2914 
Q 3109 3088 3109 3444 
Q 3109 3797 2882 3972 
Q 2656 4147 2194 4147 
L 1259 4147 
z
M 628 4666 
L 2241 4666 
Q 2963 4666 3353 4366 
Q 3744 4066 3744 3513 
Q 3744 3084 3544 2831 
Q 3344 2578 2956 2516 
Q 3422 2416 3680 2098 
Q 3938 1781 3938 1306 
Q 3938 681 3513 340 
Q 3088 0 2303 0 
L 628 0 
L 628 4666 
z
" transform="scale(0.015625)"/>
       <path id="DejaVuSans-4f" d="M 2522 4238 
Q 1834 4238 1429 3725 
Q 1025 3213 1025 2328 
Q 1025 1447 1429 934 
Q 1834 422 2522 422 
Q 3209 422 3611 934 
Q 4013 1447 4013 2328 
Q 4013 3213 3611 3725 
Q 3209 4238 2522 4238 
z
M 2522 4750 
Q 3503 4750 4090 4092 
Q 4678 3434 4678 2328 
Q 4678 1225 4090 567 
Q 3503 -91 2522 -91 
Q 1538 -91 948 565 
Q 359 1222 359 2328 
Q 359 3434 948 4092 
Q 1538 4750 2522 4750 
z
" transform="scale(0.015625)"/>
      </defs>
      <use xlink:href="#DejaVuSans-45"/>
      <use xlink:href="#DejaVuSans-4c" x="63.183594"/>
      <use xlink:href="#DejaVuSans-42" x="118.896484"/>
      <use xlink:href="#DejaVuSans-4f" x="185.75"/>
     </g>
    </g>
    <g id="text_15">
     <!-- 1e8 -->
     <g style="fill: #262626" transform="translate(59.992656 22.3575) scale(0.11 -0.11)">
      <use xlink:href="#DejaVuSans-31"/>
      <use xlink:href="#DejaVuSans-65" x="63.623047"/>
      <use xlink:href="#DejaVuSans-38" x="125.146484"/>
     </g>
    </g>
   </g>
   <g id="PolyCollection_1"/>
   <g id="line2d_13">
    <path d="M 89.12402 31.44975 
L 89.360714 31.44532 
L 94.385914 31.504689 
L 94.472398 31.555397 
L 94.499709 31.549358 
L 99.652359 31.663772 
L 99.738843 31.722511 
L 99.770706 31.684604 
L 99.911812 31.601595 
L 99.798017 31.718581 
L 99.925468 31.609598 
L 99.948227 31.663782 
L 100.025608 31.57721 
L 100.030159 31.577205 
L 100.521755 31.684951 
L 100.530859 31.728854 
L 100.612791 31.631785 
L 100.626447 31.661895 
L 100.78576 31.616572 
L 100.867693 31.627182 
L 100.899555 31.591338 
L 101.377495 31.685051 
L 101.409358 31.765433 
L 101.491291 31.738048 
L 101.66426 31.581992 
L 101.696122 31.616858 
L 101.778055 31.582608 
L 102.060267 31.673437 
L 102.133096 31.723877 
L 102.169511 31.660896 
L 102.36979 31.557868 
L 102.488137 31.559322 
L 102.702072 31.655798 
L 103.025251 31.749463 
L 103.111735 31.696389 
L 103.143598 31.765037 
L 103.330222 31.691005 
L 103.471329 31.722868 
L 103.362085 31.637942 
L 103.494088 31.679338 
L 104.308862 31.783881 
L 104.345276 31.808587 
L 104.40445 31.73352 
L 104.586522 31.672412 
L 104.591074 31.681829 
L 105.178258 31.77142 
L 105.191913 31.806977 
L 105.255639 31.716976 
L 105.278398 31.717845 
L 105.333019 31.757355 
L 105.396745 31.686634 
L 105.442263 31.631083 
L 105.478677 31.721082 
L 105.501436 31.722291 
L 105.628887 31.761713 
L 105.56061 31.676588 
L 105.637991 31.756168 
L 105.719923 31.685493 
L 105.665302 31.765798 
L 105.76089 31.705516 
L 107.481474 31.816229 
L 107.517889 31.861665 
L 107.581614 31.784879 
L 107.640788 31.710716 
L 107.709065 31.742297 
L 107.77279 31.659334 
L 107.854723 31.727955 
L 108.323559 31.679986 
L 108.369077 31.636272 
L 108.432803 31.692033 
L 108.692256 31.799364 
L 108.72867 31.80994 
L 108.769637 31.713469 
L 108.774189 31.71347 
L 108.82881 31.776332 
L 108.887984 31.691973 
L 109.083712 31.584008 
L 109.088263 31.602834 
L 109.224818 31.657134 
L 109.343165 31.690762 
L 109.347717 31.669601 
L 109.493375 31.780321 
L 109.588963 31.825352 
L 109.629929 31.778821 
L 109.812001 31.593872 
L 109.839312 31.641157 
L 111.022783 31.750104 
L 111.027335 31.770298 
L 111.104716 31.686945 
L 111.122923 31.701244 
L 111.236718 31.776746 
L 111.250374 31.709975 
L 111.268581 31.679724 
L 111.327755 31.798979 
L 111.34141 31.78469 
L 111.350514 31.791626 
L 111.409687 31.699012 
L 111.414239 31.689991 
L 111.464309 31.779456 
L 111.505275 31.745333 
L 111.637278 31.783764 
L 111.528034 31.723794 
L 111.650933 31.762947 
L 112.561295 31.674114 
L 112.679642 31.623717 
L 113.021028 31.696835 
L 113.057443 31.737783 
L 113.134824 31.702833 
L 114.518574 31.800137 
L 114.5823 31.807215 
L 114.614162 31.76231 
L 114.618714 31.762312 
L 114.750717 31.64923 
L 114.768924 31.699742 
L 114.878167 31.778989 
L 114.891823 31.746749 
L 115.451695 31.636974 
L 115.510869 31.647398 
L 115.465351 31.657532 
L 115.524524 31.688464 
L 115.615561 31.760654 
L 115.63832 31.737534 
L 115.665631 31.733339 
L 115.679286 31.781034 
L 115.733908 31.783239 
L 115.820392 31.746177 
L 115.770322 31.680086 
L 115.829496 31.734854 
L 116.038879 31.680909 
L 116.047983 31.697123 
L 116.161778 31.741973 
L 116.075294 31.673221 
L 116.193641 31.717264 
L 118.688033 31.619828 
L 118.724448 31.59532 
L 118.747207 31.649811 
L 118.792725 31.646612 
L 118.924727 31.795328 
L 118.979349 31.746605 
L 119.015764 31.719624 
L 119.070385 31.809914 
L 119.079489 31.801586 
L 119.147766 31.715737 
L 119.229699 31.765631 
L 119.816882 31.660055 
L 119.889711 31.682628 
L 119.903367 31.722398 
L 119.907919 31.722394 
L 119.930678 31.758914 
L 120.017162 31.702317 
L 120.053577 31.780835 
L 120.144613 31.692134 
L 120.285719 31.625484 
L 120.449584 31.681211 
L 120.531517 31.765556 
L 120.572483 31.748684 
L 120.872903 31.651773 
L 120.986698 31.63404 
L 120.99125 31.642889 
L 121.023112 31.632908 
L 121.059527 31.699883 
L 121.086838 31.6877 
L 121.223392 31.740935 
L 121.287117 31.682713 
L 121.337187 31.71651 
L 121.36905 31.765157 
L 121.437327 31.666183 
L 121.974441 31.773241 
L 122.015407 31.764656 
L 122.038166 31.679142 
L 122.04727 31.667038 
L 122.09734 31.766681 
L 122.124651 31.748321 
L 122.47514 31.645221 
L 122.488795 31.635647 
L 122.547969 31.741215 
L 122.561624 31.725327 
L 123.20343 31.61931 
L 123.212533 31.588637 
L 123.248948 31.716822 
L 123.299018 31.699447 
L 123.358191 31.674611 
L 123.408261 31.726032 
L 123.440124 31.772302 
L 123.485642 31.65711 
L 123.499298 31.669087 
L 123.512953 31.687199 
L 123.603989 31.707791 
L 123.717784 31.716314 
L 123.644955 31.657136 
L 123.726888 31.698631 
L 124.414212 31.802893 
L 124.45973 31.831984 
L 124.523455 31.780907 
L 124.528007 31.769649 
L 124.55987 31.84779 
L 124.623595 31.825582 
L 124.660009 31.727955 
L 124.732838 31.754692 
L 124.792012 31.668116 
L 124.810219 31.631287 
L 124.951325 31.706282 
L 125.069672 31.699884 
L 125.329126 31.722251 
L 125.333677 31.707143 
L 125.420162 31.636798 
L 125.456576 31.661114 
L 127.227231 31.769021 
L 127.336474 31.7623 
L 127.290956 31.705093 
L 127.341026 31.760505 
L 127.368337 31.774211 
L 127.409303 31.700532 
L 127.427511 31.693871 
L 127.441166 31.674558 
L 127.504891 31.786908 
L 127.509443 31.7869 
L 127.57772 31.729675 
L 127.62779 31.81584 
L 127.782552 31.743248 
L 127.796207 31.775361 
L 127.837174 31.678796 
L 127.873588 31.648633 
L 127.919106 31.72291 
L 127.946417 31.684554 
L 128.069316 31.716206 
L 128.087523 31.69026 
L 128.219526 31.671034 
L 128.346976 31.736602 
L 128.483531 31.683214 
L 128.519945 31.734634 
L 130.927853 31.645533 
L 131.000682 31.665056 
L 131.041649 31.623739 
L 131.128133 31.651759 
L 131.137237 31.679281 
L 131.228273 31.652687 
L 131.251032 31.687776 
L 131.642488 31.675677 
L 131.756283 31.653973 
L 131.769938 31.660665 
L 131.942907 31.607197 
L 132.3025 31.688758 
L 132.420847 31.774733 
L 132.712163 31.754654 
L 132.716715 31.77753 
L 132.766785 31.810601 
L 132.807751 31.718025 
L 133.294795 31.813763 
L 133.313002 31.861529 
L 133.390383 31.738195 
L 133.399487 31.760445 
L 133.690803 31.659506 
L 133.695354 31.646122 
L 133.768183 31.742274 
L 133.781839 31.73671 
L 133.818253 31.689889 
L 133.886531 31.706345 
L 134.018533 31.671921 
L 133.90929 31.739982 
L 134.023085 31.687021 
L 134.077707 31.726697 
L 134.132328 31.673071 
L 134.61482 31.794133 
L 134.623924 31.830864 
L 134.71496 31.744793 
L 134.846963 31.637061 
L 134.960758 31.628411 
L 135.09276 31.764587 
L 135.138279 31.733853 
L 135.197452 31.779896 
L 135.261177 31.70231 
L 135.415939 31.626204 
L 135.425043 31.651247 
L 135.49332 31.75469 
L 135.625322 31.767606 
L 135.907535 31.726502 
L 136.567547 31.616523 
L 136.617617 31.565705 
L 136.676791 31.64296 
L 136.808793 31.716156 
L 136.731412 31.602041 
L 136.813345 31.704267 
L 136.890726 31.694219 
L 136.913485 31.653837 
L 137.141075 31.777759 
L 137.145627 31.771952 
L 137.336803 31.646499 
L 137.345907 31.625669 
L 137.382321 31.677943 
L 137.446047 31.666647 
L 137.573498 31.761071 
L 137.473358 31.644497 
L 137.578049 31.742749 
L 137.791984 31.62246 
L 137.796536 31.642421 
L 137.978609 31.739332 
L 137.992264 31.765013 
L 138.05599 31.674347 
L 138.087852 31.726744 
L 138.893523 31.624572 
L 139.016422 31.611567 
L 139.412429 31.702348 
L 139.426085 31.742767 
L 139.512569 31.660699 
L 139.517121 31.666407 
L 140.873561 31.77647 
L 140.950941 31.782008 
L 140.882664 31.768589 
L 140.978252 31.743674 
L 140.982804 31.73004 
L 141.051081 31.842523 
L 141.082944 31.773632 
L 141.205843 31.751691 
L 141.369708 31.674186 
L 141.378812 31.681261 
L 141.497159 31.71482 
L 141.510814 31.696894 
L 141.55178 31.653261 
L 141.615506 31.731515 
L 141.620058 31.716249 
L 141.674679 31.728906 
L 141.711094 31.669975 
L 141.729301 31.694727 
L 142.644215 31.802359 
L 142.653319 31.810551 
L 142.717044 31.717506 
L 142.726148 31.722983 
L 142.826288 31.733831 
L 142.780769 31.775784 
L 142.835391 31.745771 
L 142.849047 31.723982 
L 142.962842 31.744914 
L 143.076637 31.648158 
L 143.081189 31.650366 
L 143.163122 31.590758 
L 143.185881 31.620256 
L 143.222295 31.61158 
L 143.217743 31.642975 
L 143.286021 31.661293 
L 143.399816 31.741121 
L 143.413471 31.712624 
L 143.463541 31.649968 
L 143.53637 31.707982 
L 143.841341 31.579096 
L 143.895963 31.585127 
L 143.927826 31.636955 
L 144.087139 31.773992 
L 144.232797 31.663785 
L 144.410318 31.741115 
L 144.505906 31.661078 
L 144.537769 31.697949 
L 144.587838 31.689361 
L 144.596942 31.629856 
L 144.615149 31.617634 
L 144.683427 31.720074 
L 144.810877 31.744717 
L 144.938328 31.653396 
L 144.951983 31.729603 
L 145.347991 31.62629 
L 145.379854 31.602672 
L 145.407164 31.667036 
L 145.457234 31.648175 
L 145.580133 31.678625 
L 145.584685 31.672544 
L 145.639307 31.612017 
L 145.703032 31.662534 
L 145.825931 31.738413 
L 147.068576 31.636158 
L 147.100438 31.624253 
L 147.136853 31.70819 
L 147.15506 31.708849 
L 147.314373 31.830332 
L 147.35534 31.782107 
L 147.48279 31.669684 
L 147.537412 31.629729 
L 147.605689 31.673232 
L 148.252046 31.566564 
L 148.265702 31.544661 
L 148.315772 31.639434 
L 148.338531 31.643866 
L 149.344481 31.744778 
L 149.353585 31.758741 
L 149.421862 31.684986 
L 149.440069 31.686999 
L 150.532504 31.795307 
L 150.582574 31.718682 
L 150.632644 31.754201 
L 150.746439 31.636994 
L 150.801061 31.717217 
L 150.910304 31.727223 
L 150.842027 31.686891 
L 150.914856 31.719675 
L 151.042307 31.673056 
L 151.178861 31.629631 
L 151.069618 31.707067 
L 151.183413 31.640922 
L 151.224379 31.695852 
L 151.297208 31.644841 
L 151.370037 31.741245 
L 151.456521 31.709928 
L 151.488384 31.754705 
L 151.847977 31.688961 
L 151.911703 31.627835 
L 151.948117 31.721764 
L 151.952669 31.715756 
L 152.066464 31.737475 
L 151.966324 31.697908 
L 152.084671 31.725846 
L 152.243985 31.780599 
L 152.248537 31.772001 
L 152.371436 31.675008 
L 159.376673 31.783103 
L 159.403984 31.845473 
L 159.472261 31.731071 
L 159.900131 31.620235 
L 160.032134 31.584476 
L 160.036685 31.591947 
L 160.209654 31.654191 
L 160.232413 31.636996 
L 160.255172 31.689596 
L 160.314346 31.67805 
L 163.464199 31.788323 
L 163.468751 31.806752 
L 163.555235 31.714412 
L 163.559787 31.720887 
L 167.105648 31.618153 
L 167.201236 31.587633 
L 167.214892 31.627063 
L 168.26636 31.734924 
L 168.307326 31.740725 
L 168.352844 31.673425 
L 168.357396 31.672705 
L 168.79437 31.570431 
L 168.803474 31.556942 
L 168.880854 31.644758 
L 170.546817 31.751915 
L 170.587784 31.769732 
L 170.642405 31.701339 
L 170.824478 31.644561 
L 171.452628 31.750597 
L 171.50725 31.774307 
L 171.525457 31.722482 
L 171.566423 31.740578 
L 171.621045 31.806606 
L 171.680218 31.71186 
L 171.862291 31.588406 
L 171.880498 31.621706 
L 172.007949 31.688596 
L 172.012501 31.682777 
L 178.09372 31.547594 
L 178.098272 31.532506 
L 178.171101 31.637037 
L 178.180205 31.62551 
L 178.321311 31.696785 
L 178.730974 31.622792 
L 178.740077 31.653962 
L 178.794699 31.693195 
L 178.849321 31.656263 
L 178.92215 31.727207 
L 178.954013 31.703251 
L 180.014585 31.605682 
L 180.019136 31.588263 
L 180.087413 31.644378 
L 180.119276 31.630395 
L 180.342315 31.690933 
L 180.360522 31.774954 
L 180.451558 31.691284 
L 180.551698 31.678574 
L 180.565354 31.69012 
L 180.770185 31.592831 
L 181.216263 31.687641 
L 181.252677 31.719152 
L 181.298195 31.640965 
L 181.320954 31.66427 
L 183.701552 31.766039 
L 183.769829 31.788465 
L 183.715207 31.759385 
L 183.801691 31.751204 
L 183.920038 31.668495 
L 183.92459 31.689045 
L 184.329701 31.595958 
L 184.37522 31.541948 
L 184.425289 31.628115 
L 184.434393 31.628111 
L 187.752663 31.736613 
L 187.807285 31.780035 
L 187.761767 31.71676 
L 187.857355 31.705713 
L 189.596147 31.597664 
L 189.618906 31.543846 
L 189.668976 31.624171 
L 189.709942 31.6002 
L 190.133261 31.707463 
L 190.137812 31.713893 
L 190.187882 31.647271 
L 190.210641 31.642465 
L 190.251608 31.672682 
L 190.328989 31.599027 
L 190.429128 31.713216 
L 190.451887 31.685684 
L 190.492854 31.672283 
L 190.538372 31.735922 
L 190.556579 31.759963 
L 190.611201 31.694544 
L 190.647615 31.713541 
L 190.78417 31.65602 
L 190.797825 31.669751 
L 193.747399 31.774959 
L 193.779261 31.775545 
L 193.80202 31.720489 
L 193.829331 31.704668 
L 194.58038 31.599489 
L 194.716934 31.56598 
L 194.721486 31.577961 
L 194.821626 31.613128 
L 194.735142 31.590319 
L 194.826178 31.619382 
L 194.926318 31.717385 
L 194.876248 31.596279 
L 194.967284 31.689534 
L 195.599986 31.622138 
L 195.672815 153.132955 
L 195.713781 153.116175 
L 195.795714 153.086073 
L 195.827576 153.122859 
L 195.895854 31.587665 
L 195.941372 31.627058 
L 196.801664 31.68983 
L 196.838078 31.752802 
L 196.897252 31.658744 
L 196.915459 31.714896 
L 197.061117 31.677229 
L 196.965529 31.751976 
L 197.065669 31.683208 
L 197.129394 31.769267 
L 197.19312 31.665465 
L 205.204307 31.560592 
L 205.327206 31.55031 
L 205.331758 31.555895 
L 205.796043 31.655305 
L 205.918942 31.601572 
L 205.850664 31.696858 
L 205.928045 31.61309 
L 206.428744 31.721708 
L 206.519781 31.722442 
L 206.528884 31.680287 
L 206.674542 31.618222 
L 206.565299 31.703177 
L 206.679094 31.625407 
L 206.724612 31.64628 
L 206.783786 31.597485 
L 206.824752 31.59984 
L 206.865718 31.660565 
L 206.874822 31.659735 
L 206.984065 31.622552 
L 207.106964 31.579401 
L 207.029584 31.648148 
L 207.125172 31.593379 
L 208.4543 31.680479 
L 208.467956 31.70829 
L 208.47706 31.661611 
L 208.568096 31.689597 
L 208.70465 31.702473 
L 208.709202 31.689623 
L 208.845756 31.570892 
L 208.85486 31.577128 
L 209.328248 31.690163 
L 209.373766 31.727018 
L 209.414733 31.653202 
L 209.428388 31.6532 
L 209.451147 31.678264 
L 209.592253 31.598678 
L 209.655979 31.660592 
L 209.7106 31.631647 
L 209.838051 31.583333 
L 210.015572 31.680565 
L 210.020123 31.675285 
L 210.129367 31.652647 
L 210.06109 31.736502 
L 210.152126 31.681307 
L 213.925577 31.600761 
L 213.934681 31.565677 
L 214.021165 31.636196 
L 214.030269 31.627534 
L 214.426277 31.720997 
L 214.43538 31.748179 
L 214.521865 31.676854 
L 214.530968 31.676853 
L 218.199728 31.565911 
L 218.331731 31.524002 
L 218.345386 31.535887 
L 218.504699 31.633951 
L 218.513803 31.670774 
L 218.609391 31.606893 
L 218.809671 31.7173 
L 218.864293 31.72665 
L 218.896155 31.656452 
L 218.900707 31.656454 
L 219.005399 31.589352 
L 219.028158 31.619327 
L 222.432912 31.693637 
L 222.5285 31.739581 
L 222.546708 31.732582 
L 222.587674 31.771832 
L 222.706021 31.653767 
L 222.860783 31.681766 
L 223.539003 31.614941 
L 223.566313 31.592733 
L 223.611832 31.666075 
L 223.634591 31.669775 
L 223.766593 31.702783 
L 223.780249 31.677874 
L 229.069453 31.594652 
L 229.101316 31.559015 
L 229.178697 31.594475 
L 229.429046 31.705508 
L 229.520082 31.709636 
L 229.456357 31.693375 
L 229.53829 31.688247 
L 229.693051 31.578864 
L 229.724914 31.620647 
L 229.825054 31.637348 
L 229.743121 31.604367 
L 229.838709 31.609338 
L 229.943401 31.615731 
L 229.961608 31.59513 
L 230.01623 31.667199 
L 230.079955 31.619919 
L 231.113216 31.719522 
L 231.195149 31.748976 
L 231.22246 31.722356 
L 231.395429 31.660805 
L 231.491017 31.700439 
L 231.513776 31.677973 
L 231.654882 31.592449 
L 237.635962 31.695446 
L 237.749757 31.72408 
L 237.658721 31.666081 
L 237.75886 31.713472 
L 238.519013 31.605399 
L 238.559979 31.568729 
L 238.619153 31.64983 
L 238.764811 31.679365 
L 238.946883 31.616847 
L 239.092541 31.640928 
L 239.183577 31.598406 
L 239.201785 31.653224 
L 246.384543 31.549049 
L 246.398198 31.533459 
L 246.430061 31.596931 
L 246.480131 31.591401 
L 246.530201 31.572552 
L 246.612133 31.641531 
L 248.159749 31.7499 
L 248.232578 31.783713 
L 248.264441 31.704327 
L 248.428306 31.618875 
L 248.437409 31.632779 
L 248.51479 31.746671 
L 248.451065 31.616196 
L 248.56486 31.699985 
L 248.683207 31.698125 
L 248.687759 31.704008 
L 249.757435 31.619463 
L 249.775642 31.575525 
L 249.87123 31.599927 
L 250.157994 31.579632 
L 251.896786 31.644729 
L 252.019685 31.592703 
L 252.119825 31.565527 
L 252.147135 31.592424 
L 252.292793 31.684424 
L 253.963308 31.596285 
L 253.999723 31.538771 
L 254.049793 31.642005 
L 254.068 31.641997 
L 254.163588 31.641616 
L 254.181795 31.660598 
L 255.875069 31.55043 
L 255.906931 31.53781 
L 255.966105 31.608462 
L 256.139074 31.675172 
L 256.143626 31.66791 
L 256.307491 31.602304 
L 256.412183 31.657238 
L 256.43039 31.646466 
L 256.485011 31.609915 
L 256.525978 31.662871 
L 256.539633 31.6585 
L 256.689843 31.707476 
L 256.844605 31.67272 
L 257.886969 31.567169 
L 257.932487 31.558913 
L 257.978006 31.629516 
L 258.100904 31.713636 
L 258.223803 31.628324 
L 258.242011 31.640503 
L 258.374013 31.662213 
L 258.419531 31.694382 
L 258.487808 31.656266 
L 262.898513 31.74914 
L 262.944031 31.842025 
L 263.012309 31.763088 
L 263.135208 31.672017 
L 269.712575 31.558996 
L 269.744437 31.544103 
L 269.780852 31.602208 
L 269.812714 31.602128 
L 270.067616 31.697497 
L 270.085823 31.717838 
L 270.163204 31.632619 
L 275.602618 31.73813 
L 275.616274 31.764309 
L 275.689103 31.63886 
L 275.698206 31.653896 
L 300.523784 31.736165 
L 300.61482 31.732083 
L 300.592061 31.706937 
L 300.628476 31.711134 
L 300.796893 31.633207 
L 300.805996 31.645971 
L 315.772351 31.543641 
L 315.790559 31.58048 
L 315.886147 31.573401 
L 315.99539 31.635369 
L 316.009046 31.605137 
L 316.964926 31.712766 
L 317.065066 31.713129 
L 317.010444 31.676312 
L 317.074169 31.690903 
L 317.224379 31.641869 
L 317.10148 31.725069 
L 317.233483 31.648113 
L 322.873177 31.547043 
L 322.909591 31.535145 
L 322.968765 31.586077 
L 323.105319 31.679781 
L 323.260081 31.633607 
L 323.364772 31.631352 
L 323.314702 31.612198 
L 323.373876 31.627666 
L 323.505879 31.56927 
L 323.528638 31.602327 
L 323.706158 31.676156 
L 323.715262 31.66193 
L 327.188294 31.545086 
L 327.27933 31.57834 
L 327.288434 31.587307 
L 327.402229 31.555744 
L 327.52968 31.568259 
L 328.039482 31.675161 
L 328.05769 31.716154 
L 328.148726 31.67367 
L 332.618604 31.568305 
L 332.664123 31.538868 
L 332.736952 31.595085 
L 333.169374 31.703685 
L 333.246754 31.681159 
L 333.269513 31.655423 
L 339.455425 31.543372 
L 339.500943 31.513066 
L 339.551013 31.591878 
L 339.555565 31.59188 
L 340.033505 31.697621 
L 340.138196 31.704158 
L 340.151852 31.67926 
L 340.643447 31.571013 
L 340.793657 31.531896 
L 340.807313 31.544788 
L 341.148698 31.627237 
L 341.157802 31.65597 
L 341.248838 31.589214 
L 341.25339 31.589214 
L 343.219773 31.697856 
L 343.38819 31.755081 
L 343.552055 31.618566 
L 343.579366 31.593169 
L 343.697713 31.641173 
L 355.641665 31.747551 
L 355.682631 31.703706 
L 355.732701 31.701507 
L 355.8556 31.634406 
L 356.092294 31.6215 
L 356.137813 31.684046 
L 356.210642 31.634066 
L 360.826178 31.738984 
L 360.848937 31.761687 
L 360.899007 31.655523 
L 360.903559 31.655523 
L 361.03101 31.609667 
L 361.140253 31.646465 
L 361.05832 31.588621 
L 361.15846 31.631076 
L 361.263152 31.603227 
L 361.281359 31.627308 
L 371.445553 31.727986 
L 371.454657 31.748013 
L 371.532038 31.652196 
L 371.541141 31.652196 
L 386.780605 31.720769 
L 386.785157 31.749557 
L 386.853434 31.649033 
L 386.880745 31.656888 
L 386.976333 31.641548 
L 386.985437 31.627822 
L 387.099232 31.599708 
L 387.112887 31.609804 
L 387.267649 31.709287 
L 387.276752 31.693093 
L 387.449721 31.613704 
L 393.904189 31.716799 
L 393.945156 31.657527 
L 394.040744 31.773621 
L 394.373026 31.612498 
L 397.531983 31.721138 
L 397.60026 31.695911 
L 397.568397 31.694848 
L 397.632123 31.674898 
L 400.832046 31.56435 
L 400.895771 31.592432 
L 400.873012 31.622311 
L 400.927634 31.619419 
L 401.578543 31.716892 
L 401.605854 31.744249 
L 401.665027 31.680491 
L 401.687787 31.694916 
L 401.883514 31.599509 
L 401.888066 31.60506 
L 401.99731 31.639641 
L 402.001861 31.616082 
L 405.383857 31.720998 
L 405.402064 31.72908 
L 405.424823 31.680211 
L 405.479445 31.677885 
L 405.602344 31.628446 
L 405.606896 31.641763 
L 405.720691 31.649709 
L 405.729795 31.644069 
L 405.907315 31.574194 
L 405.911867 31.583771 
L 406.048422 31.644516 
L 406.075732 31.618979 
L 406.22139 31.620806 
L 406.225942 31.630762 
L 406.294219 31.663692 
L 406.339737 31.626504 
L 406.376152 31.638799 
L 406.462636 31.592597 
L 406.603743 31.627388 
L 406.72209 31.613406 
L 406.735745 31.626513 
L 406.844989 31.624902 
L 406.831333 31.592546 
L 406.84954 31.619 
L 407.036165 31.718528 
L 407.108994 31.644357 
L 407.127201 31.607315 
L 407.163615 31.672477 
L 407.218237 31.646345 
L 408.715783 31.747776 
L 408.747646 31.764831 
L 408.78406 31.707273 
L 408.815923 31.701429 
L 408.938822 31.654657 
L 423.855107 31.750185 
L 423.896073 31.775074 
L 423.937039 31.703312 
L 423.946143 31.703304 
L 424.069042 31.629561 
L 424.182837 31.655144 
L 424.11456 31.588876 
L 424.191941 31.647058 
L 424.465049 31.746104 
L 424.501464 31.761726 
L 424.487808 31.724739 
L 424.569741 31.71445 
L 424.597052 31.761588 
L 424.706295 31.701555 
L 425.129614 31.595252 
L 425.175132 31.572846 
L 425.197891 31.655178 
L 425.229754 31.647408 
L 425.348101 31.623578 
L 428.543472 31.721801 
L 428.557128 31.746668 
L 428.602646 31.686165 
L 428.648164 31.704593 
L 428.78927 31.682733 
L 428.793822 31.695109 
L 429.540319 31.596492 
L 429.558526 31.583107 
L 429.631355 31.662751 
L 432.840382 31.765785 
L 432.844934 31.776453 
L 432.895004 31.691754 
L 432.931418 31.714158 
L 432.990592 31.723385 
L 433.054317 31.633789 
L 433.095283 31.646148 
L 433.118042 31.600657 
L 433.16356 31.608266 
L 433.345633 31.671635 
L 433.427566 31.675784 
L 433.450325 31.629774 
L 438.111379 31.70405 
L 438.193312 31.771254 
L 438.225174 31.755123 
L 438.416351 31.61252 
L 438.502835 31.658938 
L 438.530146 31.629806 
L 438.607527 31.635033 
L 438.634837 31.663922 
L 438.639389 31.68109 
L 438.730425 31.617115 
L 438.734977 31.617118 
L 438.885187 31.631403 
L 438.926153 31.650448 
L 439.003534 31.624058 
L 439.317609 31.735468 
L 439.431404 31.736808 
L 439.435956 31.712297 
L 439.567959 31.699302 
L 439.481474 31.755603 
L 439.572511 31.705535 
L 440.396388 31.599506 
L 440.460114 31.566241 
L 440.505632 31.621838 
L 442.690501 31.582073 
L 442.8134 31.561349 
L 442.817952 31.573201 
L 442.845263 31.557668 
L 442.949954 31.60543 
L 443.095612 31.590612 
L 443.268581 31.702952 
L 443.273133 31.696845 
L 443.49162 31.600548 
L 445.326 31.685228 
L 445.37607 31.692709 
L 445.348759 31.675234 
L 445.42614 31.657345 
L 445.558142 31.604755 
L 445.717456 31.654758 
L 445.858562 31.583539 
L 445.735663 31.668263 
L 445.863114 31.591236 
L 446.718854 31.686969 
L 446.755268 31.719783 
L 446.778028 31.670915 
L 446.828097 31.684621 
L 446.955548 31.622689 
L 451.393564 31.707849 
L 451.398116 31.732146 
L 451.43453 31.691301 
L 451.502808 31.698332 
L 451.912471 31.591982 
L 451.989851 31.598765 
L 451.998955 31.642728 
L 452.01261 31.636174 
L 452.217442 31.677437 
L 452.221994 31.670944 
L 452.308478 31.60465 
L 452.340341 31.623 
L 452.399514 31.583093 
L 452.454136 31.631976 
L 454.802871 31.732095 
L 454.916666 31.777622 
L 455.162464 31.679948 
L 455.271707 31.617972 
L 455.289914 31.64335 
L 455.385502 31.636013 
L 455.40371 31.658526 
L 455.603989 31.551403 
L 455.726888 31.622179 
L 457.411058 31.721124 
L 457.438369 31.741939 
L 457.51575 31.692154 
L 457.71603 31.603148 
L 457.533957 31.730723 
L 457.720582 31.615993 
L 458.735635 31.71288 
L 458.803913 31.71743 
L 458.831223 31.668933 
L 458.835775 31.668937 
L 460.019246 31.662657 
L 460.160352 31.730805 
L 460.032902 31.637804 
L 460.164904 31.728164 
L 460.260492 31.737092 
L 460.17856 31.719383 
L 460.274148 31.724553 
L 460.397046 31.634997 
L 460.478979 31.660777 
L 460.510842 31.606164 
L 460.78395 31.705324 
L 460.897746 31.781265 
L 460.806709 31.695883 
L 460.911401 31.741845 
L 461.102577 31.63198 
L 461.125336 31.603199 
L 461.18451 31.671058 
L 461.207269 31.666651 
L 461.330168 31.715461 
L 461.33472 31.701456 
L 461.457618 31.62443 
L 461.46217 31.641198 
L 461.498585 31.661083 
L 461.548655 31.609475 
L 461.566862 31.615436 
L 461.676105 31.622588 
L 461.585069 31.628897 
L 461.680657 31.628911 
L 461.858178 31.747069 
L 461.885489 31.709201 
L 462.126735 31.562483 
L 462.413499 31.606968 
L 462.509087 31.628871 
L 462.522742 31.647996 
L 462.56826 31.630077 
L 462.636538 31.671278 
L 462.750333 31.679582 
L 462.855024 31.638241 
L 462.791299 31.689591 
L 462.864128 31.644511 
L 463.064408 31.629259 
L 463.073511 31.664756 
L 463.14634 31.644484 
L 463.105374 31.637629 
L 463.173651 31.620957 
L 463.328413 31.601225 
L 463.433104 31.65142 
L 463.442208 31.636152 
L 463.615177 31.598104 
L 466.38723 31.696331 
L 466.450955 31.73621 
L 466.505577 31.71243 
L 466.660339 31.685449 
L 466.66489 31.692494 
L 470.137922 31.613818 
L 470.219855 31.552817 
L 470.247166 31.604336 
L 471.193942 31.710169 
L 471.248564 31.719196 
L 471.21215 31.687622 
L 471.298634 31.677135 
L 471.467051 31.605752 
L 471.558087 31.630505 
L 471.580846 31.587493 
L 472.354654 31.684221 
L 472.422931 31.731565 
L 472.463898 31.686029 
L 472.609556 31.581123 
L 472.773421 31.642789 
L 480.302117 31.743697 
L 480.415912 31.757548 
L 480.434119 31.739074 
L 480.538811 31.617444 
L 480.552466 31.676994 
L 485.504837 31.568573 
L 485.623184 31.553266 
L 485.527596 31.589874 
L 485.627736 31.559003 
L 486.205816 31.655717 
L 486.315059 31.702668 
L 486.324163 31.687626 
L 486.424302 31.692757 
L 486.39244 31.659428 
L 486.433406 31.680354 
L 486.506235 31.627758 
L 486.547201 31.662641 
L 492.441797 31.561806 
L 492.564696 31.575357 
L 492.728561 31.623894 
L 492.837804 31.655218 
L 493.816444 31.583248 
L 493.825547 31.553982 
L 493.884721 31.62914 
L 493.921135 31.614389 
L 494.81329 31.724018 
L 494.840601 31.685723 
L 494.922534 31.689363 
L 497.116507 31.578461 
L 497.14837 31.572165 
L 497.193888 31.638132 
L 497.202991 31.643776 
L 498.208942 31.671071 
L 498.322737 31.82467 
L 498.359151 31.839618 
L 498.413773 31.77072 
L 498.441084 31.656175 
L 498.545776 31.704585 
L 498.873506 31.598286 
L 498.914472 31.642984 
L 498.978198 31.609725 
L 499.096545 31.661815 
L 499.101096 31.655678 
L 499.915871 31.743918 
L 499.924974 31.782199 
L 499.997803 31.651685 
L 500.016011 31.657532 
L 511.359124 31.578037 
L 511.395538 31.531243 
L 511.468367 31.575116 
L 511.714165 31.674017 
L 511.75058 31.676762 
L 511.80065 31.61699 
L 511.809753 31.616989 
L 511.937204 31.558665 
L 512.046447 31.583597 
L 512.169346 31.650395 
L 512.283142 31.637357 
L 512.460662 31.701635 
L 512.547147 31.722563 
L 512.569906 31.678794 
L 512.638183 31.716259 
L 512.683701 31.681231 
L 515.829002 31.570117 
L 515.961005 31.565794 
L 516.088456 31.58037 
L 516.293287 31.688499 
L 516.393427 31.707152 
L 516.411634 31.695492 
L 516.507222 31.676135 
L 516.525429 31.702963 
L 516.789435 31.615645 
L 516.807642 31.584487 
L 516.90323 31.607 
L 516.957852 31.585829 
L 517.017025 31.640551 
L 520.972549 31.740344 
L 521.022619 31.796433 
L 521.086344 31.751215 
L 521.286624 31.582475 
L 523.553426 31.671446 
L 523.58984 31.716737 
L 523.63991 31.644755 
L 523.662669 31.673593 
L 527.090183 31.569165 
L 527.194875 31.58988 
L 527.203978 31.59601 
L 528.610488 31.687704 
L 528.61504 31.711189 
L 528.678765 31.630667 
L 528.710628 31.629909 
L 528.838079 31.664519 
L 528.960977 31.60187 
L 529.338778 31.691198 
L 529.375192 31.749068 
L 529.452573 31.701257 
L 529.857684 31.607521 
L 529.889547 31.570356 
L 529.925961 31.623439 
L 529.966928 31.619866 
L 530.062516 31.587467 
L 530.094378 31.623012 
L 530.189966 31.603465 
L 530.135345 31.597756 
L 530.203622 31.589965 
L 531.12764 31.684798 
L 531.241435 31.728602 
L 531.200469 31.657735 
L 531.245987 31.71522 
L 531.719375 31.609331 
L 531.796756 31.581003 
L 531.83317 31.607713 
L 532.08352 31.641189 
L 532.192763 31.623894 
L 532.110831 31.660903 
L 532.206419 31.629479 
L 532.424906 31.63339 
L 532.465872 31.676909 
L 532.534149 31.620842 
L 536.403189 31.7291 
L 536.40774 31.741174 
L 536.466914 31.624212 
L 536.489673 31.654772 
L 537.750525 31.547402 
L 537.873424 31.558124 
L 537.973564 31.651378 
L 538.046393 31.632362 
L 538.091911 31.680759 
L 538.223913 31.584676 
L 538.251224 31.613902 
L 538.383227 31.687796 
L 538.387778 31.679503 
L 538.49247 31.678971 
L 538.415089 31.732566 
L 538.506125 31.69221 
L 540.486163 31.587431 
L 540.540785 31.585294 
L 540.568096 31.629807 
L 540.590855 31.612271 
L 542.156678 31.697181 
L 542.174885 31.73861 
L 542.256818 31.672066 
L 542.265921 31.679973 
L 542.375165 31.665707 
L 542.306888 31.699213 
L 542.379717 31.672822 
L 542.443442 31.61489 
L 542.507167 31.647492 
L 542.602755 31.615564 
L 542.534478 31.624868 
L 542.607307 31.608446 
L 542.762069 31.572951 
L 542.766621 31.578504 
L 543.012418 31.712371 
L 543.203595 31.655784 
L 543.326493 31.677346 
L 543.349252 31.70819 
L 543.463048 31.679373 
L 543.549532 31.690244 
L 543.576843 31.648757 
L 548.128654 31.74445 
L 548.14231 31.769786 
L 548.228794 31.707822 
L 548.233346 31.713759 
L 548.237898 31.719823 
L 548.265208 31.658013 
L 548.306175 31.631585 
L 548.829633 31.731285 
L 548.893358 31.766858 
L 548.934325 31.702913 
L 549.139156 31.592597 
L 549.730892 31.66133 
L 549.749099 31.709597 
L 549.835583 31.639131 
L 549.840135 31.639128 
L 562.985766 31.716534 
L 563.049491 31.766308 
L 563.095009 31.719742 
L 563.295289 31.6181 
L 563.299841 31.607486 
L 563.3226 31.654417 
L 563.386325 31.660403 
L 563.431843 31.697023 
L 563.495569 31.651677 
L 579.818363 31.54975 
L 579.923055 31.578036 
L 579.968573 31.547142 
L 580.041402 31.605305 
L 580.319062 31.692901 
L 580.373684 31.715773 
L 580.423754 31.671973 
L 586.809945 31.57549 
L 586.828152 31.54987 
L 586.891878 31.624532 
L 586.914637 31.613405 
L 587.014777 31.601882 
L 587.032984 31.6316 
L 595.654114 31.72747 
L 595.699632 31.682682 
L 595.767909 31.725651 
L 595.804324 31.737083 
L 595.831635 31.671449 
L 595.863497 31.673704 
L 596.004604 31.615281 
L 596.068329 31.62775 
L 596.031914 31.607013 
L 596.113847 31.606743 
L 597.215385 31.689531 
L 597.224489 31.724071 
L 597.320077 31.654305 
L 606.705912 31.757127 
L 606.85157 31.790384 
L 606.974468 31.677928 
L 606.860673 31.795723 
L 606.997227 31.689982 
L 607.202059 31.613833 
L 607.220266 31.57179 
L 607.311302 31.632026 
L 607.743725 31.717505 
L 607.752828 31.745876 
L 607.816553 31.681355 
L 607.852968 31.709354 
L 607.971315 31.626215 
L 608.00773 31.663381 
L 608.089662 31.58832 
L 609.300444 31.694131 
L 609.414239 31.715518 
L 609.327755 31.670778 
L 609.427895 31.693896 
L 609.455205 31.703733 
L 609.550794 31.637549 
L 609.587208 31.589423 
L 609.673692 31.628084 
L 609.782936 31.6144 
L 609.79204 31.626337 
L 609.81935 31.641548 
L 609.878524 31.582683 
L 609.901283 31.610258 
L 611.052891 31.709904 
L 611.107513 31.799735 
L 611.171238 31.755283 
L 611.42614 31.605571 
L 611.544487 31.630344 
L 611.549039 31.622559 
L 611.676489 31.635641 
L 611.699248 31.619201 
L 611.794836 31.6618 
L 611.922287 31.634308 
L 611.926839 31.640015 
L 611.940494 31.669196 
L 612.031531 31.596969 
L 612.172637 31.578179 
L 612.190844 31.560477 
L 612.400227 31.713694 
L 612.5823 31.633614 
L 612.723406 31.673771 
L 612.737061 31.662218 
L 612.768924 31.620378 
L 612.805338 31.680419 
L 612.841753 31.67079 
L 612.869064 31.661167 
L 612.9601 31.705173 
L 613.169483 31.605522 
L 613.21045 31.557901 
L 613.278727 31.620437 
L 613.43804 31.734707 
L 613.479007 31.691194 
L 613.63832 31.589474 
L 613.647424 31.56261 
L 613.720253 31.632396 
L 613.743012 31.613197 
L 614.111708 31.693799 
L 614.148123 31.732792 
L 614.193641 31.653671 
L 614.220952 31.702627 
L 614.36661 31.602346 
L 614.230055 31.710363 
L 614.403024 31.646083 
L 614.512268 31.657383 
L 614.516819 31.65126 
L 614.553234 31.721236 
L 614.621511 31.695012 
L 614.730755 31.685887 
L 614.739858 31.676267 
L 614.962897 31.566682 
L 615.058485 31.584014 
L 614.990208 31.597221 
L 615.07214 31.598035 
L 616.455891 31.708398 
L 616.57879 31.689285 
L 616.815484 31.589105 
L 616.842795 31.56492 
L 616.883761 31.61904 
L 616.920176 31.599355 
L 617.043075 31.709223 
L 617.052178 31.684425 
L 617.070386 31.705624 
L 617.111352 31.641927 
L 617.147766 31.645585 
L 617.270665 31.553991 
L 617.279769 31.559875 
L 617.393564 31.610412 
L 617.566533 31.712191 
L 619.760506 31.603371 
L 619.906164 31.596789 
L 620.051822 31.660411 
L 620.060925 31.653154 
L 621.758751 31.641731 
L 621.895305 31.667459 
L 621.772406 31.622735 
L 621.899857 31.655304 
L 621.990893 31.621413 
L 622.018204 31.639567 
L 622.027308 31.650701 
L 622.072826 31.599801 
L 622.118344 31.594482 
L 622.382349 31.609295 
L 623.433817 31.706287 
L 623.442921 31.736797 
L 623.538509 31.667899 
L 623.61589 31.688323 
L 623.656856 31.640453 
L 623.811618 31.606844 
L 631.617974 31.712147 
L 631.677147 31.661209 
L 631.731769 31.70094 
L 631.977567 31.598211 
L 632.045844 31.643052 
L 632.08681 31.614693 
L 634.294439 31.711706 
L 634.403682 31.786247 
L 634.426441 31.774198 
L 634.522029 31.69256 
L 634.631273 31.587929 
L 634.640376 31.602825 
L 634.804242 31.641825 
L 634.968107 31.604499 
L 634.972659 31.6096 
L 635.37777 31.701427 
L 635.423288 31.732382 
L 635.450599 31.669223 
L 635.487013 31.691423 
L 635.664534 31.656243 
L 635.751018 31.677291 
L 635.778329 31.654772 
L 635.782881 31.645594 
L 635.828399 31.757083 
L 635.846606 31.764909 
L 635.892125 31.763925 
L 635.901228 31.716612 
L 635.942194 31.70816 
L 636.187992 31.618532 
L 636.292684 31.593708 
L 636.297236 31.610787 
L 637.020974 31.708431 
L 637.025526 31.728419 
L 637.107458 31.635237 
L 637.116562 31.64183 
L 637.703745 31.74616 
L 637.721953 31.759069 
L 637.781126 31.671357 
L 637.79023 31.676412 
L 637.808437 31.617995 
L 637.89037 31.690122 
L 637.899473 31.690116 
L 638.031476 31.637068 
L 638.063338 31.655536 
L 638.104305 31.584881 
L 638.136167 31.600045 
L 638.436587 31.698575 
L 638.454794 31.760208 
L 638.536727 31.65943 
L 638.541279 31.665627 
L 638.586797 31.701153 
L 638.69604 31.593459 
L 638.764317 31.653331 
L 638.809835 31.632612 
L 638.864457 31.567105 
L 638.919079 31.64574 
L 639.164877 31.731278 
L 639.183084 31.762714 
L 639.260465 31.679945 
L 639.269568 31.682128 
L 639.42433 31.607803 
L 639.437985 31.632785 
L 639.551781 31.616638 
L 639.633713 31.631644 
L 639.647369 31.671274 
L 645.191475 31.576583 
L 645.209682 31.546194 
L 645.282511 31.631293 
L 645.400858 31.711504 
L 645.988042 31.618952 
L 646.010801 31.599792 
L 646.042663 31.647121 
L 646.097285 31.631537 
L 648.050012 31.712284 
L 648.068219 31.766867 
L 648.159256 31.709746 
L 648.29581 31.633571 
L 648.427812 31.717056 
L 648.582574 31.755562 
L 648.714576 31.746067 
L 648.591678 31.76492 
L 648.72368 31.755615 
L 648.728232 31.762898 
L 648.805613 31.687592 
L 648.814716 31.694399 
L 648.946719 31.599045 
L 648.951271 31.605895 
L 649.033203 31.653591 
L 649.069618 31.629482 
L 649.174309 31.644414 
L 649.092377 31.598353 
L 649.187965 31.611 
L 651.427456 31.694651 
L 651.51394 31.747029 
L 651.536699 31.694124 
L 652.369681 31.586621 
L 652.506235 31.552731 
L 652.519891 31.565776 
L 652.6701 31.688187 
L 652.674652 31.681257 
L 652.729274 31.745682 
L 652.783896 31.714375 
L 652.824862 31.675814 
L 652.893139 31.690015 
L 652.984175 31.607033 
L 652.902243 31.694336 
L 653.025142 31.623774 
L 653.712465 31.748559 
L 653.744328 31.790134 
L 653.812605 31.707905 
L 653.917297 31.684324 
L 653.9264 31.697192 
L 653.944607 31.669023 
L 654.058403 31.695654 
L 654.131232 31.64035 
L 654.167646 31.688199 
L 654.222268 31.712595 
L 654.254131 31.652199 
L 654.272338 31.667544 
L 654.859522 31.567953 
L 654.877729 31.529137 
L 654.927799 31.603419 
L 654.968765 31.578195 
L 655.342013 31.684435 
L 655.414842 31.696412 
L 655.451257 31.652899 
L 669.55732 31.556664 
L 669.561871 31.54672 
L 669.625597 31.648476 
L 669.639252 31.64202 
L 671.751293 31.647265 
L 671.751293 31.647265 
" clip-path="url(#pc1c35d0d54)" style="fill: none; stroke: #2c3e50; stroke-width: 1.5; stroke-linecap: round"/>
   </g>
   <g id="patch_3">
    <path d="M 59.992656 159.2175 
L 59.992656 25.3575 
" style="fill: none; stroke: #cccccc; stroke-width: 1.25; stroke-linejoin: miter; stroke-linecap: square"/>
   </g>
   <g id="patch_4">
    <path d="M 700.882656 159.2175 
L 700.882656 25.3575 
" style="fill: none; stroke: #cccccc; stroke-width: 1.25; stroke-linejoin: miter; stroke-linecap: square"/>
   </g>
   <g id="patch_5">
    <path d="M 59.992656 159.2175 
L 700.882656 159.2175 
" style="fill: none; stroke: #cccccc; stroke-width: 1.25; stroke-linejoin: miter; stroke-linecap: square"/>
   </g>
   <g id="patch_6">
    <path d="M 59.992656 25.3575 
L 700.882656 25.3575 
" style="fill: none; stroke: #cccccc; stroke-width: 1.25; stroke-linejoin: miter; stroke-linecap: square"/>
   </g>
   <g id="text_16">
    <!-- ELBO over Iterations -->
    <g style="fill: #262626" transform="translate(298.251406 19.3575) scale(0.16 -0.16)">
     <defs>
      <path id="DejaVuSans-20" transform="scale(0.015625)"/>
      <path id="DejaVuSans-76" d="M 191 3500 
L 800 3500 
L 1894 563 
L 2988 3500 
L 3597 3500 
L 2284 0 
L 1503 0 
L 191 3500 
z
" transform="scale(0.015625)"/>
      <path id="DejaVuSans-73" d="M 2834 3397 
L 2834 2853 
Q 2591 2978 2328 3040 
Q 2066 3103 1784 3103 
Q 1356 3103 1142 2972 
Q 928 2841 928 2578 
Q 928 2378 1081 2264 
Q 1234 2150 1697 2047 
L 1894 2003 
Q 2506 1872 2764 1633 
Q 3022 1394 3022 966 
Q 3022 478 2636 193 
Q 2250 -91 1575 -91 
Q 1294 -91 989 -36 
Q 684 19 347 128 
L 347 722 
Q 666 556 975 473 
Q 1284 391 1588 391 
Q 1994 391 2212 530 
Q 2431 669 2431 922 
Q 2431 1156 2273 1281 
Q 2116 1406 1581 1522 
L 1381 1569 
Q 847 1681 609 1914 
Q 372 2147 372 2553 
Q 372 3047 722 3315 
Q 1072 3584 1716 3584 
Q 2034 3584 2315 3537 
Q 2597 3491 2834 3397 
z
" transform="scale(0.015625)"/>
     </defs>
     <use xlink:href="#DejaVuSans-45"/>
     <use xlink:href="#DejaVuSans-4c" x="63.183594"/>
     <use xlink:href="#DejaVuSans-42" x="118.896484"/>
     <use xlink:href="#DejaVuSans-4f" x="185.75"/>
     <use xlink:href="#DejaVuSans-20" x="264.460938"/>
     <use xlink:href="#DejaVuSans-6f" x="296.248047"/>
     <use xlink:href="#DejaVuSans-76" x="357.429688"/>
     <use xlink:href="#DejaVuSans-65" x="416.609375"/>
     <use xlink:href="#DejaVuSans-72" x="478.132812"/>
     <use xlink:href="#DejaVuSans-20" x="519.246094"/>
     <use xlink:href="#DejaVuSans-49" x="551.033203"/>
     <use xlink:href="#DejaVuSans-74" x="580.525391"/>
     <use xlink:href="#DejaVuSans-65" x="619.734375"/>
     <use xlink:href="#DejaVuSans-72" x="681.257812"/>
     <use xlink:href="#DejaVuSans-61" x="722.371094"/>
     <use xlink:href="#DejaVuSans-74" x="783.650391"/>
     <use xlink:href="#DejaVuSans-69" x="822.859375"/>
     <use xlink:href="#DejaVuSans-6f" x="850.642578"/>
     <use xlink:href="#DejaVuSans-6e" x="911.824219"/>
     <use xlink:href="#DejaVuSans-73" x="975.203125"/>
    </g>
   </g>
  </g>
 </g>
 <defs>
  <clipPath id="pc1c35d0d54">
   <rect x="59.992656" y="25.3575" width="640.89" height="133.86"/>
  </clipPath>
 </defs>
</svg>
