<?xml version="1.0" encoding="utf-8" standalone="no"?>
<!DOCTYPE svg PUBLIC "-//W3C//DTD SVG 1.1//EN"
  "http://www.w3.org/Graphics/SVG/1.1/DTD/svg11.dtd">
<svg xmlns:xlink="http://www.w3.org/1999/xlink" width="852.117969pt" height="491.785313pt" viewBox="0 0 852.117969 491.785313" xmlns="http://www.w3.org/2000/svg" version="1.1">
 <metadata>
  <rdf:RDF xmlns:dc="http://purl.org/dc/elements/1.1/" xmlns:cc="http://creativecommons.org/ns#" xmlns:rdf="http://www.w3.org/1999/02/22-rdf-syntax-ns#">
   <cc:Work>
    <dc:type rdf:resource="http://purl.org/dc/dcmitype/StillImage"/>
    <dc:date>2025-02-11T17:15:11.694275</dc:date>
    <dc:format>image/svg+xml</dc:format>
    <dc:creator>
     <cc:Agent>
      <dc:title>Matplotlib v3.8.4, https://matplotlib.org/</dc:title>
     </cc:Agent>
    </dc:creator>
   </cc:Work>
  </rdf:RDF>
 </metadata>
 <defs>
  <style type="text/css">*{stroke-linejoin: round; stroke-linecap: butt}</style>
 </defs>
 <g id="figure_1">
  <g id="patch_1">
   <path d="M 0 491.785313 
L 852.117969 491.785313 
L 852.117969 0 
L 0 0 
z
" style="fill: #ffffff"/>
  </g>
  <g id="axes_1">
   <g id="patch_2">
    <path d="M 49.497969 447.857813 
L 844.917969 447.857813 
L 844.917969 23.837813 
L 49.497969 23.837813 
z
" style="fill: #ffffff"/>
   </g>
   <g id="matplotlib.axis_1">
    <g id="xtick_1">
     <g id="line2d_1">
      <path d="M 81.30457 447.857813 
L 81.30457 23.837813 
" clip-path="url(#pa939f3dde4)" style="fill: none; stroke: #cccccc; stroke-linecap: round"/>
     </g>
     <g id="text_1">
      <!-- −3 -->
      <g style="fill: #262626" transform="translate(73.196367 465.716094) scale(0.11 -0.11)">
       <defs>
        <path id="DejaVuSans-2212" d="M 678 2272 
L 4684 2272 
L 4684 1741 
L 678 1741 
L 678 2272 
z
" transform="scale(0.015625)"/>
        <path id="DejaVuSans-33" d="M 2597 2516 
Q 3050 2419 3304 2112 
Q 3559 1806 3559 1356 
Q 3559 666 3084 287 
Q 2609 -91 1734 -91 
Q 1441 -91 1130 -33 
Q 819 25 488 141 
L 488 750 
Q 750 597 1062 519 
Q 1375 441 1716 441 
Q 2309 441 2620 675 
Q 2931 909 2931 1356 
Q 2931 1769 2642 2001 
Q 2353 2234 1838 2234 
L 1294 2234 
L 1294 2753 
L 1863 2753 
Q 2328 2753 2575 2939 
Q 2822 3125 2822 3475 
Q 2822 3834 2567 4026 
Q 2313 4219 1838 4219 
Q 1578 4219 1281 4162 
Q 984 4106 628 3988 
L 628 4550 
Q 988 4650 1302 4700 
Q 1616 4750 1894 4750 
Q 2613 4750 3031 4423 
Q 3450 4097 3450 3541 
Q 3450 3153 3228 2886 
Q 3006 2619 2597 2516 
z
" transform="scale(0.015625)"/>
       </defs>
       <use xlink:href="#DejaVuSans-2212"/>
       <use xlink:href="#DejaVuSans-33" x="83.789062"/>
      </g>
     </g>
    </g>
    <g id="xtick_2">
     <g id="line2d_2">
      <path d="M 203.307479 447.857813 
L 203.307479 23.837813 
" clip-path="url(#pa939f3dde4)" style="fill: none; stroke: #cccccc; stroke-linecap: round"/>
     </g>
     <g id="text_2">
      <!-- −2 -->
      <g style="fill: #262626" transform="translate(195.199276 465.716094) scale(0.11 -0.11)">
       <defs>
        <path id="DejaVuSans-32" d="M 1228 531 
L 3431 531 
L 3431 0 
L 469 0 
L 469 531 
Q 828 903 1448 1529 
Q 2069 2156 2228 2338 
Q 2531 2678 2651 2914 
Q 2772 3150 2772 3378 
Q 2772 3750 2511 3984 
Q 2250 4219 1831 4219 
Q 1534 4219 1204 4116 
Q 875 4013 500 3803 
L 500 4441 
Q 881 4594 1212 4672 
Q 1544 4750 1819 4750 
Q 2544 4750 2975 4387 
Q 3406 4025 3406 3419 
Q 3406 3131 3298 2873 
Q 3191 2616 2906 2266 
Q 2828 2175 2409 1742 
Q 1991 1309 1228 531 
z
" transform="scale(0.015625)"/>
       </defs>
       <use xlink:href="#DejaVuSans-2212"/>
       <use xlink:href="#DejaVuSans-32" x="83.789062"/>
      </g>
     </g>
    </g>
    <g id="xtick_3">
     <g id="line2d_3">
      <path d="M 325.310387 447.857813 
L 325.310387 23.837813 
" clip-path="url(#pa939f3dde4)" style="fill: none; stroke: #cccccc; stroke-linecap: round"/>
     </g>
     <g id="text_3">
      <!-- −1 -->
      <g style="fill: #262626" transform="translate(317.202184 465.716094) scale(0.11 -0.11)">
       <defs>
        <path id="DejaVuSans-31" d="M 794 531 
L 1825 531 
L 1825 4091 
L 703 3866 
L 703 4441 
L 1819 4666 
L 2450 4666 
L 2450 531 
L 3481 531 
L 3481 0 
L 794 0 
L 794 531 
z
" transform="scale(0.015625)"/>
       </defs>
       <use xlink:href="#DejaVuSans-2212"/>
       <use xlink:href="#DejaVuSans-31" x="83.789062"/>
      </g>
     </g>
    </g>
    <g id="xtick_4">
     <g id="line2d_4">
      <path d="M 447.313296 447.857813 
L 447.313296 23.837813 
" clip-path="url(#pa939f3dde4)" style="fill: none; stroke: #cccccc; stroke-linecap: round"/>
     </g>
     <g id="text_4">
      <!-- 0 -->
      <g style="fill: #262626" transform="translate(443.813921 465.716094) scale(0.11 -0.11)">
       <defs>
        <path id="DejaVuSans-30" d="M 2034 4250 
Q 1547 4250 1301 3770 
Q 1056 3291 1056 2328 
Q 1056 1369 1301 889 
Q 1547 409 2034 409 
Q 2525 409 2770 889 
Q 3016 1369 3016 2328 
Q 3016 3291 2770 3770 
Q 2525 4250 2034 4250 
z
M 2034 4750 
Q 2819 4750 3233 4129 
Q 3647 3509 3647 2328 
Q 3647 1150 3233 529 
Q 2819 -91 2034 -91 
Q 1250 -91 836 529 
Q 422 1150 422 2328 
Q 422 3509 836 4129 
Q 1250 4750 2034 4750 
z
" transform="scale(0.015625)"/>
       </defs>
       <use xlink:href="#DejaVuSans-30"/>
      </g>
     </g>
    </g>
    <g id="xtick_5">
     <g id="line2d_5">
      <path d="M 569.316204 447.857813 
L 569.316204 23.837813 
" clip-path="url(#pa939f3dde4)" style="fill: none; stroke: #cccccc; stroke-linecap: round"/>
     </g>
     <g id="text_5">
      <!-- 1 -->
      <g style="fill: #262626" transform="translate(565.816829 465.716094) scale(0.11 -0.11)">
       <use xlink:href="#DejaVuSans-31"/>
      </g>
     </g>
    </g>
    <g id="xtick_6">
     <g id="line2d_6">
      <path d="M 691.319112 447.857813 
L 691.319112 23.837813 
" clip-path="url(#pa939f3dde4)" style="fill: none; stroke: #cccccc; stroke-linecap: round"/>
     </g>
     <g id="text_6">
      <!-- 2 -->
      <g style="fill: #262626" transform="translate(687.819737 465.716094) scale(0.11 -0.11)">
       <use xlink:href="#DejaVuSans-32"/>
      </g>
     </g>
    </g>
    <g id="xtick_7">
     <g id="line2d_7">
      <path d="M 813.322021 447.857813 
L 813.322021 23.837813 
" clip-path="url(#pa939f3dde4)" style="fill: none; stroke: #cccccc; stroke-linecap: round"/>
     </g>
     <g id="text_7">
      <!-- 3 -->
      <g style="fill: #262626" transform="translate(809.822646 465.716094) scale(0.11 -0.11)">
       <use xlink:href="#DejaVuSans-33"/>
      </g>
     </g>
    </g>
    <g id="text_8">
     <!-- X -->
     <g style="fill: #262626" transform="translate(442.755469 481.881719) scale(0.13 -0.13)">
      <defs>
       <path id="DejaVuSans-58" d="M 403 4666 
L 1081 4666 
L 2241 2931 
L 3406 4666 
L 4084 4666 
L 2584 2425 
L 4184 0 
L 3506 0 
L 2194 1984 
L 872 0 
L 191 0 
L 1856 2491 
L 403 4666 
z
" transform="scale(0.015625)"/>
      </defs>
      <use xlink:href="#DejaVuSans-58"/>
     </g>
    </g>
   </g>
   <g id="matplotlib.axis_2">
    <g id="ytick_1">
     <g id="line2d_8">
      <path d="M 49.497969 410.159668 
L 844.917969 410.159668 
" clip-path="url(#pa939f3dde4)" style="fill: none; stroke: #cccccc; stroke-linecap: round"/>
     </g>
     <g id="text_9">
      <!-- −2 -->
      <g style="fill: #262626" transform="translate(23.781562 414.338808) scale(0.11 -0.11)">
       <use xlink:href="#DejaVuSans-2212"/>
       <use xlink:href="#DejaVuSans-32" x="83.789062"/>
      </g>
     </g>
    </g>
    <g id="ytick_2">
     <g id="line2d_9">
      <path d="M 49.497969 328.75169 
L 844.917969 328.75169 
" clip-path="url(#pa939f3dde4)" style="fill: none; stroke: #cccccc; stroke-linecap: round"/>
     </g>
     <g id="text_10">
      <!-- 0 -->
      <g style="fill: #262626" transform="translate(32.999219 332.93083) scale(0.11 -0.11)">
       <use xlink:href="#DejaVuSans-30"/>
      </g>
     </g>
    </g>
    <g id="ytick_3">
     <g id="line2d_10">
      <path d="M 49.497969 247.343711 
L 844.917969 247.343711 
" clip-path="url(#pa939f3dde4)" style="fill: none; stroke: #cccccc; stroke-linecap: round"/>
     </g>
     <g id="text_11">
      <!-- 2 -->
      <g style="fill: #262626" transform="translate(32.999219 251.522852) scale(0.11 -0.11)">
       <use xlink:href="#DejaVuSans-32"/>
      </g>
     </g>
    </g>
    <g id="ytick_4">
     <g id="line2d_11">
      <path d="M 49.497969 165.935733 
L 844.917969 165.935733 
" clip-path="url(#pa939f3dde4)" style="fill: none; stroke: #cccccc; stroke-linecap: round"/>
     </g>
     <g id="text_12">
      <!-- 4 -->
      <g style="fill: #262626" transform="translate(32.999219 170.114874) scale(0.11 -0.11)">
       <defs>
        <path id="DejaVuSans-34" d="M 2419 4116 
L 825 1625 
L 2419 1625 
L 2419 4116 
z
M 2253 4666 
L 3047 4666 
L 3047 1625 
L 3713 1625 
L 3713 1100 
L 3047 1100 
L 3047 0 
L 2419 0 
L 2419 1100 
L 313 1100 
L 313 1709 
L 2253 4666 
z
" transform="scale(0.015625)"/>
       </defs>
       <use xlink:href="#DejaVuSans-34"/>
      </g>
     </g>
    </g>
    <g id="ytick_5">
     <g id="line2d_12">
      <path d="M 49.497969 84.527755 
L 844.917969 84.527755 
" clip-path="url(#pa939f3dde4)" style="fill: none; stroke: #cccccc; stroke-linecap: round"/>
     </g>
     <g id="text_13">
      <!-- 6 -->
      <g style="fill: #262626" transform="translate(32.999219 88.706895) scale(0.11 -0.11)">
       <defs>
        <path id="DejaVuSans-36" d="M 2113 2584 
Q 1688 2584 1439 2293 
Q 1191 2003 1191 1497 
Q 1191 994 1439 701 
Q 1688 409 2113 409 
Q 2538 409 2786 701 
Q 3034 994 3034 1497 
Q 3034 2003 2786 2293 
Q 2538 2584 2113 2584 
z
M 3366 4563 
L 3366 3988 
Q 3128 4100 2886 4159 
Q 2644 4219 2406 4219 
Q 1781 4219 1451 3797 
Q 1122 3375 1075 2522 
Q 1259 2794 1537 2939 
Q 1816 3084 2150 3084 
Q 2853 3084 3261 2657 
Q 3669 2231 3669 1497 
Q 3669 778 3244 343 
Q 2819 -91 2113 -91 
Q 1303 -91 875 529 
Q 447 1150 447 2328 
Q 447 3434 972 4092 
Q 1497 4750 2381 4750 
Q 2619 4750 2861 4703 
Q 3103 4656 3366 4563 
z
" transform="scale(0.015625)"/>
       </defs>
       <use xlink:href="#DejaVuSans-36"/>
      </g>
     </g>
    </g>
    <g id="text_14">
     <!-- Response -->
     <g style="fill: #262626" transform="translate(17.077969 267.066094) rotate(-90) scale(0.13 -0.13)">
      <defs>
       <path id="DejaVuSans-52" d="M 2841 2188 
Q 3044 2119 3236 1894 
Q 3428 1669 3622 1275 
L 4263 0 
L 3584 0 
L 2988 1197 
Q 2756 1666 2539 1819 
Q 2322 1972 1947 1972 
L 1259 1972 
L 1259 0 
L 628 0 
L 628 4666 
L 2053 4666 
Q 2853 4666 3247 4331 
Q 3641 3997 3641 3322 
Q 3641 2881 3436 2590 
Q 3231 2300 2841 2188 
z
M 1259 4147 
L 1259 2491 
L 2053 2491 
Q 2509 2491 2742 2702 
Q 2975 2913 2975 3322 
Q 2975 3731 2742 3939 
Q 2509 4147 2053 4147 
L 1259 4147 
z
" transform="scale(0.015625)"/>
       <path id="DejaVuSans-65" d="M 3597 1894 
L 3597 1613 
L 953 1613 
Q 991 1019 1311 708 
Q 1631 397 2203 397 
Q 2534 397 2845 478 
Q 3156 559 3463 722 
L 3463 178 
Q 3153 47 2828 -22 
Q 2503 -91 2169 -91 
Q 1331 -91 842 396 
Q 353 884 353 1716 
Q 353 2575 817 3079 
Q 1281 3584 2069 3584 
Q 2775 3584 3186 3129 
Q 3597 2675 3597 1894 
z
M 3022 2063 
Q 3016 2534 2758 2815 
Q 2500 3097 2075 3097 
Q 1594 3097 1305 2825 
Q 1016 2553 972 2059 
L 3022 2063 
z
" transform="scale(0.015625)"/>
       <path id="DejaVuSans-73" d="M 2834 3397 
L 2834 2853 
Q 2591 2978 2328 3040 
Q 2066 3103 1784 3103 
Q 1356 3103 1142 2972 
Q 928 2841 928 2578 
Q 928 2378 1081 2264 
Q 1234 2150 1697 2047 
L 1894 2003 
Q 2506 1872 2764 1633 
Q 3022 1394 3022 966 
Q 3022 478 2636 193 
Q 2250 -91 1575 -91 
Q 1294 -91 989 -36 
Q 684 19 347 128 
L 347 722 
Q 666 556 975 473 
Q 1284 391 1588 391 
Q 1994 391 2212 530 
Q 2431 669 2431 922 
Q 2431 1156 2273 1281 
Q 2116 1406 1581 1522 
L 1381 1569 
Q 847 1681 609 1914 
Q 372 2147 372 2553 
Q 372 3047 722 3315 
Q 1072 3584 1716 3584 
Q 2034 3584 2315 3537 
Q 2597 3491 2834 3397 
z
" transform="scale(0.015625)"/>
       <path id="DejaVuSans-70" d="M 1159 525 
L 1159 -1331 
L 581 -1331 
L 581 3500 
L 1159 3500 
L 1159 2969 
Q 1341 3281 1617 3432 
Q 1894 3584 2278 3584 
Q 2916 3584 3314 3078 
Q 3713 2572 3713 1747 
Q 3713 922 3314 415 
Q 2916 -91 2278 -91 
Q 1894 -91 1617 61 
Q 1341 213 1159 525 
z
M 3116 1747 
Q 3116 2381 2855 2742 
Q 2594 3103 2138 3103 
Q 1681 3103 1420 2742 
Q 1159 2381 1159 1747 
Q 1159 1113 1420 752 
Q 1681 391 2138 391 
Q 2594 391 2855 752 
Q 3116 1113 3116 1747 
z
" transform="scale(0.015625)"/>
       <path id="DejaVuSans-6f" d="M 1959 3097 
Q 1497 3097 1228 2736 
Q 959 2375 959 1747 
Q 959 1119 1226 758 
Q 1494 397 1959 397 
Q 2419 397 2687 759 
Q 2956 1122 2956 1747 
Q 2956 2369 2687 2733 
Q 2419 3097 1959 3097 
z
M 1959 3584 
Q 2709 3584 3137 3096 
Q 3566 2609 3566 1747 
Q 3566 888 3137 398 
Q 2709 -91 1959 -91 
Q 1206 -91 779 398 
Q 353 888 353 1747 
Q 353 2609 779 3096 
Q 1206 3584 1959 3584 
z
" transform="scale(0.015625)"/>
       <path id="DejaVuSans-6e" d="M 3513 2113 
L 3513 0 
L 2938 0 
L 2938 2094 
Q 2938 2591 2744 2837 
Q 2550 3084 2163 3084 
Q 1697 3084 1428 2787 
Q 1159 2491 1159 1978 
L 1159 0 
L 581 0 
L 581 3500 
L 1159 3500 
L 1159 2956 
Q 1366 3272 1645 3428 
Q 1925 3584 2291 3584 
Q 2894 3584 3203 3211 
Q 3513 2838 3513 2113 
z
" transform="scale(0.015625)"/>
      </defs>
      <use xlink:href="#DejaVuSans-52"/>
      <use xlink:href="#DejaVuSans-65" x="64.982422"/>
      <use xlink:href="#DejaVuSans-73" x="126.505859"/>
      <use xlink:href="#DejaVuSans-70" x="178.605469"/>
      <use xlink:href="#DejaVuSans-6f" x="242.082031"/>
      <use xlink:href="#DejaVuSans-6e" x="303.263672"/>
      <use xlink:href="#DejaVuSans-73" x="366.642578"/>
      <use xlink:href="#DejaVuSans-65" x="418.742188"/>
     </g>
    </g>
   </g>
   <g id="PathCollection_1">
    <defs>
     <path id="ma79f535834" d="M 0 3 
C 0.795609 3 1.55874 2.683901 2.12132 2.12132 
C 2.683901 1.55874 3 0.795609 3 0 
C 3 -0.795609 2.683901 -1.55874 2.12132 -2.12132 
C 1.55874 -2.683901 0.795609 -3 0 -3 
C -0.795609 -3 -1.55874 -2.683901 -2.12132 -2.12132 
C -2.683901 -1.55874 -3 -0.795609 -3 0 
C -3 0.795609 -2.683901 1.55874 -2.12132 2.12132 
C -1.55874 2.683901 -0.795609 3 0 3 
z
" style="stroke: #ffffff; stroke-opacity: 0.7; stroke-width: 0.48"/>
    </defs>
    <g clip-path="url(#pa939f3dde4)">
     <use xlink:href="#ma79f535834" x="85.653423" y="399.000576" style="fill: #4caf50; fill-opacity: 0.7; stroke: #ffffff; stroke-opacity: 0.7; stroke-width: 0.48"/>
     <use xlink:href="#ma79f535834" x="88.601439" y="421.982592" style="fill: #4caf50; fill-opacity: 0.7; stroke: #ffffff; stroke-opacity: 0.7; stroke-width: 0.48"/>
     <use xlink:href="#ma79f535834" x="88.723956" y="355.635638" style="fill: #4caf50; fill-opacity: 0.7; stroke: #ffffff; stroke-opacity: 0.7; stroke-width: 0.48"/>
     <use xlink:href="#ma79f535834" x="89.44894" y="408.133166" style="fill: #4caf50; fill-opacity: 0.7; stroke: #ffffff; stroke-opacity: 0.7; stroke-width: 0.48"/>
     <use xlink:href="#ma79f535834" x="99.350268" y="343.656339" style="fill: #4caf50; fill-opacity: 0.7; stroke: #ffffff; stroke-opacity: 0.7; stroke-width: 0.48"/>
     <use xlink:href="#ma79f535834" x="104.426984" y="394.373313" style="fill: #4caf50; fill-opacity: 0.7; stroke: #ffffff; stroke-opacity: 0.7; stroke-width: 0.48"/>
     <use xlink:href="#ma79f535834" x="122.724959" y="400.89729" style="fill: #4caf50; fill-opacity: 0.7; stroke: #ffffff; stroke-opacity: 0.7; stroke-width: 0.48"/>
     <use xlink:href="#ma79f535834" x="127.415186" y="381.921502" style="fill: #4caf50; fill-opacity: 0.7; stroke: #ffffff; stroke-opacity: 0.7; stroke-width: 0.48"/>
     <use xlink:href="#ma79f535834" x="128.518106" y="307.230389" style="fill: #4caf50; fill-opacity: 0.7; stroke: #ffffff; stroke-opacity: 0.7; stroke-width: 0.48"/>
     <use xlink:href="#ma79f535834" x="132.469388" y="369.136104" style="fill: #4caf50; fill-opacity: 0.7; stroke: #ffffff; stroke-opacity: 0.7; stroke-width: 0.48"/>
     <use xlink:href="#ma79f535834" x="136.445016" y="360.39806" style="fill: #4caf50; fill-opacity: 0.7; stroke: #ffffff; stroke-opacity: 0.7; stroke-width: 0.48"/>
     <use xlink:href="#ma79f535834" x="141.628193" y="374.981374" style="fill: #4caf50; fill-opacity: 0.7; stroke: #ffffff; stroke-opacity: 0.7; stroke-width: 0.48"/>
     <use xlink:href="#ma79f535834" x="143.563256" y="387.440996" style="fill: #4caf50; fill-opacity: 0.7; stroke: #ffffff; stroke-opacity: 0.7; stroke-width: 0.48"/>
     <use xlink:href="#ma79f535834" x="153.855262" y="340.9205" style="fill: #4caf50; fill-opacity: 0.7; stroke: #ffffff; stroke-opacity: 0.7; stroke-width: 0.48"/>
     <use xlink:href="#ma79f535834" x="157.526602" y="345.935823" style="fill: #4caf50; fill-opacity: 0.7; stroke: #ffffff; stroke-opacity: 0.7; stroke-width: 0.48"/>
     <use xlink:href="#ma79f535834" x="161.331892" y="330.554996" style="fill: #4caf50; fill-opacity: 0.7; stroke: #ffffff; stroke-opacity: 0.7; stroke-width: 0.48"/>
     <use xlink:href="#ma79f535834" x="162.511692" y="328.002888" style="fill: #4caf50; fill-opacity: 0.7; stroke: #ffffff; stroke-opacity: 0.7; stroke-width: 0.48"/>
     <use xlink:href="#ma79f535834" x="162.753149" y="362.141215" style="fill: #4caf50; fill-opacity: 0.7; stroke: #ffffff; stroke-opacity: 0.7; stroke-width: 0.48"/>
     <use xlink:href="#ma79f535834" x="166.19874" y="323.332502" style="fill: #4caf50; fill-opacity: 0.7; stroke: #ffffff; stroke-opacity: 0.7; stroke-width: 0.48"/>
     <use xlink:href="#ma79f535834" x="166.914037" y="370.79957" style="fill: #4caf50; fill-opacity: 0.7; stroke: #ffffff; stroke-opacity: 0.7; stroke-width: 0.48"/>
     <use xlink:href="#ma79f535834" x="166.976256" y="310.773806" style="fill: #4caf50; fill-opacity: 0.7; stroke: #ffffff; stroke-opacity: 0.7; stroke-width: 0.48"/>
     <use xlink:href="#ma79f535834" x="167.378278" y="357.846688" style="fill: #4caf50; fill-opacity: 0.7; stroke: #ffffff; stroke-opacity: 0.7; stroke-width: 0.48"/>
     <use xlink:href="#ma79f535834" x="170.003332" y="333.215237" style="fill: #4caf50; fill-opacity: 0.7; stroke: #ffffff; stroke-opacity: 0.7; stroke-width: 0.48"/>
     <use xlink:href="#ma79f535834" x="174.250174" y="363.14645" style="fill: #4caf50; fill-opacity: 0.7; stroke: #ffffff; stroke-opacity: 0.7; stroke-width: 0.48"/>
     <use xlink:href="#ma79f535834" x="174.956308" y="366.634958" style="fill: #4caf50; fill-opacity: 0.7; stroke: #ffffff; stroke-opacity: 0.7; stroke-width: 0.48"/>
     <use xlink:href="#ma79f535834" x="178.756449" y="366.136424" style="fill: #4caf50; fill-opacity: 0.7; stroke: #ffffff; stroke-opacity: 0.7; stroke-width: 0.48"/>
     <use xlink:href="#ma79f535834" x="185.043332" y="363.87417" style="fill: #4caf50; fill-opacity: 0.7; stroke: #ffffff; stroke-opacity: 0.7; stroke-width: 0.48"/>
     <use xlink:href="#ma79f535834" x="197.172928" y="290.092886" style="fill: #4caf50; fill-opacity: 0.7; stroke: #ffffff; stroke-opacity: 0.7; stroke-width: 0.48"/>
     <use xlink:href="#ma79f535834" x="206.230072" y="324.761425" style="fill: #4caf50; fill-opacity: 0.7; stroke: #ffffff; stroke-opacity: 0.7; stroke-width: 0.48"/>
     <use xlink:href="#ma79f535834" x="220.745184" y="352.388556" style="fill: #4caf50; fill-opacity: 0.7; stroke: #ffffff; stroke-opacity: 0.7; stroke-width: 0.48"/>
     <use xlink:href="#ma79f535834" x="226.689733" y="325.959379" style="fill: #4caf50; fill-opacity: 0.7; stroke: #ffffff; stroke-opacity: 0.7; stroke-width: 0.48"/>
     <use xlink:href="#ma79f535834" x="227.10563" y="336.247742" style="fill: #4caf50; fill-opacity: 0.7; stroke: #ffffff; stroke-opacity: 0.7; stroke-width: 0.48"/>
     <use xlink:href="#ma79f535834" x="227.258428" y="344.830944" style="fill: #4caf50; fill-opacity: 0.7; stroke: #ffffff; stroke-opacity: 0.7; stroke-width: 0.48"/>
     <use xlink:href="#ma79f535834" x="229.042089" y="328.473117" style="fill: #4caf50; fill-opacity: 0.7; stroke: #ffffff; stroke-opacity: 0.7; stroke-width: 0.48"/>
     <use xlink:href="#ma79f535834" x="236.6045" y="322.448735" style="fill: #4caf50; fill-opacity: 0.7; stroke: #ffffff; stroke-opacity: 0.7; stroke-width: 0.48"/>
     <use xlink:href="#ma79f535834" x="238.955111" y="337.619439" style="fill: #4caf50; fill-opacity: 0.7; stroke: #ffffff; stroke-opacity: 0.7; stroke-width: 0.48"/>
     <use xlink:href="#ma79f535834" x="240.153672" y="299.125188" style="fill: #4caf50; fill-opacity: 0.7; stroke: #ffffff; stroke-opacity: 0.7; stroke-width: 0.48"/>
     <use xlink:href="#ma79f535834" x="243.712966" y="315.343452" style="fill: #4caf50; fill-opacity: 0.7; stroke: #ffffff; stroke-opacity: 0.7; stroke-width: 0.48"/>
     <use xlink:href="#ma79f535834" x="245.13815" y="328.055376" style="fill: #4caf50; fill-opacity: 0.7; stroke: #ffffff; stroke-opacity: 0.7; stroke-width: 0.48"/>
     <use xlink:href="#ma79f535834" x="248.712367" y="329.95271" style="fill: #4caf50; fill-opacity: 0.7; stroke: #ffffff; stroke-opacity: 0.7; stroke-width: 0.48"/>
     <use xlink:href="#ma79f535834" x="251.434545" y="327.50947" style="fill: #4caf50; fill-opacity: 0.7; stroke: #ffffff; stroke-opacity: 0.7; stroke-width: 0.48"/>
     <use xlink:href="#ma79f535834" x="252.807371" y="335.712889" style="fill: #4caf50; fill-opacity: 0.7; stroke: #ffffff; stroke-opacity: 0.7; stroke-width: 0.48"/>
     <use xlink:href="#ma79f535834" x="254.177317" y="336.353504" style="fill: #4caf50; fill-opacity: 0.7; stroke: #ffffff; stroke-opacity: 0.7; stroke-width: 0.48"/>
     <use xlink:href="#ma79f535834" x="254.426454" y="341.238655" style="fill: #4caf50; fill-opacity: 0.7; stroke: #ffffff; stroke-opacity: 0.7; stroke-width: 0.48"/>
     <use xlink:href="#ma79f535834" x="256.510301" y="333.806797" style="fill: #4caf50; fill-opacity: 0.7; stroke: #ffffff; stroke-opacity: 0.7; stroke-width: 0.48"/>
     <use xlink:href="#ma79f535834" x="266.713734" y="340.131949" style="fill: #4caf50; fill-opacity: 0.7; stroke: #ffffff; stroke-opacity: 0.7; stroke-width: 0.48"/>
     <use xlink:href="#ma79f535834" x="267.247873" y="327.8494" style="fill: #4caf50; fill-opacity: 0.7; stroke: #ffffff; stroke-opacity: 0.7; stroke-width: 0.48"/>
     <use xlink:href="#ma79f535834" x="267.438194" y="330.021386" style="fill: #4caf50; fill-opacity: 0.7; stroke: #ffffff; stroke-opacity: 0.7; stroke-width: 0.48"/>
     <use xlink:href="#ma79f535834" x="273.974476" y="320.989203" style="fill: #4caf50; fill-opacity: 0.7; stroke: #ffffff; stroke-opacity: 0.7; stroke-width: 0.48"/>
     <use xlink:href="#ma79f535834" x="278.153951" y="305.906715" style="fill: #4caf50; fill-opacity: 0.7; stroke: #ffffff; stroke-opacity: 0.7; stroke-width: 0.48"/>
     <use xlink:href="#ma79f535834" x="283.683912" y="273.027789" style="fill: #4caf50; fill-opacity: 0.7; stroke: #ffffff; stroke-opacity: 0.7; stroke-width: 0.48"/>
     <use xlink:href="#ma79f535834" x="284.166565" y="302.563723" style="fill: #4caf50; fill-opacity: 0.7; stroke: #ffffff; stroke-opacity: 0.7; stroke-width: 0.48"/>
     <use xlink:href="#ma79f535834" x="292.791406" y="287.065713" style="fill: #4caf50; fill-opacity: 0.7; stroke: #ffffff; stroke-opacity: 0.7; stroke-width: 0.48"/>
     <use xlink:href="#ma79f535834" x="295.817347" y="293.517223" style="fill: #4caf50; fill-opacity: 0.7; stroke: #ffffff; stroke-opacity: 0.7; stroke-width: 0.48"/>
     <use xlink:href="#ma79f535834" x="298.464392" y="318.666659" style="fill: #4caf50; fill-opacity: 0.7; stroke: #ffffff; stroke-opacity: 0.7; stroke-width: 0.48"/>
     <use xlink:href="#ma79f535834" x="302.518731" y="324.468236" style="fill: #4caf50; fill-opacity: 0.7; stroke: #ffffff; stroke-opacity: 0.7; stroke-width: 0.48"/>
     <use xlink:href="#ma79f535834" x="314.225798" y="328.992495" style="fill: #4caf50; fill-opacity: 0.7; stroke: #ffffff; stroke-opacity: 0.7; stroke-width: 0.48"/>
     <use xlink:href="#ma79f535834" x="315.796624" y="314.395388" style="fill: #4caf50; fill-opacity: 0.7; stroke: #ffffff; stroke-opacity: 0.7; stroke-width: 0.48"/>
     <use xlink:href="#ma79f535834" x="317.222245" y="315.267311" style="fill: #4caf50; fill-opacity: 0.7; stroke: #ffffff; stroke-opacity: 0.7; stroke-width: 0.48"/>
     <use xlink:href="#ma79f535834" x="319.096747" y="329.295621" style="fill: #4caf50; fill-opacity: 0.7; stroke: #ffffff; stroke-opacity: 0.7; stroke-width: 0.48"/>
     <use xlink:href="#ma79f535834" x="322.055147" y="281.076978" style="fill: #4caf50; fill-opacity: 0.7; stroke: #ffffff; stroke-opacity: 0.7; stroke-width: 0.48"/>
     <use xlink:href="#ma79f535834" x="323.387744" y="309.929421" style="fill: #4caf50; fill-opacity: 0.7; stroke: #ffffff; stroke-opacity: 0.7; stroke-width: 0.48"/>
     <use xlink:href="#ma79f535834" x="326.026935" y="308.356284" style="fill: #4caf50; fill-opacity: 0.7; stroke: #ffffff; stroke-opacity: 0.7; stroke-width: 0.48"/>
     <use xlink:href="#ma79f535834" x="326.247537" y="314.589485" style="fill: #4caf50; fill-opacity: 0.7; stroke: #ffffff; stroke-opacity: 0.7; stroke-width: 0.48"/>
     <use xlink:href="#ma79f535834" x="335.272131" y="291.188619" style="fill: #4caf50; fill-opacity: 0.7; stroke: #ffffff; stroke-opacity: 0.7; stroke-width: 0.48"/>
     <use xlink:href="#ma79f535834" x="337.060853" y="298.448742" style="fill: #4caf50; fill-opacity: 0.7; stroke: #ffffff; stroke-opacity: 0.7; stroke-width: 0.48"/>
     <use xlink:href="#ma79f535834" x="353.129339" y="322.706624" style="fill: #4caf50; fill-opacity: 0.7; stroke: #ffffff; stroke-opacity: 0.7; stroke-width: 0.48"/>
     <use xlink:href="#ma79f535834" x="353.492616" y="323.599317" style="fill: #4caf50; fill-opacity: 0.7; stroke: #ffffff; stroke-opacity: 0.7; stroke-width: 0.48"/>
     <use xlink:href="#ma79f535834" x="356.962117" y="289.99767" style="fill: #4caf50; fill-opacity: 0.7; stroke: #ffffff; stroke-opacity: 0.7; stroke-width: 0.48"/>
     <use xlink:href="#ma79f535834" x="362.910506" y="306.673657" style="fill: #4caf50; fill-opacity: 0.7; stroke: #ffffff; stroke-opacity: 0.7; stroke-width: 0.48"/>
     <use xlink:href="#ma79f535834" x="363.146815" y="322.992282" style="fill: #4caf50; fill-opacity: 0.7; stroke: #ffffff; stroke-opacity: 0.7; stroke-width: 0.48"/>
     <use xlink:href="#ma79f535834" x="364.775235" y="300.116473" style="fill: #4caf50; fill-opacity: 0.7; stroke: #ffffff; stroke-opacity: 0.7; stroke-width: 0.48"/>
     <use xlink:href="#ma79f535834" x="366.764139" y="289.80492" style="fill: #4caf50; fill-opacity: 0.7; stroke: #ffffff; stroke-opacity: 0.7; stroke-width: 0.48"/>
     <use xlink:href="#ma79f535834" x="369.608137" y="321.665933" style="fill: #4caf50; fill-opacity: 0.7; stroke: #ffffff; stroke-opacity: 0.7; stroke-width: 0.48"/>
     <use xlink:href="#ma79f535834" x="372.083011" y="328.730906" style="fill: #4caf50; fill-opacity: 0.7; stroke: #ffffff; stroke-opacity: 0.7; stroke-width: 0.48"/>
     <use xlink:href="#ma79f535834" x="379.318184" y="311.004414" style="fill: #4caf50; fill-opacity: 0.7; stroke: #ffffff; stroke-opacity: 0.7; stroke-width: 0.48"/>
     <use xlink:href="#ma79f535834" x="383.139181" y="303.840674" style="fill: #4caf50; fill-opacity: 0.7; stroke: #ffffff; stroke-opacity: 0.7; stroke-width: 0.48"/>
     <use xlink:href="#ma79f535834" x="385.444677" y="299.137164" style="fill: #4caf50; fill-opacity: 0.7; stroke: #ffffff; stroke-opacity: 0.7; stroke-width: 0.48"/>
     <use xlink:href="#ma79f535834" x="386.841326" y="320.965489" style="fill: #4caf50; fill-opacity: 0.7; stroke: #ffffff; stroke-opacity: 0.7; stroke-width: 0.48"/>
     <use xlink:href="#ma79f535834" x="387.712039" y="295.639458" style="fill: #4caf50; fill-opacity: 0.7; stroke: #ffffff; stroke-opacity: 0.7; stroke-width: 0.48"/>
     <use xlink:href="#ma79f535834" x="388.602997" y="296.173773" style="fill: #4caf50; fill-opacity: 0.7; stroke: #ffffff; stroke-opacity: 0.7; stroke-width: 0.48"/>
     <use xlink:href="#ma79f535834" x="390.097119" y="320.536282" style="fill: #4caf50; fill-opacity: 0.7; stroke: #ffffff; stroke-opacity: 0.7; stroke-width: 0.48"/>
     <use xlink:href="#ma79f535834" x="401.547283" y="317.349225" style="fill: #4caf50; fill-opacity: 0.7; stroke: #ffffff; stroke-opacity: 0.7; stroke-width: 0.48"/>
     <use xlink:href="#ma79f535834" x="405.080224" y="307.607012" style="fill: #4caf50; fill-opacity: 0.7; stroke: #ffffff; stroke-opacity: 0.7; stroke-width: 0.48"/>
     <use xlink:href="#ma79f535834" x="408.729313" y="298.080235" style="fill: #4caf50; fill-opacity: 0.7; stroke: #ffffff; stroke-opacity: 0.7; stroke-width: 0.48"/>
     <use xlink:href="#ma79f535834" x="418.016045" y="278.188189" style="fill: #4caf50; fill-opacity: 0.7; stroke: #ffffff; stroke-opacity: 0.7; stroke-width: 0.48"/>
     <use xlink:href="#ma79f535834" x="423.090929" y="326.629006" style="fill: #4caf50; fill-opacity: 0.7; stroke: #ffffff; stroke-opacity: 0.7; stroke-width: 0.48"/>
     <use xlink:href="#ma79f535834" x="429.585411" y="319.861059" style="fill: #4caf50; fill-opacity: 0.7; stroke: #ffffff; stroke-opacity: 0.7; stroke-width: 0.48"/>
     <use xlink:href="#ma79f535834" x="431.634877" y="311.677644" style="fill: #4caf50; fill-opacity: 0.7; stroke: #ffffff; stroke-opacity: 0.7; stroke-width: 0.48"/>
     <use xlink:href="#ma79f535834" x="433.808081" y="321.618934" style="fill: #4caf50; fill-opacity: 0.7; stroke: #ffffff; stroke-opacity: 0.7; stroke-width: 0.48"/>
     <use xlink:href="#ma79f535834" x="434.853059" y="321.692171" style="fill: #4caf50; fill-opacity: 0.7; stroke: #ffffff; stroke-opacity: 0.7; stroke-width: 0.48"/>
     <use xlink:href="#ma79f535834" x="436.129023" y="323.066314" style="fill: #4caf50; fill-opacity: 0.7; stroke: #ffffff; stroke-opacity: 0.7; stroke-width: 0.48"/>
     <use xlink:href="#ma79f535834" x="440.236767" y="323.946278" style="fill: #4caf50; fill-opacity: 0.7; stroke: #ffffff; stroke-opacity: 0.7; stroke-width: 0.48"/>
     <use xlink:href="#ma79f535834" x="440.828848" y="263.255789" style="fill: #4caf50; fill-opacity: 0.7; stroke: #ffffff; stroke-opacity: 0.7; stroke-width: 0.48"/>
     <use xlink:href="#ma79f535834" x="441.65689" y="328.731706" style="fill: #4caf50; fill-opacity: 0.7; stroke: #ffffff; stroke-opacity: 0.7; stroke-width: 0.48"/>
     <use xlink:href="#ma79f535834" x="444.254019" y="302.681827" style="fill: #4caf50; fill-opacity: 0.7; stroke: #ffffff; stroke-opacity: 0.7; stroke-width: 0.48"/>
     <use xlink:href="#ma79f535834" x="446.382807" y="290.930632" style="fill: #4caf50; fill-opacity: 0.7; stroke: #ffffff; stroke-opacity: 0.7; stroke-width: 0.48"/>
     <use xlink:href="#ma79f535834" x="448.45243" y="286.694789" style="fill: #4caf50; fill-opacity: 0.7; stroke: #ffffff; stroke-opacity: 0.7; stroke-width: 0.48"/>
     <use xlink:href="#ma79f535834" x="449.461281" y="301.355645" style="fill: #4caf50; fill-opacity: 0.7; stroke: #ffffff; stroke-opacity: 0.7; stroke-width: 0.48"/>
     <use xlink:href="#ma79f535834" x="451.342328" y="303.817713" style="fill: #4caf50; fill-opacity: 0.7; stroke: #ffffff; stroke-opacity: 0.7; stroke-width: 0.48"/>
     <use xlink:href="#ma79f535834" x="453.884308" y="299.073938" style="fill: #4caf50; fill-opacity: 0.7; stroke: #ffffff; stroke-opacity: 0.7; stroke-width: 0.48"/>
     <use xlink:href="#ma79f535834" x="459.552581" y="308.634354" style="fill: #4caf50; fill-opacity: 0.7; stroke: #ffffff; stroke-opacity: 0.7; stroke-width: 0.48"/>
     <use xlink:href="#ma79f535834" x="460.030348" y="320.205995" style="fill: #4caf50; fill-opacity: 0.7; stroke: #ffffff; stroke-opacity: 0.7; stroke-width: 0.48"/>
     <use xlink:href="#ma79f535834" x="460.244928" y="324.887674" style="fill: #4caf50; fill-opacity: 0.7; stroke: #ffffff; stroke-opacity: 0.7; stroke-width: 0.48"/>
     <use xlink:href="#ma79f535834" x="461.236501" y="323.527056" style="fill: #4caf50; fill-opacity: 0.7; stroke: #ffffff; stroke-opacity: 0.7; stroke-width: 0.48"/>
     <use xlink:href="#ma79f535834" x="467.787355" y="314.022899" style="fill: #4caf50; fill-opacity: 0.7; stroke: #ffffff; stroke-opacity: 0.7; stroke-width: 0.48"/>
     <use xlink:href="#ma79f535834" x="475.235887" y="306.841638" style="fill: #4caf50; fill-opacity: 0.7; stroke: #ffffff; stroke-opacity: 0.7; stroke-width: 0.48"/>
     <use xlink:href="#ma79f535834" x="482.271925" y="324.659946" style="fill: #4caf50; fill-opacity: 0.7; stroke: #ffffff; stroke-opacity: 0.7; stroke-width: 0.48"/>
     <use xlink:href="#ma79f535834" x="496.491302" y="314.193792" style="fill: #4caf50; fill-opacity: 0.7; stroke: #ffffff; stroke-opacity: 0.7; stroke-width: 0.48"/>
     <use xlink:href="#ma79f535834" x="504.324054" y="316.642947" style="fill: #4caf50; fill-opacity: 0.7; stroke: #ffffff; stroke-opacity: 0.7; stroke-width: 0.48"/>
     <use xlink:href="#ma79f535834" x="504.605304" y="317.267431" style="fill: #4caf50; fill-opacity: 0.7; stroke: #ffffff; stroke-opacity: 0.7; stroke-width: 0.48"/>
     <use xlink:href="#ma79f535834" x="520.965947" y="324.298987" style="fill: #4caf50; fill-opacity: 0.7; stroke: #ffffff; stroke-opacity: 0.7; stroke-width: 0.48"/>
     <use xlink:href="#ma79f535834" x="523.147006" y="308.788864" style="fill: #4caf50; fill-opacity: 0.7; stroke: #ffffff; stroke-opacity: 0.7; stroke-width: 0.48"/>
     <use xlink:href="#ma79f535834" x="527.505283" y="323.201351" style="fill: #4caf50; fill-opacity: 0.7; stroke: #ffffff; stroke-opacity: 0.7; stroke-width: 0.48"/>
     <use xlink:href="#ma79f535834" x="534.663054" y="319.531643" style="fill: #4caf50; fill-opacity: 0.7; stroke: #ffffff; stroke-opacity: 0.7; stroke-width: 0.48"/>
     <use xlink:href="#ma79f535834" x="535.140296" y="255.665409" style="fill: #4caf50; fill-opacity: 0.7; stroke: #ffffff; stroke-opacity: 0.7; stroke-width: 0.48"/>
     <use xlink:href="#ma79f535834" x="542.732725" y="319.564003" style="fill: #4caf50; fill-opacity: 0.7; stroke: #ffffff; stroke-opacity: 0.7; stroke-width: 0.48"/>
     <use xlink:href="#ma79f535834" x="543.598726" y="257.623329" style="fill: #4caf50; fill-opacity: 0.7; stroke: #ffffff; stroke-opacity: 0.7; stroke-width: 0.48"/>
     <use xlink:href="#ma79f535834" x="544.402508" y="308.590766" style="fill: #4caf50; fill-opacity: 0.7; stroke: #ffffff; stroke-opacity: 0.7; stroke-width: 0.48"/>
     <use xlink:href="#ma79f535834" x="545.339105" y="306.524448" style="fill: #4caf50; fill-opacity: 0.7; stroke: #ffffff; stroke-opacity: 0.7; stroke-width: 0.48"/>
     <use xlink:href="#ma79f535834" x="548.953463" y="323.90262" style="fill: #4caf50; fill-opacity: 0.7; stroke: #ffffff; stroke-opacity: 0.7; stroke-width: 0.48"/>
     <use xlink:href="#ma79f535834" x="554.04353" y="285.577786" style="fill: #4caf50; fill-opacity: 0.7; stroke: #ffffff; stroke-opacity: 0.7; stroke-width: 0.48"/>
     <use xlink:href="#ma79f535834" x="556.224152" y="296.749979" style="fill: #4caf50; fill-opacity: 0.7; stroke: #ffffff; stroke-opacity: 0.7; stroke-width: 0.48"/>
     <use xlink:href="#ma79f535834" x="563.320402" y="300.310841" style="fill: #4caf50; fill-opacity: 0.7; stroke: #ffffff; stroke-opacity: 0.7; stroke-width: 0.48"/>
     <use xlink:href="#ma79f535834" x="565.18548" y="301.282227" style="fill: #4caf50; fill-opacity: 0.7; stroke: #ffffff; stroke-opacity: 0.7; stroke-width: 0.48"/>
     <use xlink:href="#ma79f535834" x="572.650767" y="307.805372" style="fill: #4caf50; fill-opacity: 0.7; stroke: #ffffff; stroke-opacity: 0.7; stroke-width: 0.48"/>
     <use xlink:href="#ma79f535834" x="579.190684" y="298.851623" style="fill: #4caf50; fill-opacity: 0.7; stroke: #ffffff; stroke-opacity: 0.7; stroke-width: 0.48"/>
     <use xlink:href="#ma79f535834" x="580.092928" y="312.051109" style="fill: #4caf50; fill-opacity: 0.7; stroke: #ffffff; stroke-opacity: 0.7; stroke-width: 0.48"/>
     <use xlink:href="#ma79f535834" x="590.574644" y="293.335638" style="fill: #4caf50; fill-opacity: 0.7; stroke: #ffffff; stroke-opacity: 0.7; stroke-width: 0.48"/>
     <use xlink:href="#ma79f535834" x="593.93015" y="319.913747" style="fill: #4caf50; fill-opacity: 0.7; stroke: #ffffff; stroke-opacity: 0.7; stroke-width: 0.48"/>
     <use xlink:href="#ma79f535834" x="596.545547" y="260.136434" style="fill: #4caf50; fill-opacity: 0.7; stroke: #ffffff; stroke-opacity: 0.7; stroke-width: 0.48"/>
     <use xlink:href="#ma79f535834" x="598.881759" y="300.591132" style="fill: #4caf50; fill-opacity: 0.7; stroke: #ffffff; stroke-opacity: 0.7; stroke-width: 0.48"/>
     <use xlink:href="#ma79f535834" x="600.00222" y="308.679044" style="fill: #4caf50; fill-opacity: 0.7; stroke: #ffffff; stroke-opacity: 0.7; stroke-width: 0.48"/>
     <use xlink:href="#ma79f535834" x="606.747613" y="232.082316" style="fill: #4caf50; fill-opacity: 0.7; stroke: #ffffff; stroke-opacity: 0.7; stroke-width: 0.48"/>
     <use xlink:href="#ma79f535834" x="615.309654" y="301.398105" style="fill: #4caf50; fill-opacity: 0.7; stroke: #ffffff; stroke-opacity: 0.7; stroke-width: 0.48"/>
     <use xlink:href="#ma79f535834" x="621.347109" y="299.246093" style="fill: #4caf50; fill-opacity: 0.7; stroke: #ffffff; stroke-opacity: 0.7; stroke-width: 0.48"/>
     <use xlink:href="#ma79f535834" x="625.590083" y="293.176958" style="fill: #4caf50; fill-opacity: 0.7; stroke: #ffffff; stroke-opacity: 0.7; stroke-width: 0.48"/>
     <use xlink:href="#ma79f535834" x="625.640812" y="272.462114" style="fill: #4caf50; fill-opacity: 0.7; stroke: #ffffff; stroke-opacity: 0.7; stroke-width: 0.48"/>
     <use xlink:href="#ma79f535834" x="627.227258" y="315.242404" style="fill: #4caf50; fill-opacity: 0.7; stroke: #ffffff; stroke-opacity: 0.7; stroke-width: 0.48"/>
     <use xlink:href="#ma79f535834" x="630.738442" y="286.688335" style="fill: #4caf50; fill-opacity: 0.7; stroke: #ffffff; stroke-opacity: 0.7; stroke-width: 0.48"/>
     <use xlink:href="#ma79f535834" x="636.919125" y="258.070041" style="fill: #4caf50; fill-opacity: 0.7; stroke: #ffffff; stroke-opacity: 0.7; stroke-width: 0.48"/>
     <use xlink:href="#ma79f535834" x="638.812389" y="278.332191" style="fill: #4caf50; fill-opacity: 0.7; stroke: #ffffff; stroke-opacity: 0.7; stroke-width: 0.48"/>
     <use xlink:href="#ma79f535834" x="641.741585" y="287.897813" style="fill: #4caf50; fill-opacity: 0.7; stroke: #ffffff; stroke-opacity: 0.7; stroke-width: 0.48"/>
     <use xlink:href="#ma79f535834" x="642.528118" y="309.428762" style="fill: #4caf50; fill-opacity: 0.7; stroke: #ffffff; stroke-opacity: 0.7; stroke-width: 0.48"/>
     <use xlink:href="#ma79f535834" x="644.646405" y="292.018492" style="fill: #4caf50; fill-opacity: 0.7; stroke: #ffffff; stroke-opacity: 0.7; stroke-width: 0.48"/>
     <use xlink:href="#ma79f535834" x="644.820583" y="269.868379" style="fill: #4caf50; fill-opacity: 0.7; stroke: #ffffff; stroke-opacity: 0.7; stroke-width: 0.48"/>
     <use xlink:href="#ma79f535834" x="646.920195" y="251.279552" style="fill: #4caf50; fill-opacity: 0.7; stroke: #ffffff; stroke-opacity: 0.7; stroke-width: 0.48"/>
     <use xlink:href="#ma79f535834" x="647.356802" y="219.202407" style="fill: #4caf50; fill-opacity: 0.7; stroke: #ffffff; stroke-opacity: 0.7; stroke-width: 0.48"/>
     <use xlink:href="#ma79f535834" x="648.880652" y="303.808748" style="fill: #4caf50; fill-opacity: 0.7; stroke: #ffffff; stroke-opacity: 0.7; stroke-width: 0.48"/>
     <use xlink:href="#ma79f535834" x="650.512301" y="298.852611" style="fill: #4caf50; fill-opacity: 0.7; stroke: #ffffff; stroke-opacity: 0.7; stroke-width: 0.48"/>
     <use xlink:href="#ma79f535834" x="651.25654" y="296.036859" style="fill: #4caf50; fill-opacity: 0.7; stroke: #ffffff; stroke-opacity: 0.7; stroke-width: 0.48"/>
     <use xlink:href="#ma79f535834" x="657.686913" y="306.783085" style="fill: #4caf50; fill-opacity: 0.7; stroke: #ffffff; stroke-opacity: 0.7; stroke-width: 0.48"/>
     <use xlink:href="#ma79f535834" x="659.806713" y="282.795209" style="fill: #4caf50; fill-opacity: 0.7; stroke: #ffffff; stroke-opacity: 0.7; stroke-width: 0.48"/>
     <use xlink:href="#ma79f535834" x="660.241168" y="257.229493" style="fill: #4caf50; fill-opacity: 0.7; stroke: #ffffff; stroke-opacity: 0.7; stroke-width: 0.48"/>
     <use xlink:href="#ma79f535834" x="663.441228" y="300.26431" style="fill: #4caf50; fill-opacity: 0.7; stroke: #ffffff; stroke-opacity: 0.7; stroke-width: 0.48"/>
     <use xlink:href="#ma79f535834" x="664.147305" y="284.913662" style="fill: #4caf50; fill-opacity: 0.7; stroke: #ffffff; stroke-opacity: 0.7; stroke-width: 0.48"/>
     <use xlink:href="#ma79f535834" x="668.875229" y="269.502487" style="fill: #4caf50; fill-opacity: 0.7; stroke: #ffffff; stroke-opacity: 0.7; stroke-width: 0.48"/>
     <use xlink:href="#ma79f535834" x="672.623769" y="280.632037" style="fill: #4caf50; fill-opacity: 0.7; stroke: #ffffff; stroke-opacity: 0.7; stroke-width: 0.48"/>
     <use xlink:href="#ma79f535834" x="675.205075" y="287.120243" style="fill: #4caf50; fill-opacity: 0.7; stroke: #ffffff; stroke-opacity: 0.7; stroke-width: 0.48"/>
     <use xlink:href="#ma79f535834" x="677.764798" y="287.757708" style="fill: #4caf50; fill-opacity: 0.7; stroke: #ffffff; stroke-opacity: 0.7; stroke-width: 0.48"/>
     <use xlink:href="#ma79f535834" x="684.303959" y="292.111724" style="fill: #4caf50; fill-opacity: 0.7; stroke: #ffffff; stroke-opacity: 0.7; stroke-width: 0.48"/>
     <use xlink:href="#ma79f535834" x="686.787123" y="281.013753" style="fill: #4caf50; fill-opacity: 0.7; stroke: #ffffff; stroke-opacity: 0.7; stroke-width: 0.48"/>
     <use xlink:href="#ma79f535834" x="688.359374" y="285.63595" style="fill: #4caf50; fill-opacity: 0.7; stroke: #ffffff; stroke-opacity: 0.7; stroke-width: 0.48"/>
     <use xlink:href="#ma79f535834" x="694.638956" y="254.407632" style="fill: #4caf50; fill-opacity: 0.7; stroke: #ffffff; stroke-opacity: 0.7; stroke-width: 0.48"/>
     <use xlink:href="#ma79f535834" x="700.673678" y="286.485466" style="fill: #4caf50; fill-opacity: 0.7; stroke: #ffffff; stroke-opacity: 0.7; stroke-width: 0.48"/>
     <use xlink:href="#ma79f535834" x="706.122222" y="257.356958" style="fill: #4caf50; fill-opacity: 0.7; stroke: #ffffff; stroke-opacity: 0.7; stroke-width: 0.48"/>
     <use xlink:href="#ma79f535834" x="710.249543" y="197.594173" style="fill: #4caf50; fill-opacity: 0.7; stroke: #ffffff; stroke-opacity: 0.7; stroke-width: 0.48"/>
     <use xlink:href="#ma79f535834" x="716.145399" y="237.763877" style="fill: #4caf50; fill-opacity: 0.7; stroke: #ffffff; stroke-opacity: 0.7; stroke-width: 0.48"/>
     <use xlink:href="#ma79f535834" x="720.328161" y="276.998096" style="fill: #4caf50; fill-opacity: 0.7; stroke: #ffffff; stroke-opacity: 0.7; stroke-width: 0.48"/>
     <use xlink:href="#ma79f535834" x="722.905162" y="275.74291" style="fill: #4caf50; fill-opacity: 0.7; stroke: #ffffff; stroke-opacity: 0.7; stroke-width: 0.48"/>
     <use xlink:href="#ma79f535834" x="725.189947" y="255.040633" style="fill: #4caf50; fill-opacity: 0.7; stroke: #ffffff; stroke-opacity: 0.7; stroke-width: 0.48"/>
     <use xlink:href="#ma79f535834" x="725.801663" y="274.535373" style="fill: #4caf50; fill-opacity: 0.7; stroke: #ffffff; stroke-opacity: 0.7; stroke-width: 0.48"/>
     <use xlink:href="#ma79f535834" x="726.254734" y="224.220106" style="fill: #4caf50; fill-opacity: 0.7; stroke: #ffffff; stroke-opacity: 0.7; stroke-width: 0.48"/>
     <use xlink:href="#ma79f535834" x="726.692155" y="270.511016" style="fill: #4caf50; fill-opacity: 0.7; stroke: #ffffff; stroke-opacity: 0.7; stroke-width: 0.48"/>
     <use xlink:href="#ma79f535834" x="728.967516" y="220.073841" style="fill: #4caf50; fill-opacity: 0.7; stroke: #ffffff; stroke-opacity: 0.7; stroke-width: 0.48"/>
     <use xlink:href="#ma79f535834" x="729.668822" y="234.717354" style="fill: #4caf50; fill-opacity: 0.7; stroke: #ffffff; stroke-opacity: 0.7; stroke-width: 0.48"/>
     <use xlink:href="#ma79f535834" x="734.940513" y="249.243457" style="fill: #4caf50; fill-opacity: 0.7; stroke: #ffffff; stroke-opacity: 0.7; stroke-width: 0.48"/>
     <use xlink:href="#ma79f535834" x="739.358537" y="208.77511" style="fill: #4caf50; fill-opacity: 0.7; stroke: #ffffff; stroke-opacity: 0.7; stroke-width: 0.48"/>
     <use xlink:href="#ma79f535834" x="740.827352" y="240.662511" style="fill: #4caf50; fill-opacity: 0.7; stroke: #ffffff; stroke-opacity: 0.7; stroke-width: 0.48"/>
     <use xlink:href="#ma79f535834" x="742.327583" y="259.915194" style="fill: #4caf50; fill-opacity: 0.7; stroke: #ffffff; stroke-opacity: 0.7; stroke-width: 0.48"/>
     <use xlink:href="#ma79f535834" x="744.902897" y="262.664998" style="fill: #4caf50; fill-opacity: 0.7; stroke: #ffffff; stroke-opacity: 0.7; stroke-width: 0.48"/>
     <use xlink:href="#ma79f535834" x="750.347718" y="262.486225" style="fill: #4caf50; fill-opacity: 0.7; stroke: #ffffff; stroke-opacity: 0.7; stroke-width: 0.48"/>
     <use xlink:href="#ma79f535834" x="751.739858" y="154.999362" style="fill: #4caf50; fill-opacity: 0.7; stroke: #ffffff; stroke-opacity: 0.7; stroke-width: 0.48"/>
     <use xlink:href="#ma79f535834" x="753.851048" y="241.44141" style="fill: #4caf50; fill-opacity: 0.7; stroke: #ffffff; stroke-opacity: 0.7; stroke-width: 0.48"/>
     <use xlink:href="#ma79f535834" x="761.873452" y="215.017586" style="fill: #4caf50; fill-opacity: 0.7; stroke: #ffffff; stroke-opacity: 0.7; stroke-width: 0.48"/>
     <use xlink:href="#ma79f535834" x="765.066997" y="112.089074" style="fill: #4caf50; fill-opacity: 0.7; stroke: #ffffff; stroke-opacity: 0.7; stroke-width: 0.48"/>
     <use xlink:href="#ma79f535834" x="765.742822" y="224.770094" style="fill: #4caf50; fill-opacity: 0.7; stroke: #ffffff; stroke-opacity: 0.7; stroke-width: 0.48"/>
     <use xlink:href="#ma79f535834" x="770.901711" y="249.356763" style="fill: #4caf50; fill-opacity: 0.7; stroke: #ffffff; stroke-opacity: 0.7; stroke-width: 0.48"/>
     <use xlink:href="#ma79f535834" x="771.007242" y="227.8063" style="fill: #4caf50; fill-opacity: 0.7; stroke: #ffffff; stroke-opacity: 0.7; stroke-width: 0.48"/>
     <use xlink:href="#ma79f535834" x="782.366361" y="224.036942" style="fill: #4caf50; fill-opacity: 0.7; stroke: #ffffff; stroke-opacity: 0.7; stroke-width: 0.48"/>
     <use xlink:href="#ma79f535834" x="783.580833" y="233.162126" style="fill: #4caf50; fill-opacity: 0.7; stroke: #ffffff; stroke-opacity: 0.7; stroke-width: 0.48"/>
     <use xlink:href="#ma79f535834" x="787.635085" y="229.309492" style="fill: #4caf50; fill-opacity: 0.7; stroke: #ffffff; stroke-opacity: 0.7; stroke-width: 0.48"/>
     <use xlink:href="#ma79f535834" x="790.126045" y="145.231695" style="fill: #4caf50; fill-opacity: 0.7; stroke: #ffffff; stroke-opacity: 0.7; stroke-width: 0.48"/>
     <use xlink:href="#ma79f535834" x="793.805646" y="227.155637" style="fill: #4caf50; fill-opacity: 0.7; stroke: #ffffff; stroke-opacity: 0.7; stroke-width: 0.48"/>
     <use xlink:href="#ma79f535834" x="794.993474" y="218.02726" style="fill: #4caf50; fill-opacity: 0.7; stroke: #ffffff; stroke-opacity: 0.7; stroke-width: 0.48"/>
     <use xlink:href="#ma79f535834" x="798.195629" y="225.816394" style="fill: #4caf50; fill-opacity: 0.7; stroke: #ffffff; stroke-opacity: 0.7; stroke-width: 0.48"/>
     <use xlink:href="#ma79f535834" x="798.91398" y="210.986261" style="fill: #4caf50; fill-opacity: 0.7; stroke: #ffffff; stroke-opacity: 0.7; stroke-width: 0.48"/>
     <use xlink:href="#ma79f535834" x="799.734313" y="211.962504" style="fill: #4caf50; fill-opacity: 0.7; stroke: #ffffff; stroke-opacity: 0.7; stroke-width: 0.48"/>
     <use xlink:href="#ma79f535834" x="807.631175" y="43.111449" style="fill: #4caf50; fill-opacity: 0.7; stroke: #ffffff; stroke-opacity: 0.7; stroke-width: 0.48"/>
     <use xlink:href="#ma79f535834" x="808.762514" y="212.14494" style="fill: #4caf50; fill-opacity: 0.7; stroke: #ffffff; stroke-opacity: 0.7; stroke-width: 0.48"/>
    </g>
   </g>
   <g id="PolyCollection_1"/>
   <g id="PolyCollection_2">
    <defs>
     <path id="med74f81a7b" d="M 85.653423 -170.717405 
L 85.653423 -63.201136 
L 88.601439 -65.2519 
L 88.723956 -65.336718 
L 89.44894 -65.840153 
L 99.350268 -72.677695 
L 104.426984 -76.146833 
L 122.724959 -88.341568 
L 127.415186 -91.367279 
L 128.518106 -92.071886 
L 132.469388 -94.572981 
L 136.445016 -97.050242 
L 141.628193 -100.217392 
L 143.563256 -101.380632 
L 153.855262 -107.374782 
L 157.526602 -109.429331 
L 161.331892 -111.508456 
L 162.511692 -112.140239 
L 162.753149 -112.269383 
L 166.19874 -114.086441 
L 166.914037 -114.457923 
L 166.976256 -114.490249 
L 167.378278 -114.698247 
L 170.003332 -116.039984 
L 174.250174 -118.154783 
L 174.956308 -118.500039 
L 178.756449 -120.325937 
L 185.043332 -123.232092 
L 197.172928 -128.454844 
L 206.230072 -132.043996 
L 220.745184 -137.286749 
L 226.689733 -139.266264 
L 227.10563 -139.401391 
L 227.258428 -139.453317 
L 229.042089 -140.024289 
L 236.6045 -142.368634 
L 238.955111 -143.068327 
L 240.153672 -143.421156 
L 243.712966 -144.448008 
L 245.13815 -144.851959 
L 248.712367 -145.844255 
L 251.434545 -146.581878 
L 252.807371 -146.948653 
L 254.177317 -147.308843 
L 254.426454 -147.373999 
L 256.510301 -147.915054 
L 266.713734 -150.418847 
L 267.247873 -150.542869 
L 267.438194 -150.587005 
L 273.974476 -152.055182 
L 278.153951 -152.940788 
L 283.683912 -154.048365 
L 284.166565 -154.141552 
L 292.791406 -155.709592 
L 295.817347 -156.215813 
L 298.464392 -156.639429 
L 302.518731 -157.25431 
L 314.225798 -158.786083 
L 315.796624 -158.964621 
L 317.222245 -159.120288 
L 319.096747 -159.315845 
L 322.055147 -159.606894 
L 323.387744 -159.729087 
L 326.026935 -159.95823 
L 326.247537 -159.97626 
L 335.272131 -160.612912 
L 337.060853 -160.713438 
L 353.129339 -161.324582 
L 353.492616 -161.332115 
L 356.962117 -161.401362 
L 362.910506 -161.481532 
L 363.146815 -161.483865 
L 364.775235 -161.497364 
L 366.764139 -161.510254 
L 369.608137 -161.523046 
L 372.083011 -161.526582 
L 379.318184 -161.516414 
L 383.139181 -161.500899 
L 385.444677 -161.489571 
L 386.841326 -161.482236 
L 387.712039 -161.477398 
L 388.602997 -161.472463 
L 390.097119 -161.464497 
L 401.547283 -161.418044 
L 405.080224 -161.415538 
L 408.729313 -161.42261 
L 418.016045 -161.48742 
L 423.090929 -161.548328 
L 429.585411 -161.650604 
L 431.634877 -161.687742 
L 433.808081 -161.730203 
L 434.853059 -161.751187 
L 436.129023 -161.777412 
L 440.236767 -161.868917 
L 440.828848 -161.882438 
L 441.65689 -161.901767 
L 444.254019 -161.96433 
L 446.382807 -162.018233 
L 448.45243 -162.071832 
L 449.461281 -162.101052 
L 451.342328 -162.149505 
L 453.884308 -162.220109 
L 459.552581 -162.384165 
L 460.030348 -162.398351 
L 460.244928 -162.404609 
L 461.236501 -162.43558 
L 467.787355 -162.635968 
L 475.235887 -162.871063 
L 482.271925 -163.097542 
L 496.491302 -163.5509 
L 504.324054 -163.805096 
L 504.605304 -163.814386 
L 520.965947 -164.399391 
L 523.147006 -164.486046 
L 527.505283 -164.666352 
L 534.663054 -164.988623 
L 535.140296 -165.011357 
L 542.732725 -165.397322 
L 543.598726 -165.444793 
L 544.402508 -165.488535 
L 545.339105 -165.541108 
L 548.953463 -165.750687 
L 554.04353 -166.066975 
L 556.224152 -166.210953 
L 563.320402 -166.716709 
L 565.18548 -166.859649 
L 572.650767 -167.476905 
L 579.190684 -168.083193 
L 580.092928 -168.171998 
L 590.574644 -169.3173 
L 593.93015 -169.729877 
L 596.545547 -170.068247 
L 598.881759 -170.384157 
L 600.00222 -170.540385 
L 606.747613 -171.545008 
L 615.309654 -172.99409 
L 621.347109 -174.143419 
L 625.590083 -175.019139 
L 625.640812 -175.030418 
L 627.227258 -175.374019 
L 630.738442 -176.161431 
L 636.919125 -177.654042 
L 638.812389 -178.138814 
L 641.741585 -178.915384 
L 642.528118 -179.130329 
L 644.646405 -179.717993 
L 644.820583 -179.767502 
L 646.920195 -180.369615 
L 647.356802 -180.496767 
L 648.880652 -180.94827 
L 650.512301 -181.440645 
L 651.25654 -181.669455 
L 657.686913 -183.733464 
L 659.806713 -184.449024 
L 660.241168 -184.597834 
L 663.441228 -185.71493 
L 664.147305 -185.96632 
L 668.875229 -187.697751 
L 672.623769 -189.127019 
L 675.205075 -190.138884 
L 677.764798 -191.165302 
L 684.303959 -193.884244 
L 686.787123 -194.952983 
L 688.359374 -195.63927 
L 694.638956 -198.457671 
L 700.673678 -201.270245 
L 706.122222 -203.898369 
L 710.249543 -205.941577 
L 716.145399 -208.934918 
L 720.328161 -211.107775 
L 722.905162 -212.467247 
L 725.189947 -213.684668 
L 725.801663 -214.012572 
L 726.254734 -214.255973 
L 726.692155 -214.491299 
L 728.967516 -215.722918 
L 729.668822 -216.103867 
L 734.940513 -219.005087 
L 739.358537 -221.479276 
L 740.827352 -222.31046 
L 742.327583 -223.164954 
L 744.902897 -224.639323 
L 750.347718 -227.799898 
L 751.739858 -228.617437 
L 753.851048 -229.863074 
L 761.873452 -234.671105 
L 765.066997 -236.616133 
L 765.742822 -237.030043 
L 770.901711 -240.215841 
L 771.007242 -240.281827 
L 782.366361 -247.451498 
L 783.580833 -248.230039 
L 787.635085 -250.845464 
L 790.126045 -252.464878 
L 793.805646 -254.873169 
L 794.993474 -255.654893 
L 798.195629 -257.771978 
L 798.91398 -258.249026 
L 799.734313 -258.794016 
L 807.631175 -264.091013 
L 808.762514 -264.857442 
L 808.762514 -423.331266 
L 808.762514 -423.331266 
L 807.631175 -423.178671 
L 799.734313 -411.313978 
L 798.91398 -409.734557 
L 798.195629 -407.603468 
L 794.993474 -402.260161 
L 793.805646 -400.880402 
L 790.126045 -397.255816 
L 787.635085 -392.666788 
L 783.580833 -387.560681 
L 782.366361 -386.070678 
L 771.007242 -371.030586 
L 770.901711 -371.554983 
L 765.742822 -364.706436 
L 765.066997 -365.588894 
L 761.873452 -361.051844 
L 753.851048 -351.641888 
L 751.739858 -349.294698 
L 750.347718 -347.115319 
L 744.902897 -341.012628 
L 742.327583 -339.561598 
L 740.827352 -337.158568 
L 739.358537 -335.192496 
L 734.940513 -332.301034 
L 729.668822 -325.550698 
L 728.967516 -325.479631 
L 726.692155 -324.858198 
L 726.254734 -322.369301 
L 725.801663 -321.331386 
L 725.189947 -321.481215 
L 722.905162 -319.166176 
L 720.328161 -317.570955 
L 716.145399 -313.516951 
L 710.249543 -308.512548 
L 706.122222 -304.359188 
L 700.673678 -299.479673 
L 694.638956 -295.743941 
L 688.359374 -290.891249 
L 686.787123 -289.795155 
L 684.303959 -288.045486 
L 677.764798 -282.514677 
L 675.205075 -281.294014 
L 672.623769 -279.526596 
L 668.875229 -276.649748 
L 664.147305 -274.55445 
L 663.441228 -274.052684 
L 660.241168 -271.831673 
L 659.806713 -270.902352 
L 657.686913 -270.304889 
L 651.25654 -266.208796 
L 650.512301 -267.083286 
L 648.880652 -265.903975 
L 647.356802 -264.650841 
L 646.920195 -263.857899 
L 644.820583 -263.409023 
L 644.646405 -263.407121 
L 642.528118 -263.120408 
L 641.741585 -261.714689 
L 638.812389 -260.506138 
L 636.919125 -260.348672 
L 630.738442 -256.593899 
L 627.227258 -255.976182 
L 625.640812 -255.552995 
L 625.590083 -255.381078 
L 621.347109 -253.568882 
L 615.309654 -251.666725 
L 606.747613 -248.720334 
L 600.00222 -246.102609 
L 598.881759 -245.711281 
L 596.545547 -245.039578 
L 593.93015 -244.440349 
L 590.574644 -243.364528 
L 580.092928 -240.449027 
L 579.190684 -240.590127 
L 572.650767 -238.991602 
L 565.18548 -237.787845 
L 563.320402 -237.076921 
L 556.224152 -235.375144 
L 554.04353 -235.385911 
L 548.953463 -234.299992 
L 545.339105 -233.586278 
L 544.402508 -233.045281 
L 543.598726 -233.284329 
L 542.732725 -233.010238 
L 535.140296 -231.180147 
L 534.663054 -231.836619 
L 527.505283 -229.95044 
L 523.147006 -229.580176 
L 520.965947 -229.386691 
L 504.605304 -226.76571 
L 504.324054 -226.689674 
L 496.491302 -225.853241 
L 482.271925 -223.773451 
L 475.235887 -223.493599 
L 467.787355 -222.162669 
L 461.236501 -221.519701 
L 460.244928 -221.191254 
L 460.030348 -221.602418 
L 459.552581 -221.247982 
L 453.884308 -220.676047 
L 451.342328 -220.657749 
L 449.461281 -220.344155 
L 448.45243 -220.347324 
L 446.382807 -220.484813 
L 444.254019 -219.952182 
L 441.65689 -219.994538 
L 440.828848 -219.791251 
L 440.236767 -219.266238 
L 436.129023 -219.145794 
L 434.853059 -219.20965 
L 433.808081 -219.044803 
L 431.634877 -219.211737 
L 429.585411 -218.610809 
L 423.090929 -218.485795 
L 418.016045 -218.094185 
L 408.729313 -217.830934 
L 405.080224 -217.065611 
L 401.547283 -217.698709 
L 390.097119 -217.152845 
L 388.602997 -217.669377 
L 387.712039 -217.142743 
L 386.841326 -217.286148 
L 385.444677 -217.307944 
L 383.139181 -217.515025 
L 379.318184 -217.197244 
L 372.083011 -217.29083 
L 369.608137 -217.07073 
L 366.764139 -217.316086 
L 364.775235 -217.213805 
L 363.146815 -217.250226 
L 362.910506 -217.37279 
L 356.962117 -217.500449 
L 353.492616 -217.416762 
L 353.129339 -217.322035 
L 337.060853 -217.282062 
L 335.272131 -216.994685 
L 326.247537 -216.87723 
L 326.026935 -217.302485 
L 323.387744 -217.03885 
L 322.055147 -216.968725 
L 319.096747 -216.494394 
L 317.222245 -216.473679 
L 315.796624 -216.556707 
L 314.225798 -216.255118 
L 302.518731 -215.531005 
L 298.464392 -215.340125 
L 295.817347 -214.958823 
L 292.791406 -214.56354 
L 284.166565 -213.995521 
L 283.683912 -214.060542 
L 278.153951 -213.523174 
L 273.974476 -212.552565 
L 267.438194 -212.26481 
L 267.247873 -212.317341 
L 266.713734 -212.078404 
L 256.510301 -211.079802 
L 254.426454 -210.56477 
L 254.177317 -210.7622 
L 252.807371 -210.249021 
L 251.434545 -210.476065 
L 248.712367 -210.019003 
L 245.13815 -209.161899 
L 243.712966 -208.944341 
L 240.153672 -208.530732 
L 238.955111 -208.561394 
L 236.6045 -208.0323 
L 229.042089 -207.345273 
L 227.258428 -206.968148 
L 227.10563 -206.746155 
L 226.689733 -206.754419 
L 220.745184 -205.804893 
L 206.230072 -202.973364 
L 197.172928 -201.51188 
L 185.043332 -199.073874 
L 178.756449 -197.355939 
L 174.956308 -196.838485 
L 174.250174 -196.948171 
L 170.003332 -196.193649 
L 167.378278 -194.522854 
L 166.976256 -194.761796 
L 166.914037 -194.647806 
L 166.19874 -195.178714 
L 162.753149 -194.02134 
L 162.511692 -193.162101 
L 161.331892 -193.945892 
L 157.526602 -192.470086 
L 153.855262 -191.788101 
L 143.563256 -188.407183 
L 141.628193 -187.585229 
L 136.445016 -186.714679 
L 132.469388 -184.794559 
L 128.518106 -184.282506 
L 127.415186 -183.268071 
L 122.724959 -182.028382 
L 104.426984 -175.96648 
L 99.350268 -173.984124 
L 89.44894 -171.590468 
L 88.723956 -171.521032 
L 88.601439 -171.646279 
L 85.653423 -170.717405 
z
" style="stroke: #424242; stroke-opacity: 0.2"/>
    </defs>
    <g clip-path="url(#pa939f3dde4)">
     <use xlink:href="#med74f81a7b" x="0" y="491.785313" style="fill: #424242; fill-opacity: 0.2; stroke: #424242; stroke-opacity: 0.2"/>
    </g>
   </g>
   <g id="PolyCollection_3"/>
   <g id="PolyCollection_4"/>
   <g id="line2d_13">
    <path d="M 85.653423 391.149357 
L 104.426984 380.253357 
L 128.518106 366.792871 
L 136.445016 362.577674 
L 143.563256 358.910994 
L 157.526602 352.102309 
L 167.378278 347.65444 
L 174.956308 344.454663 
L 185.043332 340.483485 
L 197.172928 336.115079 
L 206.230072 333.121517 
L 220.745184 328.758774 
L 229.042089 326.483912 
L 243.712966 322.805807 
L 254.426454 320.367621 
L 256.510301 319.917006 
L 267.438194 317.685556 
L 278.153951 315.721506 
L 284.166565 314.721296 
L 298.464392 312.651568 
L 302.518731 312.146697 
L 319.096747 310.478353 
L 326.247537 309.96255 
L 337.060853 309.416206 
L 356.962117 308.99225 
L 372.083011 308.992539 
L 408.729313 309.126234 
L 423.090929 308.903766 
L 441.65689 308.340766 
L 461.236501 307.492282 
L 482.271925 306.394638 
L 504.605304 305.121747 
L 527.505283 303.612946 
L 545.339105 302.173377 
L 556.224152 301.13799 
L 572.650767 299.296586 
L 580.092928 298.32988 
L 596.545547 295.808241 
L 606.747613 293.921664 
L 615.309654 292.112527 
L 625.640812 289.619676 
L 630.738442 288.252863 
L 641.741585 284.964655 
L 648.880652 282.564735 
L 651.25654 281.716816 
L 660.241168 278.290616 
L 668.875229 274.680534 
L 677.764798 270.651597 
L 688.359374 265.45433 
L 694.638956 262.178866 
L 706.122222 255.830218 
L 716.145399 249.925355 
L 726.692155 243.363229 
L 734.940513 237.991265 
L 744.902897 231.22774 
L 753.851048 224.898321 
L 765.742822 216.11664 
L 771.007242 212.094612 
L 787.635085 198.849074 
L 798.195629 190.007389 
L 807.631175 181.822618 
L 808.762514 180.823016 
L 808.762514 180.823016 
" clip-path="url(#pa939f3dde4)" style="fill: none; stroke: #2196f3; stroke-width: 2.2; stroke-linecap: round"/>
   </g>
   <g id="line2d_14">
    <path d="M 85.653423 428.584176 
L 104.426984 415.63848 
L 128.518106 399.713427 
L 136.445016 394.735071 
L 143.563256 390.40468 
L 157.526602 382.355982 
L 167.378278 377.087065 
L 174.956308 373.285274 
L 185.043332 368.55322 
L 197.172928 363.330468 
L 206.230072 359.741317 
L 220.745184 354.498564 
L 229.042089 351.761023 
L 240.153672 348.364157 
L 251.434545 345.203435 
L 256.510301 343.870259 
L 267.438194 341.198308 
L 278.153951 338.844525 
L 284.166565 337.64376 
L 298.464392 335.145884 
L 302.518731 334.531002 
L 319.096747 332.469468 
L 326.247537 331.809053 
L 337.060853 331.071875 
L 356.962117 330.383951 
L 372.083011 330.258731 
L 423.090929 330.236985 
L 446.382807 329.767079 
L 475.235887 328.91425 
L 523.147006 327.299267 
L 542.732725 326.38799 
L 556.224152 325.574359 
L 572.650767 324.308407 
L 580.092928 323.613314 
L 596.545547 321.717065 
L 606.747613 320.240305 
L 615.309654 318.791223 
L 627.227258 316.411294 
L 636.919125 314.13127 
L 644.820583 312.01781 
L 651.25654 310.115858 
L 660.241168 307.187478 
L 668.875229 304.087561 
L 677.764798 300.62001 
L 688.359374 296.146043 
L 700.673678 290.515067 
L 710.249543 285.843735 
L 722.905162 279.318065 
L 734.940513 272.780225 
L 744.902897 267.14599 
L 753.851048 261.922238 
L 765.742822 254.75527 
L 771.007242 251.503486 
L 790.126045 239.320434 
L 799.734313 232.991296 
L 808.762514 226.92787 
L 808.762514 226.92787 
" clip-path="url(#pa939f3dde4)" style="fill: none; stroke: #424242; stroke-opacity: 0.2; stroke-width: 1.5; stroke-linecap: round"/>
   </g>
   <g id="line2d_15">
    <path d="M 85.653423 321.067908 
L 88.601439 320.139033 
L 88.723956 320.264281 
L 89.44894 320.194844 
L 99.350268 317.801189 
L 104.426984 315.818833 
L 122.724959 309.75693 
L 127.415186 308.517242 
L 128.518106 307.502807 
L 132.469388 306.990754 
L 136.445016 305.070633 
L 141.628193 304.200083 
L 143.563256 303.378129 
L 153.855262 299.997211 
L 157.526602 299.315226 
L 161.331892 297.83942 
L 162.511692 298.623211 
L 162.753149 297.763972 
L 166.19874 296.606598 
L 166.914037 297.137507 
L 166.976256 297.023517 
L 167.378278 297.262458 
L 170.003332 295.591663 
L 174.250174 294.837141 
L 174.956308 294.946827 
L 178.756449 294.429374 
L 185.043332 292.711439 
L 197.172928 290.273433 
L 206.230072 288.811949 
L 220.745184 285.98042 
L 227.10563 285.039157 
L 227.258428 284.817165 
L 229.042089 284.44004 
L 236.6045 283.753013 
L 238.955111 283.223919 
L 240.153672 283.254581 
L 245.13815 282.623414 
L 248.712367 281.766309 
L 251.434545 281.309247 
L 252.807371 281.536291 
L 254.177317 281.023113 
L 254.426454 281.220543 
L 256.510301 280.705511 
L 266.713734 279.706909 
L 267.247873 279.467972 
L 267.438194 279.520503 
L 273.974476 279.232747 
L 278.153951 278.262138 
L 283.683912 277.724771 
L 284.166565 277.789792 
L 292.791406 277.221772 
L 298.464392 276.445187 
L 302.518731 276.254308 
L 314.225798 275.530195 
L 315.796624 275.228605 
L 317.222245 275.311633 
L 319.096747 275.290919 
L 322.055147 274.816587 
L 323.387744 274.746462 
L 326.026935 274.482827 
L 326.247537 274.908082 
L 335.272131 274.790628 
L 337.060853 274.503251 
L 353.492616 274.368551 
L 356.962117 274.284863 
L 362.910506 274.412522 
L 363.146815 274.535087 
L 364.775235 274.571508 
L 366.764139 274.469226 
L 369.608137 274.714583 
L 372.083011 274.494483 
L 379.318184 274.588069 
L 383.139181 274.270287 
L 387.712039 274.64257 
L 388.602997 274.115936 
L 390.097119 274.632467 
L 401.547283 274.086604 
L 405.080224 274.719702 
L 408.729313 273.954379 
L 418.016045 273.691127 
L 423.090929 273.299518 
L 429.585411 273.174503 
L 431.634877 272.573576 
L 433.808081 272.740509 
L 434.853059 272.575662 
L 436.129023 272.639519 
L 440.236767 272.519075 
L 440.828848 271.994062 
L 441.65689 271.790775 
L 444.254019 271.83313 
L 446.382807 271.300499 
L 449.461281 271.441157 
L 451.342328 271.127563 
L 453.884308 271.109265 
L 459.552581 270.53733 
L 460.030348 270.182895 
L 460.244928 270.594058 
L 461.236501 270.265612 
L 467.787355 269.622644 
L 475.235887 268.291713 
L 482.271925 268.011862 
L 496.491302 265.932072 
L 504.605304 265.019603 
L 520.965947 262.398622 
L 527.505283 261.834873 
L 534.663054 259.948694 
L 535.140296 260.605166 
L 543.598726 258.500983 
L 544.402508 258.740031 
L 545.339105 258.199035 
L 554.04353 256.399401 
L 556.224152 256.410169 
L 563.320402 254.708392 
L 565.18548 253.997467 
L 572.650767 252.79371 
L 579.190684 251.195185 
L 580.092928 251.336285 
L 590.574644 248.420785 
L 593.93015 247.344963 
L 596.545547 246.745734 
L 600.00222 245.682703 
L 606.747613 243.064978 
L 615.309654 240.118588 
L 621.347109 238.216431 
L 625.590083 236.404235 
L 625.640812 236.232318 
L 627.227258 235.80913 
L 630.738442 235.191414 
L 636.919125 231.436641 
L 638.812389 231.279174 
L 641.741585 230.070623 
L 642.528118 228.664904 
L 644.820583 228.37629 
L 646.920195 227.927414 
L 647.356802 227.134471 
L 648.880652 225.881337 
L 650.512301 224.702026 
L 651.25654 225.576516 
L 657.686913 221.480423 
L 659.806713 220.88296 
L 660.241168 219.953639 
L 664.147305 217.230862 
L 668.875229 215.135564 
L 672.623769 212.258717 
L 675.205075 210.491298 
L 677.764798 209.270636 
L 684.303959 203.739826 
L 688.359374 200.894063 
L 694.638956 196.041372 
L 700.673678 192.305639 
L 706.122222 187.426124 
L 710.249543 183.272765 
L 716.145399 178.268361 
L 720.328161 174.214357 
L 722.905162 172.619137 
L 725.189947 170.304098 
L 725.801663 170.453927 
L 726.254734 169.416011 
L 726.692155 166.927115 
L 728.967516 166.305682 
L 729.668822 166.234615 
L 734.940513 159.484279 
L 739.358537 156.592816 
L 740.827352 154.626745 
L 742.327583 152.223714 
L 744.902897 150.772684 
L 750.347718 144.669993 
L 751.739858 142.490615 
L 753.851048 140.143424 
L 761.873452 130.733468 
L 765.066997 126.196419 
L 765.742822 127.078876 
L 770.901711 120.23033 
L 771.007242 120.754727 
L 783.580833 104.224631 
L 787.635085 99.118524 
L 790.126045 94.529496 
L 793.805646 90.904911 
L 794.993474 89.525151 
L 798.195629 84.181844 
L 798.91398 82.050756 
L 799.734313 80.471334 
L 807.631175 68.606642 
L 808.762514 68.454047 
L 808.762514 68.454047 
" clip-path="url(#pa939f3dde4)" style="fill: none; stroke: #424242; stroke-opacity: 0.2; stroke-width: 1.5; stroke-linecap: round"/>
   </g>
   <g id="patch_3">
    <path d="M 49.497969 447.857813 
L 49.497969 23.837813 
" style="fill: none; stroke: #cccccc; stroke-width: 1.25; stroke-linejoin: miter; stroke-linecap: square"/>
   </g>
   <g id="patch_4">
    <path d="M 844.917969 447.857813 
L 844.917969 23.837813 
" style="fill: none; stroke: #cccccc; stroke-width: 1.25; stroke-linejoin: miter; stroke-linecap: square"/>
   </g>
   <g id="patch_5">
    <path d="M 49.497969 447.857813 
L 844.917969 447.857813 
" style="fill: none; stroke: #cccccc; stroke-width: 1.25; stroke-linejoin: miter; stroke-linecap: square"/>
   </g>
   <g id="patch_6">
    <path d="M 49.497969 23.837813 
L 844.917969 23.837813 
" style="fill: none; stroke: #cccccc; stroke-width: 1.25; stroke-linejoin: miter; stroke-linecap: square"/>
   </g>
   <g id="text_15">
    <!-- Bayesian P-Spline Regression for GPD Response with 95% HDI -->
    <g style="fill: #262626" transform="translate(201.681875 17.837813) scale(0.14 -0.14)">
     <defs>
      <path id="DejaVuSans-Bold-42" d="M 2456 2859 
Q 2741 2859 2887 2984 
Q 3034 3109 3034 3353 
Q 3034 3594 2887 3720 
Q 2741 3847 2456 3847 
L 1791 3847 
L 1791 2859 
L 2456 2859 
z
M 2497 819 
Q 2859 819 3042 972 
Q 3225 1125 3225 1434 
Q 3225 1738 3044 1889 
Q 2863 2041 2497 2041 
L 1791 2041 
L 1791 819 
L 2497 819 
z
M 3616 2497 
Q 4003 2384 4215 2081 
Q 4428 1778 4428 1338 
Q 4428 663 3972 331 
Q 3516 0 2584 0 
L 588 0 
L 588 4666 
L 2394 4666 
Q 3366 4666 3802 4372 
Q 4238 4078 4238 3431 
Q 4238 3091 4078 2852 
Q 3919 2613 3616 2497 
z
" transform="scale(0.015625)"/>
      <path id="DejaVuSans-Bold-61" d="M 2106 1575 
Q 1756 1575 1579 1456 
Q 1403 1338 1403 1106 
Q 1403 894 1545 773 
Q 1688 653 1941 653 
Q 2256 653 2472 879 
Q 2688 1106 2688 1447 
L 2688 1575 
L 2106 1575 
z
M 3816 1997 
L 3816 0 
L 2688 0 
L 2688 519 
Q 2463 200 2181 54 
Q 1900 -91 1497 -91 
Q 953 -91 614 226 
Q 275 544 275 1050 
Q 275 1666 698 1953 
Q 1122 2241 2028 2241 
L 2688 2241 
L 2688 2328 
Q 2688 2594 2478 2717 
Q 2269 2841 1825 2841 
Q 1466 2841 1156 2769 
Q 847 2697 581 2553 
L 581 3406 
Q 941 3494 1303 3539 
Q 1666 3584 2028 3584 
Q 2975 3584 3395 3211 
Q 3816 2838 3816 1997 
z
" transform="scale(0.015625)"/>
      <path id="DejaVuSans-Bold-79" d="M 78 3500 
L 1197 3500 
L 2138 1125 
L 2938 3500 
L 4056 3500 
L 2584 -331 
Q 2363 -916 2067 -1148 
Q 1772 -1381 1288 -1381 
L 641 -1381 
L 641 -647 
L 991 -647 
Q 1275 -647 1404 -556 
Q 1534 -466 1606 -231 
L 1638 -134 
L 78 3500 
z
" transform="scale(0.015625)"/>
      <path id="DejaVuSans-Bold-65" d="M 4031 1759 
L 4031 1441 
L 1416 1441 
Q 1456 1047 1700 850 
Q 1944 653 2381 653 
Q 2734 653 3104 758 
Q 3475 863 3866 1075 
L 3866 213 
Q 3469 63 3072 -14 
Q 2675 -91 2278 -91 
Q 1328 -91 801 392 
Q 275 875 275 1747 
Q 275 2603 792 3093 
Q 1309 3584 2216 3584 
Q 3041 3584 3536 3087 
Q 4031 2591 4031 1759 
z
M 2881 2131 
Q 2881 2450 2695 2645 
Q 2509 2841 2209 2841 
Q 1884 2841 1681 2658 
Q 1478 2475 1428 2131 
L 2881 2131 
z
" transform="scale(0.015625)"/>
      <path id="DejaVuSans-Bold-73" d="M 3272 3391 
L 3272 2541 
Q 2913 2691 2578 2766 
Q 2244 2841 1947 2841 
Q 1628 2841 1473 2761 
Q 1319 2681 1319 2516 
Q 1319 2381 1436 2309 
Q 1553 2238 1856 2203 
L 2053 2175 
Q 2913 2066 3209 1816 
Q 3506 1566 3506 1031 
Q 3506 472 3093 190 
Q 2681 -91 1863 -91 
Q 1516 -91 1145 -36 
Q 775 19 384 128 
L 384 978 
Q 719 816 1070 734 
Q 1422 653 1784 653 
Q 2113 653 2278 743 
Q 2444 834 2444 1013 
Q 2444 1163 2330 1236 
Q 2216 1309 1875 1350 
L 1678 1375 
Q 931 1469 631 1722 
Q 331 1975 331 2491 
Q 331 3047 712 3315 
Q 1094 3584 1881 3584 
Q 2191 3584 2531 3537 
Q 2872 3491 3272 3391 
z
" transform="scale(0.015625)"/>
      <path id="DejaVuSans-Bold-69" d="M 538 3500 
L 1656 3500 
L 1656 0 
L 538 0 
L 538 3500 
z
M 538 4863 
L 1656 4863 
L 1656 3950 
L 538 3950 
L 538 4863 
z
" transform="scale(0.015625)"/>
      <path id="DejaVuSans-Bold-6e" d="M 4056 2131 
L 4056 0 
L 2931 0 
L 2931 347 
L 2931 1631 
Q 2931 2084 2911 2256 
Q 2891 2428 2841 2509 
Q 2775 2619 2662 2680 
Q 2550 2741 2406 2741 
Q 2056 2741 1856 2470 
Q 1656 2200 1656 1722 
L 1656 0 
L 538 0 
L 538 3500 
L 1656 3500 
L 1656 2988 
Q 1909 3294 2193 3439 
Q 2478 3584 2822 3584 
Q 3428 3584 3742 3212 
Q 4056 2841 4056 2131 
z
" transform="scale(0.015625)"/>
      <path id="DejaVuSans-Bold-20" transform="scale(0.015625)"/>
      <path id="DejaVuSans-Bold-50" d="M 588 4666 
L 2584 4666 
Q 3475 4666 3951 4270 
Q 4428 3875 4428 3144 
Q 4428 2409 3951 2014 
Q 3475 1619 2584 1619 
L 1791 1619 
L 1791 0 
L 588 0 
L 588 4666 
z
M 1791 3794 
L 1791 2491 
L 2456 2491 
Q 2806 2491 2997 2661 
Q 3188 2831 3188 3144 
Q 3188 3456 2997 3625 
Q 2806 3794 2456 3794 
L 1791 3794 
z
" transform="scale(0.015625)"/>
      <path id="DejaVuSans-Bold-2d" d="M 347 2297 
L 2309 2297 
L 2309 1388 
L 347 1388 
L 347 2297 
z
" transform="scale(0.015625)"/>
      <path id="DejaVuSans-Bold-53" d="M 3834 4519 
L 3834 3531 
Q 3450 3703 3084 3790 
Q 2719 3878 2394 3878 
Q 1963 3878 1756 3759 
Q 1550 3641 1550 3391 
Q 1550 3203 1689 3098 
Q 1828 2994 2194 2919 
L 2706 2816 
Q 3484 2659 3812 2340 
Q 4141 2022 4141 1434 
Q 4141 663 3683 286 
Q 3225 -91 2284 -91 
Q 1841 -91 1394 -6 
Q 947 78 500 244 
L 500 1259 
Q 947 1022 1364 901 
Q 1781 781 2169 781 
Q 2563 781 2772 912 
Q 2981 1044 2981 1288 
Q 2981 1506 2839 1625 
Q 2697 1744 2272 1838 
L 1806 1941 
Q 1106 2091 782 2419 
Q 459 2747 459 3303 
Q 459 4000 909 4375 
Q 1359 4750 2203 4750 
Q 2588 4750 2994 4692 
Q 3400 4634 3834 4519 
z
" transform="scale(0.015625)"/>
      <path id="DejaVuSans-Bold-70" d="M 1656 506 
L 1656 -1331 
L 538 -1331 
L 538 3500 
L 1656 3500 
L 1656 2988 
Q 1888 3294 2169 3439 
Q 2450 3584 2816 3584 
Q 3463 3584 3878 3070 
Q 4294 2556 4294 1747 
Q 4294 938 3878 423 
Q 3463 -91 2816 -91 
Q 2450 -91 2169 54 
Q 1888 200 1656 506 
z
M 2400 2772 
Q 2041 2772 1848 2508 
Q 1656 2244 1656 1747 
Q 1656 1250 1848 986 
Q 2041 722 2400 722 
Q 2759 722 2948 984 
Q 3138 1247 3138 1747 
Q 3138 2247 2948 2509 
Q 2759 2772 2400 2772 
z
" transform="scale(0.015625)"/>
      <path id="DejaVuSans-Bold-6c" d="M 538 4863 
L 1656 4863 
L 1656 0 
L 538 0 
L 538 4863 
z
" transform="scale(0.015625)"/>
      <path id="DejaVuSans-Bold-52" d="M 2297 2597 
Q 2675 2597 2839 2737 
Q 3003 2878 3003 3200 
Q 3003 3519 2839 3656 
Q 2675 3794 2297 3794 
L 1791 3794 
L 1791 2597 
L 2297 2597 
z
M 1791 1766 
L 1791 0 
L 588 0 
L 588 4666 
L 2425 4666 
Q 3347 4666 3776 4356 
Q 4206 4047 4206 3378 
Q 4206 2916 3982 2619 
Q 3759 2322 3309 2181 
Q 3556 2125 3751 1926 
Q 3947 1728 4147 1325 
L 4800 0 
L 3519 0 
L 2950 1159 
Q 2778 1509 2601 1637 
Q 2425 1766 2131 1766 
L 1791 1766 
z
" transform="scale(0.015625)"/>
      <path id="DejaVuSans-Bold-67" d="M 2919 594 
Q 2688 288 2409 144 
Q 2131 0 1766 0 
Q 1125 0 706 504 
Q 288 1009 288 1791 
Q 288 2575 706 3076 
Q 1125 3578 1766 3578 
Q 2131 3578 2409 3434 
Q 2688 3291 2919 2981 
L 2919 3500 
L 4044 3500 
L 4044 353 
Q 4044 -491 3511 -936 
Q 2978 -1381 1966 -1381 
Q 1638 -1381 1331 -1331 
Q 1025 -1281 716 -1178 
L 716 -306 
Q 1009 -475 1290 -558 
Q 1572 -641 1856 -641 
Q 2406 -641 2662 -400 
Q 2919 -159 2919 353 
L 2919 594 
z
M 2181 2772 
Q 1834 2772 1640 2515 
Q 1447 2259 1447 1791 
Q 1447 1309 1634 1061 
Q 1822 813 2181 813 
Q 2531 813 2725 1069 
Q 2919 1325 2919 1791 
Q 2919 2259 2725 2515 
Q 2531 2772 2181 2772 
z
" transform="scale(0.015625)"/>
      <path id="DejaVuSans-Bold-72" d="M 3138 2547 
Q 2991 2616 2845 2648 
Q 2700 2681 2553 2681 
Q 2122 2681 1889 2404 
Q 1656 2128 1656 1613 
L 1656 0 
L 538 0 
L 538 3500 
L 1656 3500 
L 1656 2925 
Q 1872 3269 2151 3426 
Q 2431 3584 2822 3584 
Q 2878 3584 2943 3579 
Q 3009 3575 3134 3559 
L 3138 2547 
z
" transform="scale(0.015625)"/>
      <path id="DejaVuSans-Bold-6f" d="M 2203 2784 
Q 1831 2784 1636 2517 
Q 1441 2250 1441 1747 
Q 1441 1244 1636 976 
Q 1831 709 2203 709 
Q 2569 709 2762 976 
Q 2956 1244 2956 1747 
Q 2956 2250 2762 2517 
Q 2569 2784 2203 2784 
z
M 2203 3584 
Q 3106 3584 3614 3096 
Q 4122 2609 4122 1747 
Q 4122 884 3614 396 
Q 3106 -91 2203 -91 
Q 1297 -91 786 396 
Q 275 884 275 1747 
Q 275 2609 786 3096 
Q 1297 3584 2203 3584 
z
" transform="scale(0.015625)"/>
      <path id="DejaVuSans-Bold-66" d="M 2841 4863 
L 2841 4128 
L 2222 4128 
Q 1984 4128 1890 4042 
Q 1797 3956 1797 3744 
L 1797 3500 
L 2753 3500 
L 2753 2700 
L 1797 2700 
L 1797 0 
L 678 0 
L 678 2700 
L 122 2700 
L 122 3500 
L 678 3500 
L 678 3744 
Q 678 4316 997 4589 
Q 1316 4863 1984 4863 
L 2841 4863 
z
" transform="scale(0.015625)"/>
      <path id="DejaVuSans-Bold-47" d="M 4781 347 
Q 4331 128 3847 18 
Q 3363 -91 2847 -91 
Q 1681 -91 1000 561 
Q 319 1213 319 2328 
Q 319 3456 1012 4103 
Q 1706 4750 2913 4750 
Q 3378 4750 3804 4662 
Q 4231 4575 4609 4403 
L 4609 3438 
Q 4219 3659 3833 3768 
Q 3447 3878 3059 3878 
Q 2341 3878 1952 3476 
Q 1563 3075 1563 2328 
Q 1563 1588 1938 1184 
Q 2313 781 3003 781 
Q 3191 781 3352 804 
Q 3513 828 3641 878 
L 3641 1784 
L 2906 1784 
L 2906 2591 
L 4781 2591 
L 4781 347 
z
" transform="scale(0.015625)"/>
      <path id="DejaVuSans-Bold-44" d="M 1791 3756 
L 1791 909 
L 2222 909 
Q 2959 909 3348 1275 
Q 3738 1641 3738 2338 
Q 3738 3031 3350 3393 
Q 2963 3756 2222 3756 
L 1791 3756 
z
M 588 4666 
L 1856 4666 
Q 2919 4666 3439 4514 
Q 3959 4363 4331 4000 
Q 4659 3684 4818 3271 
Q 4978 2859 4978 2338 
Q 4978 1809 4818 1395 
Q 4659 981 4331 666 
Q 3956 303 3431 151 
Q 2906 0 1856 0 
L 588 0 
L 588 4666 
z
" transform="scale(0.015625)"/>
      <path id="DejaVuSans-Bold-77" d="M 225 3500 
L 1313 3500 
L 1900 1088 
L 2491 3500 
L 3425 3500 
L 4013 1113 
L 4603 3500 
L 5691 3500 
L 4769 0 
L 3547 0 
L 2956 2406 
L 2369 0 
L 1147 0 
L 225 3500 
z
" transform="scale(0.015625)"/>
      <path id="DejaVuSans-Bold-74" d="M 1759 4494 
L 1759 3500 
L 2913 3500 
L 2913 2700 
L 1759 2700 
L 1759 1216 
Q 1759 972 1856 886 
Q 1953 800 2241 800 
L 2816 800 
L 2816 0 
L 1856 0 
Q 1194 0 917 276 
Q 641 553 641 1216 
L 641 2700 
L 84 2700 
L 84 3500 
L 641 3500 
L 641 4494 
L 1759 4494 
z
" transform="scale(0.015625)"/>
      <path id="DejaVuSans-Bold-68" d="M 4056 2131 
L 4056 0 
L 2931 0 
L 2931 347 
L 2931 1625 
Q 2931 2084 2911 2256 
Q 2891 2428 2841 2509 
Q 2775 2619 2662 2680 
Q 2550 2741 2406 2741 
Q 2056 2741 1856 2470 
Q 1656 2200 1656 1722 
L 1656 0 
L 538 0 
L 538 4863 
L 1656 4863 
L 1656 2988 
Q 1909 3294 2193 3439 
Q 2478 3584 2822 3584 
Q 3428 3584 3742 3212 
Q 4056 2841 4056 2131 
z
" transform="scale(0.015625)"/>
      <path id="DejaVuSans-Bold-39" d="M 641 103 
L 641 966 
Q 928 831 1190 764 
Q 1453 697 1709 697 
Q 2247 697 2547 995 
Q 2847 1294 2900 1881 
Q 2688 1725 2447 1647 
Q 2206 1569 1925 1569 
Q 1209 1569 770 1986 
Q 331 2403 331 3084 
Q 331 3838 820 4291 
Q 1309 4744 2131 4744 
Q 3044 4744 3544 4128 
Q 4044 3513 4044 2388 
Q 4044 1231 3459 570 
Q 2875 -91 1856 -91 
Q 1528 -91 1228 -42 
Q 928 6 641 103 
z
M 2125 2350 
Q 2441 2350 2600 2554 
Q 2759 2759 2759 3169 
Q 2759 3575 2600 3781 
Q 2441 3988 2125 3988 
Q 1809 3988 1650 3781 
Q 1491 3575 1491 3169 
Q 1491 2759 1650 2554 
Q 1809 2350 2125 2350 
z
" transform="scale(0.015625)"/>
      <path id="DejaVuSans-Bold-35" d="M 678 4666 
L 3669 4666 
L 3669 3781 
L 1638 3781 
L 1638 3059 
Q 1775 3097 1914 3117 
Q 2053 3138 2203 3138 
Q 3056 3138 3531 2711 
Q 4006 2284 4006 1522 
Q 4006 766 3489 337 
Q 2972 -91 2053 -91 
Q 1656 -91 1267 -14 
Q 878 63 494 219 
L 494 1166 
Q 875 947 1217 837 
Q 1559 728 1863 728 
Q 2300 728 2551 942 
Q 2803 1156 2803 1522 
Q 2803 1891 2551 2103 
Q 2300 2316 1863 2316 
Q 1603 2316 1309 2248 
Q 1016 2181 678 2041 
L 678 4666 
z
" transform="scale(0.015625)"/>
      <path id="DejaVuSans-Bold-25" d="M 4959 1925 
Q 4738 1925 4616 1733 
Q 4494 1541 4494 1184 
Q 4494 825 4614 633 
Q 4734 441 4959 441 
Q 5184 441 5303 633 
Q 5422 825 5422 1184 
Q 5422 1541 5301 1733 
Q 5181 1925 4959 1925 
z
M 4959 2450 
Q 5541 2450 5875 2112 
Q 6209 1775 6209 1184 
Q 6209 594 5875 251 
Q 5541 -91 4959 -91 
Q 4378 -91 4042 251 
Q 3706 594 3706 1184 
Q 3706 1772 4042 2111 
Q 4378 2450 4959 2450 
z
M 2094 -91 
L 1403 -91 
L 4319 4750 
L 5013 4750 
L 2094 -91 
z
M 1453 4750 
Q 2034 4750 2367 4411 
Q 2700 4072 2700 3481 
Q 2700 2891 2367 2550 
Q 2034 2209 1453 2209 
Q 872 2209 539 2550 
Q 206 2891 206 3481 
Q 206 4072 539 4411 
Q 872 4750 1453 4750 
z
M 1453 4225 
Q 1228 4225 1106 4031 
Q 984 3838 984 3481 
Q 984 3122 1106 2926 
Q 1228 2731 1453 2731 
Q 1678 2731 1798 2926 
Q 1919 3122 1919 3481 
Q 1919 3838 1797 4031 
Q 1675 4225 1453 4225 
z
" transform="scale(0.015625)"/>
      <path id="DejaVuSans-Bold-48" d="M 588 4666 
L 1791 4666 
L 1791 2888 
L 3566 2888 
L 3566 4666 
L 4769 4666 
L 4769 0 
L 3566 0 
L 3566 1978 
L 1791 1978 
L 1791 0 
L 588 0 
L 588 4666 
z
" transform="scale(0.015625)"/>
      <path id="DejaVuSans-Bold-49" d="M 588 4666 
L 1791 4666 
L 1791 0 
L 588 0 
L 588 4666 
z
" transform="scale(0.015625)"/>
     </defs>
     <use xlink:href="#DejaVuSans-Bold-42"/>
     <use xlink:href="#DejaVuSans-Bold-61" x="76.220703"/>
     <use xlink:href="#DejaVuSans-Bold-79" x="140.576172"/>
     <use xlink:href="#DejaVuSans-Bold-65" x="205.761719"/>
     <use xlink:href="#DejaVuSans-Bold-73" x="273.583984"/>
     <use xlink:href="#DejaVuSans-Bold-69" x="333.105469"/>
     <use xlink:href="#DejaVuSans-Bold-61" x="367.382812"/>
     <use xlink:href="#DejaVuSans-Bold-6e" x="434.863281"/>
     <use xlink:href="#DejaVuSans-Bold-20" x="506.054688"/>
     <use xlink:href="#DejaVuSans-Bold-50" x="540.869141"/>
     <use xlink:href="#DejaVuSans-Bold-2d" x="612.410156"/>
     <use xlink:href="#DejaVuSans-Bold-53" x="653.914062"/>
     <use xlink:href="#DejaVuSans-Bold-70" x="725.935547"/>
     <use xlink:href="#DejaVuSans-Bold-6c" x="797.517578"/>
     <use xlink:href="#DejaVuSans-Bold-69" x="831.794922"/>
     <use xlink:href="#DejaVuSans-Bold-6e" x="866.072266"/>
     <use xlink:href="#DejaVuSans-Bold-65" x="937.263672"/>
     <use xlink:href="#DejaVuSans-Bold-20" x="1005.085938"/>
     <use xlink:href="#DejaVuSans-Bold-52" x="1039.900391"/>
     <use xlink:href="#DejaVuSans-Bold-65" x="1116.902344"/>
     <use xlink:href="#DejaVuSans-Bold-67" x="1184.724609"/>
     <use xlink:href="#DejaVuSans-Bold-72" x="1256.306641"/>
     <use xlink:href="#DejaVuSans-Bold-65" x="1305.623047"/>
     <use xlink:href="#DejaVuSans-Bold-73" x="1373.445312"/>
     <use xlink:href="#DejaVuSans-Bold-73" x="1432.966797"/>
     <use xlink:href="#DejaVuSans-Bold-69" x="1492.488281"/>
     <use xlink:href="#DejaVuSans-Bold-6f" x="1526.765625"/>
     <use xlink:href="#DejaVuSans-Bold-6e" x="1595.466797"/>
     <use xlink:href="#DejaVuSans-Bold-20" x="1666.658203"/>
     <use xlink:href="#DejaVuSans-Bold-66" x="1701.472656"/>
     <use xlink:href="#DejaVuSans-Bold-6f" x="1744.978516"/>
     <use xlink:href="#DejaVuSans-Bold-72" x="1813.679688"/>
     <use xlink:href="#DejaVuSans-Bold-20" x="1862.996094"/>
     <use xlink:href="#DejaVuSans-Bold-47" x="1897.810547"/>
     <use xlink:href="#DejaVuSans-Bold-50" x="1979.890625"/>
     <use xlink:href="#DejaVuSans-Bold-44" x="2053.181641"/>
     <use xlink:href="#DejaVuSans-Bold-20" x="2136.189453"/>
     <use xlink:href="#DejaVuSans-Bold-52" x="2171.003906"/>
     <use xlink:href="#DejaVuSans-Bold-65" x="2248.005859"/>
     <use xlink:href="#DejaVuSans-Bold-73" x="2315.828125"/>
     <use xlink:href="#DejaVuSans-Bold-70" x="2375.349609"/>
     <use xlink:href="#DejaVuSans-Bold-6f" x="2446.931641"/>
     <use xlink:href="#DejaVuSans-Bold-6e" x="2515.632812"/>
     <use xlink:href="#DejaVuSans-Bold-73" x="2586.824219"/>
     <use xlink:href="#DejaVuSans-Bold-65" x="2646.345703"/>
     <use xlink:href="#DejaVuSans-Bold-20" x="2714.167969"/>
     <use xlink:href="#DejaVuSans-Bold-77" x="2748.982422"/>
     <use xlink:href="#DejaVuSans-Bold-69" x="2841.365234"/>
     <use xlink:href="#DejaVuSans-Bold-74" x="2875.642578"/>
     <use xlink:href="#DejaVuSans-Bold-68" x="2923.445312"/>
     <use xlink:href="#DejaVuSans-Bold-20" x="2994.636719"/>
     <use xlink:href="#DejaVuSans-Bold-39" x="3029.451172"/>
     <use xlink:href="#DejaVuSans-Bold-35" x="3099.03125"/>
     <use xlink:href="#DejaVuSans-Bold-25" x="3168.611328"/>
     <use xlink:href="#DejaVuSans-Bold-20" x="3268.806641"/>
     <use xlink:href="#DejaVuSans-Bold-48" x="3303.621094"/>
     <use xlink:href="#DejaVuSans-Bold-44" x="3387.3125"/>
     <use xlink:href="#DejaVuSans-Bold-49" x="3470.320312"/>
    </g>
   </g>
   <g id="legend_1">
    <g id="patch_7">
     <path d="M 56.497969 75.872188 
L 167.208906 75.872188 
Q 169.208906 75.872188 169.208906 73.872188 
L 169.208906 30.837813 
Q 169.208906 28.837813 167.208906 28.837813 
L 56.497969 28.837813 
Q 54.497969 28.837813 54.497969 30.837813 
L 54.497969 73.872188 
Q 54.497969 75.872188 56.497969 75.872188 
z
" style="fill: #ffffff; opacity: 0.8; stroke: #cccccc; stroke-linejoin: miter"/>
    </g>
    <g id="PathCollection_2">
     <g>
      <use xlink:href="#ma79f535834" x="68.497969" y="37.81125" style="fill: #4caf50; fill-opacity: 0.7; stroke: #ffffff; stroke-opacity: 0.7; stroke-width: 0.48"/>
     </g>
    </g>
    <g id="text_16">
     <!-- Data Points -->
     <g style="fill: #262626" transform="translate(86.497969 40.43625) scale(0.1 -0.1)">
      <defs>
       <path id="DejaVuSans-44" d="M 1259 4147 
L 1259 519 
L 2022 519 
Q 2988 519 3436 956 
Q 3884 1394 3884 2338 
Q 3884 3275 3436 3711 
Q 2988 4147 2022 4147 
L 1259 4147 
z
M 628 4666 
L 1925 4666 
Q 3281 4666 3915 4102 
Q 4550 3538 4550 2338 
Q 4550 1131 3912 565 
Q 3275 0 1925 0 
L 628 0 
L 628 4666 
z
" transform="scale(0.015625)"/>
       <path id="DejaVuSans-61" d="M 2194 1759 
Q 1497 1759 1228 1600 
Q 959 1441 959 1056 
Q 959 750 1161 570 
Q 1363 391 1709 391 
Q 2188 391 2477 730 
Q 2766 1069 2766 1631 
L 2766 1759 
L 2194 1759 
z
M 3341 1997 
L 3341 0 
L 2766 0 
L 2766 531 
Q 2569 213 2275 61 
Q 1981 -91 1556 -91 
Q 1019 -91 701 211 
Q 384 513 384 1019 
Q 384 1609 779 1909 
Q 1175 2209 1959 2209 
L 2766 2209 
L 2766 2266 
Q 2766 2663 2505 2880 
Q 2244 3097 1772 3097 
Q 1472 3097 1187 3025 
Q 903 2953 641 2809 
L 641 3341 
Q 956 3463 1253 3523 
Q 1550 3584 1831 3584 
Q 2591 3584 2966 3190 
Q 3341 2797 3341 1997 
z
" transform="scale(0.015625)"/>
       <path id="DejaVuSans-74" d="M 1172 4494 
L 1172 3500 
L 2356 3500 
L 2356 3053 
L 1172 3053 
L 1172 1153 
Q 1172 725 1289 603 
Q 1406 481 1766 481 
L 2356 481 
L 2356 0 
L 1766 0 
Q 1100 0 847 248 
Q 594 497 594 1153 
L 594 3053 
L 172 3053 
L 172 3500 
L 594 3500 
L 594 4494 
L 1172 4494 
z
" transform="scale(0.015625)"/>
       <path id="DejaVuSans-20" transform="scale(0.015625)"/>
       <path id="DejaVuSans-50" d="M 1259 4147 
L 1259 2394 
L 2053 2394 
Q 2494 2394 2734 2622 
Q 2975 2850 2975 3272 
Q 2975 3691 2734 3919 
Q 2494 4147 2053 4147 
L 1259 4147 
z
M 628 4666 
L 2053 4666 
Q 2838 4666 3239 4311 
Q 3641 3956 3641 3272 
Q 3641 2581 3239 2228 
Q 2838 1875 2053 1875 
L 1259 1875 
L 1259 0 
L 628 0 
L 628 4666 
z
" transform="scale(0.015625)"/>
       <path id="DejaVuSans-69" d="M 603 3500 
L 1178 3500 
L 1178 0 
L 603 0 
L 603 3500 
z
M 603 4863 
L 1178 4863 
L 1178 4134 
L 603 4134 
L 603 4863 
z
" transform="scale(0.015625)"/>
      </defs>
      <use xlink:href="#DejaVuSans-44"/>
      <use xlink:href="#DejaVuSans-61" x="77.001953"/>
      <use xlink:href="#DejaVuSans-74" x="138.28125"/>
      <use xlink:href="#DejaVuSans-61" x="177.490234"/>
      <use xlink:href="#DejaVuSans-20" x="238.769531"/>
      <use xlink:href="#DejaVuSans-50" x="270.556641"/>
      <use xlink:href="#DejaVuSans-6f" x="327.234375"/>
      <use xlink:href="#DejaVuSans-69" x="388.416016"/>
      <use xlink:href="#DejaVuSans-6e" x="416.199219"/>
      <use xlink:href="#DejaVuSans-74" x="479.578125"/>
      <use xlink:href="#DejaVuSans-73" x="518.787109"/>
     </g>
    </g>
    <g id="line2d_16">
     <path d="M 58.497969 51.614375 
L 68.497969 51.614375 
L 78.497969 51.614375 
" style="fill: none; stroke: #2196f3; stroke-width: 2.2; stroke-linecap: round"/>
    </g>
    <g id="text_17">
     <!-- Regression Line -->
     <g style="fill: #262626" transform="translate(86.497969 55.114375) scale(0.1 -0.1)">
      <defs>
       <path id="DejaVuSans-67" d="M 2906 1791 
Q 2906 2416 2648 2759 
Q 2391 3103 1925 3103 
Q 1463 3103 1205 2759 
Q 947 2416 947 1791 
Q 947 1169 1205 825 
Q 1463 481 1925 481 
Q 2391 481 2648 825 
Q 2906 1169 2906 1791 
z
M 3481 434 
Q 3481 -459 3084 -895 
Q 2688 -1331 1869 -1331 
Q 1566 -1331 1297 -1286 
Q 1028 -1241 775 -1147 
L 775 -588 
Q 1028 -725 1275 -790 
Q 1522 -856 1778 -856 
Q 2344 -856 2625 -561 
Q 2906 -266 2906 331 
L 2906 616 
Q 2728 306 2450 153 
Q 2172 0 1784 0 
Q 1141 0 747 490 
Q 353 981 353 1791 
Q 353 2603 747 3093 
Q 1141 3584 1784 3584 
Q 2172 3584 2450 3431 
Q 2728 3278 2906 2969 
L 2906 3500 
L 3481 3500 
L 3481 434 
z
" transform="scale(0.015625)"/>
       <path id="DejaVuSans-72" d="M 2631 2963 
Q 2534 3019 2420 3045 
Q 2306 3072 2169 3072 
Q 1681 3072 1420 2755 
Q 1159 2438 1159 1844 
L 1159 0 
L 581 0 
L 581 3500 
L 1159 3500 
L 1159 2956 
Q 1341 3275 1631 3429 
Q 1922 3584 2338 3584 
Q 2397 3584 2469 3576 
Q 2541 3569 2628 3553 
L 2631 2963 
z
" transform="scale(0.015625)"/>
       <path id="DejaVuSans-4c" d="M 628 4666 
L 1259 4666 
L 1259 531 
L 3531 531 
L 3531 0 
L 628 0 
L 628 4666 
z
" transform="scale(0.015625)"/>
      </defs>
      <use xlink:href="#DejaVuSans-52"/>
      <use xlink:href="#DejaVuSans-65" x="64.982422"/>
      <use xlink:href="#DejaVuSans-67" x="126.505859"/>
      <use xlink:href="#DejaVuSans-72" x="189.982422"/>
      <use xlink:href="#DejaVuSans-65" x="228.845703"/>
      <use xlink:href="#DejaVuSans-73" x="290.369141"/>
      <use xlink:href="#DejaVuSans-73" x="342.46875"/>
      <use xlink:href="#DejaVuSans-69" x="394.568359"/>
      <use xlink:href="#DejaVuSans-6f" x="422.351562"/>
      <use xlink:href="#DejaVuSans-6e" x="483.533203"/>
      <use xlink:href="#DejaVuSans-20" x="546.912109"/>
      <use xlink:href="#DejaVuSans-4c" x="578.699219"/>
      <use xlink:href="#DejaVuSans-69" x="634.412109"/>
      <use xlink:href="#DejaVuSans-6e" x="662.195312"/>
      <use xlink:href="#DejaVuSans-65" x="725.574219"/>
     </g>
    </g>
    <g id="patch_8">
     <path d="M 58.497969 69.7925 
L 78.497969 69.7925 
L 78.497969 62.7925 
L 58.497969 62.7925 
z
" style="fill: #424242; fill-opacity: 0.2; stroke: #424242; stroke-opacity: 0.2; stroke-linejoin: miter"/>
    </g>
    <g id="text_18">
     <!-- 95% HDI -->
     <g style="fill: #262626" transform="translate(86.497969 69.7925) scale(0.1 -0.1)">
      <defs>
       <path id="DejaVuSans-39" d="M 703 97 
L 703 672 
Q 941 559 1184 500 
Q 1428 441 1663 441 
Q 2288 441 2617 861 
Q 2947 1281 2994 2138 
Q 2813 1869 2534 1725 
Q 2256 1581 1919 1581 
Q 1219 1581 811 2004 
Q 403 2428 403 3163 
Q 403 3881 828 4315 
Q 1253 4750 1959 4750 
Q 2769 4750 3195 4129 
Q 3622 3509 3622 2328 
Q 3622 1225 3098 567 
Q 2575 -91 1691 -91 
Q 1453 -91 1209 -44 
Q 966 3 703 97 
z
M 1959 2075 
Q 2384 2075 2632 2365 
Q 2881 2656 2881 3163 
Q 2881 3666 2632 3958 
Q 2384 4250 1959 4250 
Q 1534 4250 1286 3958 
Q 1038 3666 1038 3163 
Q 1038 2656 1286 2365 
Q 1534 2075 1959 2075 
z
" transform="scale(0.015625)"/>
       <path id="DejaVuSans-35" d="M 691 4666 
L 3169 4666 
L 3169 4134 
L 1269 4134 
L 1269 2991 
Q 1406 3038 1543 3061 
Q 1681 3084 1819 3084 
Q 2600 3084 3056 2656 
Q 3513 2228 3513 1497 
Q 3513 744 3044 326 
Q 2575 -91 1722 -91 
Q 1428 -91 1123 -41 
Q 819 9 494 109 
L 494 744 
Q 775 591 1075 516 
Q 1375 441 1709 441 
Q 2250 441 2565 725 
Q 2881 1009 2881 1497 
Q 2881 1984 2565 2268 
Q 2250 2553 1709 2553 
Q 1456 2553 1204 2497 
Q 953 2441 691 2322 
L 691 4666 
z
" transform="scale(0.015625)"/>
       <path id="DejaVuSans-25" d="M 4653 2053 
Q 4381 2053 4226 1822 
Q 4072 1591 4072 1178 
Q 4072 772 4226 539 
Q 4381 306 4653 306 
Q 4919 306 5073 539 
Q 5228 772 5228 1178 
Q 5228 1588 5073 1820 
Q 4919 2053 4653 2053 
z
M 4653 2450 
Q 5147 2450 5437 2106 
Q 5728 1763 5728 1178 
Q 5728 594 5436 251 
Q 5144 -91 4653 -91 
Q 4153 -91 3862 251 
Q 3572 594 3572 1178 
Q 3572 1766 3864 2108 
Q 4156 2450 4653 2450 
z
M 1428 4353 
Q 1159 4353 1004 4120 
Q 850 3888 850 3481 
Q 850 3069 1003 2837 
Q 1156 2606 1428 2606 
Q 1700 2606 1854 2837 
Q 2009 3069 2009 3481 
Q 2009 3884 1853 4118 
Q 1697 4353 1428 4353 
z
M 4250 4750 
L 4750 4750 
L 1831 -91 
L 1331 -91 
L 4250 4750 
z
M 1428 4750 
Q 1922 4750 2215 4408 
Q 2509 4066 2509 3481 
Q 2509 2891 2217 2550 
Q 1925 2209 1428 2209 
Q 931 2209 642 2551 
Q 353 2894 353 3481 
Q 353 4063 643 4406 
Q 934 4750 1428 4750 
z
" transform="scale(0.015625)"/>
       <path id="DejaVuSans-48" d="M 628 4666 
L 1259 4666 
L 1259 2753 
L 3553 2753 
L 3553 4666 
L 4184 4666 
L 4184 0 
L 3553 0 
L 3553 2222 
L 1259 2222 
L 1259 0 
L 628 0 
L 628 4666 
z
" transform="scale(0.015625)"/>
       <path id="DejaVuSans-49" d="M 628 4666 
L 1259 4666 
L 1259 0 
L 628 0 
L 628 4666 
z
" transform="scale(0.015625)"/>
      </defs>
      <use xlink:href="#DejaVuSans-39"/>
      <use xlink:href="#DejaVuSans-35" x="63.623047"/>
      <use xlink:href="#DejaVuSans-25" x="127.246094"/>
      <use xlink:href="#DejaVuSans-20" x="222.265625"/>
      <use xlink:href="#DejaVuSans-48" x="254.052734"/>
      <use xlink:href="#DejaVuSans-44" x="329.248047"/>
      <use xlink:href="#DejaVuSans-49" x="406.25"/>
     </g>
    </g>
   </g>
  </g>
 </g>
 <defs>
  <clipPath id="pa939f3dde4">
   <rect x="49.497969" y="23.837813" width="795.42" height="424.02"/>
  </clipPath>
 </defs>
</svg>
