<?xml version="1.0" encoding="utf-8" standalone="no"?>
<!DOCTYPE svg PUBLIC "-//W3C//DTD SVG 1.1//EN"
  "http://www.w3.org/Graphics/SVG/1.1/DTD/svg11.dtd">
<svg xmlns:xlink="http://www.w3.org/1999/xlink" width="706.872426pt" height="421.017344pt" viewBox="0 0 706.872426 421.017344" xmlns="http://www.w3.org/2000/svg" version="1.1">
 <metadata>
  <rdf:RDF xmlns:dc="http://purl.org/dc/elements/1.1/" xmlns:cc="http://creativecommons.org/ns#" xmlns:rdf="http://www.w3.org/1999/02/22-rdf-syntax-ns#">
   <cc:Work>
    <dc:type rdf:resource="http://purl.org/dc/dcmitype/StillImage"/>
    <dc:date>2025-02-12T20:33:19.403450</dc:date>
    <dc:format>image/svg+xml</dc:format>
    <dc:creator>
     <cc:Agent>
      <dc:title>Matplotlib v3.8.4, https://matplotlib.org/</dc:title>
     </cc:Agent>
    </dc:creator>
   </cc:Work>
  </rdf:RDF>
 </metadata>
 <defs>
  <style type="text/css">*{stroke-linejoin: round; stroke-linecap: butt}</style>
 </defs>
 <g id="figure_1">
  <g id="patch_1">
   <path d="M 0 421.017344 
L 706.872426 421.017344 
L 706.872426 0 
L 0 0 
z
" style="fill: #ffffff"/>
  </g>
  <g id="axes_1">
   <g id="patch_2">
    <path d="M 68.275312 216.037656 
L 697.995654 216.037656 
L 697.995654 24.597656 
L 68.275312 24.597656 
z
" style="fill: #ffffff"/>
   </g>
   <g id="matplotlib.axis_1">
    <g id="xtick_1">
     <g id="line2d_1">
      <path d="M 96.898964 216.037656 
L 96.898964 24.597656 
" clip-path="url(#p2f7e1d21a3)" style="fill: none; stroke: #cccccc; stroke-linecap: round"/>
     </g>
     <g id="text_1">
      <!-- 0 -->
      <g style="fill: #262626" transform="translate(93.399589 233.895937) scale(0.11 -0.11)">
       <defs>
        <path id="DejaVuSans-30" d="M 2034 4250 
Q 1547 4250 1301 3770 
Q 1056 3291 1056 2328 
Q 1056 1369 1301 889 
Q 1547 409 2034 409 
Q 2525 409 2770 889 
Q 3016 1369 3016 2328 
Q 3016 3291 2770 3770 
Q 2525 4250 2034 4250 
z
M 2034 4750 
Q 2819 4750 3233 4129 
Q 3647 3509 3647 2328 
Q 3647 1150 3233 529 
Q 2819 -91 2034 -91 
Q 1250 -91 836 529 
Q 422 1150 422 2328 
Q 422 3509 836 4129 
Q 1250 4750 2034 4750 
z
" transform="scale(0.015625)"/>
       </defs>
       <use xlink:href="#DejaVuSans-30"/>
      </g>
     </g>
    </g>
    <g id="xtick_2">
     <g id="line2d_2">
      <path d="M 211.508181 216.037656 
L 211.508181 24.597656 
" clip-path="url(#p2f7e1d21a3)" style="fill: none; stroke: #cccccc; stroke-linecap: round"/>
     </g>
     <g id="text_2">
      <!-- 200 -->
      <g style="fill: #262626" transform="translate(201.010056 233.895937) scale(0.11 -0.11)">
       <defs>
        <path id="DejaVuSans-32" d="M 1228 531 
L 3431 531 
L 3431 0 
L 469 0 
L 469 531 
Q 828 903 1448 1529 
Q 2069 2156 2228 2338 
Q 2531 2678 2651 2914 
Q 2772 3150 2772 3378 
Q 2772 3750 2511 3984 
Q 2250 4219 1831 4219 
Q 1534 4219 1204 4116 
Q 875 4013 500 3803 
L 500 4441 
Q 881 4594 1212 4672 
Q 1544 4750 1819 4750 
Q 2544 4750 2975 4387 
Q 3406 4025 3406 3419 
Q 3406 3131 3298 2873 
Q 3191 2616 2906 2266 
Q 2828 2175 2409 1742 
Q 1991 1309 1228 531 
z
" transform="scale(0.015625)"/>
       </defs>
       <use xlink:href="#DejaVuSans-32"/>
       <use xlink:href="#DejaVuSans-30" x="63.623047"/>
       <use xlink:href="#DejaVuSans-30" x="127.246094"/>
      </g>
     </g>
    </g>
    <g id="xtick_3">
     <g id="line2d_3">
      <path d="M 326.117398 216.037656 
L 326.117398 24.597656 
" clip-path="url(#p2f7e1d21a3)" style="fill: none; stroke: #cccccc; stroke-linecap: round"/>
     </g>
     <g id="text_3">
      <!-- 400 -->
      <g style="fill: #262626" transform="translate(315.619273 233.895937) scale(0.11 -0.11)">
       <defs>
        <path id="DejaVuSans-34" d="M 2419 4116 
L 825 1625 
L 2419 1625 
L 2419 4116 
z
M 2253 4666 
L 3047 4666 
L 3047 1625 
L 3713 1625 
L 3713 1100 
L 3047 1100 
L 3047 0 
L 2419 0 
L 2419 1100 
L 313 1100 
L 313 1709 
L 2253 4666 
z
" transform="scale(0.015625)"/>
       </defs>
       <use xlink:href="#DejaVuSans-34"/>
       <use xlink:href="#DejaVuSans-30" x="63.623047"/>
       <use xlink:href="#DejaVuSans-30" x="127.246094"/>
      </g>
     </g>
    </g>
    <g id="xtick_4">
     <g id="line2d_4">
      <path d="M 440.726615 216.037656 
L 440.726615 24.597656 
" clip-path="url(#p2f7e1d21a3)" style="fill: none; stroke: #cccccc; stroke-linecap: round"/>
     </g>
     <g id="text_4">
      <!-- 600 -->
      <g style="fill: #262626" transform="translate(430.22849 233.895937) scale(0.11 -0.11)">
       <defs>
        <path id="DejaVuSans-36" d="M 2113 2584 
Q 1688 2584 1439 2293 
Q 1191 2003 1191 1497 
Q 1191 994 1439 701 
Q 1688 409 2113 409 
Q 2538 409 2786 701 
Q 3034 994 3034 1497 
Q 3034 2003 2786 2293 
Q 2538 2584 2113 2584 
z
M 3366 4563 
L 3366 3988 
Q 3128 4100 2886 4159 
Q 2644 4219 2406 4219 
Q 1781 4219 1451 3797 
Q 1122 3375 1075 2522 
Q 1259 2794 1537 2939 
Q 1816 3084 2150 3084 
Q 2853 3084 3261 2657 
Q 3669 2231 3669 1497 
Q 3669 778 3244 343 
Q 2819 -91 2113 -91 
Q 1303 -91 875 529 
Q 447 1150 447 2328 
Q 447 3434 972 4092 
Q 1497 4750 2381 4750 
Q 2619 4750 2861 4703 
Q 3103 4656 3366 4563 
z
" transform="scale(0.015625)"/>
       </defs>
       <use xlink:href="#DejaVuSans-36"/>
       <use xlink:href="#DejaVuSans-30" x="63.623047"/>
       <use xlink:href="#DejaVuSans-30" x="127.246094"/>
      </g>
     </g>
    </g>
    <g id="xtick_5">
     <g id="line2d_5">
      <path d="M 555.335832 216.037656 
L 555.335832 24.597656 
" clip-path="url(#p2f7e1d21a3)" style="fill: none; stroke: #cccccc; stroke-linecap: round"/>
     </g>
     <g id="text_5">
      <!-- 800 -->
      <g style="fill: #262626" transform="translate(544.837707 233.895937) scale(0.11 -0.11)">
       <defs>
        <path id="DejaVuSans-38" d="M 2034 2216 
Q 1584 2216 1326 1975 
Q 1069 1734 1069 1313 
Q 1069 891 1326 650 
Q 1584 409 2034 409 
Q 2484 409 2743 651 
Q 3003 894 3003 1313 
Q 3003 1734 2745 1975 
Q 2488 2216 2034 2216 
z
M 1403 2484 
Q 997 2584 770 2862 
Q 544 3141 544 3541 
Q 544 4100 942 4425 
Q 1341 4750 2034 4750 
Q 2731 4750 3128 4425 
Q 3525 4100 3525 3541 
Q 3525 3141 3298 2862 
Q 3072 2584 2669 2484 
Q 3125 2378 3379 2068 
Q 3634 1759 3634 1313 
Q 3634 634 3220 271 
Q 2806 -91 2034 -91 
Q 1263 -91 848 271 
Q 434 634 434 1313 
Q 434 1759 690 2068 
Q 947 2378 1403 2484 
z
M 1172 3481 
Q 1172 3119 1398 2916 
Q 1625 2713 2034 2713 
Q 2441 2713 2670 2916 
Q 2900 3119 2900 3481 
Q 2900 3844 2670 4047 
Q 2441 4250 2034 4250 
Q 1625 4250 1398 4047 
Q 1172 3844 1172 3481 
z
" transform="scale(0.015625)"/>
       </defs>
       <use xlink:href="#DejaVuSans-38"/>
       <use xlink:href="#DejaVuSans-30" x="63.623047"/>
       <use xlink:href="#DejaVuSans-30" x="127.246094"/>
      </g>
     </g>
    </g>
    <g id="xtick_6">
     <g id="line2d_6">
      <path d="M 669.945048 216.037656 
L 669.945048 24.597656 
" clip-path="url(#p2f7e1d21a3)" style="fill: none; stroke: #cccccc; stroke-linecap: round"/>
     </g>
     <g id="text_6">
      <!-- 1000 -->
      <g style="fill: #262626" transform="translate(655.947548 233.895937) scale(0.11 -0.11)">
       <defs>
        <path id="DejaVuSans-31" d="M 794 531 
L 1825 531 
L 1825 4091 
L 703 3866 
L 703 4441 
L 1819 4666 
L 2450 4666 
L 2450 531 
L 3481 531 
L 3481 0 
L 794 0 
L 794 531 
z
" transform="scale(0.015625)"/>
       </defs>
       <use xlink:href="#DejaVuSans-31"/>
       <use xlink:href="#DejaVuSans-30" x="63.623047"/>
       <use xlink:href="#DejaVuSans-30" x="127.246094"/>
       <use xlink:href="#DejaVuSans-30" x="190.869141"/>
      </g>
     </g>
    </g>
    <g id="text_7">
     <!-- Iteration -->
     <g style="fill: #262626" transform="translate(355.564311 250.061562) scale(0.13 -0.13)">
      <defs>
       <path id="DejaVuSans-49" d="M 628 4666 
L 1259 4666 
L 1259 0 
L 628 0 
L 628 4666 
z
" transform="scale(0.015625)"/>
       <path id="DejaVuSans-74" d="M 1172 4494 
L 1172 3500 
L 2356 3500 
L 2356 3053 
L 1172 3053 
L 1172 1153 
Q 1172 725 1289 603 
Q 1406 481 1766 481 
L 2356 481 
L 2356 0 
L 1766 0 
Q 1100 0 847 248 
Q 594 497 594 1153 
L 594 3053 
L 172 3053 
L 172 3500 
L 594 3500 
L 594 4494 
L 1172 4494 
z
" transform="scale(0.015625)"/>
       <path id="DejaVuSans-65" d="M 3597 1894 
L 3597 1613 
L 953 1613 
Q 991 1019 1311 708 
Q 1631 397 2203 397 
Q 2534 397 2845 478 
Q 3156 559 3463 722 
L 3463 178 
Q 3153 47 2828 -22 
Q 2503 -91 2169 -91 
Q 1331 -91 842 396 
Q 353 884 353 1716 
Q 353 2575 817 3079 
Q 1281 3584 2069 3584 
Q 2775 3584 3186 3129 
Q 3597 2675 3597 1894 
z
M 3022 2063 
Q 3016 2534 2758 2815 
Q 2500 3097 2075 3097 
Q 1594 3097 1305 2825 
Q 1016 2553 972 2059 
L 3022 2063 
z
" transform="scale(0.015625)"/>
       <path id="DejaVuSans-72" d="M 2631 2963 
Q 2534 3019 2420 3045 
Q 2306 3072 2169 3072 
Q 1681 3072 1420 2755 
Q 1159 2438 1159 1844 
L 1159 0 
L 581 0 
L 581 3500 
L 1159 3500 
L 1159 2956 
Q 1341 3275 1631 3429 
Q 1922 3584 2338 3584 
Q 2397 3584 2469 3576 
Q 2541 3569 2628 3553 
L 2631 2963 
z
" transform="scale(0.015625)"/>
       <path id="DejaVuSans-61" d="M 2194 1759 
Q 1497 1759 1228 1600 
Q 959 1441 959 1056 
Q 959 750 1161 570 
Q 1363 391 1709 391 
Q 2188 391 2477 730 
Q 2766 1069 2766 1631 
L 2766 1759 
L 2194 1759 
z
M 3341 1997 
L 3341 0 
L 2766 0 
L 2766 531 
Q 2569 213 2275 61 
Q 1981 -91 1556 -91 
Q 1019 -91 701 211 
Q 384 513 384 1019 
Q 384 1609 779 1909 
Q 1175 2209 1959 2209 
L 2766 2209 
L 2766 2266 
Q 2766 2663 2505 2880 
Q 2244 3097 1772 3097 
Q 1472 3097 1187 3025 
Q 903 2953 641 2809 
L 641 3341 
Q 956 3463 1253 3523 
Q 1550 3584 1831 3584 
Q 2591 3584 2966 3190 
Q 3341 2797 3341 1997 
z
" transform="scale(0.015625)"/>
       <path id="DejaVuSans-69" d="M 603 3500 
L 1178 3500 
L 1178 0 
L 603 0 
L 603 3500 
z
M 603 4863 
L 1178 4863 
L 1178 4134 
L 603 4134 
L 603 4863 
z
" transform="scale(0.015625)"/>
       <path id="DejaVuSans-6f" d="M 1959 3097 
Q 1497 3097 1228 2736 
Q 959 2375 959 1747 
Q 959 1119 1226 758 
Q 1494 397 1959 397 
Q 2419 397 2687 759 
Q 2956 1122 2956 1747 
Q 2956 2369 2687 2733 
Q 2419 3097 1959 3097 
z
M 1959 3584 
Q 2709 3584 3137 3096 
Q 3566 2609 3566 1747 
Q 3566 888 3137 398 
Q 2709 -91 1959 -91 
Q 1206 -91 779 398 
Q 353 888 353 1747 
Q 353 2609 779 3096 
Q 1206 3584 1959 3584 
z
" transform="scale(0.015625)"/>
       <path id="DejaVuSans-6e" d="M 3513 2113 
L 3513 0 
L 2938 0 
L 2938 2094 
Q 2938 2591 2744 2837 
Q 2550 3084 2163 3084 
Q 1697 3084 1428 2787 
Q 1159 2491 1159 1978 
L 1159 0 
L 581 0 
L 581 3500 
L 1159 3500 
L 1159 2956 
Q 1366 3272 1645 3428 
Q 1925 3584 2291 3584 
Q 2894 3584 3203 3211 
Q 3513 2838 3513 2113 
z
" transform="scale(0.015625)"/>
      </defs>
      <use xlink:href="#DejaVuSans-49"/>
      <use xlink:href="#DejaVuSans-74" x="29.492188"/>
      <use xlink:href="#DejaVuSans-65" x="68.701172"/>
      <use xlink:href="#DejaVuSans-72" x="130.224609"/>
      <use xlink:href="#DejaVuSans-61" x="171.337891"/>
      <use xlink:href="#DejaVuSans-74" x="232.617188"/>
      <use xlink:href="#DejaVuSans-69" x="271.826172"/>
      <use xlink:href="#DejaVuSans-6f" x="299.609375"/>
      <use xlink:href="#DejaVuSans-6e" x="360.791016"/>
     </g>
    </g>
   </g>
   <g id="matplotlib.axis_2">
    <g id="ytick_1">
     <g id="line2d_7">
      <path d="M 68.275312 207.66099 
L 697.995654 207.66099 
" clip-path="url(#p2f7e1d21a3)" style="fill: none; stroke: #cccccc; stroke-linecap: round"/>
     </g>
     <g id="text_8">
      <!-- 0 -->
      <g style="fill: #262626" transform="translate(51.776562 211.84013) scale(0.11 -0.11)">
       <use xlink:href="#DejaVuSans-30"/>
      </g>
     </g>
    </g>
    <g id="ytick_2">
     <g id="line2d_8">
      <path d="M 68.275312 177.164108 
L 697.995654 177.164108 
" clip-path="url(#p2f7e1d21a3)" style="fill: none; stroke: #cccccc; stroke-linecap: round"/>
     </g>
     <g id="text_9">
      <!-- 10000 -->
      <g style="fill: #262626" transform="translate(23.781562 181.343248) scale(0.11 -0.11)">
       <use xlink:href="#DejaVuSans-31"/>
       <use xlink:href="#DejaVuSans-30" x="63.623047"/>
       <use xlink:href="#DejaVuSans-30" x="127.246094"/>
       <use xlink:href="#DejaVuSans-30" x="190.869141"/>
       <use xlink:href="#DejaVuSans-30" x="254.492188"/>
      </g>
     </g>
    </g>
    <g id="ytick_3">
     <g id="line2d_9">
      <path d="M 68.275312 146.667226 
L 697.995654 146.667226 
" clip-path="url(#p2f7e1d21a3)" style="fill: none; stroke: #cccccc; stroke-linecap: round"/>
     </g>
     <g id="text_10">
      <!-- 20000 -->
      <g style="fill: #262626" transform="translate(23.781562 150.846366) scale(0.11 -0.11)">
       <use xlink:href="#DejaVuSans-32"/>
       <use xlink:href="#DejaVuSans-30" x="63.623047"/>
       <use xlink:href="#DejaVuSans-30" x="127.246094"/>
       <use xlink:href="#DejaVuSans-30" x="190.869141"/>
       <use xlink:href="#DejaVuSans-30" x="254.492188"/>
      </g>
     </g>
    </g>
    <g id="ytick_4">
     <g id="line2d_10">
      <path d="M 68.275312 116.170344 
L 697.995654 116.170344 
" clip-path="url(#p2f7e1d21a3)" style="fill: none; stroke: #cccccc; stroke-linecap: round"/>
     </g>
     <g id="text_11">
      <!-- 30000 -->
      <g style="fill: #262626" transform="translate(23.781562 120.349484) scale(0.11 -0.11)">
       <defs>
        <path id="DejaVuSans-33" d="M 2597 2516 
Q 3050 2419 3304 2112 
Q 3559 1806 3559 1356 
Q 3559 666 3084 287 
Q 2609 -91 1734 -91 
Q 1441 -91 1130 -33 
Q 819 25 488 141 
L 488 750 
Q 750 597 1062 519 
Q 1375 441 1716 441 
Q 2309 441 2620 675 
Q 2931 909 2931 1356 
Q 2931 1769 2642 2001 
Q 2353 2234 1838 2234 
L 1294 2234 
L 1294 2753 
L 1863 2753 
Q 2328 2753 2575 2939 
Q 2822 3125 2822 3475 
Q 2822 3834 2567 4026 
Q 2313 4219 1838 4219 
Q 1578 4219 1281 4162 
Q 984 4106 628 3988 
L 628 4550 
Q 988 4650 1302 4700 
Q 1616 4750 1894 4750 
Q 2613 4750 3031 4423 
Q 3450 4097 3450 3541 
Q 3450 3153 3228 2886 
Q 3006 2619 2597 2516 
z
" transform="scale(0.015625)"/>
       </defs>
       <use xlink:href="#DejaVuSans-33"/>
       <use xlink:href="#DejaVuSans-30" x="63.623047"/>
       <use xlink:href="#DejaVuSans-30" x="127.246094"/>
       <use xlink:href="#DejaVuSans-30" x="190.869141"/>
       <use xlink:href="#DejaVuSans-30" x="254.492188"/>
      </g>
     </g>
    </g>
    <g id="ytick_5">
     <g id="line2d_11">
      <path d="M 68.275312 85.673462 
L 697.995654 85.673462 
" clip-path="url(#p2f7e1d21a3)" style="fill: none; stroke: #cccccc; stroke-linecap: round"/>
     </g>
     <g id="text_12">
      <!-- 40000 -->
      <g style="fill: #262626" transform="translate(23.781562 89.852602) scale(0.11 -0.11)">
       <use xlink:href="#DejaVuSans-34"/>
       <use xlink:href="#DejaVuSans-30" x="63.623047"/>
       <use xlink:href="#DejaVuSans-30" x="127.246094"/>
       <use xlink:href="#DejaVuSans-30" x="190.869141"/>
       <use xlink:href="#DejaVuSans-30" x="254.492188"/>
      </g>
     </g>
    </g>
    <g id="ytick_6">
     <g id="line2d_12">
      <path d="M 68.275312 55.17658 
L 697.995654 55.17658 
" clip-path="url(#p2f7e1d21a3)" style="fill: none; stroke: #cccccc; stroke-linecap: round"/>
     </g>
     <g id="text_13">
      <!-- 50000 -->
      <g style="fill: #262626" transform="translate(23.781562 59.35572) scale(0.11 -0.11)">
       <defs>
        <path id="DejaVuSans-35" d="M 691 4666 
L 3169 4666 
L 3169 4134 
L 1269 4134 
L 1269 2991 
Q 1406 3038 1543 3061 
Q 1681 3084 1819 3084 
Q 2600 3084 3056 2656 
Q 3513 2228 3513 1497 
Q 3513 744 3044 326 
Q 2575 -91 1722 -91 
Q 1428 -91 1123 -41 
Q 819 9 494 109 
L 494 744 
Q 775 591 1075 516 
Q 1375 441 1709 441 
Q 2250 441 2565 725 
Q 2881 1009 2881 1497 
Q 2881 1984 2565 2268 
Q 2250 2553 1709 2553 
Q 1456 2553 1204 2497 
Q 953 2441 691 2322 
L 691 4666 
z
" transform="scale(0.015625)"/>
       </defs>
       <use xlink:href="#DejaVuSans-35"/>
       <use xlink:href="#DejaVuSans-30" x="63.623047"/>
       <use xlink:href="#DejaVuSans-30" x="127.246094"/>
       <use xlink:href="#DejaVuSans-30" x="190.869141"/>
       <use xlink:href="#DejaVuSans-30" x="254.492188"/>
      </g>
     </g>
    </g>
    <g id="ytick_7">
     <g id="line2d_13">
      <path d="M 68.275312 24.679698 
L 697.995654 24.679698 
" clip-path="url(#p2f7e1d21a3)" style="fill: none; stroke: #cccccc; stroke-linecap: round"/>
     </g>
     <g id="text_14">
      <!-- 60000 -->
      <g style="fill: #262626" transform="translate(23.781562 28.858838) scale(0.11 -0.11)">
       <use xlink:href="#DejaVuSans-36"/>
       <use xlink:href="#DejaVuSans-30" x="63.623047"/>
       <use xlink:href="#DejaVuSans-30" x="127.246094"/>
       <use xlink:href="#DejaVuSans-30" x="190.869141"/>
       <use xlink:href="#DejaVuSans-30" x="254.492188"/>
      </g>
     </g>
    </g>
    <g id="text_15">
     <!-- ELBO -->
     <g style="fill: #262626" transform="translate(17.077969 137.509141) rotate(-90) scale(0.13 -0.13)">
      <defs>
       <path id="DejaVuSans-45" d="M 628 4666 
L 3578 4666 
L 3578 4134 
L 1259 4134 
L 1259 2753 
L 3481 2753 
L 3481 2222 
L 1259 2222 
L 1259 531 
L 3634 531 
L 3634 0 
L 628 0 
L 628 4666 
z
" transform="scale(0.015625)"/>
       <path id="DejaVuSans-4c" d="M 628 4666 
L 1259 4666 
L 1259 531 
L 3531 531 
L 3531 0 
L 628 0 
L 628 4666 
z
" transform="scale(0.015625)"/>
       <path id="DejaVuSans-42" d="M 1259 2228 
L 1259 519 
L 2272 519 
Q 2781 519 3026 730 
Q 3272 941 3272 1375 
Q 3272 1813 3026 2020 
Q 2781 2228 2272 2228 
L 1259 2228 
z
M 1259 4147 
L 1259 2741 
L 2194 2741 
Q 2656 2741 2882 2914 
Q 3109 3088 3109 3444 
Q 3109 3797 2882 3972 
Q 2656 4147 2194 4147 
L 1259 4147 
z
M 628 4666 
L 2241 4666 
Q 2963 4666 3353 4366 
Q 3744 4066 3744 3513 
Q 3744 3084 3544 2831 
Q 3344 2578 2956 2516 
Q 3422 2416 3680 2098 
Q 3938 1781 3938 1306 
Q 3938 681 3513 340 
Q 3088 0 2303 0 
L 628 0 
L 628 4666 
z
" transform="scale(0.015625)"/>
       <path id="DejaVuSans-4f" d="M 2522 4238 
Q 1834 4238 1429 3725 
Q 1025 3213 1025 2328 
Q 1025 1447 1429 934 
Q 1834 422 2522 422 
Q 3209 422 3611 934 
Q 4013 1447 4013 2328 
Q 4013 3213 3611 3725 
Q 3209 4238 2522 4238 
z
M 2522 4750 
Q 3503 4750 4090 4092 
Q 4678 3434 4678 2328 
Q 4678 1225 4090 567 
Q 3503 -91 2522 -91 
Q 1538 -91 948 565 
Q 359 1222 359 2328 
Q 359 3434 948 4092 
Q 1538 4750 2522 4750 
z
" transform="scale(0.015625)"/>
      </defs>
      <use xlink:href="#DejaVuSans-45"/>
      <use xlink:href="#DejaVuSans-4c" x="63.183594"/>
      <use xlink:href="#DejaVuSans-42" x="118.896484"/>
      <use xlink:href="#DejaVuSans-4f" x="185.75"/>
     </g>
    </g>
   </g>
   <g id="PolyCollection_1"/>
   <g id="line2d_14">
    <path d="M 96.898964 207.004491 
L 107.78684 207.104198 
L 134.14696 207.197053 
L 134.720006 182.728325 
L 135.293052 207.200924 
L 158.214895 207.239048 
L 158.787941 182.809572 
L 159.360988 207.241907 
L 163.945356 207.248597 
L 164.518402 182.605427 
L 165.091448 207.247603 
L 167.956679 207.250452 
L 168.529725 179.447225 
L 169.102771 207.252582 
L 169.675817 207.250619 
L 170.248863 180.266331 
L 170.821909 207.253918 
L 181.136739 207.262165 
L 181.709785 177.507126 
L 182.282831 207.265218 
L 191.451568 207.270723 
L 192.024614 171.346732 
L 192.59766 207.272106 
L 194.316799 207.275437 
L 194.889845 181.829014 
L 195.462891 207.279231 
L 199.474213 207.276657 
L 200.04726 179.495853 
L 200.620306 207.279169 
L 206.350766 207.285201 
L 206.923813 173.423236 
L 207.496859 207.283096 
L 213.227319 207.288854 
L 213.800366 183.296938 
L 214.373412 176.720429 
L 214.946458 207.290037 
L 215.519504 207.290812 
L 216.09255 183.300004 
L 216.665596 182.798648 
L 217.238642 181.417082 
L 217.811688 179.334446 
L 218.384734 207.287865 
L 220.676919 207.291714 
L 221.249965 183.276217 
L 221.823011 181.995177 
L 222.396057 207.290901 
L 223.542149 207.292549 
L 224.115195 170.14631 
L 224.688241 207.294374 
L 225.261287 182.480751 
L 225.834333 207.294096 
L 226.407379 182.181592 
L 226.980425 207.293141 
L 227.553472 207.297293 
L 228.126518 179.891446 
L 228.699564 207.295055 
L 229.27261 207.294898 
L 229.845656 170.929133 
L 230.418702 207.293604 
L 232.13784 207.295606 
L 232.710886 180.869967 
L 233.283932 207.298545 
L 233.856978 183.313846 
L 234.430025 183.398044 
L 235.003071 207.294327 
L 238.441347 207.298541 
L 239.014393 178.870134 
L 239.587439 172.079664 
L 240.160485 179.721298 
L 240.733531 207.300557 
L 241.879624 207.300738 
L 242.45267 177.079824 
L 243.025716 207.30305 
L 243.598762 183.019647 
L 244.171808 207.299223 
L 246.463992 207.29999 
L 247.037038 142.311026 
L 247.610084 207.302104 
L 248.183131 175.238959 
L 248.756177 207.30322 
L 249.329223 155.560742 
L 249.902269 207.304263 
L 251.048361 207.303003 
L 251.621407 179.129772 
L 252.194453 179.86416 
L 252.767499 183.315375 
L 253.340545 207.307259 
L 253.913591 182.122799 
L 254.486638 207.302733 
L 255.63273 207.305008 
L 256.205776 182.574657 
L 256.778822 207.304671 
L 261.363191 207.306702 
L 261.936237 146.784978 
L 262.509283 181.344843 
L 263.082329 132.07579 
L 263.655375 207.307614 
L 264.228421 139.140065 
L 264.801467 207.306987 
L 265.947559 207.310046 
L 266.520605 173.230424 
L 267.093651 178.991219 
L 267.666697 169.247013 
L 268.239744 150.036512 
L 268.81279 207.307256 
L 269.385836 147.423078 
L 269.958882 113.746312 
L 270.531928 173.893633 
L 271.104974 207.311005 
L 271.67802 183.459751 
L 272.251066 149.422946 
L 272.824112 181.738771 
L 273.397158 207.306454 
L 275.116297 207.308528 
L 275.689343 180.673581 
L 276.262389 179.478225 
L 276.835435 171.843593 
L 277.408481 207.311589 
L 280.846757 207.309765 
L 281.419803 178.041084 
L 281.99285 207.309125 
L 284.285034 207.311597 
L 284.85808 179.225465 
L 285.431126 207.309944 
L 286.004172 207.311679 
L 286.577218 175.964731 
L 287.150264 176.226924 
L 287.72331 178.606369 
L 288.296356 207.314055 
L 290.015495 207.312355 
L 290.588541 170.092086 
L 291.161587 207.313669 
L 291.734633 207.312709 
L 292.307679 171.808983 
L 292.880725 207.315225 
L 295.172909 207.315163 
L 295.745956 149.436736 
L 296.319002 207.315637 
L 297.465094 207.316378 
L 298.03814 173.953003 
L 298.611186 207.314776 
L 299.184232 136.244225 
L 299.757278 181.419197 
L 300.330324 207.316102 
L 301.476416 207.315929 
L 302.049462 98.621711 
L 302.622509 131.911166 
L 303.195555 133.50775 
L 303.768601 207.316289 
L 304.914693 207.315688 
L 305.487739 182.455796 
L 306.060785 150.351094 
L 306.633831 142.469395 
L 307.206877 207.317356 
L 307.779923 172.97073 
L 308.352969 207.316092 
L 308.926015 207.315955 
L 309.499062 157.986968 
L 310.072108 207.317653 
L 310.645154 207.317482 
L 311.2182 134.848135 
L 311.791246 207.318368 
L 313.510384 207.316958 
L 314.08343 131.393541 
L 314.656476 207.318287 
L 315.229522 182.491466 
L 315.802569 207.316523 
L 316.375615 207.320564 
L 316.948661 179.710883 
L 317.521707 207.318834 
L 318.094753 159.122724 
L 318.667799 147.021537 
L 319.240845 147.894868 
L 319.813891 155.527189 
L 320.386937 207.318119 
L 320.959983 207.319495 
L 321.533029 169.550364 
L 322.106075 176.928683 
L 323.252168 183.170107 
L 323.825214 207.317953 
L 326.117398 207.317696 
L 326.690444 143.255828 
L 327.26349 129.343627 
L 327.836536 207.318743 
L 328.409582 177.961145 
L 328.982628 174.351357 
L 329.555675 181.202374 
L 330.128721 207.31835 
L 330.701767 181.2539 
L 331.274813 164.545204 
L 331.847859 178.218418 
L 332.420905 179.923 
L 332.993951 207.32022 
L 333.566997 183.100491 
L 334.140043 207.321211 
L 335.859181 207.318141 
L 336.432228 157.325302 
L 337.005274 207.321815 
L 337.57832 175.902287 
L 338.151366 168.396028 
L 338.724412 207.320694 
L 339.297458 207.320269 
L 339.870504 179.830786 
L 340.44355 180.081155 
L 341.016596 182.404044 
L 341.589642 207.319657 
L 342.162688 152.94368 
L 342.735734 207.323685 
L 343.881827 207.321669 
L 344.454873 157.380471 
L 345.027919 207.321405 
L 345.600965 183.45266 
L 346.174011 207.322124 
L 346.747057 149.456684 
L 347.320103 207.322394 
L 347.893149 207.324072 
L 348.466195 179.778763 
L 349.039241 181.701278 
L 349.612287 157.627507 
L 350.75838 207.320541 
L 351.331426 207.319538 
L 351.904472 173.341183 
L 352.477518 207.321027 
L 353.050564 181.312428 
L 353.62361 180.860062 
L 354.196656 207.322315 
L 354.769702 180.03963 
L 355.342748 207.321727 
L 355.915794 61.775902 
L 356.48884 158.234961 
L 357.061887 207.322299 
L 357.634933 207.322853 
L 358.207979 139.39254 
L 358.781025 95.350206 
L 359.354071 178.63854 
L 359.927117 207.322765 
L 361.073209 207.323939 
L 361.646255 150.072542 
L 362.219301 207.322437 
L 362.792347 207.3226 
L 363.365393 87.738267 
L 363.93844 181.436557 
L 364.511486 172.340618 
L 365.084532 125.917367 
L 365.657578 179.683921 
L 366.230624 171.494743 
L 366.80367 116.663869 
L 367.376716 207.322992 
L 367.949762 207.322694 
L 368.522808 150.814784 
L 369.095854 207.321898 
L 369.6689 181.677378 
L 370.241946 207.324582 
L 371.388039 207.326444 
L 371.961085 177.049259 
L 372.534131 155.207794 
L 373.107177 149.855859 
L 373.680223 207.323931 
L 374.253269 168.291144 
L 374.826315 180.3057 
L 375.399361 207.320733 
L 377.118499 207.320979 
L 377.691546 183.023467 
L 378.264592 207.323647 
L 378.837638 171.50567 
L 379.410684 207.322795 
L 380.556776 207.323694 
L 381.129822 159.195973 
L 381.702868 207.32214 
L 382.275914 207.324525 
L 382.84896 166.836255 
L 383.422006 207.324371 
L 385.141145 207.325056 
L 385.714191 138.971695 
L 386.287237 156.634417 
L 386.860283 180.422009 
L 387.433329 138.30289 
L 388.006375 183.32486 
L 388.579421 181.932453 
L 389.152467 207.323653 
L 389.725513 166.487072 
L 390.298559 207.32612 
L 390.871606 172.912774 
L 391.444652 146.386535 
L 392.017698 180.138212 
L 392.590744 168.022527 
L 393.16379 174.797314 
L 393.736836 144.98515 
L 394.309882 207.326111 
L 394.882928 154.367778 
L 395.455974 207.323865 
L 396.02902 181.700215 
L 396.602066 178.535514 
L 397.175112 151.327244 
L 397.748159 183.346179 
L 398.321205 207.325453 
L 399.467297 207.327532 
L 400.040343 134.002389 
L 401.186435 207.3263 
L 401.759481 170.619995 
L 402.332527 177.443318 
L 402.905573 179.836951 
L 403.478619 207.32569 
L 404.051665 172.264349 
L 404.624712 181.143736 
L 405.197758 207.324755 
L 405.770804 207.325476 
L 406.34385 182.5841 
L 406.916896 207.324676 
L 407.489942 207.324522 
L 408.062988 154.492833 
L 409.20908 207.324009 
L 409.782126 207.324895 
L 410.355172 139.393398 
L 411.501265 175.257924 
L 412.074311 207.325797 
L 412.647357 174.102102 
L 413.220403 207.326189 
L 414.366495 207.326672 
L 414.939541 148.514062 
L 415.512587 165.57173 
L 416.085633 134.664659 
L 416.658679 207.32701 
L 417.231725 207.327023 
L 417.804771 155.341105 
L 418.377818 181.178882 
L 418.950864 182.126859 
L 419.52391 207.326151 
L 420.096956 207.328809 
L 420.670002 181.25547 
L 421.243048 207.327846 
L 422.38914 207.327252 
L 422.962186 170.941231 
L 423.535232 207.326754 
L 425.827417 207.328091 
L 426.400463 173.530443 
L 426.973509 182.209939 
L 427.546555 126.288339 
L 428.119601 176.379799 
L 428.692647 207.327697 
L 429.265693 207.327905 
L 429.838739 179.548309 
L 430.411785 207.326116 
L 431.557877 207.327626 
L 432.130924 150.495257 
L 432.70397 207.326044 
L 433.277016 46.6928 
L 433.850062 178.288204 
L 434.423108 207.329307 
L 434.996154 182.188877 
L 435.5692 181.274923 
L 436.142246 140.914942 
L 436.715292 152.212279 
L 437.861384 207.326497 
L 438.43443 140.382301 
L 439.007477 207.329405 
L 439.580523 178.90657 
L 440.153569 207.324897 
L 440.726615 180.270751 
L 441.299661 207.32759 
L 443.018799 207.327885 
L 443.591845 181.500731 
L 444.164891 178.253409 
L 444.737937 134.426456 
L 445.310983 207.329203 
L 445.88403 180.346964 
L 446.457076 124.891963 
L 447.030122 171.045459 
L 447.603168 175.397001 
L 448.176214 207.32894 
L 448.74926 207.327561 
L 449.322306 179.987657 
L 449.895352 122.799627 
L 450.468398 179.190715 
L 451.041444 207.328164 
L 451.61449 207.330124 
L 452.187537 172.942979 
L 452.760583 207.33139 
L 453.333629 207.32785 
L 453.906675 160.747535 
L 454.479721 173.202715 
L 455.052767 207.329472 
L 455.625813 170.038318 
L 456.198859 152.125322 
L 456.771905 109.603781 
L 457.344951 155.831038 
L 457.917997 180.255163 
L 458.491043 164.44667 
L 459.06409 183.004314 
L 459.637136 207.328182 
L 460.783228 207.327109 
L 461.92932 158.596334 
L 462.502366 207.327202 
L 463.075412 183.402948 
L 463.648458 207.325864 
L 464.221504 207.328472 
L 464.79455 125.408951 
L 465.367596 207.328544 
L 465.940643 167.131116 
L 466.513689 207.32888 
L 467.659781 207.327852 
L 468.232827 167.13701 
L 468.805873 146.563768 
L 469.378919 170.344701 
L 469.951965 149.422655 
L 470.525011 182.059137 
L 471.098057 207.326742 
L 473.963288 207.327955 
L 474.536334 180.781267 
L 475.10938 207.329459 
L 476.828518 207.328525 
L 477.401564 178.810853 
L 477.97461 207.329885 
L 478.547656 207.330149 
L 479.693749 156.077557 
L 480.266795 151.510154 
L 480.839841 155.852213 
L 481.412887 150.639039 
L 481.985933 111.452869 
L 482.558979 180.839953 
L 483.132025 90.401658 
L 483.705071 148.312574 
L 484.278117 144.207241 
L 484.851163 181.353227 
L 485.424209 207.329519 
L 486.570302 207.330308 
L 487.143348 152.668196 
L 487.716394 207.327944 
L 488.28944 182.127314 
L 488.862486 207.330244 
L 490.008578 207.32778 
L 490.581624 158.721154 
L 491.15467 207.329069 
L 491.727716 207.328785 
L 492.300762 149.648445 
L 492.873808 178.4036 
L 493.446855 173.144348 
L 494.019901 148.755946 
L 494.592947 207.332217 
L 496.885131 207.330964 
L 497.458177 149.437045 
L 498.031223 207.33013 
L 498.604269 207.33017 
L 499.177315 180.894156 
L 499.750361 173.486127 
L 500.323408 179.733896 
L 500.896454 182.940006 
L 501.4695 154.991099 
L 502.042546 155.532163 
L 502.615592 97.118703 
L 503.188638 207.33087 
L 503.761684 170.393728 
L 504.33473 207.328361 
L 504.907776 178.848095 
L 506.053868 155.296711 
L 506.626914 173.715122 
L 507.199961 179.89608 
L 507.773007 179.623768 
L 508.346053 207.330407 
L 508.919099 207.332659 
L 509.492145 129.647732 
L 510.065191 177.813402 
L 510.638237 182.855636 
L 511.211283 174.845126 
L 511.784329 207.330814 
L 512.357375 179.957366 
L 512.930421 207.331973 
L 515.222606 207.331703 
L 515.795652 101.923332 
L 516.368698 98.995238 
L 518.087836 207.330509 
L 518.660882 128.798846 
L 519.233928 182.500389 
L 519.806974 137.066176 
L 520.380021 183.298545 
L 520.953067 207.330666 
L 521.526113 207.330446 
L 522.099159 183.103015 
L 522.672205 176.439163 
L 523.245251 181.266245 
L 523.818297 207.330749 
L 524.391343 181.859454 
L 524.964389 207.331389 
L 525.537435 142.223633 
L 526.110481 181.299914 
L 526.683527 178.069058 
L 527.256574 110.5282 
L 527.82962 174.524001 
L 528.402666 178.668953 
L 528.975712 207.330921 
L 529.548758 177.583085 
L 530.121804 207.328539 
L 531.840942 207.328425 
L 532.413988 182.607596 
L 532.987034 207.330971 
L 533.56008 207.332011 
L 534.133127 147.364526 
L 535.279219 207.329873 
L 536.425311 207.331717 
L 536.998357 160.658653 
L 537.571403 135.208975 
L 538.144449 173.758556 
L 538.717495 178.997417 
L 539.290541 207.329621 
L 539.863587 181.382303 
L 540.436633 207.330843 
L 541.00968 130.377667 
L 541.582726 168.834263 
L 542.155772 178.405661 
L 542.728818 174.422164 
L 543.301864 33.299474 
L 543.87491 176.164155 
L 544.447956 207.331252 
L 546.167094 207.33245 
L 546.74014 182.124476 
L 547.313186 169.412893 
L 547.886233 173.76375 
L 548.459279 157.743711 
L 549.032325 183.109245 
L 549.605371 151.958488 
L 550.178417 207.329961 
L 550.751463 172.049113 
L 551.324509 207.332722 
L 551.897555 178.537072 
L 552.470601 207.330895 
L 553.043647 180.288016 
L 553.616693 181.923396 
L 554.189739 207.330997 
L 555.335832 152.482558 
L 555.908878 207.330635 
L 556.481924 152.893694 
L 557.05497 207.331985 
L 558.774108 207.330344 
L 559.9202 151.289916 
L 560.493246 207.33268 
L 561.066292 207.331735 
L 561.639339 142.43514 
L 562.212385 180.256101 
L 562.785431 179.969919 
L 563.358477 147.800542 
L 563.931523 207.332357 
L 564.504569 175.468591 
L 565.077615 177.213882 
L 565.650661 81.470145 
L 566.223707 175.614714 
L 566.796753 207.330702 
L 569.088938 207.333198 
L 569.661984 175.726215 
L 570.23503 181.922595 
L 570.808076 176.006742 
L 571.381122 149.638384 
L 571.954168 169.339054 
L 572.527214 156.565078 
L 573.10026 174.867296 
L 573.673306 183.377564 
L 574.246352 207.331653 
L 574.819398 167.729245 
L 575.392445 174.539857 
L 575.965491 178.997107 
L 576.538537 207.333233 
L 577.111583 179.843268 
L 577.684629 207.332219 
L 581.122905 207.331321 
L 582.268998 161.041303 
L 582.842044 179.49359 
L 583.41509 207.331816 
L 585.134228 207.330169 
L 585.707274 175.187859 
L 586.28032 207.330853 
L 587.426412 151.472593 
L 587.999458 83.708366 
L 588.572505 140.001393 
L 589.145551 177.291137 
L 589.718597 172.95284 
L 590.291643 180.509961 
L 590.864689 207.332004 
L 592.010781 207.331518 
L 592.583827 182.702255 
L 593.156873 207.333184 
L 593.729919 128.916432 
L 594.302965 129.831589 
L 594.876011 145.278081 
L 595.449058 207.332962 
L 596.022104 180.296295 
L 596.59515 183.484694 
L 597.168196 178.840438 
L 597.741242 114.155345 
L 598.314288 207.333488 
L 598.887334 207.332738 
L 599.46038 175.898079 
L 600.033426 119.17465 
L 600.606472 207.333993 
L 601.179518 123.005594 
L 601.752564 174.69794 
L 602.325611 207.332256 
L 604.617795 207.332679 
L 605.190841 181.577644 
L 605.763887 207.332633 
L 606.336933 111.140532 
L 606.909979 207.333131 
L 607.483025 180.236198 
L 608.056071 207.332104 
L 608.629117 178.175708 
L 609.202164 139.793115 
L 609.77521 207.332945 
L 610.348256 170.319005 
L 610.921302 207.333381 
L 614.359578 207.333324 
L 614.932624 177.606119 
L 615.50567 174.506873 
L 616.078717 167.987617 
L 616.651763 124.395674 
L 617.224809 207.332802 
L 618.370901 207.332456 
L 618.943947 181.353772 
L 619.516993 207.331397 
L 620.663085 207.333344 
L 621.236131 161.875422 
L 621.809177 177.858114 
L 622.382223 207.333305 
L 622.95527 174.536974 
L 623.528316 180.055831 
L 624.101362 207.333428 
L 624.674408 133.551815 
L 625.247454 176.817581 
L 625.8205 168.392198 
L 626.393546 207.332353 
L 626.966592 178.788084 
L 627.539638 97.960941 
L 628.112684 113.938264 
L 628.68573 207.335312 
L 629.258776 157.540794 
L 629.831823 207.33444 
L 630.404869 158.301259 
L 630.977915 141.343864 
L 631.550961 207.333708 
L 632.124007 100.389744 
L 632.697053 183.301196 
L 633.270099 71.224718 
L 633.843145 166.657783 
L 634.416191 170.335781 
L 634.989237 180.189255 
L 635.562283 207.335804 
L 636.708376 147.962188 
L 637.281422 175.662032 
L 637.854468 180.069802 
L 638.427514 207.33198 
L 639.00056 207.334091 
L 639.573606 180.224083 
L 640.146652 137.593194 
L 640.719698 129.309842 
L 641.292744 207.332621 
L 641.86579 144.591174 
L 642.438836 207.332631 
L 643.011882 167.367613 
L 643.584929 150.897798 
L 644.157975 207.332181 
L 644.731021 148.358129 
L 645.304067 182.811022 
L 645.877113 177.315904 
L 646.450159 120.556796 
L 647.023205 168.749261 
L 647.596251 179.090644 
L 648.169297 207.333084 
L 648.742343 207.33253 
L 649.315389 170.920818 
L 649.888435 207.333645 
L 651.607574 207.333584 
L 652.18062 179.156549 
L 652.753666 207.332533 
L 653.326712 182.366128 
L 653.899758 178.709704 
L 654.472804 207.332495 
L 655.04585 181.131127 
L 655.618896 207.332778 
L 657.338035 207.332575 
L 657.911081 153.954473 
L 658.484127 207.333259 
L 659.057173 123.672386 
L 659.630219 129.388353 
L 660.203265 174.65839 
L 660.776311 177.94917 
L 661.349357 207.332583 
L 661.922403 148.469675 
L 662.495449 207.335133 
L 663.068495 177.320398 
L 663.641542 207.334107 
L 664.214588 144.652561 
L 664.787634 207.334125 
L 665.36068 127.481 
L 665.933726 171.857602 
L 666.506772 94.744223 
L 667.079818 183.394738 
L 668.22591 129.142103 
L 668.798956 207.333719 
L 669.372002 207.333393 
L 669.372002 207.333393 
" clip-path="url(#p2f7e1d21a3)" style="fill: none; stroke: #2c3e50; stroke-width: 1.5; stroke-linecap: round"/>
   </g>
   <g id="patch_3">
    <path d="M 68.275312 216.037656 
L 68.275312 24.597656 
" style="fill: none; stroke: #cccccc; stroke-width: 1.25; stroke-linejoin: miter; stroke-linecap: square"/>
   </g>
   <g id="patch_4">
    <path d="M 697.995654 216.037656 
L 697.995654 24.597656 
" style="fill: none; stroke: #cccccc; stroke-width: 1.25; stroke-linejoin: miter; stroke-linecap: square"/>
   </g>
   <g id="patch_5">
    <path d="M 68.275312 216.037656 
L 697.995654 216.037656 
" style="fill: none; stroke: #cccccc; stroke-width: 1.25; stroke-linejoin: miter; stroke-linecap: square"/>
   </g>
   <g id="patch_6">
    <path d="M 68.275312 24.597656 
L 697.995654 24.597656 
" style="fill: none; stroke: #cccccc; stroke-width: 1.25; stroke-linejoin: miter; stroke-linecap: square"/>
   </g>
   <g id="text_16">
    <!-- ELBO over Iterations -->
    <g style="fill: #262626" transform="translate(306.085874 18.597656) scale(0.15 -0.15)">
     <defs>
      <path id="DejaVuSans-20" transform="scale(0.015625)"/>
      <path id="DejaVuSans-76" d="M 191 3500 
L 800 3500 
L 1894 563 
L 2988 3500 
L 3597 3500 
L 2284 0 
L 1503 0 
L 191 3500 
z
" transform="scale(0.015625)"/>
      <path id="DejaVuSans-73" d="M 2834 3397 
L 2834 2853 
Q 2591 2978 2328 3040 
Q 2066 3103 1784 3103 
Q 1356 3103 1142 2972 
Q 928 2841 928 2578 
Q 928 2378 1081 2264 
Q 1234 2150 1697 2047 
L 1894 2003 
Q 2506 1872 2764 1633 
Q 3022 1394 3022 966 
Q 3022 478 2636 193 
Q 2250 -91 1575 -91 
Q 1294 -91 989 -36 
Q 684 19 347 128 
L 347 722 
Q 666 556 975 473 
Q 1284 391 1588 391 
Q 1994 391 2212 530 
Q 2431 669 2431 922 
Q 2431 1156 2273 1281 
Q 2116 1406 1581 1522 
L 1381 1569 
Q 847 1681 609 1914 
Q 372 2147 372 2553 
Q 372 3047 722 3315 
Q 1072 3584 1716 3584 
Q 2034 3584 2315 3537 
Q 2597 3491 2834 3397 
z
" transform="scale(0.015625)"/>
     </defs>
     <use xlink:href="#DejaVuSans-45"/>
     <use xlink:href="#DejaVuSans-4c" x="63.183594"/>
     <use xlink:href="#DejaVuSans-42" x="118.896484"/>
     <use xlink:href="#DejaVuSans-4f" x="185.75"/>
     <use xlink:href="#DejaVuSans-20" x="264.460938"/>
     <use xlink:href="#DejaVuSans-6f" x="296.248047"/>
     <use xlink:href="#DejaVuSans-76" x="357.429688"/>
     <use xlink:href="#DejaVuSans-65" x="416.609375"/>
     <use xlink:href="#DejaVuSans-72" x="478.132812"/>
     <use xlink:href="#DejaVuSans-20" x="519.246094"/>
     <use xlink:href="#DejaVuSans-49" x="551.033203"/>
     <use xlink:href="#DejaVuSans-74" x="580.525391"/>
     <use xlink:href="#DejaVuSans-65" x="619.734375"/>
     <use xlink:href="#DejaVuSans-72" x="681.257812"/>
     <use xlink:href="#DejaVuSans-61" x="722.371094"/>
     <use xlink:href="#DejaVuSans-74" x="783.650391"/>
     <use xlink:href="#DejaVuSans-69" x="822.859375"/>
     <use xlink:href="#DejaVuSans-6f" x="850.642578"/>
     <use xlink:href="#DejaVuSans-6e" x="911.824219"/>
     <use xlink:href="#DejaVuSans-73" x="975.203125"/>
    </g>
   </g>
  </g>
  <g id="axes_2">
   <g id="patch_7">
    <path d="M 68.275312 378.057656 
L 346.290408 378.057656 
L 346.290408 282.337656 
L 68.275312 282.337656 
z
" style="fill: #ffffff"/>
   </g>
   <g id="matplotlib.axis_3">
    <g id="xtick_7">
     <g id="line2d_15">
      <path d="M 80.912362 378.057656 
L 80.912362 282.337656 
" clip-path="url(#pd76686d008)" style="fill: none; stroke: #cccccc; stroke-linecap: round"/>
     </g>
     <g id="text_17">
      <!-- 0 -->
      <g style="fill: #262626" transform="translate(77.412987 395.915937) scale(0.11 -0.11)">
       <use xlink:href="#DejaVuSans-30"/>
      </g>
     </g>
    </g>
    <g id="xtick_8">
     <g id="line2d_16">
      <path d="M 131.971149 378.057656 
L 131.971149 282.337656 
" clip-path="url(#pd76686d008)" style="fill: none; stroke: #cccccc; stroke-linecap: round"/>
     </g>
     <g id="text_18">
      <!-- 20 -->
      <g style="fill: #262626" transform="translate(124.972399 395.915937) scale(0.11 -0.11)">
       <use xlink:href="#DejaVuSans-32"/>
       <use xlink:href="#DejaVuSans-30" x="63.623047"/>
      </g>
     </g>
    </g>
    <g id="xtick_9">
     <g id="line2d_17">
      <path d="M 183.029937 378.057656 
L 183.029937 282.337656 
" clip-path="url(#pd76686d008)" style="fill: none; stroke: #cccccc; stroke-linecap: round"/>
     </g>
     <g id="text_19">
      <!-- 40 -->
      <g style="fill: #262626" transform="translate(176.031187 395.915937) scale(0.11 -0.11)">
       <use xlink:href="#DejaVuSans-34"/>
       <use xlink:href="#DejaVuSans-30" x="63.623047"/>
      </g>
     </g>
    </g>
    <g id="xtick_10">
     <g id="line2d_18">
      <path d="M 234.088724 378.057656 
L 234.088724 282.337656 
" clip-path="url(#pd76686d008)" style="fill: none; stroke: #cccccc; stroke-linecap: round"/>
     </g>
     <g id="text_20">
      <!-- 60 -->
      <g style="fill: #262626" transform="translate(227.089974 395.915937) scale(0.11 -0.11)">
       <use xlink:href="#DejaVuSans-36"/>
       <use xlink:href="#DejaVuSans-30" x="63.623047"/>
      </g>
     </g>
    </g>
    <g id="xtick_11">
     <g id="line2d_19">
      <path d="M 285.147511 378.057656 
L 285.147511 282.337656 
" clip-path="url(#pd76686d008)" style="fill: none; stroke: #cccccc; stroke-linecap: round"/>
     </g>
     <g id="text_21">
      <!-- 80 -->
      <g style="fill: #262626" transform="translate(278.148761 395.915937) scale(0.11 -0.11)">
       <use xlink:href="#DejaVuSans-38"/>
       <use xlink:href="#DejaVuSans-30" x="63.623047"/>
      </g>
     </g>
    </g>
    <g id="xtick_12">
     <g id="line2d_20">
      <path d="M 336.206298 378.057656 
L 336.206298 282.337656 
" clip-path="url(#pd76686d008)" style="fill: none; stroke: #cccccc; stroke-linecap: round"/>
     </g>
     <g id="text_22">
      <!-- 100 -->
      <g style="fill: #262626" transform="translate(325.708173 395.915937) scale(0.11 -0.11)">
       <use xlink:href="#DejaVuSans-31"/>
       <use xlink:href="#DejaVuSans-30" x="63.623047"/>
       <use xlink:href="#DejaVuSans-30" x="127.246094"/>
      </g>
     </g>
    </g>
    <g id="text_23">
     <!-- Iteration -->
     <g style="fill: #262626" transform="translate(181.832548 411.321719) scale(0.12 -0.12)">
      <use xlink:href="#DejaVuSans-49"/>
      <use xlink:href="#DejaVuSans-74" x="29.492188"/>
      <use xlink:href="#DejaVuSans-65" x="68.701172"/>
      <use xlink:href="#DejaVuSans-72" x="130.224609"/>
      <use xlink:href="#DejaVuSans-61" x="171.337891"/>
      <use xlink:href="#DejaVuSans-74" x="232.617188"/>
      <use xlink:href="#DejaVuSans-69" x="271.826172"/>
      <use xlink:href="#DejaVuSans-6f" x="299.609375"/>
      <use xlink:href="#DejaVuSans-6e" x="360.791016"/>
     </g>
    </g>
   </g>
   <g id="matplotlib.axis_4">
    <g id="ytick_8">
     <g id="line2d_21">
      <path d="M 68.275312 375.224716 
L 346.290408 375.224716 
" clip-path="url(#pd76686d008)" style="fill: none; stroke: #cccccc; stroke-linecap: round"/>
     </g>
     <g id="text_24">
      <!-- 0 -->
      <g style="fill: #262626" transform="translate(51.776562 379.403857) scale(0.11 -0.11)">
       <use xlink:href="#DejaVuSans-30"/>
      </g>
     </g>
    </g>
    <g id="ytick_9">
     <g id="line2d_22">
      <path d="M 68.275312 348.15103 
L 346.290408 348.15103 
" clip-path="url(#pd76686d008)" style="fill: none; stroke: #cccccc; stroke-linecap: round"/>
     </g>
     <g id="text_25">
      <!-- 2500 -->
      <g style="fill: #262626" transform="translate(30.780312 352.330171) scale(0.11 -0.11)">
       <use xlink:href="#DejaVuSans-32"/>
       <use xlink:href="#DejaVuSans-35" x="63.623047"/>
       <use xlink:href="#DejaVuSans-30" x="127.246094"/>
       <use xlink:href="#DejaVuSans-30" x="190.869141"/>
      </g>
     </g>
    </g>
    <g id="ytick_10">
     <g id="line2d_23">
      <path d="M 68.275312 321.077344 
L 346.290408 321.077344 
" clip-path="url(#pd76686d008)" style="fill: none; stroke: #cccccc; stroke-linecap: round"/>
     </g>
     <g id="text_26">
      <!-- 5000 -->
      <g style="fill: #262626" transform="translate(30.780312 325.256485) scale(0.11 -0.11)">
       <use xlink:href="#DejaVuSans-35"/>
       <use xlink:href="#DejaVuSans-30" x="63.623047"/>
       <use xlink:href="#DejaVuSans-30" x="127.246094"/>
       <use xlink:href="#DejaVuSans-30" x="190.869141"/>
      </g>
     </g>
    </g>
    <g id="ytick_11">
     <g id="line2d_24">
      <path d="M 68.275312 294.003658 
L 346.290408 294.003658 
" clip-path="url(#pd76686d008)" style="fill: none; stroke: #cccccc; stroke-linecap: round"/>
     </g>
     <g id="text_27">
      <!-- 7500 -->
      <g style="fill: #262626" transform="translate(30.780312 298.182799) scale(0.11 -0.11)">
       <defs>
        <path id="DejaVuSans-37" d="M 525 4666 
L 3525 4666 
L 3525 4397 
L 1831 0 
L 1172 0 
L 2766 4134 
L 525 4134 
L 525 4666 
z
" transform="scale(0.015625)"/>
       </defs>
       <use xlink:href="#DejaVuSans-37"/>
       <use xlink:href="#DejaVuSans-35" x="63.623047"/>
       <use xlink:href="#DejaVuSans-30" x="127.246094"/>
       <use xlink:href="#DejaVuSans-30" x="190.869141"/>
      </g>
     </g>
    </g>
    <g id="text_28">
     <!-- ELBO -->
     <g style="fill: #262626" transform="translate(24.284687 346.066719) rotate(-90) scale(0.12 -0.12)">
      <use xlink:href="#DejaVuSans-45"/>
      <use xlink:href="#DejaVuSans-4c" x="63.183594"/>
      <use xlink:href="#DejaVuSans-42" x="118.896484"/>
      <use xlink:href="#DejaVuSans-4f" x="185.75"/>
     </g>
    </g>
   </g>
   <g id="PolyCollection_2"/>
   <g id="line2d_25">
    <path d="M 80.912362 372.893485 
L 83.465302 372.931727 
L 86.018241 372.960957 
L 88.57118 372.975586 
L 91.12412 372.998846 
L 93.677059 373.021354 
L 96.229998 373.051462 
L 98.782938 373.072488 
L 101.335877 373.100478 
L 103.888817 373.106163 
L 106.441756 373.1139 
L 108.994695 373.136786 
L 111.547635 373.147443 
L 114.100574 373.166972 
L 116.653513 373.17397 
L 119.206453 373.192088 
L 121.759392 373.201059 
L 124.312331 373.224091 
L 126.865271 373.219288 
L 129.41821 373.247543 
L 131.971149 373.260163 
L 134.524089 373.270582 
L 137.077028 373.274594 
L 139.629967 373.284519 
L 142.182907 373.311576 
L 144.735846 373.307901 
L 147.288786 373.31454 
L 149.841725 373.328493 
L 152.394664 373.321712 
L 154.947604 373.351652 
L 157.500543 373.350279 
L 160.053482 373.361294 
L 162.606422 373.355949 
L 165.159361 373.381903 
L 167.7123 373.387938 
L 170.26524 373.390561 
L 172.818179 373.403643 
L 175.371118 373.411072 
L 177.924058 373.414216 
L 180.476997 373.427279 
L 183.029937 373.427605 
L 185.582876 373.440529 
L 188.135815 373.44545 
L 190.688755 373.450811 
L 193.241694 373.463208 
L 195.794633 373.466504 
L 198.347573 373.461275 
L 200.900512 373.473856 
L 203.453451 373.479607 
L 206.006391 373.48231 
L 208.55933 373.493577 
L 211.112269 373.489647 
L 213.665209 373.500562 
L 216.218148 373.512899 
L 218.771087 373.526784 
L 221.324027 373.52649 
L 223.876966 373.527346 
L 226.429906 373.532625 
L 228.982845 373.533991 
L 231.535784 373.539467 
L 234.088724 373.56115 
L 236.641663 373.551714 
L 239.194602 373.561552 
L 241.747542 373.565595 
L 244.300481 373.569543 
L 246.85342 373.577271 
L 249.40636 286.688565 
L 251.959299 373.591017 
L 254.512238 373.58734 
L 257.065178 373.587616 
L 259.618117 373.597665 
L 262.171057 373.593622 
L 264.723996 373.599162 
L 267.276935 373.597905 
L 269.829875 373.607224 
L 272.382814 373.613398 
L 274.935753 373.612944 
L 277.488693 373.627603 
L 280.041632 373.631522 
L 282.594571 373.633578 
L 285.147511 373.63568 
L 287.70045 373.6369 
L 290.253389 373.639529 
L 292.806329 373.656492 
L 295.359268 373.646402 
L 297.912207 373.655102 
L 300.465147 373.653023 
L 303.018086 373.662132 
L 305.571026 373.663911 
L 308.123965 373.674887 
L 310.676904 373.67023 
L 313.229844 373.676526 
L 315.782783 373.68498 
L 318.335722 373.67544 
L 320.888662 373.693077 
L 323.441601 373.687 
L 325.99454 373.692278 
L 328.54748 373.692159 
L 331.100419 373.699813 
L 333.653358 373.706747 
" clip-path="url(#pd76686d008)" style="fill: none; stroke: #2c3e50; stroke-width: 1.5; stroke-linecap: round"/>
   </g>
   <g id="patch_8">
    <path d="M 68.275312 378.057656 
L 68.275312 282.337656 
" style="fill: none; stroke: #cccccc; stroke-width: 1.25; stroke-linejoin: miter; stroke-linecap: square"/>
   </g>
   <g id="patch_9">
    <path d="M 346.290408 378.057656 
L 346.290408 282.337656 
" style="fill: none; stroke: #cccccc; stroke-width: 1.25; stroke-linejoin: miter; stroke-linecap: square"/>
   </g>
   <g id="patch_10">
    <path d="M 68.275312 378.057656 
L 346.290408 378.057656 
" style="fill: none; stroke: #cccccc; stroke-width: 1.25; stroke-linejoin: miter; stroke-linecap: square"/>
   </g>
   <g id="patch_11">
    <path d="M 68.275312 282.337656 
L 346.290408 282.337656 
" style="fill: none; stroke: #cccccc; stroke-width: 1.25; stroke-linejoin: miter; stroke-linecap: square"/>
   </g>
   <g id="text_29">
    <!-- First 10% of Iterations -->
    <g style="fill: #262626" transform="translate(135.736142 276.337656) scale(0.13 -0.13)">
     <defs>
      <path id="DejaVuSans-46" d="M 628 4666 
L 3309 4666 
L 3309 4134 
L 1259 4134 
L 1259 2759 
L 3109 2759 
L 3109 2228 
L 1259 2228 
L 1259 0 
L 628 0 
L 628 4666 
z
" transform="scale(0.015625)"/>
      <path id="DejaVuSans-25" d="M 4653 2053 
Q 4381 2053 4226 1822 
Q 4072 1591 4072 1178 
Q 4072 772 4226 539 
Q 4381 306 4653 306 
Q 4919 306 5073 539 
Q 5228 772 5228 1178 
Q 5228 1588 5073 1820 
Q 4919 2053 4653 2053 
z
M 4653 2450 
Q 5147 2450 5437 2106 
Q 5728 1763 5728 1178 
Q 5728 594 5436 251 
Q 5144 -91 4653 -91 
Q 4153 -91 3862 251 
Q 3572 594 3572 1178 
Q 3572 1766 3864 2108 
Q 4156 2450 4653 2450 
z
M 1428 4353 
Q 1159 4353 1004 4120 
Q 850 3888 850 3481 
Q 850 3069 1003 2837 
Q 1156 2606 1428 2606 
Q 1700 2606 1854 2837 
Q 2009 3069 2009 3481 
Q 2009 3884 1853 4118 
Q 1697 4353 1428 4353 
z
M 4250 4750 
L 4750 4750 
L 1831 -91 
L 1331 -91 
L 4250 4750 
z
M 1428 4750 
Q 1922 4750 2215 4408 
Q 2509 4066 2509 3481 
Q 2509 2891 2217 2550 
Q 1925 2209 1428 2209 
Q 931 2209 642 2551 
Q 353 2894 353 3481 
Q 353 4063 643 4406 
Q 934 4750 1428 4750 
z
" transform="scale(0.015625)"/>
      <path id="DejaVuSans-66" d="M 2375 4863 
L 2375 4384 
L 1825 4384 
Q 1516 4384 1395 4259 
Q 1275 4134 1275 3809 
L 1275 3500 
L 2222 3500 
L 2222 3053 
L 1275 3053 
L 1275 0 
L 697 0 
L 697 3053 
L 147 3053 
L 147 3500 
L 697 3500 
L 697 3744 
Q 697 4328 969 4595 
Q 1241 4863 1831 4863 
L 2375 4863 
z
" transform="scale(0.015625)"/>
     </defs>
     <use xlink:href="#DejaVuSans-46"/>
     <use xlink:href="#DejaVuSans-69" x="50.269531"/>
     <use xlink:href="#DejaVuSans-72" x="78.052734"/>
     <use xlink:href="#DejaVuSans-73" x="119.166016"/>
     <use xlink:href="#DejaVuSans-74" x="171.265625"/>
     <use xlink:href="#DejaVuSans-20" x="210.474609"/>
     <use xlink:href="#DejaVuSans-31" x="242.261719"/>
     <use xlink:href="#DejaVuSans-30" x="305.884766"/>
     <use xlink:href="#DejaVuSans-25" x="369.507812"/>
     <use xlink:href="#DejaVuSans-20" x="464.527344"/>
     <use xlink:href="#DejaVuSans-6f" x="496.314453"/>
     <use xlink:href="#DejaVuSans-66" x="557.496094"/>
     <use xlink:href="#DejaVuSans-20" x="592.701172"/>
     <use xlink:href="#DejaVuSans-49" x="624.488281"/>
     <use xlink:href="#DejaVuSans-74" x="653.980469"/>
     <use xlink:href="#DejaVuSans-65" x="693.189453"/>
     <use xlink:href="#DejaVuSans-72" x="754.712891"/>
     <use xlink:href="#DejaVuSans-61" x="795.826172"/>
     <use xlink:href="#DejaVuSans-74" x="857.105469"/>
     <use xlink:href="#DejaVuSans-69" x="896.314453"/>
     <use xlink:href="#DejaVuSans-6f" x="924.097656"/>
     <use xlink:href="#DejaVuSans-6e" x="985.279297"/>
     <use xlink:href="#DejaVuSans-73" x="1048.658203"/>
    </g>
   </g>
  </g>
  <g id="axes_3">
   <g id="patch_12">
    <path d="M 419.980559 378.057656 
L 697.995654 378.057656 
L 697.995654 282.337656 
L 419.980559 282.337656 
z
" style="fill: #ffffff"/>
   </g>
   <g id="matplotlib.axis_5">
    <g id="xtick_13">
     <g id="line2d_26">
      <path d="M 432.617608 378.057656 
L 432.617608 282.337656 
" clip-path="url(#p20ab9acd5a)" style="fill: none; stroke: #cccccc; stroke-linecap: round"/>
     </g>
     <g id="text_30">
      <!-- 200 -->
      <g style="fill: #262626" transform="translate(422.119483 395.915937) scale(0.11 -0.11)">
       <use xlink:href="#DejaVuSans-32"/>
       <use xlink:href="#DejaVuSans-30" x="63.623047"/>
       <use xlink:href="#DejaVuSans-30" x="127.246094"/>
      </g>
     </g>
    </g>
    <g id="xtick_14">
     <g id="line2d_27">
      <path d="M 495.881938 378.057656 
L 495.881938 282.337656 
" clip-path="url(#p20ab9acd5a)" style="fill: none; stroke: #cccccc; stroke-linecap: round"/>
     </g>
     <g id="text_31">
      <!-- 400 -->
      <g style="fill: #262626" transform="translate(485.383813 395.915937) scale(0.11 -0.11)">
       <use xlink:href="#DejaVuSans-34"/>
       <use xlink:href="#DejaVuSans-30" x="63.623047"/>
       <use xlink:href="#DejaVuSans-30" x="127.246094"/>
      </g>
     </g>
    </g>
    <g id="xtick_15">
     <g id="line2d_28">
      <path d="M 559.146267 378.057656 
L 559.146267 282.337656 
" clip-path="url(#p20ab9acd5a)" style="fill: none; stroke: #cccccc; stroke-linecap: round"/>
     </g>
     <g id="text_32">
      <!-- 600 -->
      <g style="fill: #262626" transform="translate(548.648142 395.915937) scale(0.11 -0.11)">
       <use xlink:href="#DejaVuSans-36"/>
       <use xlink:href="#DejaVuSans-30" x="63.623047"/>
       <use xlink:href="#DejaVuSans-30" x="127.246094"/>
      </g>
     </g>
    </g>
    <g id="xtick_16">
     <g id="line2d_29">
      <path d="M 622.410597 378.057656 
L 622.410597 282.337656 
" clip-path="url(#p20ab9acd5a)" style="fill: none; stroke: #cccccc; stroke-linecap: round"/>
     </g>
     <g id="text_33">
      <!-- 800 -->
      <g style="fill: #262626" transform="translate(611.912472 395.915937) scale(0.11 -0.11)">
       <use xlink:href="#DejaVuSans-38"/>
       <use xlink:href="#DejaVuSans-30" x="63.623047"/>
       <use xlink:href="#DejaVuSans-30" x="127.246094"/>
      </g>
     </g>
    </g>
    <g id="xtick_17">
     <g id="line2d_30">
      <path d="M 685.674926 378.057656 
L 685.674926 282.337656 
" clip-path="url(#p20ab9acd5a)" style="fill: none; stroke: #cccccc; stroke-linecap: round"/>
     </g>
     <g id="text_34">
      <!-- 1000 -->
      <g style="fill: #262626" transform="translate(671.677426 395.915937) scale(0.11 -0.11)">
       <use xlink:href="#DejaVuSans-31"/>
       <use xlink:href="#DejaVuSans-30" x="63.623047"/>
       <use xlink:href="#DejaVuSans-30" x="127.246094"/>
       <use xlink:href="#DejaVuSans-30" x="190.869141"/>
      </g>
     </g>
    </g>
    <g id="text_35">
     <!-- Iteration -->
     <g style="fill: #262626" transform="translate(533.537794 411.321719) scale(0.12 -0.12)">
      <use xlink:href="#DejaVuSans-49"/>
      <use xlink:href="#DejaVuSans-74" x="29.492188"/>
      <use xlink:href="#DejaVuSans-65" x="68.701172"/>
      <use xlink:href="#DejaVuSans-72" x="130.224609"/>
      <use xlink:href="#DejaVuSans-61" x="171.337891"/>
      <use xlink:href="#DejaVuSans-74" x="232.617188"/>
      <use xlink:href="#DejaVuSans-69" x="271.826172"/>
      <use xlink:href="#DejaVuSans-6f" x="299.609375"/>
      <use xlink:href="#DejaVuSans-6e" x="360.791016"/>
     </g>
    </g>
   </g>
   <g id="matplotlib.axis_6">
    <g id="ytick_12">
     <g id="line2d_31">
      <path d="M 419.980559 373.869323 
L 697.995654 373.869323 
" clip-path="url(#p20ab9acd5a)" style="fill: none; stroke: #cccccc; stroke-linecap: round"/>
     </g>
     <g id="text_36">
      <!-- 0 -->
      <g style="fill: #262626" transform="translate(403.481809 378.048464) scale(0.11 -0.11)">
       <use xlink:href="#DejaVuSans-30"/>
      </g>
     </g>
    </g>
    <g id="ytick_13">
     <g id="line2d_32">
      <path d="M 419.980559 343.372441 
L 697.995654 343.372441 
" clip-path="url(#p20ab9acd5a)" style="fill: none; stroke: #cccccc; stroke-linecap: round"/>
     </g>
     <g id="text_37">
      <!-- 20000 -->
      <g style="fill: #262626" transform="translate(375.486809 347.551582) scale(0.11 -0.11)">
       <use xlink:href="#DejaVuSans-32"/>
       <use xlink:href="#DejaVuSans-30" x="63.623047"/>
       <use xlink:href="#DejaVuSans-30" x="127.246094"/>
       <use xlink:href="#DejaVuSans-30" x="190.869141"/>
       <use xlink:href="#DejaVuSans-30" x="254.492188"/>
      </g>
     </g>
    </g>
    <g id="ytick_14">
     <g id="line2d_33">
      <path d="M 419.980559 312.875559 
L 697.995654 312.875559 
" clip-path="url(#p20ab9acd5a)" style="fill: none; stroke: #cccccc; stroke-linecap: round"/>
     </g>
     <g id="text_38">
      <!-- 40000 -->
      <g style="fill: #262626" transform="translate(375.486809 317.0547) scale(0.11 -0.11)">
       <use xlink:href="#DejaVuSans-34"/>
       <use xlink:href="#DejaVuSans-30" x="63.623047"/>
       <use xlink:href="#DejaVuSans-30" x="127.246094"/>
       <use xlink:href="#DejaVuSans-30" x="190.869141"/>
       <use xlink:href="#DejaVuSans-30" x="254.492188"/>
      </g>
     </g>
    </g>
    <g id="ytick_15">
     <g id="line2d_34">
      <path d="M 419.980559 282.378677 
L 697.995654 282.378677 
" clip-path="url(#p20ab9acd5a)" style="fill: none; stroke: #cccccc; stroke-linecap: round"/>
     </g>
     <g id="text_39">
      <!-- 60000 -->
      <g style="fill: #262626" transform="translate(375.486809 286.557818) scale(0.11 -0.11)">
       <use xlink:href="#DejaVuSans-36"/>
       <use xlink:href="#DejaVuSans-30" x="63.623047"/>
       <use xlink:href="#DejaVuSans-30" x="127.246094"/>
       <use xlink:href="#DejaVuSans-30" x="190.869141"/>
       <use xlink:href="#DejaVuSans-30" x="254.492188"/>
      </g>
     </g>
    </g>
    <g id="text_40">
     <!-- ELBO -->
     <g style="fill: #262626" transform="translate(368.991184 346.066719) rotate(-90) scale(0.12 -0.12)">
      <use xlink:href="#DejaVuSans-45"/>
      <use xlink:href="#DejaVuSans-4c" x="63.183594"/>
      <use xlink:href="#DejaVuSans-42" x="118.896484"/>
      <use xlink:href="#DejaVuSans-4f" x="185.75"/>
     </g>
    </g>
   </g>
   <g id="PolyCollection_3"/>
   <g id="line2d_35">
    <path d="M 432.617608 373.683013 
L 433.566573 373.683255 
L 433.882895 361.687297 
L 434.199217 358.399042 
L 434.515538 373.683847 
L 434.83186 373.684234 
L 435.148181 361.68883 
L 435.464503 361.438152 
L 435.780825 360.747369 
L 436.097146 359.706051 
L 436.413468 373.682761 
L 437.678755 373.684685 
L 437.995076 361.676937 
L 438.311398 361.036417 
L 438.62772 373.684279 
L 439.260363 373.685103 
L 439.576685 355.111983 
L 439.893006 373.686015 
L 440.209328 361.279203 
L 440.525649 373.685876 
L 440.841971 361.129624 
L 441.158293 373.685399 
L 441.474614 373.687475 
L 441.790936 359.984551 
L 442.107258 373.686355 
L 442.423579 373.686277 
L 442.739901 355.503395 
L 443.056223 373.68563 
L 444.005188 373.686631 
L 444.321509 360.473812 
L 444.637831 373.6881 
L 444.954153 361.695751 
L 445.270474 361.73785 
L 445.586796 373.685992 
L 447.484726 373.688099 
L 447.801047 359.473895 
L 448.117369 356.07866 
L 448.433691 359.899477 
L 448.750012 373.689107 
L 449.382656 373.689197 
L 449.698977 358.57874 
L 450.015299 373.690353 
L 450.331621 361.548652 
L 450.647942 373.68844 
L 451.913229 373.688823 
L 452.22955 341.194341 
L 452.545872 373.68988 
L 452.862194 357.658308 
L 453.178515 373.690438 
L 453.494837 347.819199 
L 453.811159 373.69096 
L 454.443802 373.69033 
L 454.760124 359.603714 
L 455.076445 359.970908 
L 455.392767 361.696516 
L 455.709089 373.692458 
L 456.02541 361.100228 
L 456.341732 373.690195 
L 456.974375 373.691332 
L 457.290697 361.326156 
L 457.607018 373.691164 
L 460.137592 373.692179 
L 460.453913 343.431317 
L 460.770235 360.71125 
L 461.086557 336.076723 
L 461.402878 373.692635 
L 461.7192 339.608861 
L 462.035522 373.692322 
L 462.668165 373.693851 
L 462.984486 356.65404 
L 463.300808 359.534438 
L 463.61713 354.662335 
L 463.933451 345.057084 
L 464.249773 373.692456 
L 464.566095 343.750367 
L 464.882416 326.911984 
L 465.198738 356.985644 
L 465.51506 373.69433 
L 465.831381 361.768704 
L 466.147703 344.750301 
L 466.780346 373.692055 
L 467.729311 373.693092 
L 468.045633 360.375619 
L 468.361954 359.777941 
L 468.678276 355.960625 
L 468.994598 373.694623 
L 470.892528 373.693711 
L 471.208849 359.05937 
L 471.525171 373.693391 
L 472.790458 373.694627 
L 473.106779 359.65156 
L 473.423101 373.6938 
L 473.739422 373.694667 
L 474.055744 358.021194 
L 474.372066 358.15229 
L 474.688387 359.342013 
L 475.004709 373.695856 
L 475.953674 373.695006 
L 476.269996 355.084871 
L 476.586317 373.695663 
L 476.902639 373.695183 
L 477.218961 355.94332 
L 477.535282 373.696441 
L 478.800569 373.696409 
L 479.11689 344.757196 
L 479.433212 373.696647 
L 480.065855 373.697017 
L 480.382177 357.01533 
L 480.698499 373.696216 
L 481.01482 338.160941 
L 481.331142 360.748427 
L 481.647464 373.696879 
L 482.280107 373.696793 
L 482.596429 319.349684 
L 482.91275 335.994411 
L 483.229072 336.792703 
L 483.545394 373.696972 
L 484.178037 373.696672 
L 484.81068 345.214375 
L 485.127002 341.273526 
L 485.443323 373.697506 
L 485.759645 356.524193 
L 486.075967 373.696874 
L 486.392288 373.696806 
L 486.70861 349.032312 
L 487.024932 373.697655 
L 487.341253 373.697569 
L 487.657575 337.462896 
L 487.973897 373.698012 
L 488.922862 373.697307 
L 489.239183 335.735599 
L 489.555505 373.697972 
L 489.871826 361.284561 
L 490.188148 373.697089 
L 490.50447 373.69911 
L 490.820791 359.89427 
L 491.137113 373.698245 
L 491.453435 349.60019 
L 491.769756 343.549597 
L 492.086078 343.986262 
L 492.4024 347.802423 
L 492.718721 373.697888 
L 493.035043 373.698576 
L 493.351365 354.81401 
L 493.667686 358.50317 
L 494.30033 361.623881 
L 494.616651 373.697804 
L 495.881938 373.697676 
L 496.198259 341.666742 
L 496.514581 334.710641 
L 496.830903 373.6982 
L 497.147224 359.019401 
L 497.463546 357.214507 
L 497.779868 360.640015 
L 498.096189 373.698003 
L 498.412511 360.665778 
L 498.728833 352.31143 
L 499.045154 359.148037 
L 499.361476 360.000328 
L 499.677798 373.698938 
L 499.994119 361.589074 
L 500.310441 373.699434 
L 501.259406 373.697899 
L 501.575727 348.701479 
L 501.892049 373.699736 
L 502.208371 357.989972 
L 502.524692 354.236842 
L 502.841014 373.699175 
L 503.157336 373.698963 
L 503.473657 359.954221 
L 503.789979 360.079406 
L 504.106301 361.24085 
L 504.422622 373.698657 
L 504.738944 346.510668 
L 505.055266 373.70067 
L 505.687909 373.699662 
L 506.00423 348.729063 
L 506.320552 373.699531 
L 506.636874 361.765158 
L 506.953195 373.69989 
L 507.269517 344.76717 
L 507.585839 373.700025 
L 507.90216 373.700864 
L 508.218482 359.928209 
L 508.534804 360.889467 
L 508.851125 348.852582 
L 509.483769 373.699099 
L 509.80009 373.698597 
L 510.116412 356.70942 
L 510.432734 373.699342 
L 510.749055 360.695042 
L 511.065377 360.468859 
L 511.381698 373.699986 
L 511.69802 360.058643 
L 512.014342 373.699692 
L 512.330663 300.926779 
L 512.646985 349.156309 
L 512.963307 373.699977 
L 513.279628 373.700255 
L 513.59595 339.735098 
L 513.912272 317.713931 
L 514.228593 359.358098 
L 514.544915 373.70021 
L 515.177558 373.700798 
L 515.49388 345.075099 
L 515.810202 373.700047 
L 516.126523 373.700128 
L 516.442845 313.907962 
L 516.759166 360.757107 
L 517.075488 356.209137 
L 517.39181 332.997512 
L 517.708131 359.880789 
L 518.024453 355.7862 
L 518.340775 328.370763 
L 518.657096 373.700324 
L 518.973418 373.700175 
L 519.28974 345.44622 
L 519.606061 373.699777 
L 519.922383 360.877517 
L 520.238705 373.701119 
L 520.871348 373.70205 
L 521.503991 347.642725 
L 521.820313 344.966758 
L 522.136634 373.700794 
L 522.452956 354.1844 
L 522.769278 360.191678 
L 523.085599 373.699194 
L 524.034564 373.699318 
L 524.350886 361.550562 
L 524.667208 373.700652 
L 524.983529 355.791663 
L 525.299851 373.700226 
L 525.932494 373.700675 
L 526.248816 349.636815 
L 526.565138 373.699898 
L 526.881459 373.701091 
L 527.197781 353.456956 
L 527.514102 373.701014 
L 528.463067 373.701356 
L 528.779389 339.524676 
L 529.412032 360.249832 
L 529.728354 339.190273 
L 530.044676 361.701258 
L 530.360997 361.005055 
L 530.677319 373.700654 
L 530.993641 353.282364 
L 531.309962 373.701888 
L 531.942606 343.232096 
L 532.258927 360.107934 
L 532.575249 354.050092 
L 532.89157 357.437485 
L 533.207892 342.531403 
L 533.524214 373.701884 
L 533.840535 347.222717 
L 534.156857 373.700761 
L 534.473179 360.888936 
L 534.7895 359.306585 
L 535.105822 345.70245 
L 535.738465 373.701555 
L 536.371109 373.702594 
L 536.68743 337.040022 
L 537.320074 373.701978 
L 537.636395 355.348826 
L 537.952717 358.760487 
L 538.269038 359.957304 
L 538.58536 373.701673 
L 538.901682 356.171002 
L 539.218003 360.610696 
L 539.534325 373.701206 
L 539.850647 373.701566 
L 540.166968 361.330878 
L 540.48329 373.701166 
L 540.799612 373.701089 
L 541.115933 347.285244 
L 541.748577 373.700833 
L 542.064898 373.701276 
L 542.38122 339.735527 
L 543.013863 357.66779 
L 543.330185 373.701727 
L 543.646506 357.089879 
L 543.962828 373.701923 
L 544.595471 373.702164 
L 544.911793 344.295859 
L 545.228115 352.824693 
L 545.544436 337.371158 
L 545.860758 373.702333 
L 546.17708 373.70234 
L 546.493401 347.70938 
L 546.809723 360.628269 
L 547.126045 361.102257 
L 547.442366 373.701903 
L 547.758688 373.703233 
L 548.07501 360.666563 
L 548.391331 373.702751 
L 549.023974 373.702454 
L 549.340296 355.509443 
L 549.656618 373.702205 
L 550.921904 373.702873 
L 551.238226 356.80405 
L 551.554548 361.143798 
L 551.870869 333.182998 
L 552.187191 358.228727 
L 552.503513 373.702677 
L 552.819834 373.702781 
L 553.136156 359.812982 
L 553.452478 373.701886 
L 554.085121 373.702641 
L 554.401442 345.286457 
L 554.717764 373.70185 
L 555.034086 293.385228 
L 555.350407 359.18293 
L 555.666729 373.703481 
L 555.983051 361.133267 
L 556.299372 360.67629 
L 556.615694 340.496299 
L 556.932016 346.144968 
L 557.564659 373.702077 
L 557.880981 340.229978 
L 558.197302 373.703531 
L 558.513624 359.492113 
L 558.829946 373.701277 
L 559.146267 360.174204 
L 559.462589 373.702623 
L 560.411554 373.702771 
L 560.727875 360.789194 
L 561.044197 359.165533 
L 561.360519 337.252056 
L 561.67684 373.70343 
L 561.993162 360.21231 
L 562.309484 332.48481 
L 562.625805 355.561558 
L 562.942127 357.737329 
L 563.258449 373.703298 
L 563.57477 373.702608 
L 563.891092 360.032657 
L 564.207414 331.438642 
L 564.523735 359.634186 
L 564.840057 373.70291 
L 565.156378 373.70389 
L 565.4727 356.510318 
L 565.789022 373.704523 
L 566.105343 373.702753 
L 566.421665 350.412596 
L 566.737987 356.640185 
L 567.054308 373.703564 
L 567.37063 355.057987 
L 567.686952 346.101489 
L 568.003273 324.840719 
L 568.319595 347.954347 
L 568.635917 360.16641 
L 568.952238 352.262163 
L 569.584882 373.702919 
L 570.217525 373.702383 
L 570.850168 349.336995 
L 571.16649 373.702429 
L 571.482811 361.740302 
L 571.799133 373.70176 
L 572.115455 373.703064 
L 572.431776 332.743304 
L 572.748098 373.7031 
L 573.06442 353.604386 
L 573.380741 373.703268 
L 574.013385 373.702754 
L 574.329706 353.607333 
L 574.646028 343.320712 
L 574.96235 355.211179 
L 575.278671 344.750155 
L 575.911315 373.702199 
L 577.492923 373.702805 
L 577.809244 360.429462 
L 578.125566 373.703558 
L 579.074531 373.703091 
L 579.390853 359.444255 
L 579.707174 373.703771 
L 580.023496 373.703902 
L 580.656139 348.077606 
L 580.972461 345.793905 
L 581.288783 347.964935 
L 581.605104 345.358348 
L 581.921426 325.765263 
L 582.237747 360.458805 
L 582.554069 315.239657 
L 582.870391 344.195115 
L 583.186712 342.142449 
L 583.819356 373.703588 
L 584.451999 373.703982 
L 584.768321 346.372926 
L 585.084642 373.7028 
L 585.400964 361.102485 
L 585.717286 373.70395 
L 586.349929 373.702718 
L 586.666251 349.399405 
L 586.982572 373.703362 
L 587.298894 373.703221 
L 587.615215 344.86305 
L 587.931537 359.240628 
L 588.247859 356.611002 
L 588.56418 344.416801 
L 588.880502 373.704937 
L 590.145789 373.70431 
L 590.46211 344.757351 
L 590.778432 373.703893 
L 591.094754 373.703913 
L 591.411075 360.485906 
L 591.727397 356.781892 
L 592.043719 359.905776 
L 592.36004 361.508831 
L 592.676362 347.534378 
L 592.992683 347.80491 
L 593.309005 318.59818 
L 593.625327 373.704263 
L 593.941648 355.235692 
L 594.25797 373.703009 
L 594.574292 359.462876 
L 595.206935 347.687184 
L 595.523257 356.896389 
L 595.839578 359.986868 
L 596.1559 359.850712 
L 596.472222 373.704031 
L 596.788543 373.705158 
L 597.104865 334.862694 
L 597.421187 358.945529 
L 597.737508 361.466646 
L 598.05383 357.461391 
L 598.370151 373.704235 
L 598.686473 360.017511 
L 599.002795 373.704814 
L 600.268081 373.70468 
L 600.584403 321.000494 
L 600.900725 319.536447 
L 601.84969 373.704082 
L 602.166011 334.438251 
L 602.482333 361.289023 
L 602.798655 338.571916 
L 603.114976 361.688101 
L 603.431298 373.704161 
L 603.747619 373.704051 
L 604.063941 361.590336 
L 604.380263 358.25841 
L 604.696584 360.671951 
L 605.012906 373.704203 
L 605.329228 360.968555 
L 605.645549 373.704523 
L 605.961871 341.150645 
L 606.278193 360.688785 
L 606.594514 359.073357 
L 606.910836 325.302928 
L 607.227158 357.300829 
L 607.543479 359.373305 
L 607.859801 373.704288 
L 608.176123 358.830371 
L 608.492444 373.703098 
L 609.441409 373.703041 
L 609.757731 361.342626 
L 610.074052 373.704314 
L 610.390374 373.704834 
L 610.706696 343.721091 
L 611.339339 373.703765 
L 611.971982 373.704687 
L 612.288304 350.368155 
L 612.604626 337.643316 
L 612.920947 356.918106 
L 613.237269 359.537537 
L 613.553591 373.703639 
L 613.869912 360.72998 
L 614.186234 373.70425 
L 614.502555 335.227662 
L 614.818877 354.455959 
L 615.135199 359.241659 
L 615.45152 357.24991 
L 615.767842 286.688565 
L 616.084164 358.120906 
L 616.400485 373.704454 
L 617.34945 373.705053 
L 617.665772 361.101066 
L 617.982094 354.745275 
L 618.298415 356.920703 
L 618.614737 348.910684 
L 618.931059 361.593451 
L 619.24738 346.018072 
L 619.563702 373.703809 
L 619.880023 356.063385 
L 620.196345 373.705189 
L 620.512667 359.307364 
L 620.828988 373.704276 
L 621.14531 360.182836 
L 621.461632 361.000526 
L 621.777953 373.704326 
L 622.410597 346.280107 
L 622.726918 373.704146 
L 623.04324 346.485675 
L 623.359562 373.70482 
L 624.308527 373.704 
L 624.94117 345.683786 
L 625.257491 373.705168 
L 625.573813 373.704696 
L 625.890135 341.256398 
L 626.206456 360.166879 
L 626.522778 360.023788 
L 626.8391 343.939099 
L 627.155421 373.705007 
L 627.471743 357.773124 
L 627.788065 358.645769 
L 628.104386 310.773901 
L 628.420708 357.846185 
L 628.73703 373.704179 
L 630.002316 373.705427 
L 630.318638 357.901936 
L 630.634959 361.000126 
L 630.951281 358.042199 
L 631.267603 344.85802 
L 631.583924 354.708355 
L 631.900246 348.321367 
L 632.216568 357.472476 
L 632.532889 361.72761 
L 632.849211 373.704655 
L 633.165533 353.903451 
L 633.798176 359.537382 
L 634.114498 373.705445 
L 634.430819 359.960462 
L 634.747141 373.704938 
L 636.645071 373.704489 
L 637.277714 350.559479 
L 637.594036 359.785623 
L 637.910357 373.704736 
L 638.859322 373.703913 
L 639.175644 357.632758 
L 639.491966 373.704255 
L 640.124609 345.775125 
L 640.440931 311.893011 
L 641.073574 358.684397 
L 641.389895 356.515248 
L 641.706217 360.293809 
L 642.022539 373.70483 
L 642.655182 373.704587 
L 642.971504 361.389956 
L 643.287825 373.70542 
L 643.604147 334.497044 
L 643.920469 334.954622 
L 644.23679 342.677868 
L 644.553112 373.705309 
L 644.869434 360.186976 
L 645.185755 361.781175 
L 645.502077 359.459047 
L 645.818399 327.116501 
L 646.13472 373.705572 
L 646.451042 373.705197 
L 646.767363 357.987868 
L 647.083685 329.626153 
L 647.400007 373.705825 
L 647.716328 331.541625 
L 648.03265 357.387798 
L 648.348972 373.704956 
L 649.614258 373.705167 
L 649.93058 360.82765 
L 650.246902 373.705145 
L 650.563223 325.609094 
L 650.879545 373.705393 
L 651.195867 360.156927 
L 651.512188 373.70488 
L 652.144831 339.935386 
L 652.461153 373.705301 
L 652.777475 355.198331 
L 653.093796 373.705519 
L 654.991726 373.70549 
L 655.308048 358.841888 
L 655.62437 357.292265 
L 655.940691 354.032636 
L 656.257013 332.236665 
L 656.573335 373.705229 
L 657.205978 373.705056 
L 657.522299 360.715714 
L 657.838621 373.704527 
L 658.471264 373.7055 
L 658.787586 350.976539 
L 659.103908 358.967885 
L 659.420229 373.70548 
L 659.736551 357.307315 
L 660.052873 360.066744 
L 660.369194 373.705542 
L 660.685516 336.814736 
L 661.001838 358.447619 
L 661.318159 354.234927 
L 661.634481 373.705004 
L 661.950803 359.43287 
L 662.267124 319.019299 
L 662.583446 327.00796 
L 662.899767 373.706484 
L 663.216089 348.809225 
L 663.532411 373.706048 
L 663.848732 349.189458 
L 664.165054 340.71076 
L 664.481376 373.705682 
L 664.797697 320.2337 
L 665.114019 361.689426 
L 665.430341 305.651187 
L 665.746662 353.36772 
L 666.062984 355.206719 
L 666.379306 360.133456 
L 666.695627 373.70673 
L 667.328271 344.019922 
L 667.644592 357.869844 
L 667.960914 360.073729 
L 668.277235 373.704818 
L 668.593557 373.705874 
L 668.909879 360.150869 
L 669.2262 338.835425 
L 669.542522 334.693749 
L 669.858844 373.705139 
L 670.175165 342.334415 
L 670.491487 373.705144 
L 670.807809 353.722634 
L 671.12413 345.487727 
L 671.440452 373.704918 
L 671.756774 344.217893 
L 672.073095 361.444339 
L 672.389417 358.69678 
L 672.705739 330.317226 
L 673.02206 354.413459 
L 673.338382 359.58415 
L 673.654703 373.70537 
L 673.971025 373.705093 
L 674.287347 355.499237 
L 674.603668 373.705651 
L 675.552633 373.70562 
L 675.868955 359.617102 
L 676.185277 373.705095 
L 676.501598 361.221892 
L 676.81792 359.39368 
L 677.134242 373.705076 
L 677.450563 360.604391 
L 677.766885 373.705217 
L 678.71585 373.705116 
L 679.032171 347.016065 
L 679.348493 373.705458 
L 679.664815 331.875021 
L 679.981136 334.733005 
L 680.297458 357.368023 
L 680.61378 359.013413 
L 680.930101 373.70512 
L 681.246423 344.273665 
L 681.562745 373.706395 
L 681.879066 358.699027 
L 682.195388 373.705882 
L 682.51171 342.365109 
L 682.828031 373.705891 
L 683.144353 333.779328 
L 683.460675 355.967629 
L 683.776996 317.41094 
L 684.093318 361.736197 
L 684.725961 334.60988 
L 685.042283 373.705687 
L 685.358604 373.705525 
L 685.358604 373.705525 
" clip-path="url(#p20ab9acd5a)" style="fill: none; stroke: #2c3e50; stroke-width: 1.5; stroke-linecap: round"/>
   </g>
   <g id="patch_13">
    <path d="M 419.980559 378.057656 
L 419.980559 282.337656 
" style="fill: none; stroke: #cccccc; stroke-width: 1.25; stroke-linejoin: miter; stroke-linecap: square"/>
   </g>
   <g id="patch_14">
    <path d="M 697.995654 378.057656 
L 697.995654 282.337656 
" style="fill: none; stroke: #cccccc; stroke-width: 1.25; stroke-linejoin: miter; stroke-linecap: square"/>
   </g>
   <g id="patch_15">
    <path d="M 419.980559 378.057656 
L 697.995654 378.057656 
" style="fill: none; stroke: #cccccc; stroke-width: 1.25; stroke-linejoin: miter; stroke-linecap: square"/>
   </g>
   <g id="patch_16">
    <path d="M 419.980559 282.337656 
L 697.995654 282.337656 
" style="fill: none; stroke: #cccccc; stroke-width: 1.25; stroke-linejoin: miter; stroke-linecap: square"/>
   </g>
   <g id="text_41">
    <!-- Last 80% of Iterations -->
    <g style="fill: #262626" transform="translate(487.581544 276.337656) scale(0.13 -0.13)">
     <use xlink:href="#DejaVuSans-4c"/>
     <use xlink:href="#DejaVuSans-61" x="55.712891"/>
     <use xlink:href="#DejaVuSans-73" x="116.992188"/>
     <use xlink:href="#DejaVuSans-74" x="169.091797"/>
     <use xlink:href="#DejaVuSans-20" x="208.300781"/>
     <use xlink:href="#DejaVuSans-38" x="240.087891"/>
     <use xlink:href="#DejaVuSans-30" x="303.710938"/>
     <use xlink:href="#DejaVuSans-25" x="367.333984"/>
     <use xlink:href="#DejaVuSans-20" x="462.353516"/>
     <use xlink:href="#DejaVuSans-6f" x="494.140625"/>
     <use xlink:href="#DejaVuSans-66" x="555.322266"/>
     <use xlink:href="#DejaVuSans-20" x="590.527344"/>
     <use xlink:href="#DejaVuSans-49" x="622.314453"/>
     <use xlink:href="#DejaVuSans-74" x="651.806641"/>
     <use xlink:href="#DejaVuSans-65" x="691.015625"/>
     <use xlink:href="#DejaVuSans-72" x="752.539062"/>
     <use xlink:href="#DejaVuSans-61" x="793.652344"/>
     <use xlink:href="#DejaVuSans-74" x="854.931641"/>
     <use xlink:href="#DejaVuSans-69" x="894.140625"/>
     <use xlink:href="#DejaVuSans-6f" x="921.923828"/>
     <use xlink:href="#DejaVuSans-6e" x="983.105469"/>
     <use xlink:href="#DejaVuSans-73" x="1046.484375"/>
    </g>
   </g>
  </g>
 </g>
 <defs>
  <clipPath id="p2f7e1d21a3">
   <rect x="68.275312" y="24.597656" width="629.720342" height="191.44"/>
  </clipPath>
  <clipPath id="pd76686d008">
   <rect x="68.275312" y="282.337656" width="278.015096" height="95.72"/>
  </clipPath>
  <clipPath id="p20ab9acd5a">
   <rect x="419.980559" y="282.337656" width="278.015096" height="95.72"/>
  </clipPath>
 </defs>
</svg>
