<?xml version="1.0" encoding="utf-8" standalone="no"?>
<!DOCTYPE svg PUBLIC "-//W3C//DTD SVG 1.1//EN"
  "http://www.w3.org/Graphics/SVG/1.1/DTD/svg11.dtd">
<svg xmlns:xlink="http://www.w3.org/1999/xlink" width="504.210937pt" height="492.9775pt" viewBox="0 0 504.210937 492.9775" xmlns="http://www.w3.org/2000/svg" version="1.1">
 <metadata>
  <rdf:RDF xmlns:dc="http://purl.org/dc/elements/1.1/" xmlns:cc="http://creativecommons.org/ns#" xmlns:rdf="http://www.w3.org/1999/02/22-rdf-syntax-ns#">
   <cc:Work>
    <dc:type rdf:resource="http://purl.org/dc/dcmitype/StillImage"/>
    <dc:date>2025-02-17T20:53:21.024492</dc:date>
    <dc:format>image/svg+xml</dc:format>
    <dc:creator>
     <cc:Agent>
      <dc:title>Matplotlib v3.8.4, https://matplotlib.org/</dc:title>
     </cc:Agent>
    </dc:creator>
   </cc:Work>
  </rdf:RDF>
 </metadata>
 <defs>
  <style type="text/css">*{stroke-linejoin: round; stroke-linecap: butt}</style>
 </defs>
 <g id="figure_1">
  <g id="patch_1">
   <path d="M 0 492.9775 
L 504.210937 492.9775 
L 504.210937 0 
L 0 0 
z
" style="fill: #ffffff"/>
  </g>
  <g id="axes_1">
   <g id="patch_2">
    <path d="M 48.530156 450.017812 
L 486.110156 450.017812 
L 486.110156 23.837812 
L 48.530156 23.837812 
z
" style="fill: #ffffff"/>
   </g>
   <g id="matplotlib.axis_1">
    <g id="xtick_1">
     <g id="line2d_1">
      <path d="M 63.927666 450.017812 
L 63.927666 23.837812 
" clip-path="url(#pa190dd1a6e)" style="fill: none; stroke: #cccccc; stroke-linecap: round"/>
     </g>
     <g id="text_1">
      <!-- −3 -->
      <g style="fill: #262626" transform="translate(55.819463 467.876094) scale(0.11 -0.11)">
       <defs>
        <path id="DejaVuSans-2212" d="M 678 2272 
L 4684 2272 
L 4684 1741 
L 678 1741 
L 678 2272 
z
" transform="scale(0.015625)"/>
        <path id="DejaVuSans-33" d="M 2597 2516 
Q 3050 2419 3304 2112 
Q 3559 1806 3559 1356 
Q 3559 666 3084 287 
Q 2609 -91 1734 -91 
Q 1441 -91 1130 -33 
Q 819 25 488 141 
L 488 750 
Q 750 597 1062 519 
Q 1375 441 1716 441 
Q 2309 441 2620 675 
Q 2931 909 2931 1356 
Q 2931 1769 2642 2001 
Q 2353 2234 1838 2234 
L 1294 2234 
L 1294 2753 
L 1863 2753 
Q 2328 2753 2575 2939 
Q 2822 3125 2822 3475 
Q 2822 3834 2567 4026 
Q 2313 4219 1838 4219 
Q 1578 4219 1281 4162 
Q 984 4106 628 3988 
L 628 4550 
Q 988 4650 1302 4700 
Q 1616 4750 1894 4750 
Q 2613 4750 3031 4423 
Q 3450 4097 3450 3541 
Q 3450 3153 3228 2886 
Q 3006 2619 2597 2516 
z
" transform="scale(0.015625)"/>
       </defs>
       <use xlink:href="#DejaVuSans-2212"/>
       <use xlink:href="#DejaVuSans-33" x="83.789062"/>
      </g>
     </g>
    </g>
    <g id="xtick_2">
     <g id="line2d_2">
      <path d="M 131.361146 450.017812 
L 131.361146 23.837812 
" clip-path="url(#pa190dd1a6e)" style="fill: none; stroke: #cccccc; stroke-linecap: round"/>
     </g>
     <g id="text_2">
      <!-- −2 -->
      <g style="fill: #262626" transform="translate(123.252943 467.876094) scale(0.11 -0.11)">
       <defs>
        <path id="DejaVuSans-32" d="M 1228 531 
L 3431 531 
L 3431 0 
L 469 0 
L 469 531 
Q 828 903 1448 1529 
Q 2069 2156 2228 2338 
Q 2531 2678 2651 2914 
Q 2772 3150 2772 3378 
Q 2772 3750 2511 3984 
Q 2250 4219 1831 4219 
Q 1534 4219 1204 4116 
Q 875 4013 500 3803 
L 500 4441 
Q 881 4594 1212 4672 
Q 1544 4750 1819 4750 
Q 2544 4750 2975 4387 
Q 3406 4025 3406 3419 
Q 3406 3131 3298 2873 
Q 3191 2616 2906 2266 
Q 2828 2175 2409 1742 
Q 1991 1309 1228 531 
z
" transform="scale(0.015625)"/>
       </defs>
       <use xlink:href="#DejaVuSans-2212"/>
       <use xlink:href="#DejaVuSans-32" x="83.789062"/>
      </g>
     </g>
    </g>
    <g id="xtick_3">
     <g id="line2d_3">
      <path d="M 198.794627 450.017812 
L 198.794627 23.837812 
" clip-path="url(#pa190dd1a6e)" style="fill: none; stroke: #cccccc; stroke-linecap: round"/>
     </g>
     <g id="text_3">
      <!-- −1 -->
      <g style="fill: #262626" transform="translate(190.686424 467.876094) scale(0.11 -0.11)">
       <defs>
        <path id="DejaVuSans-31" d="M 794 531 
L 1825 531 
L 1825 4091 
L 703 3866 
L 703 4441 
L 1819 4666 
L 2450 4666 
L 2450 531 
L 3481 531 
L 3481 0 
L 794 0 
L 794 531 
z
" transform="scale(0.015625)"/>
       </defs>
       <use xlink:href="#DejaVuSans-2212"/>
       <use xlink:href="#DejaVuSans-31" x="83.789062"/>
      </g>
     </g>
    </g>
    <g id="xtick_4">
     <g id="line2d_4">
      <path d="M 266.228107 450.017812 
L 266.228107 23.837812 
" clip-path="url(#pa190dd1a6e)" style="fill: none; stroke: #cccccc; stroke-linecap: round"/>
     </g>
     <g id="text_4">
      <!-- 0 -->
      <g style="fill: #262626" transform="translate(262.728732 467.876094) scale(0.11 -0.11)">
       <defs>
        <path id="DejaVuSans-30" d="M 2034 4250 
Q 1547 4250 1301 3770 
Q 1056 3291 1056 2328 
Q 1056 1369 1301 889 
Q 1547 409 2034 409 
Q 2525 409 2770 889 
Q 3016 1369 3016 2328 
Q 3016 3291 2770 3770 
Q 2525 4250 2034 4250 
z
M 2034 4750 
Q 2819 4750 3233 4129 
Q 3647 3509 3647 2328 
Q 3647 1150 3233 529 
Q 2819 -91 2034 -91 
Q 1250 -91 836 529 
Q 422 1150 422 2328 
Q 422 3509 836 4129 
Q 1250 4750 2034 4750 
z
" transform="scale(0.015625)"/>
       </defs>
       <use xlink:href="#DejaVuSans-30"/>
      </g>
     </g>
    </g>
    <g id="xtick_5">
     <g id="line2d_5">
      <path d="M 333.661588 450.017812 
L 333.661588 23.837812 
" clip-path="url(#pa190dd1a6e)" style="fill: none; stroke: #cccccc; stroke-linecap: round"/>
     </g>
     <g id="text_5">
      <!-- 1 -->
      <g style="fill: #262626" transform="translate(330.162213 467.876094) scale(0.11 -0.11)">
       <use xlink:href="#DejaVuSans-31"/>
      </g>
     </g>
    </g>
    <g id="xtick_6">
     <g id="line2d_6">
      <path d="M 401.095068 450.017812 
L 401.095068 23.837812 
" clip-path="url(#pa190dd1a6e)" style="fill: none; stroke: #cccccc; stroke-linecap: round"/>
     </g>
     <g id="text_6">
      <!-- 2 -->
      <g style="fill: #262626" transform="translate(397.595693 467.876094) scale(0.11 -0.11)">
       <use xlink:href="#DejaVuSans-32"/>
      </g>
     </g>
    </g>
    <g id="xtick_7">
     <g id="line2d_7">
      <path d="M 468.528549 450.017812 
L 468.528549 23.837812 
" clip-path="url(#pa190dd1a6e)" style="fill: none; stroke: #cccccc; stroke-linecap: round"/>
     </g>
     <g id="text_7">
      <!-- 3 -->
      <g style="fill: #262626" transform="translate(465.029174 467.876094) scale(0.11 -0.11)">
       <use xlink:href="#DejaVuSans-33"/>
      </g>
     </g>
    </g>
    <g id="text_8">
     <!-- X -->
     <g style="fill: #262626" transform="translate(263.210156 483.281875) scale(0.12 -0.12)">
      <defs>
       <path id="DejaVuSans-58" d="M 403 4666 
L 1081 4666 
L 2241 2931 
L 3406 4666 
L 4084 4666 
L 2584 2425 
L 4184 0 
L 3506 0 
L 2194 1984 
L 872 0 
L 191 0 
L 1856 2491 
L 403 4666 
z
" transform="scale(0.015625)"/>
      </defs>
      <use xlink:href="#DejaVuSans-58"/>
     </g>
    </g>
   </g>
   <g id="matplotlib.axis_2">
    <g id="ytick_1">
     <g id="line2d_8">
      <path d="M 48.530156 389.829007 
L 486.110156 389.829007 
" clip-path="url(#pa190dd1a6e)" style="fill: none; stroke: #cccccc; stroke-linecap: round"/>
     </g>
     <g id="text_9">
      <!-- −2 -->
      <g style="fill: #262626" transform="translate(22.81375 394.008148) scale(0.11 -0.11)">
       <use xlink:href="#DejaVuSans-2212"/>
       <use xlink:href="#DejaVuSans-32" x="83.789062"/>
      </g>
     </g>
    </g>
    <g id="ytick_2">
     <g id="line2d_9">
      <path d="M 48.530156 314.902357 
L 486.110156 314.902357 
" clip-path="url(#pa190dd1a6e)" style="fill: none; stroke: #cccccc; stroke-linecap: round"/>
     </g>
     <g id="text_10">
      <!-- −1 -->
      <g style="fill: #262626" transform="translate(22.81375 319.081498) scale(0.11 -0.11)">
       <use xlink:href="#DejaVuSans-2212"/>
       <use xlink:href="#DejaVuSans-31" x="83.789062"/>
      </g>
     </g>
    </g>
    <g id="ytick_3">
     <g id="line2d_10">
      <path d="M 48.530156 239.975707 
L 486.110156 239.975707 
" clip-path="url(#pa190dd1a6e)" style="fill: none; stroke: #cccccc; stroke-linecap: round"/>
     </g>
     <g id="text_11">
      <!-- 0 -->
      <g style="fill: #262626" transform="translate(32.031406 244.154848) scale(0.11 -0.11)">
       <use xlink:href="#DejaVuSans-30"/>
      </g>
     </g>
    </g>
    <g id="ytick_4">
     <g id="line2d_11">
      <path d="M 48.530156 165.049058 
L 486.110156 165.049058 
" clip-path="url(#pa190dd1a6e)" style="fill: none; stroke: #cccccc; stroke-linecap: round"/>
     </g>
     <g id="text_12">
      <!-- 1 -->
      <g style="fill: #262626" transform="translate(32.031406 169.228198) scale(0.11 -0.11)">
       <use xlink:href="#DejaVuSans-31"/>
      </g>
     </g>
    </g>
    <g id="ytick_5">
     <g id="line2d_12">
      <path d="M 48.530156 90.122408 
L 486.110156 90.122408 
" clip-path="url(#pa190dd1a6e)" style="fill: none; stroke: #cccccc; stroke-linecap: round"/>
     </g>
     <g id="text_13">
      <!-- 2 -->
      <g style="fill: #262626" transform="translate(32.031406 94.301548) scale(0.11 -0.11)">
       <use xlink:href="#DejaVuSans-32"/>
      </g>
     </g>
    </g>
    <g id="text_14">
     <!-- Parameter Value -->
     <g style="fill: #262626" transform="translate(16.318125 286.527187) rotate(-90) scale(0.12 -0.12)">
      <defs>
       <path id="DejaVuSans-50" d="M 1259 4147 
L 1259 2394 
L 2053 2394 
Q 2494 2394 2734 2622 
Q 2975 2850 2975 3272 
Q 2975 3691 2734 3919 
Q 2494 4147 2053 4147 
L 1259 4147 
z
M 628 4666 
L 2053 4666 
Q 2838 4666 3239 4311 
Q 3641 3956 3641 3272 
Q 3641 2581 3239 2228 
Q 2838 1875 2053 1875 
L 1259 1875 
L 1259 0 
L 628 0 
L 628 4666 
z
" transform="scale(0.015625)"/>
       <path id="DejaVuSans-61" d="M 2194 1759 
Q 1497 1759 1228 1600 
Q 959 1441 959 1056 
Q 959 750 1161 570 
Q 1363 391 1709 391 
Q 2188 391 2477 730 
Q 2766 1069 2766 1631 
L 2766 1759 
L 2194 1759 
z
M 3341 1997 
L 3341 0 
L 2766 0 
L 2766 531 
Q 2569 213 2275 61 
Q 1981 -91 1556 -91 
Q 1019 -91 701 211 
Q 384 513 384 1019 
Q 384 1609 779 1909 
Q 1175 2209 1959 2209 
L 2766 2209 
L 2766 2266 
Q 2766 2663 2505 2880 
Q 2244 3097 1772 3097 
Q 1472 3097 1187 3025 
Q 903 2953 641 2809 
L 641 3341 
Q 956 3463 1253 3523 
Q 1550 3584 1831 3584 
Q 2591 3584 2966 3190 
Q 3341 2797 3341 1997 
z
" transform="scale(0.015625)"/>
       <path id="DejaVuSans-72" d="M 2631 2963 
Q 2534 3019 2420 3045 
Q 2306 3072 2169 3072 
Q 1681 3072 1420 2755 
Q 1159 2438 1159 1844 
L 1159 0 
L 581 0 
L 581 3500 
L 1159 3500 
L 1159 2956 
Q 1341 3275 1631 3429 
Q 1922 3584 2338 3584 
Q 2397 3584 2469 3576 
Q 2541 3569 2628 3553 
L 2631 2963 
z
" transform="scale(0.015625)"/>
       <path id="DejaVuSans-6d" d="M 3328 2828 
Q 3544 3216 3844 3400 
Q 4144 3584 4550 3584 
Q 5097 3584 5394 3201 
Q 5691 2819 5691 2113 
L 5691 0 
L 5113 0 
L 5113 2094 
Q 5113 2597 4934 2840 
Q 4756 3084 4391 3084 
Q 3944 3084 3684 2787 
Q 3425 2491 3425 1978 
L 3425 0 
L 2847 0 
L 2847 2094 
Q 2847 2600 2669 2842 
Q 2491 3084 2119 3084 
Q 1678 3084 1418 2786 
Q 1159 2488 1159 1978 
L 1159 0 
L 581 0 
L 581 3500 
L 1159 3500 
L 1159 2956 
Q 1356 3278 1631 3431 
Q 1906 3584 2284 3584 
Q 2666 3584 2933 3390 
Q 3200 3197 3328 2828 
z
" transform="scale(0.015625)"/>
       <path id="DejaVuSans-65" d="M 3597 1894 
L 3597 1613 
L 953 1613 
Q 991 1019 1311 708 
Q 1631 397 2203 397 
Q 2534 397 2845 478 
Q 3156 559 3463 722 
L 3463 178 
Q 3153 47 2828 -22 
Q 2503 -91 2169 -91 
Q 1331 -91 842 396 
Q 353 884 353 1716 
Q 353 2575 817 3079 
Q 1281 3584 2069 3584 
Q 2775 3584 3186 3129 
Q 3597 2675 3597 1894 
z
M 3022 2063 
Q 3016 2534 2758 2815 
Q 2500 3097 2075 3097 
Q 1594 3097 1305 2825 
Q 1016 2553 972 2059 
L 3022 2063 
z
" transform="scale(0.015625)"/>
       <path id="DejaVuSans-74" d="M 1172 4494 
L 1172 3500 
L 2356 3500 
L 2356 3053 
L 1172 3053 
L 1172 1153 
Q 1172 725 1289 603 
Q 1406 481 1766 481 
L 2356 481 
L 2356 0 
L 1766 0 
Q 1100 0 847 248 
Q 594 497 594 1153 
L 594 3053 
L 172 3053 
L 172 3500 
L 594 3500 
L 594 4494 
L 1172 4494 
z
" transform="scale(0.015625)"/>
       <path id="DejaVuSans-20" transform="scale(0.015625)"/>
       <path id="DejaVuSans-56" d="M 1831 0 
L 50 4666 
L 709 4666 
L 2188 738 
L 3669 4666 
L 4325 4666 
L 2547 0 
L 1831 0 
z
" transform="scale(0.015625)"/>
       <path id="DejaVuSans-6c" d="M 603 4863 
L 1178 4863 
L 1178 0 
L 603 0 
L 603 4863 
z
" transform="scale(0.015625)"/>
       <path id="DejaVuSans-75" d="M 544 1381 
L 544 3500 
L 1119 3500 
L 1119 1403 
Q 1119 906 1312 657 
Q 1506 409 1894 409 
Q 2359 409 2629 706 
Q 2900 1003 2900 1516 
L 2900 3500 
L 3475 3500 
L 3475 0 
L 2900 0 
L 2900 538 
Q 2691 219 2414 64 
Q 2138 -91 1772 -91 
Q 1169 -91 856 284 
Q 544 659 544 1381 
z
M 1991 3584 
L 1991 3584 
z
" transform="scale(0.015625)"/>
      </defs>
      <use xlink:href="#DejaVuSans-50"/>
      <use xlink:href="#DejaVuSans-61" x="55.802734"/>
      <use xlink:href="#DejaVuSans-72" x="117.082031"/>
      <use xlink:href="#DejaVuSans-61" x="158.195312"/>
      <use xlink:href="#DejaVuSans-6d" x="219.474609"/>
      <use xlink:href="#DejaVuSans-65" x="316.886719"/>
      <use xlink:href="#DejaVuSans-74" x="378.410156"/>
      <use xlink:href="#DejaVuSans-65" x="417.619141"/>
      <use xlink:href="#DejaVuSans-72" x="479.142578"/>
      <use xlink:href="#DejaVuSans-20" x="520.255859"/>
      <use xlink:href="#DejaVuSans-56" x="552.042969"/>
      <use xlink:href="#DejaVuSans-61" x="612.701172"/>
      <use xlink:href="#DejaVuSans-6c" x="673.980469"/>
      <use xlink:href="#DejaVuSans-75" x="701.763672"/>
      <use xlink:href="#DejaVuSans-65" x="765.142578"/>
     </g>
    </g>
   </g>
   <g id="line2d_13">
    <path d="M 68.420156 430.645994 
L 71.742727 421.634386 
L 72.603623 419.350254 
L 72.634636 419.268348 
L 74.876902 413.418062 
L 76.572505 409.086208 
L 87.53732 382.93036 
L 92.057303 373.050504 
L 101.684157 353.667952 
L 107.217739 343.503533 
L 119.243759 323.714845 
L 127.977739 311.190492 
L 128.55913 310.408893 
L 129.595254 309.031612 
L 131.665427 306.339294 
L 131.71583 306.274725 
L 135.228966 301.886988 
L 136.507215 300.34498 
L 138.814691 297.63344 
L 144.167402 291.691102 
L 158.543728 277.977616 
L 162.70303 274.574678 
L 168.376872 270.308049 
L 169.00606 269.860594 
L 173.959988 266.509214 
L 174.532456 266.14111 
L 182.563886 261.373482 
L 186.77962 259.151931 
L 190.326518 257.422656 
L 190.715222 257.24063 
L 191.045901 257.086916 
L 196.313531 254.775723 
L 198.258205 253.985472 
L 200.197958 253.229513 
L 202.504855 252.371112 
L 206.284329 251.05611 
L 207.100032 250.786617 
L 209.203582 250.114197 
L 210.305543 249.774611 
L 214.516647 248.553511 
L 222.120836 246.631217 
L 229.089422 245.148457 
L 238.832902 243.438981 
L 241.84915 242.97992 
L 249.005938 241.993378 
L 249.114653 241.979339 
L 254.790183 241.277076 
L 255.107647 241.239333 
L 259.105034 240.774526 
L 259.878051 240.686489 
L 261.214565 240.535338 
L 263.672043 240.260057 
L 265.494399 240.057239 
L 269.369952 239.625979 
L 274.296966 239.068462 
L 281.412322 238.217237 
L 292.900698 236.625073 
L 294.762942 236.331201 
L 298.457287 235.711439 
L 299.388891 235.546852 
L 302.079475 235.051249 
L 303.926237 234.692704 
L 304.883936 234.50057 
L 307.268149 234.00299 
L 309.068415 233.608257 
L 311.803373 232.975446 
L 318.764772 231.167914 
L 320.534556 230.659546 
L 323.08898 229.888191 
L 324.044508 229.587853 
L 332.465703 226.642566 
L 340.215409 223.411278 
L 344.604698 221.335232 
L 353.806434 216.34519 
L 355.297709 215.449615 
L 362.176133 210.981595 
L 364.906654 209.04735 
L 369.978139 205.198774 
L 370.398241 204.864585 
L 373.803498 202.066048 
L 375.29458 200.789413 
L 378.85643 197.60983 
L 395.249906 180.437678 
L 401.669803 172.478562 
L 404.921006 168.161731 
L 405.72494 167.06374 
L 416.587374 150.990146 
L 421.484356 142.955846 
L 422.960453 140.433641 
L 426.648672 133.92306 
L 428.891436 129.81572 
L 437.253772 113.477419 
L 445.794984 95.046477 
L 446.075438 94.410227 
L 452.11041 80.224911 
L 452.239672 79.910613 
L 456.335195 69.719452 
L 463.782309 50.004721 
L 464.466498 48.114952 
L 466.220156 43.209631 
" clip-path="url(#pa190dd1a6e)" style="fill: none; stroke-dasharray: 5.55,2.4; stroke-dashoffset: 0; stroke: #2196f3; stroke-width: 1.5"/>
   </g>
   <g id="line2d_14">
    <path d="M 68.420156 420.007735 
L 75.985921 404.453525 
L 83.94989 388.589484 
L 92.057303 372.937836 
L 100.276018 357.544232 
L 109.036366 341.614425 
L 117.796729 326.142916 
L 124.5661 314.601614 
L 130.539077 304.852941 
L 135.715644 296.820807 
L 140.494039 289.813632 
L 144.874205 283.782134 
L 148.856181 278.66087 
L 152.838166 273.917215 
L 156.421946 269.997108 
L 160.005742 266.426444 
L 163.589522 263.192722 
L 167.173302 260.272826 
L 170.757082 257.643675 
L 174.532456 255.162992 
L 178.322846 252.944034 
L 182.304847 250.876109 
L 186.286816 249.046724 
L 190.715222 247.253762 
L 195.445368 245.571961 
L 201.02016 243.828444 
L 207.39133 242.062538 
L 214.558898 240.313365 
L 222.124663 238.695138 
L 230.885018 237.050291 
L 242.034563 235.196296 
L 256.36969 233.03608 
L 264.731865 231.98815 
L 271.899424 231.311354 
L 278.270598 230.936724 
L 283.845371 230.821517 
L 289.021946 230.920114 
L 294.596734 231.261103 
L 301.366097 231.912543 
L 320.534556 233.899706 
L 326.054376 234.163541 
L 330.832754 234.16305 
L 335.212944 233.928346 
L 339.194929 233.487783 
L 342.778716 232.885178 
L 346.362496 232.068918 
L 349.946284 231.021224 
L 353.530064 229.724355 
L 356.715639 228.348039 
L 359.901222 226.748333 
L 363.086821 224.91275 
L 366.272396 222.828844 
L 369.457979 220.484126 
L 372.643562 217.866123 
L 375.829169 214.962343 
L 379.014744 211.760631 
L 382.200327 208.260958 
L 385.784115 203.988732 
L 389.367895 199.386655 
L 393.34988 193.917763 
L 397.730061 187.510766 
L 402.508432 180.107722 
L 407.684999 171.669845 
L 413.657976 161.493024 
L 420.825552 148.81886 
L 430.780514 130.724323 
L 456.265194 84.184606 
L 463.830959 70.93234 
L 466.220156 66.850044 
L 466.220156 66.850044 
" clip-path="url(#pa190dd1a6e)" style="fill: none; stroke: #2196f3; stroke-width: 1.5; stroke-linecap: round"/>
   </g>
   <g id="line2d_15">
    <path d="M 68.420156 138.040155 
L 71.742727 140.187843 
L 72.603623 140.738381 
L 72.634636 140.758166 
L 74.876902 142.1804 
L 76.572505 143.244893 
L 87.53732 149.899814 
L 92.057303 152.527818 
L 101.684157 157.900655 
L 107.217739 160.850772 
L 119.243759 166.914237 
L 127.977739 171.019112 
L 128.55913 171.283435 
L 129.595254 171.751738 
L 131.665427 172.676807 
L 131.71583 172.69915 
L 135.228966 174.236116 
L 136.507215 174.785243 
L 138.814691 175.76289 
L 144.167402 177.963205 
L 158.543728 183.405466 
L 162.70303 184.85297 
L 168.376872 186.735624 
L 169.00606 186.937862 
L 173.959988 188.484617 
L 174.532456 188.658142 
L 182.563886 190.978784 
L 186.77962 192.111829 
L 190.326518 193.019744 
L 190.715222 193.116723 
L 191.045901 193.19883 
L 196.313531 194.458217 
L 198.258205 194.900036 
L 200.197958 195.328328 
L 202.504855 195.821537 
L 206.284329 196.591677 
L 207.100032 196.751715 
L 209.203582 197.154309 
L 210.305543 197.359392 
L 214.516647 198.106237 
L 222.120836 199.306812 
L 229.089422 200.239701 
L 238.832902 201.275767 
L 241.84915 201.533083 
L 249.005938 202.023662 
L 249.114653 202.029811 
L 254.790183 202.296819 
L 255.107647 202.308618 
L 259.105034 202.428779 
L 259.878051 202.445942 
L 261.214565 202.470965 
L 263.672043 202.501615 
L 265.494399 202.511494 
L 269.369952 202.496117 
L 274.296966 202.405105 
L 281.412322 202.132484 
L 292.900698 201.340144 
L 294.762942 201.170741 
L 298.457287 200.800855 
L 299.388891 200.700482 
L 302.079475 200.394527 
L 303.926237 200.170719 
L 304.883936 200.050227 
L 307.268149 199.73714 
L 309.068415 199.488323 
L 311.803373 199.089881 
L 318.764772 197.964491 
L 320.534556 197.652922 
L 323.08898 197.185022 
L 324.044508 197.004467 
L 332.465703 195.283115 
L 340.215409 193.492526 
L 344.604698 192.390578 
L 353.806434 189.87438 
L 355.297709 189.440318 
L 362.176133 187.343372 
L 364.906654 186.467719 
L 369.978139 184.776141 
L 370.398241 184.632212 
L 373.803498 183.444124 
L 375.29458 182.911855 
L 378.85643 181.610738 
L 395.249906 175.083294 
L 401.669803 172.285739 
L 404.921006 170.81717 
L 405.72494 170.448664 
L 416.587374 165.260727 
L 421.484356 162.794749 
L 422.960453 162.035935 
L 426.648672 160.108536 
L 428.891436 158.914592 
L 437.253772 154.316745 
L 445.794984 149.382645 
L 446.075438 149.216564 
L 452.11041 145.57975 
L 452.239672 145.500541 
L 456.335195 142.962375 
L 463.782309 138.205458 
L 464.466498 137.759263 
L 466.220156 136.608559 
" clip-path="url(#pa190dd1a6e)" style="fill: none; stroke-dasharray: 5.55,2.4; stroke-dashoffset: 0; stroke: #2cd3cb; stroke-width: 1.5"/>
   </g>
   <g id="line2d_16">
    <path d="M 68.420156 172.28042 
L 88.330064 176.009224 
L 108.239972 179.968179 
L 133.72466 185.295919 
L 154.829158 189.607189 
L 169.164294 192.311677 
L 181.110248 194.344348 
L 191.861604 195.954395 
L 201.816554 197.228632 
L 211.373307 198.235951 
L 220.930064 199.026304 
L 230.486821 199.595689 
L 240.04357 199.938194 
L 249.20213 200.045743 
L 257.962486 199.933299 
L 266.32466 199.611253 
L 274.296966 199.090234 
L 281.854386 198.384748 
L 289.420143 197.451659 
L 296.587727 196.340944 
L 303.926237 194.971849 
L 310.922854 193.447839 
L 318.090414 191.664374 
L 325.257982 189.654935 
L 332.465703 187.405485 
L 339.593117 184.955558 
L 347.158882 182.113116 
L 354.724647 179.028385 
L 362.688616 175.530123 
L 370.65257 171.788975 
L 379.014744 167.620335 
L 388.173304 162.802922 
L 398.128242 157.311387 
L 409.675992 150.682476 
L 426.400325 140.795608 
L 444.717445 129.746104 
L 457.857982 121.568884 
L 466.220156 116.198958 
L 466.220156 116.198958 
" clip-path="url(#pa190dd1a6e)" style="fill: none; stroke: #2cd3cb; stroke-width: 1.5; stroke-linecap: round"/>
   </g>
   <g id="line2d_17">
    <path d="M 68.420156 262.411384 
L 71.742727 262.407014 
L 72.603623 262.40581 
L 72.634636 262.405768 
L 74.876902 262.402483 
L 76.572505 262.39985 
L 87.53732 262.379255 
L 92.057303 262.368635 
L 101.684157 262.340739 
L 107.217739 262.320769 
L 119.243759 262.264516 
L 127.977739 262.209488 
L 128.55913 262.20531 
L 129.595254 262.197691 
L 131.665427 262.181774 
L 131.71583 262.181375 
L 135.228966 262.152071 
L 136.507215 262.140661 
L 138.814691 262.118981 
L 144.167402 262.062892 
L 158.543728 261.863283 
L 162.70303 261.789202 
L 168.376872 261.673761 
L 169.00606 261.659847 
L 173.959988 261.541849 
L 174.532456 261.527198 
L 182.563886 261.297232 
L 186.77962 261.156538 
L 190.326518 261.02635 
L 190.715222 261.011394 
L 191.045901 260.998559 
L 196.313531 260.77998 
L 198.258205 260.692289 
L 200.197958 260.600877 
L 202.504855 260.486892 
L 206.284329 260.287316 
L 207.100032 260.242096 
L 209.203582 260.121876 
L 210.305543 260.056798 
L 214.516647 259.794518 
L 222.120836 259.264929 
L 229.089422 258.715453 
L 238.832902 257.847875 
L 241.84915 257.557677 
L 249.005938 256.834078 
L 249.114653 256.822749 
L 254.790183 256.219878 
L 255.107647 256.185573 
L 259.105034 255.749566 
L 259.878051 255.664526 
L 261.214565 255.517077 
L 263.672043 255.244911 
L 265.494399 255.042558 
L 269.369952 254.612193 
L 274.296966 254.068746 
L 281.412322 253.301838 
L 292.900698 252.142854 
L 294.762942 251.967079 
L 298.457287 251.629854 
L 299.388891 251.547314 
L 302.079475 251.314767 
L 303.926237 251.160263 
L 304.883936 251.081802 
L 307.268149 250.891462 
L 309.068415 250.752489 
L 311.803373 250.549219 
L 318.764772 250.074446 
L 320.534556 249.96337 
L 323.08898 249.809772 
L 324.044508 249.754329 
L 332.465703 249.31123 
L 340.215409 248.970748 
L 344.604698 248.803703 
L 353.806434 248.506874 
L 355.297709 248.464931 
L 362.176133 248.29112 
L 364.906654 248.230371 
L 369.978139 248.128648 
L 370.398241 248.120828 
L 373.803498 248.060628 
L 375.29458 248.035977 
L 378.85643 247.981021 
L 395.249906 247.787834 
L 401.669803 247.733427 
L 404.921006 247.709455 
L 405.72494 247.703863 
L 416.587374 247.639745 
L 421.484356 247.616807 
L 422.960453 247.610509 
L 426.648672 247.595907 
L 428.891436 247.587765 
L 437.253772 247.561704 
L 445.794984 247.540918 
L 446.075438 247.54032 
L 452.11041 247.528577 
L 452.239672 247.528347 
L 456.335195 247.521512 
L 463.782309 247.51101 
L 464.466498 247.510157 
L 466.220156 247.508044 
" clip-path="url(#pa190dd1a6e)" style="fill: none; stroke-dasharray: 5.55,2.4; stroke-dashoffset: 0; stroke: #e69f00; stroke-width: 1.5"/>
   </g>
   <g id="line2d_18">
    <path d="M 68.420156 242.899629 
L 131.733668 249.387022 
L 166.775105 253.048261 
L 184.295839 254.653059 
L 198.630959 255.75124 
L 211.771512 256.539319 
L 226.106639 257.175486 
L 242.432767 257.67315 
L 260.351675 257.997391 
L 274.68681 258.04259 
L 287.429158 257.86558 
L 299.388891 257.477611 
L 312.515642 256.821084 
L 326.850777 255.877256 
L 343.575102 254.548596 
L 364.679609 252.636547 
L 418.83456 247.610248 
L 433.567884 246.566955 
L 455.468784 245.271359 
L 466.220156 244.652202 
L 466.220156 244.652202 
" clip-path="url(#pa190dd1a6e)" style="fill: none; stroke: #e69f00; stroke-width: 1.5; stroke-linecap: round"/>
   </g>
   <g id="patch_3">
    <path d="M 48.530156 450.017812 
L 48.530156 23.837812 
" style="fill: none; stroke: #cccccc; stroke-width: 1.25; stroke-linejoin: miter; stroke-linecap: square"/>
   </g>
   <g id="patch_4">
    <path d="M 486.110156 450.017812 
L 486.110156 23.837812 
" style="fill: none; stroke: #cccccc; stroke-width: 1.25; stroke-linejoin: miter; stroke-linecap: square"/>
   </g>
   <g id="patch_5">
    <path d="M 48.530156 450.017812 
L 486.110156 450.017812 
" style="fill: none; stroke: #cccccc; stroke-width: 1.25; stroke-linejoin: miter; stroke-linecap: square"/>
   </g>
   <g id="patch_6">
    <path d="M 48.530156 23.837812 
L 486.110156 23.837812 
" style="fill: none; stroke: #cccccc; stroke-width: 1.25; stroke-linejoin: miter; stroke-linecap: square"/>
   </g>
   <g id="text_15">
    <!-- Comparison of True vs. Predicted GPD Parameters: N=100 -->
    <g style="fill: #262626" transform="translate(37.629375 17.837812) scale(0.14 -0.14)">
     <defs>
      <path id="DejaVuSans-Bold-43" d="M 4288 256 
Q 3956 84 3597 -3 
Q 3238 -91 2847 -91 
Q 1681 -91 1000 561 
Q 319 1213 319 2328 
Q 319 3447 1000 4098 
Q 1681 4750 2847 4750 
Q 3238 4750 3597 4662 
Q 3956 4575 4288 4403 
L 4288 3438 
Q 3953 3666 3628 3772 
Q 3303 3878 2944 3878 
Q 2300 3878 1931 3465 
Q 1563 3053 1563 2328 
Q 1563 1606 1931 1193 
Q 2300 781 2944 781 
Q 3303 781 3628 887 
Q 3953 994 4288 1222 
L 4288 256 
z
" transform="scale(0.015625)"/>
      <path id="DejaVuSans-Bold-6f" d="M 2203 2784 
Q 1831 2784 1636 2517 
Q 1441 2250 1441 1747 
Q 1441 1244 1636 976 
Q 1831 709 2203 709 
Q 2569 709 2762 976 
Q 2956 1244 2956 1747 
Q 2956 2250 2762 2517 
Q 2569 2784 2203 2784 
z
M 2203 3584 
Q 3106 3584 3614 3096 
Q 4122 2609 4122 1747 
Q 4122 884 3614 396 
Q 3106 -91 2203 -91 
Q 1297 -91 786 396 
Q 275 884 275 1747 
Q 275 2609 786 3096 
Q 1297 3584 2203 3584 
z
" transform="scale(0.015625)"/>
      <path id="DejaVuSans-Bold-6d" d="M 3781 2919 
Q 3994 3244 4286 3414 
Q 4578 3584 4928 3584 
Q 5531 3584 5847 3212 
Q 6163 2841 6163 2131 
L 6163 0 
L 5038 0 
L 5038 1825 
Q 5041 1866 5042 1909 
Q 5044 1953 5044 2034 
Q 5044 2406 4934 2573 
Q 4825 2741 4581 2741 
Q 4263 2741 4089 2478 
Q 3916 2216 3909 1719 
L 3909 0 
L 2784 0 
L 2784 1825 
Q 2784 2406 2684 2573 
Q 2584 2741 2328 2741 
Q 2006 2741 1831 2477 
Q 1656 2213 1656 1722 
L 1656 0 
L 531 0 
L 531 3500 
L 1656 3500 
L 1656 2988 
Q 1863 3284 2130 3434 
Q 2397 3584 2719 3584 
Q 3081 3584 3359 3409 
Q 3638 3234 3781 2919 
z
" transform="scale(0.015625)"/>
      <path id="DejaVuSans-Bold-70" d="M 1656 506 
L 1656 -1331 
L 538 -1331 
L 538 3500 
L 1656 3500 
L 1656 2988 
Q 1888 3294 2169 3439 
Q 2450 3584 2816 3584 
Q 3463 3584 3878 3070 
Q 4294 2556 4294 1747 
Q 4294 938 3878 423 
Q 3463 -91 2816 -91 
Q 2450 -91 2169 54 
Q 1888 200 1656 506 
z
M 2400 2772 
Q 2041 2772 1848 2508 
Q 1656 2244 1656 1747 
Q 1656 1250 1848 986 
Q 2041 722 2400 722 
Q 2759 722 2948 984 
Q 3138 1247 3138 1747 
Q 3138 2247 2948 2509 
Q 2759 2772 2400 2772 
z
" transform="scale(0.015625)"/>
      <path id="DejaVuSans-Bold-61" d="M 2106 1575 
Q 1756 1575 1579 1456 
Q 1403 1338 1403 1106 
Q 1403 894 1545 773 
Q 1688 653 1941 653 
Q 2256 653 2472 879 
Q 2688 1106 2688 1447 
L 2688 1575 
L 2106 1575 
z
M 3816 1997 
L 3816 0 
L 2688 0 
L 2688 519 
Q 2463 200 2181 54 
Q 1900 -91 1497 -91 
Q 953 -91 614 226 
Q 275 544 275 1050 
Q 275 1666 698 1953 
Q 1122 2241 2028 2241 
L 2688 2241 
L 2688 2328 
Q 2688 2594 2478 2717 
Q 2269 2841 1825 2841 
Q 1466 2841 1156 2769 
Q 847 2697 581 2553 
L 581 3406 
Q 941 3494 1303 3539 
Q 1666 3584 2028 3584 
Q 2975 3584 3395 3211 
Q 3816 2838 3816 1997 
z
" transform="scale(0.015625)"/>
      <path id="DejaVuSans-Bold-72" d="M 3138 2547 
Q 2991 2616 2845 2648 
Q 2700 2681 2553 2681 
Q 2122 2681 1889 2404 
Q 1656 2128 1656 1613 
L 1656 0 
L 538 0 
L 538 3500 
L 1656 3500 
L 1656 2925 
Q 1872 3269 2151 3426 
Q 2431 3584 2822 3584 
Q 2878 3584 2943 3579 
Q 3009 3575 3134 3559 
L 3138 2547 
z
" transform="scale(0.015625)"/>
      <path id="DejaVuSans-Bold-69" d="M 538 3500 
L 1656 3500 
L 1656 0 
L 538 0 
L 538 3500 
z
M 538 4863 
L 1656 4863 
L 1656 3950 
L 538 3950 
L 538 4863 
z
" transform="scale(0.015625)"/>
      <path id="DejaVuSans-Bold-73" d="M 3272 3391 
L 3272 2541 
Q 2913 2691 2578 2766 
Q 2244 2841 1947 2841 
Q 1628 2841 1473 2761 
Q 1319 2681 1319 2516 
Q 1319 2381 1436 2309 
Q 1553 2238 1856 2203 
L 2053 2175 
Q 2913 2066 3209 1816 
Q 3506 1566 3506 1031 
Q 3506 472 3093 190 
Q 2681 -91 1863 -91 
Q 1516 -91 1145 -36 
Q 775 19 384 128 
L 384 978 
Q 719 816 1070 734 
Q 1422 653 1784 653 
Q 2113 653 2278 743 
Q 2444 834 2444 1013 
Q 2444 1163 2330 1236 
Q 2216 1309 1875 1350 
L 1678 1375 
Q 931 1469 631 1722 
Q 331 1975 331 2491 
Q 331 3047 712 3315 
Q 1094 3584 1881 3584 
Q 2191 3584 2531 3537 
Q 2872 3491 3272 3391 
z
" transform="scale(0.015625)"/>
      <path id="DejaVuSans-Bold-6e" d="M 4056 2131 
L 4056 0 
L 2931 0 
L 2931 347 
L 2931 1631 
Q 2931 2084 2911 2256 
Q 2891 2428 2841 2509 
Q 2775 2619 2662 2680 
Q 2550 2741 2406 2741 
Q 2056 2741 1856 2470 
Q 1656 2200 1656 1722 
L 1656 0 
L 538 0 
L 538 3500 
L 1656 3500 
L 1656 2988 
Q 1909 3294 2193 3439 
Q 2478 3584 2822 3584 
Q 3428 3584 3742 3212 
Q 4056 2841 4056 2131 
z
" transform="scale(0.015625)"/>
      <path id="DejaVuSans-Bold-20" transform="scale(0.015625)"/>
      <path id="DejaVuSans-Bold-66" d="M 2841 4863 
L 2841 4128 
L 2222 4128 
Q 1984 4128 1890 4042 
Q 1797 3956 1797 3744 
L 1797 3500 
L 2753 3500 
L 2753 2700 
L 1797 2700 
L 1797 0 
L 678 0 
L 678 2700 
L 122 2700 
L 122 3500 
L 678 3500 
L 678 3744 
Q 678 4316 997 4589 
Q 1316 4863 1984 4863 
L 2841 4863 
z
" transform="scale(0.015625)"/>
      <path id="DejaVuSans-Bold-54" d="M 31 4666 
L 4331 4666 
L 4331 3756 
L 2784 3756 
L 2784 0 
L 1581 0 
L 1581 3756 
L 31 3756 
L 31 4666 
z
" transform="scale(0.015625)"/>
      <path id="DejaVuSans-Bold-75" d="M 500 1363 
L 500 3500 
L 1625 3500 
L 1625 3150 
Q 1625 2866 1622 2436 
Q 1619 2006 1619 1863 
Q 1619 1441 1641 1255 
Q 1663 1069 1716 984 
Q 1784 875 1895 815 
Q 2006 756 2150 756 
Q 2500 756 2700 1025 
Q 2900 1294 2900 1772 
L 2900 3500 
L 4019 3500 
L 4019 0 
L 2900 0 
L 2900 506 
Q 2647 200 2364 54 
Q 2081 -91 1741 -91 
Q 1134 -91 817 281 
Q 500 653 500 1363 
z
" transform="scale(0.015625)"/>
      <path id="DejaVuSans-Bold-65" d="M 4031 1759 
L 4031 1441 
L 1416 1441 
Q 1456 1047 1700 850 
Q 1944 653 2381 653 
Q 2734 653 3104 758 
Q 3475 863 3866 1075 
L 3866 213 
Q 3469 63 3072 -14 
Q 2675 -91 2278 -91 
Q 1328 -91 801 392 
Q 275 875 275 1747 
Q 275 2603 792 3093 
Q 1309 3584 2216 3584 
Q 3041 3584 3536 3087 
Q 4031 2591 4031 1759 
z
M 2881 2131 
Q 2881 2450 2695 2645 
Q 2509 2841 2209 2841 
Q 1884 2841 1681 2658 
Q 1478 2475 1428 2131 
L 2881 2131 
z
" transform="scale(0.015625)"/>
      <path id="DejaVuSans-Bold-76" d="M 97 3500 
L 1216 3500 
L 2088 1081 
L 2956 3500 
L 4078 3500 
L 2700 0 
L 1472 0 
L 97 3500 
z
" transform="scale(0.015625)"/>
      <path id="DejaVuSans-Bold-2e" d="M 653 1209 
L 1778 1209 
L 1778 0 
L 653 0 
L 653 1209 
z
" transform="scale(0.015625)"/>
      <path id="DejaVuSans-Bold-50" d="M 588 4666 
L 2584 4666 
Q 3475 4666 3951 4270 
Q 4428 3875 4428 3144 
Q 4428 2409 3951 2014 
Q 3475 1619 2584 1619 
L 1791 1619 
L 1791 0 
L 588 0 
L 588 4666 
z
M 1791 3794 
L 1791 2491 
L 2456 2491 
Q 2806 2491 2997 2661 
Q 3188 2831 3188 3144 
Q 3188 3456 2997 3625 
Q 2806 3794 2456 3794 
L 1791 3794 
z
" transform="scale(0.015625)"/>
      <path id="DejaVuSans-Bold-64" d="M 2919 2988 
L 2919 4863 
L 4044 4863 
L 4044 0 
L 2919 0 
L 2919 506 
Q 2688 197 2409 53 
Q 2131 -91 1766 -91 
Q 1119 -91 703 423 
Q 288 938 288 1747 
Q 288 2556 703 3070 
Q 1119 3584 1766 3584 
Q 2128 3584 2408 3439 
Q 2688 3294 2919 2988 
z
M 2181 722 
Q 2541 722 2730 984 
Q 2919 1247 2919 1747 
Q 2919 2247 2730 2509 
Q 2541 2772 2181 2772 
Q 1825 2772 1636 2509 
Q 1447 2247 1447 1747 
Q 1447 1247 1636 984 
Q 1825 722 2181 722 
z
" transform="scale(0.015625)"/>
      <path id="DejaVuSans-Bold-63" d="M 3366 3391 
L 3366 2478 
Q 3138 2634 2908 2709 
Q 2678 2784 2431 2784 
Q 1963 2784 1702 2511 
Q 1441 2238 1441 1747 
Q 1441 1256 1702 982 
Q 1963 709 2431 709 
Q 2694 709 2930 787 
Q 3166 866 3366 1019 
L 3366 103 
Q 3103 6 2833 -42 
Q 2563 -91 2291 -91 
Q 1344 -91 809 395 
Q 275 881 275 1747 
Q 275 2613 809 3098 
Q 1344 3584 2291 3584 
Q 2566 3584 2833 3536 
Q 3100 3488 3366 3391 
z
" transform="scale(0.015625)"/>
      <path id="DejaVuSans-Bold-74" d="M 1759 4494 
L 1759 3500 
L 2913 3500 
L 2913 2700 
L 1759 2700 
L 1759 1216 
Q 1759 972 1856 886 
Q 1953 800 2241 800 
L 2816 800 
L 2816 0 
L 1856 0 
Q 1194 0 917 276 
Q 641 553 641 1216 
L 641 2700 
L 84 2700 
L 84 3500 
L 641 3500 
L 641 4494 
L 1759 4494 
z
" transform="scale(0.015625)"/>
      <path id="DejaVuSans-Bold-47" d="M 4781 347 
Q 4331 128 3847 18 
Q 3363 -91 2847 -91 
Q 1681 -91 1000 561 
Q 319 1213 319 2328 
Q 319 3456 1012 4103 
Q 1706 4750 2913 4750 
Q 3378 4750 3804 4662 
Q 4231 4575 4609 4403 
L 4609 3438 
Q 4219 3659 3833 3768 
Q 3447 3878 3059 3878 
Q 2341 3878 1952 3476 
Q 1563 3075 1563 2328 
Q 1563 1588 1938 1184 
Q 2313 781 3003 781 
Q 3191 781 3352 804 
Q 3513 828 3641 878 
L 3641 1784 
L 2906 1784 
L 2906 2591 
L 4781 2591 
L 4781 347 
z
" transform="scale(0.015625)"/>
      <path id="DejaVuSans-Bold-44" d="M 1791 3756 
L 1791 909 
L 2222 909 
Q 2959 909 3348 1275 
Q 3738 1641 3738 2338 
Q 3738 3031 3350 3393 
Q 2963 3756 2222 3756 
L 1791 3756 
z
M 588 4666 
L 1856 4666 
Q 2919 4666 3439 4514 
Q 3959 4363 4331 4000 
Q 4659 3684 4818 3271 
Q 4978 2859 4978 2338 
Q 4978 1809 4818 1395 
Q 4659 981 4331 666 
Q 3956 303 3431 151 
Q 2906 0 1856 0 
L 588 0 
L 588 4666 
z
" transform="scale(0.015625)"/>
      <path id="DejaVuSans-Bold-3a" d="M 716 3500 
L 1844 3500 
L 1844 2291 
L 716 2291 
L 716 3500 
z
M 716 1209 
L 1844 1209 
L 1844 0 
L 716 0 
L 716 1209 
z
" transform="scale(0.015625)"/>
      <path id="DejaVuSans-Bold-4e" d="M 588 4666 
L 1931 4666 
L 3628 1466 
L 3628 4666 
L 4769 4666 
L 4769 0 
L 3425 0 
L 1728 3200 
L 1728 0 
L 588 0 
L 588 4666 
z
" transform="scale(0.015625)"/>
      <path id="DejaVuSans-Bold-3d" d="M 678 3084 
L 4684 3084 
L 4684 2350 
L 678 2350 
L 678 3084 
z
M 678 1663 
L 4684 1663 
L 4684 922 
L 678 922 
L 678 1663 
z
" transform="scale(0.015625)"/>
      <path id="DejaVuSans-Bold-31" d="M 750 831 
L 1813 831 
L 1813 3847 
L 722 3622 
L 722 4441 
L 1806 4666 
L 2950 4666 
L 2950 831 
L 4013 831 
L 4013 0 
L 750 0 
L 750 831 
z
" transform="scale(0.015625)"/>
      <path id="DejaVuSans-Bold-30" d="M 2944 2338 
Q 2944 3213 2780 3570 
Q 2616 3928 2228 3928 
Q 1841 3928 1675 3570 
Q 1509 3213 1509 2338 
Q 1509 1453 1675 1090 
Q 1841 728 2228 728 
Q 2613 728 2778 1090 
Q 2944 1453 2944 2338 
z
M 4147 2328 
Q 4147 1169 3647 539 
Q 3147 -91 2228 -91 
Q 1306 -91 806 539 
Q 306 1169 306 2328 
Q 306 3491 806 4120 
Q 1306 4750 2228 4750 
Q 3147 4750 3647 4120 
Q 4147 3491 4147 2328 
z
" transform="scale(0.015625)"/>
     </defs>
     <use xlink:href="#DejaVuSans-Bold-43"/>
     <use xlink:href="#DejaVuSans-Bold-6f" x="73.388672"/>
     <use xlink:href="#DejaVuSans-Bold-6d" x="142.089844"/>
     <use xlink:href="#DejaVuSans-Bold-70" x="246.289062"/>
     <use xlink:href="#DejaVuSans-Bold-61" x="317.871094"/>
     <use xlink:href="#DejaVuSans-Bold-72" x="385.351562"/>
     <use xlink:href="#DejaVuSans-Bold-69" x="434.667969"/>
     <use xlink:href="#DejaVuSans-Bold-73" x="468.945312"/>
     <use xlink:href="#DejaVuSans-Bold-6f" x="528.466797"/>
     <use xlink:href="#DejaVuSans-Bold-6e" x="597.167969"/>
     <use xlink:href="#DejaVuSans-Bold-20" x="668.359375"/>
     <use xlink:href="#DejaVuSans-Bold-6f" x="703.173828"/>
     <use xlink:href="#DejaVuSans-Bold-66" x="771.875"/>
     <use xlink:href="#DejaVuSans-Bold-20" x="815.380859"/>
     <use xlink:href="#DejaVuSans-Bold-54" x="850.195312"/>
     <use xlink:href="#DejaVuSans-Bold-72" x="907.408203"/>
     <use xlink:href="#DejaVuSans-Bold-75" x="956.724609"/>
     <use xlink:href="#DejaVuSans-Bold-65" x="1027.916016"/>
     <use xlink:href="#DejaVuSans-Bold-20" x="1095.738281"/>
     <use xlink:href="#DejaVuSans-Bold-76" x="1130.552734"/>
     <use xlink:href="#DejaVuSans-Bold-73" x="1195.738281"/>
     <use xlink:href="#DejaVuSans-Bold-2e" x="1255.259766"/>
     <use xlink:href="#DejaVuSans-Bold-20" x="1293.248047"/>
     <use xlink:href="#DejaVuSans-Bold-50" x="1328.0625"/>
     <use xlink:href="#DejaVuSans-Bold-72" x="1401.353516"/>
     <use xlink:href="#DejaVuSans-Bold-65" x="1450.669922"/>
     <use xlink:href="#DejaVuSans-Bold-64" x="1518.492188"/>
     <use xlink:href="#DejaVuSans-Bold-69" x="1590.074219"/>
     <use xlink:href="#DejaVuSans-Bold-63" x="1624.351562"/>
     <use xlink:href="#DejaVuSans-Bold-74" x="1683.628906"/>
     <use xlink:href="#DejaVuSans-Bold-65" x="1731.431641"/>
     <use xlink:href="#DejaVuSans-Bold-64" x="1799.253906"/>
     <use xlink:href="#DejaVuSans-Bold-20" x="1870.835938"/>
     <use xlink:href="#DejaVuSans-Bold-47" x="1905.650391"/>
     <use xlink:href="#DejaVuSans-Bold-50" x="1987.730469"/>
     <use xlink:href="#DejaVuSans-Bold-44" x="2061.021484"/>
     <use xlink:href="#DejaVuSans-Bold-20" x="2144.029297"/>
     <use xlink:href="#DejaVuSans-Bold-50" x="2178.84375"/>
     <use xlink:href="#DejaVuSans-Bold-61" x="2249.509766"/>
     <use xlink:href="#DejaVuSans-Bold-72" x="2316.990234"/>
     <use xlink:href="#DejaVuSans-Bold-61" x="2366.306641"/>
     <use xlink:href="#DejaVuSans-Bold-6d" x="2433.787109"/>
     <use xlink:href="#DejaVuSans-Bold-65" x="2537.986328"/>
     <use xlink:href="#DejaVuSans-Bold-74" x="2605.808594"/>
     <use xlink:href="#DejaVuSans-Bold-65" x="2653.611328"/>
     <use xlink:href="#DejaVuSans-Bold-72" x="2721.433594"/>
     <use xlink:href="#DejaVuSans-Bold-73" x="2770.75"/>
     <use xlink:href="#DejaVuSans-Bold-3a" x="2830.271484"/>
     <use xlink:href="#DejaVuSans-Bold-20" x="2870.261719"/>
     <use xlink:href="#DejaVuSans-Bold-4e" x="2905.076172"/>
     <use xlink:href="#DejaVuSans-Bold-3d" x="2988.767578"/>
     <use xlink:href="#DejaVuSans-Bold-31" x="3072.556641"/>
     <use xlink:href="#DejaVuSans-Bold-30" x="3142.136719"/>
     <use xlink:href="#DejaVuSans-Bold-30" x="3211.716797"/>
    </g>
   </g>
   <g id="legend_1">
    <g id="patch_7">
     <path d="M 55.530156 119.906562 
L 179.945781 119.906562 
Q 181.945781 119.906562 181.945781 117.906562 
L 181.945781 30.837812 
Q 181.945781 28.837812 179.945781 28.837812 
L 55.530156 28.837812 
Q 53.530156 28.837812 53.530156 30.837812 
L 53.530156 117.906562 
Q 53.530156 119.906562 55.530156 119.906562 
z
" style="fill: #ffffff; opacity: 0.8; stroke: #cccccc; stroke-linejoin: miter"/>
    </g>
    <g id="line2d_19">
     <path d="M 57.530156 36.93625 
L 67.530156 36.93625 
L 77.530156 36.93625 
" style="fill: none; stroke-dasharray: 5.55,2.4; stroke-dashoffset: 0; stroke: #2196f3; stroke-width: 1.5"/>
    </g>
    <g id="text_16">
     <!-- True Location -->
     <g style="fill: #262626" transform="translate(85.530156 40.43625) scale(0.1 -0.1)">
      <defs>
       <path id="DejaVuSans-54" d="M -19 4666 
L 3928 4666 
L 3928 4134 
L 2272 4134 
L 2272 0 
L 1638 0 
L 1638 4134 
L -19 4134 
L -19 4666 
z
" transform="scale(0.015625)"/>
       <path id="DejaVuSans-4c" d="M 628 4666 
L 1259 4666 
L 1259 531 
L 3531 531 
L 3531 0 
L 628 0 
L 628 4666 
z
" transform="scale(0.015625)"/>
       <path id="DejaVuSans-6f" d="M 1959 3097 
Q 1497 3097 1228 2736 
Q 959 2375 959 1747 
Q 959 1119 1226 758 
Q 1494 397 1959 397 
Q 2419 397 2687 759 
Q 2956 1122 2956 1747 
Q 2956 2369 2687 2733 
Q 2419 3097 1959 3097 
z
M 1959 3584 
Q 2709 3584 3137 3096 
Q 3566 2609 3566 1747 
Q 3566 888 3137 398 
Q 2709 -91 1959 -91 
Q 1206 -91 779 398 
Q 353 888 353 1747 
Q 353 2609 779 3096 
Q 1206 3584 1959 3584 
z
" transform="scale(0.015625)"/>
       <path id="DejaVuSans-63" d="M 3122 3366 
L 3122 2828 
Q 2878 2963 2633 3030 
Q 2388 3097 2138 3097 
Q 1578 3097 1268 2742 
Q 959 2388 959 1747 
Q 959 1106 1268 751 
Q 1578 397 2138 397 
Q 2388 397 2633 464 
Q 2878 531 3122 666 
L 3122 134 
Q 2881 22 2623 -34 
Q 2366 -91 2075 -91 
Q 1284 -91 818 406 
Q 353 903 353 1747 
Q 353 2603 823 3093 
Q 1294 3584 2113 3584 
Q 2378 3584 2631 3529 
Q 2884 3475 3122 3366 
z
" transform="scale(0.015625)"/>
       <path id="DejaVuSans-69" d="M 603 3500 
L 1178 3500 
L 1178 0 
L 603 0 
L 603 3500 
z
M 603 4863 
L 1178 4863 
L 1178 4134 
L 603 4134 
L 603 4863 
z
" transform="scale(0.015625)"/>
       <path id="DejaVuSans-6e" d="M 3513 2113 
L 3513 0 
L 2938 0 
L 2938 2094 
Q 2938 2591 2744 2837 
Q 2550 3084 2163 3084 
Q 1697 3084 1428 2787 
Q 1159 2491 1159 1978 
L 1159 0 
L 581 0 
L 581 3500 
L 1159 3500 
L 1159 2956 
Q 1366 3272 1645 3428 
Q 1925 3584 2291 3584 
Q 2894 3584 3203 3211 
Q 3513 2838 3513 2113 
z
" transform="scale(0.015625)"/>
      </defs>
      <use xlink:href="#DejaVuSans-54"/>
      <use xlink:href="#DejaVuSans-72" x="46.333984"/>
      <use xlink:href="#DejaVuSans-75" x="87.447266"/>
      <use xlink:href="#DejaVuSans-65" x="150.826172"/>
      <use xlink:href="#DejaVuSans-20" x="212.349609"/>
      <use xlink:href="#DejaVuSans-4c" x="244.136719"/>
      <use xlink:href="#DejaVuSans-6f" x="298.099609"/>
      <use xlink:href="#DejaVuSans-63" x="359.28125"/>
      <use xlink:href="#DejaVuSans-61" x="414.261719"/>
      <use xlink:href="#DejaVuSans-74" x="475.541016"/>
      <use xlink:href="#DejaVuSans-69" x="514.75"/>
      <use xlink:href="#DejaVuSans-6f" x="542.533203"/>
      <use xlink:href="#DejaVuSans-6e" x="603.714844"/>
     </g>
    </g>
    <g id="line2d_20">
     <path d="M 57.530156 51.614375 
L 67.530156 51.614375 
L 77.530156 51.614375 
" style="fill: none; stroke: #2196f3; stroke-width: 1.5; stroke-linecap: round"/>
    </g>
    <g id="text_17">
     <!-- Predicted Location -->
     <g style="fill: #262626" transform="translate(85.530156 55.114375) scale(0.1 -0.1)">
      <defs>
       <path id="DejaVuSans-64" d="M 2906 2969 
L 2906 4863 
L 3481 4863 
L 3481 0 
L 2906 0 
L 2906 525 
Q 2725 213 2448 61 
Q 2172 -91 1784 -91 
Q 1150 -91 751 415 
Q 353 922 353 1747 
Q 353 2572 751 3078 
Q 1150 3584 1784 3584 
Q 2172 3584 2448 3432 
Q 2725 3281 2906 2969 
z
M 947 1747 
Q 947 1113 1208 752 
Q 1469 391 1925 391 
Q 2381 391 2643 752 
Q 2906 1113 2906 1747 
Q 2906 2381 2643 2742 
Q 2381 3103 1925 3103 
Q 1469 3103 1208 2742 
Q 947 2381 947 1747 
z
" transform="scale(0.015625)"/>
      </defs>
      <use xlink:href="#DejaVuSans-50"/>
      <use xlink:href="#DejaVuSans-72" x="58.552734"/>
      <use xlink:href="#DejaVuSans-65" x="97.416016"/>
      <use xlink:href="#DejaVuSans-64" x="158.939453"/>
      <use xlink:href="#DejaVuSans-69" x="222.416016"/>
      <use xlink:href="#DejaVuSans-63" x="250.199219"/>
      <use xlink:href="#DejaVuSans-74" x="305.179688"/>
      <use xlink:href="#DejaVuSans-65" x="344.388672"/>
      <use xlink:href="#DejaVuSans-64" x="405.912109"/>
      <use xlink:href="#DejaVuSans-20" x="469.388672"/>
      <use xlink:href="#DejaVuSans-4c" x="501.175781"/>
      <use xlink:href="#DejaVuSans-6f" x="555.138672"/>
      <use xlink:href="#DejaVuSans-63" x="616.320312"/>
      <use xlink:href="#DejaVuSans-61" x="671.300781"/>
      <use xlink:href="#DejaVuSans-74" x="732.580078"/>
      <use xlink:href="#DejaVuSans-69" x="771.789062"/>
      <use xlink:href="#DejaVuSans-6f" x="799.572266"/>
      <use xlink:href="#DejaVuSans-6e" x="860.753906"/>
     </g>
    </g>
    <g id="line2d_21">
     <path d="M 57.530156 66.2925 
L 67.530156 66.2925 
L 77.530156 66.2925 
" style="fill: none; stroke-dasharray: 5.55,2.4; stroke-dashoffset: 0; stroke: #2cd3cb; stroke-width: 1.5"/>
    </g>
    <g id="text_18">
     <!-- True Scale -->
     <g style="fill: #262626" transform="translate(85.530156 69.7925) scale(0.1 -0.1)">
      <defs>
       <path id="DejaVuSans-53" d="M 3425 4513 
L 3425 3897 
Q 3066 4069 2747 4153 
Q 2428 4238 2131 4238 
Q 1616 4238 1336 4038 
Q 1056 3838 1056 3469 
Q 1056 3159 1242 3001 
Q 1428 2844 1947 2747 
L 2328 2669 
Q 3034 2534 3370 2195 
Q 3706 1856 3706 1288 
Q 3706 609 3251 259 
Q 2797 -91 1919 -91 
Q 1588 -91 1214 -16 
Q 841 59 441 206 
L 441 856 
Q 825 641 1194 531 
Q 1563 422 1919 422 
Q 2459 422 2753 634 
Q 3047 847 3047 1241 
Q 3047 1584 2836 1778 
Q 2625 1972 2144 2069 
L 1759 2144 
Q 1053 2284 737 2584 
Q 422 2884 422 3419 
Q 422 4038 858 4394 
Q 1294 4750 2059 4750 
Q 2388 4750 2728 4690 
Q 3069 4631 3425 4513 
z
" transform="scale(0.015625)"/>
      </defs>
      <use xlink:href="#DejaVuSans-54"/>
      <use xlink:href="#DejaVuSans-72" x="46.333984"/>
      <use xlink:href="#DejaVuSans-75" x="87.447266"/>
      <use xlink:href="#DejaVuSans-65" x="150.826172"/>
      <use xlink:href="#DejaVuSans-20" x="212.349609"/>
      <use xlink:href="#DejaVuSans-53" x="244.136719"/>
      <use xlink:href="#DejaVuSans-63" x="307.613281"/>
      <use xlink:href="#DejaVuSans-61" x="362.59375"/>
      <use xlink:href="#DejaVuSans-6c" x="423.873047"/>
      <use xlink:href="#DejaVuSans-65" x="451.65625"/>
     </g>
    </g>
    <g id="line2d_22">
     <path d="M 57.530156 80.970625 
L 67.530156 80.970625 
L 77.530156 80.970625 
" style="fill: none; stroke: #2cd3cb; stroke-width: 1.5; stroke-linecap: round"/>
    </g>
    <g id="text_19">
     <!-- Predicted Scale -->
     <g style="fill: #262626" transform="translate(85.530156 84.470625) scale(0.1 -0.1)">
      <use xlink:href="#DejaVuSans-50"/>
      <use xlink:href="#DejaVuSans-72" x="58.552734"/>
      <use xlink:href="#DejaVuSans-65" x="97.416016"/>
      <use xlink:href="#DejaVuSans-64" x="158.939453"/>
      <use xlink:href="#DejaVuSans-69" x="222.416016"/>
      <use xlink:href="#DejaVuSans-63" x="250.199219"/>
      <use xlink:href="#DejaVuSans-74" x="305.179688"/>
      <use xlink:href="#DejaVuSans-65" x="344.388672"/>
      <use xlink:href="#DejaVuSans-64" x="405.912109"/>
      <use xlink:href="#DejaVuSans-20" x="469.388672"/>
      <use xlink:href="#DejaVuSans-53" x="501.175781"/>
      <use xlink:href="#DejaVuSans-63" x="564.652344"/>
      <use xlink:href="#DejaVuSans-61" x="619.632812"/>
      <use xlink:href="#DejaVuSans-6c" x="680.912109"/>
      <use xlink:href="#DejaVuSans-65" x="708.695312"/>
     </g>
    </g>
    <g id="line2d_23">
     <path d="M 57.530156 95.64875 
L 67.530156 95.64875 
L 77.530156 95.64875 
" style="fill: none; stroke-dasharray: 5.55,2.4; stroke-dashoffset: 0; stroke: #e69f00; stroke-width: 1.5"/>
    </g>
    <g id="text_20">
     <!-- True Shape -->
     <g style="fill: #262626" transform="translate(85.530156 99.14875) scale(0.1 -0.1)">
      <defs>
       <path id="DejaVuSans-68" d="M 3513 2113 
L 3513 0 
L 2938 0 
L 2938 2094 
Q 2938 2591 2744 2837 
Q 2550 3084 2163 3084 
Q 1697 3084 1428 2787 
Q 1159 2491 1159 1978 
L 1159 0 
L 581 0 
L 581 4863 
L 1159 4863 
L 1159 2956 
Q 1366 3272 1645 3428 
Q 1925 3584 2291 3584 
Q 2894 3584 3203 3211 
Q 3513 2838 3513 2113 
z
" transform="scale(0.015625)"/>
       <path id="DejaVuSans-70" d="M 1159 525 
L 1159 -1331 
L 581 -1331 
L 581 3500 
L 1159 3500 
L 1159 2969 
Q 1341 3281 1617 3432 
Q 1894 3584 2278 3584 
Q 2916 3584 3314 3078 
Q 3713 2572 3713 1747 
Q 3713 922 3314 415 
Q 2916 -91 2278 -91 
Q 1894 -91 1617 61 
Q 1341 213 1159 525 
z
M 3116 1747 
Q 3116 2381 2855 2742 
Q 2594 3103 2138 3103 
Q 1681 3103 1420 2742 
Q 1159 2381 1159 1747 
Q 1159 1113 1420 752 
Q 1681 391 2138 391 
Q 2594 391 2855 752 
Q 3116 1113 3116 1747 
z
" transform="scale(0.015625)"/>
      </defs>
      <use xlink:href="#DejaVuSans-54"/>
      <use xlink:href="#DejaVuSans-72" x="46.333984"/>
      <use xlink:href="#DejaVuSans-75" x="87.447266"/>
      <use xlink:href="#DejaVuSans-65" x="150.826172"/>
      <use xlink:href="#DejaVuSans-20" x="212.349609"/>
      <use xlink:href="#DejaVuSans-53" x="244.136719"/>
      <use xlink:href="#DejaVuSans-68" x="307.613281"/>
      <use xlink:href="#DejaVuSans-61" x="370.992188"/>
      <use xlink:href="#DejaVuSans-70" x="432.271484"/>
      <use xlink:href="#DejaVuSans-65" x="495.748047"/>
     </g>
    </g>
    <g id="line2d_24">
     <path d="M 57.530156 110.326875 
L 67.530156 110.326875 
L 77.530156 110.326875 
" style="fill: none; stroke: #e69f00; stroke-width: 1.5; stroke-linecap: round"/>
    </g>
    <g id="text_21">
     <!-- Predicted Shape -->
     <g style="fill: #262626" transform="translate(85.530156 113.826875) scale(0.1 -0.1)">
      <use xlink:href="#DejaVuSans-50"/>
      <use xlink:href="#DejaVuSans-72" x="58.552734"/>
      <use xlink:href="#DejaVuSans-65" x="97.416016"/>
      <use xlink:href="#DejaVuSans-64" x="158.939453"/>
      <use xlink:href="#DejaVuSans-69" x="222.416016"/>
      <use xlink:href="#DejaVuSans-63" x="250.199219"/>
      <use xlink:href="#DejaVuSans-74" x="305.179688"/>
      <use xlink:href="#DejaVuSans-65" x="344.388672"/>
      <use xlink:href="#DejaVuSans-64" x="405.912109"/>
      <use xlink:href="#DejaVuSans-20" x="469.388672"/>
      <use xlink:href="#DejaVuSans-53" x="501.175781"/>
      <use xlink:href="#DejaVuSans-68" x="564.652344"/>
      <use xlink:href="#DejaVuSans-61" x="628.03125"/>
      <use xlink:href="#DejaVuSans-70" x="689.310547"/>
      <use xlink:href="#DejaVuSans-65" x="752.787109"/>
     </g>
    </g>
   </g>
  </g>
 </g>
 <defs>
  <clipPath id="pa190dd1a6e">
   <rect x="48.530156" y="23.837812" width="437.58" height="426.18"/>
  </clipPath>
 </defs>
</svg>
