<?xml version="1.0" encoding="utf-8" standalone="no"?>
<!DOCTYPE svg PUBLIC "-//W3C//DTD SVG 1.1//EN"
  "http://www.w3.org/Graphics/SVG/1.1/DTD/svg11.dtd">
<svg xmlns:xlink="http://www.w3.org/1999/xlink" width="499.340469pt" height="492.9775pt" viewBox="0 0 499.340469 492.9775" xmlns="http://www.w3.org/2000/svg" version="1.1">
 <metadata>
  <rdf:RDF xmlns:dc="http://purl.org/dc/elements/1.1/" xmlns:cc="http://creativecommons.org/ns#" xmlns:rdf="http://www.w3.org/1999/02/22-rdf-syntax-ns#">
   <cc:Work>
    <dc:type rdf:resource="http://purl.org/dc/dcmitype/StillImage"/>
    <dc:date>2025-02-17T20:52:43.786514</dc:date>
    <dc:format>image/svg+xml</dc:format>
    <dc:creator>
     <cc:Agent>
      <dc:title>Matplotlib v3.8.4, https://matplotlib.org/</dc:title>
     </cc:Agent>
    </dc:creator>
   </cc:Work>
  </rdf:RDF>
 </metadata>
 <defs>
  <style type="text/css">*{stroke-linejoin: round; stroke-linecap: butt}</style>
 </defs>
 <g id="figure_1">
  <g id="patch_1">
   <path d="M 0 492.9775 
L 499.340469 492.9775 
L 499.340469 0 
L 0 0 
z
" style="fill: #ffffff"/>
  </g>
  <g id="axes_1">
   <g id="patch_2">
    <path d="M 48.530156 450.017812 
L 486.110156 450.017812 
L 486.110156 23.837812 
L 48.530156 23.837812 
z
" style="fill: #ffffff"/>
   </g>
   <g id="matplotlib.axis_1">
    <g id="xtick_1">
     <g id="line2d_1">
      <path d="M 63.927666 450.017812 
L 63.927666 23.837812 
" clip-path="url(#pd57fdbc963)" style="fill: none; stroke: #cccccc; stroke-linecap: round"/>
     </g>
     <g id="text_1">
      <!-- −3 -->
      <g style="fill: #262626" transform="translate(55.819463 467.876094) scale(0.11 -0.11)">
       <defs>
        <path id="DejaVuSans-2212" d="M 678 2272 
L 4684 2272 
L 4684 1741 
L 678 1741 
L 678 2272 
z
" transform="scale(0.015625)"/>
        <path id="DejaVuSans-33" d="M 2597 2516 
Q 3050 2419 3304 2112 
Q 3559 1806 3559 1356 
Q 3559 666 3084 287 
Q 2609 -91 1734 -91 
Q 1441 -91 1130 -33 
Q 819 25 488 141 
L 488 750 
Q 750 597 1062 519 
Q 1375 441 1716 441 
Q 2309 441 2620 675 
Q 2931 909 2931 1356 
Q 2931 1769 2642 2001 
Q 2353 2234 1838 2234 
L 1294 2234 
L 1294 2753 
L 1863 2753 
Q 2328 2753 2575 2939 
Q 2822 3125 2822 3475 
Q 2822 3834 2567 4026 
Q 2313 4219 1838 4219 
Q 1578 4219 1281 4162 
Q 984 4106 628 3988 
L 628 4550 
Q 988 4650 1302 4700 
Q 1616 4750 1894 4750 
Q 2613 4750 3031 4423 
Q 3450 4097 3450 3541 
Q 3450 3153 3228 2886 
Q 3006 2619 2597 2516 
z
" transform="scale(0.015625)"/>
       </defs>
       <use xlink:href="#DejaVuSans-2212"/>
       <use xlink:href="#DejaVuSans-33" x="83.789062"/>
      </g>
     </g>
    </g>
    <g id="xtick_2">
     <g id="line2d_2">
      <path d="M 131.361146 450.017812 
L 131.361146 23.837812 
" clip-path="url(#pd57fdbc963)" style="fill: none; stroke: #cccccc; stroke-linecap: round"/>
     </g>
     <g id="text_2">
      <!-- −2 -->
      <g style="fill: #262626" transform="translate(123.252943 467.876094) scale(0.11 -0.11)">
       <defs>
        <path id="DejaVuSans-32" d="M 1228 531 
L 3431 531 
L 3431 0 
L 469 0 
L 469 531 
Q 828 903 1448 1529 
Q 2069 2156 2228 2338 
Q 2531 2678 2651 2914 
Q 2772 3150 2772 3378 
Q 2772 3750 2511 3984 
Q 2250 4219 1831 4219 
Q 1534 4219 1204 4116 
Q 875 4013 500 3803 
L 500 4441 
Q 881 4594 1212 4672 
Q 1544 4750 1819 4750 
Q 2544 4750 2975 4387 
Q 3406 4025 3406 3419 
Q 3406 3131 3298 2873 
Q 3191 2616 2906 2266 
Q 2828 2175 2409 1742 
Q 1991 1309 1228 531 
z
" transform="scale(0.015625)"/>
       </defs>
       <use xlink:href="#DejaVuSans-2212"/>
       <use xlink:href="#DejaVuSans-32" x="83.789062"/>
      </g>
     </g>
    </g>
    <g id="xtick_3">
     <g id="line2d_3">
      <path d="M 198.794627 450.017812 
L 198.794627 23.837812 
" clip-path="url(#pd57fdbc963)" style="fill: none; stroke: #cccccc; stroke-linecap: round"/>
     </g>
     <g id="text_3">
      <!-- −1 -->
      <g style="fill: #262626" transform="translate(190.686424 467.876094) scale(0.11 -0.11)">
       <defs>
        <path id="DejaVuSans-31" d="M 794 531 
L 1825 531 
L 1825 4091 
L 703 3866 
L 703 4441 
L 1819 4666 
L 2450 4666 
L 2450 531 
L 3481 531 
L 3481 0 
L 794 0 
L 794 531 
z
" transform="scale(0.015625)"/>
       </defs>
       <use xlink:href="#DejaVuSans-2212"/>
       <use xlink:href="#DejaVuSans-31" x="83.789062"/>
      </g>
     </g>
    </g>
    <g id="xtick_4">
     <g id="line2d_4">
      <path d="M 266.228107 450.017812 
L 266.228107 23.837812 
" clip-path="url(#pd57fdbc963)" style="fill: none; stroke: #cccccc; stroke-linecap: round"/>
     </g>
     <g id="text_4">
      <!-- 0 -->
      <g style="fill: #262626" transform="translate(262.728732 467.876094) scale(0.11 -0.11)">
       <defs>
        <path id="DejaVuSans-30" d="M 2034 4250 
Q 1547 4250 1301 3770 
Q 1056 3291 1056 2328 
Q 1056 1369 1301 889 
Q 1547 409 2034 409 
Q 2525 409 2770 889 
Q 3016 1369 3016 2328 
Q 3016 3291 2770 3770 
Q 2525 4250 2034 4250 
z
M 2034 4750 
Q 2819 4750 3233 4129 
Q 3647 3509 3647 2328 
Q 3647 1150 3233 529 
Q 2819 -91 2034 -91 
Q 1250 -91 836 529 
Q 422 1150 422 2328 
Q 422 3509 836 4129 
Q 1250 4750 2034 4750 
z
" transform="scale(0.015625)"/>
       </defs>
       <use xlink:href="#DejaVuSans-30"/>
      </g>
     </g>
    </g>
    <g id="xtick_5">
     <g id="line2d_5">
      <path d="M 333.661588 450.017812 
L 333.661588 23.837812 
" clip-path="url(#pd57fdbc963)" style="fill: none; stroke: #cccccc; stroke-linecap: round"/>
     </g>
     <g id="text_5">
      <!-- 1 -->
      <g style="fill: #262626" transform="translate(330.162213 467.876094) scale(0.11 -0.11)">
       <use xlink:href="#DejaVuSans-31"/>
      </g>
     </g>
    </g>
    <g id="xtick_6">
     <g id="line2d_6">
      <path d="M 401.095068 450.017812 
L 401.095068 23.837812 
" clip-path="url(#pd57fdbc963)" style="fill: none; stroke: #cccccc; stroke-linecap: round"/>
     </g>
     <g id="text_6">
      <!-- 2 -->
      <g style="fill: #262626" transform="translate(397.595693 467.876094) scale(0.11 -0.11)">
       <use xlink:href="#DejaVuSans-32"/>
      </g>
     </g>
    </g>
    <g id="xtick_7">
     <g id="line2d_7">
      <path d="M 468.528549 450.017812 
L 468.528549 23.837812 
" clip-path="url(#pd57fdbc963)" style="fill: none; stroke: #cccccc; stroke-linecap: round"/>
     </g>
     <g id="text_7">
      <!-- 3 -->
      <g style="fill: #262626" transform="translate(465.029174 467.876094) scale(0.11 -0.11)">
       <use xlink:href="#DejaVuSans-33"/>
      </g>
     </g>
    </g>
    <g id="text_8">
     <!-- X -->
     <g style="fill: #262626" transform="translate(263.210156 483.281875) scale(0.12 -0.12)">
      <defs>
       <path id="DejaVuSans-58" d="M 403 4666 
L 1081 4666 
L 2241 2931 
L 3406 4666 
L 4084 4666 
L 2584 2425 
L 4184 0 
L 3506 0 
L 2194 1984 
L 872 0 
L 191 0 
L 1856 2491 
L 403 4666 
z
" transform="scale(0.015625)"/>
      </defs>
      <use xlink:href="#DejaVuSans-58"/>
     </g>
    </g>
   </g>
   <g id="matplotlib.axis_2">
    <g id="ytick_1">
     <g id="line2d_8">
      <path d="M 48.530156 390.312011 
L 486.110156 390.312011 
" clip-path="url(#pd57fdbc963)" style="fill: none; stroke: #cccccc; stroke-linecap: round"/>
     </g>
     <g id="text_9">
      <!-- −2 -->
      <g style="fill: #262626" transform="translate(22.81375 394.491152) scale(0.11 -0.11)">
       <use xlink:href="#DejaVuSans-2212"/>
       <use xlink:href="#DejaVuSans-32" x="83.789062"/>
      </g>
     </g>
    </g>
    <g id="ytick_2">
     <g id="line2d_9">
      <path d="M 48.530156 316.271999 
L 486.110156 316.271999 
" clip-path="url(#pd57fdbc963)" style="fill: none; stroke: #cccccc; stroke-linecap: round"/>
     </g>
     <g id="text_10">
      <!-- −1 -->
      <g style="fill: #262626" transform="translate(22.81375 320.45114) scale(0.11 -0.11)">
       <use xlink:href="#DejaVuSans-2212"/>
       <use xlink:href="#DejaVuSans-31" x="83.789062"/>
      </g>
     </g>
    </g>
    <g id="ytick_3">
     <g id="line2d_10">
      <path d="M 48.530156 242.231987 
L 486.110156 242.231987 
" clip-path="url(#pd57fdbc963)" style="fill: none; stroke: #cccccc; stroke-linecap: round"/>
     </g>
     <g id="text_11">
      <!-- 0 -->
      <g style="fill: #262626" transform="translate(32.031406 246.411128) scale(0.11 -0.11)">
       <use xlink:href="#DejaVuSans-30"/>
      </g>
     </g>
    </g>
    <g id="ytick_4">
     <g id="line2d_11">
      <path d="M 48.530156 168.191975 
L 486.110156 168.191975 
" clip-path="url(#pd57fdbc963)" style="fill: none; stroke: #cccccc; stroke-linecap: round"/>
     </g>
     <g id="text_12">
      <!-- 1 -->
      <g style="fill: #262626" transform="translate(32.031406 172.371116) scale(0.11 -0.11)">
       <use xlink:href="#DejaVuSans-31"/>
      </g>
     </g>
    </g>
    <g id="ytick_5">
     <g id="line2d_12">
      <path d="M 48.530156 94.151963 
L 486.110156 94.151963 
" clip-path="url(#pd57fdbc963)" style="fill: none; stroke: #cccccc; stroke-linecap: round"/>
     </g>
     <g id="text_13">
      <!-- 2 -->
      <g style="fill: #262626" transform="translate(32.031406 98.331104) scale(0.11 -0.11)">
       <use xlink:href="#DejaVuSans-32"/>
      </g>
     </g>
    </g>
    <g id="text_14">
     <!-- Parameter Value -->
     <g style="fill: #262626" transform="translate(16.318125 286.527187) rotate(-90) scale(0.12 -0.12)">
      <defs>
       <path id="DejaVuSans-50" d="M 1259 4147 
L 1259 2394 
L 2053 2394 
Q 2494 2394 2734 2622 
Q 2975 2850 2975 3272 
Q 2975 3691 2734 3919 
Q 2494 4147 2053 4147 
L 1259 4147 
z
M 628 4666 
L 2053 4666 
Q 2838 4666 3239 4311 
Q 3641 3956 3641 3272 
Q 3641 2581 3239 2228 
Q 2838 1875 2053 1875 
L 1259 1875 
L 1259 0 
L 628 0 
L 628 4666 
z
" transform="scale(0.015625)"/>
       <path id="DejaVuSans-61" d="M 2194 1759 
Q 1497 1759 1228 1600 
Q 959 1441 959 1056 
Q 959 750 1161 570 
Q 1363 391 1709 391 
Q 2188 391 2477 730 
Q 2766 1069 2766 1631 
L 2766 1759 
L 2194 1759 
z
M 3341 1997 
L 3341 0 
L 2766 0 
L 2766 531 
Q 2569 213 2275 61 
Q 1981 -91 1556 -91 
Q 1019 -91 701 211 
Q 384 513 384 1019 
Q 384 1609 779 1909 
Q 1175 2209 1959 2209 
L 2766 2209 
L 2766 2266 
Q 2766 2663 2505 2880 
Q 2244 3097 1772 3097 
Q 1472 3097 1187 3025 
Q 903 2953 641 2809 
L 641 3341 
Q 956 3463 1253 3523 
Q 1550 3584 1831 3584 
Q 2591 3584 2966 3190 
Q 3341 2797 3341 1997 
z
" transform="scale(0.015625)"/>
       <path id="DejaVuSans-72" d="M 2631 2963 
Q 2534 3019 2420 3045 
Q 2306 3072 2169 3072 
Q 1681 3072 1420 2755 
Q 1159 2438 1159 1844 
L 1159 0 
L 581 0 
L 581 3500 
L 1159 3500 
L 1159 2956 
Q 1341 3275 1631 3429 
Q 1922 3584 2338 3584 
Q 2397 3584 2469 3576 
Q 2541 3569 2628 3553 
L 2631 2963 
z
" transform="scale(0.015625)"/>
       <path id="DejaVuSans-6d" d="M 3328 2828 
Q 3544 3216 3844 3400 
Q 4144 3584 4550 3584 
Q 5097 3584 5394 3201 
Q 5691 2819 5691 2113 
L 5691 0 
L 5113 0 
L 5113 2094 
Q 5113 2597 4934 2840 
Q 4756 3084 4391 3084 
Q 3944 3084 3684 2787 
Q 3425 2491 3425 1978 
L 3425 0 
L 2847 0 
L 2847 2094 
Q 2847 2600 2669 2842 
Q 2491 3084 2119 3084 
Q 1678 3084 1418 2786 
Q 1159 2488 1159 1978 
L 1159 0 
L 581 0 
L 581 3500 
L 1159 3500 
L 1159 2956 
Q 1356 3278 1631 3431 
Q 1906 3584 2284 3584 
Q 2666 3584 2933 3390 
Q 3200 3197 3328 2828 
z
" transform="scale(0.015625)"/>
       <path id="DejaVuSans-65" d="M 3597 1894 
L 3597 1613 
L 953 1613 
Q 991 1019 1311 708 
Q 1631 397 2203 397 
Q 2534 397 2845 478 
Q 3156 559 3463 722 
L 3463 178 
Q 3153 47 2828 -22 
Q 2503 -91 2169 -91 
Q 1331 -91 842 396 
Q 353 884 353 1716 
Q 353 2575 817 3079 
Q 1281 3584 2069 3584 
Q 2775 3584 3186 3129 
Q 3597 2675 3597 1894 
z
M 3022 2063 
Q 3016 2534 2758 2815 
Q 2500 3097 2075 3097 
Q 1594 3097 1305 2825 
Q 1016 2553 972 2059 
L 3022 2063 
z
" transform="scale(0.015625)"/>
       <path id="DejaVuSans-74" d="M 1172 4494 
L 1172 3500 
L 2356 3500 
L 2356 3053 
L 1172 3053 
L 1172 1153 
Q 1172 725 1289 603 
Q 1406 481 1766 481 
L 2356 481 
L 2356 0 
L 1766 0 
Q 1100 0 847 248 
Q 594 497 594 1153 
L 594 3053 
L 172 3053 
L 172 3500 
L 594 3500 
L 594 4494 
L 1172 4494 
z
" transform="scale(0.015625)"/>
       <path id="DejaVuSans-20" transform="scale(0.015625)"/>
       <path id="DejaVuSans-56" d="M 1831 0 
L 50 4666 
L 709 4666 
L 2188 738 
L 3669 4666 
L 4325 4666 
L 2547 0 
L 1831 0 
z
" transform="scale(0.015625)"/>
       <path id="DejaVuSans-6c" d="M 603 4863 
L 1178 4863 
L 1178 0 
L 603 0 
L 603 4863 
z
" transform="scale(0.015625)"/>
       <path id="DejaVuSans-75" d="M 544 1381 
L 544 3500 
L 1119 3500 
L 1119 1403 
Q 1119 906 1312 657 
Q 1506 409 1894 409 
Q 2359 409 2629 706 
Q 2900 1003 2900 1516 
L 2900 3500 
L 3475 3500 
L 3475 0 
L 2900 0 
L 2900 538 
Q 2691 219 2414 64 
Q 2138 -91 1772 -91 
Q 1169 -91 856 284 
Q 544 659 544 1381 
z
M 1991 3584 
L 1991 3584 
z
" transform="scale(0.015625)"/>
      </defs>
      <use xlink:href="#DejaVuSans-50"/>
      <use xlink:href="#DejaVuSans-61" x="55.802734"/>
      <use xlink:href="#DejaVuSans-72" x="117.082031"/>
      <use xlink:href="#DejaVuSans-61" x="158.195312"/>
      <use xlink:href="#DejaVuSans-6d" x="219.474609"/>
      <use xlink:href="#DejaVuSans-65" x="316.886719"/>
      <use xlink:href="#DejaVuSans-74" x="378.410156"/>
      <use xlink:href="#DejaVuSans-65" x="417.619141"/>
      <use xlink:href="#DejaVuSans-72" x="479.142578"/>
      <use xlink:href="#DejaVuSans-20" x="520.255859"/>
      <use xlink:href="#DejaVuSans-56" x="552.042969"/>
      <use xlink:href="#DejaVuSans-61" x="612.701172"/>
      <use xlink:href="#DejaVuSans-6c" x="673.980469"/>
      <use xlink:href="#DejaVuSans-75" x="701.763672"/>
      <use xlink:href="#DejaVuSans-65" x="765.142578"/>
     </g>
    </g>
   </g>
   <g id="line2d_13">
    <path d="M 68.420156 430.645994 
L 101.684157 354.578865 
L 107.217739 344.534725 
L 127.977739 312.604058 
L 128.55913 311.831708 
L 131.71583 307.746461 
L 136.507215 301.886886 
L 144.167402 293.335412 
L 158.543728 279.784203 
L 168.376872 272.205394 
L 173.959988 268.451512 
L 182.563886 263.376553 
L 186.77962 261.181291 
L 190.715222 259.292607 
L 191.045901 259.140712 
L 196.313531 256.856868 
L 207.100032 252.914967 
L 214.516647 250.708287 
L 222.120836 248.808739 
L 229.089422 247.343525 
L 238.832902 245.654278 
L 254.790183 243.517956 
L 255.107647 243.48066 
L 259.105034 243.021353 
L 261.214565 242.784995 
L 265.494399 242.312554 
L 298.457287 238.01818 
L 302.079475 237.365802 
L 303.926237 237.011499 
L 307.268149 236.329948 
L 323.08898 232.263841 
L 324.044508 231.967057 
L 332.465703 229.056622 
L 344.604698 223.812092 
L 353.806434 218.8811 
L 355.297709 217.996122 
L 364.906654 211.669617 
L 369.978139 207.866584 
L 370.398241 207.536349 
L 373.803498 204.770929 
L 395.249906 183.398495 
L 401.669803 175.533563 
L 405.72494 170.182817 
L 421.484356 146.360201 
L 426.648672 137.434304 
L 437.253772 117.230604 
L 445.794984 99.017764 
L 452.11041 84.371587 
L 463.782309 54.509005 
L 466.220156 47.794324 
" clip-path="url(#pd57fdbc963)" style="fill: none; stroke-dasharray: 5.55,2.4; stroke-dashoffset: 0; stroke: #2196f3; stroke-width: 1.5"/>
   </g>
   <g id="line2d_14">
    <path d="M 68.420156 396.289788 
L 72.003936 392.811819 
L 75.587716 389.02795 
L 79.569701 384.488094 
L 83.551686 379.620519 
L 87.931859 373.919092 
L 92.710254 367.324545 
L 97.886821 359.790531 
L 103.461593 351.288083 
L 109.832775 341.167667 
L 117.796729 328.075962 
L 137.706637 295.134944 
L 143.679614 285.775692 
L 148.856181 278.059244 
L 153.634568 271.346182 
L 157.616553 266.106598 
L 161.598529 261.220837 
L 165.580514 256.687477 
L 169.562483 252.501031 
L 173.544468 248.655984 
L 177.526444 245.146855 
L 181.110248 242.271278 
L 184.694028 239.659357 
L 188.277808 237.307062 
L 191.861604 235.21037 
L 195.445368 233.365303 
L 199.029164 231.76783 
L 202.612952 230.413783 
L 206.19674 229.293775 
L 209.78052 228.392404 
L 213.762504 227.628145 
L 217.744473 227.092779 
L 222.124663 226.742465 
L 226.504836 226.614239 
L 231.283215 226.693859 
L 236.45979 226.996478 
L 242.432767 227.564806 
L 250.396721 228.56741 
L 273.094023 231.581522 
L 279.067 232.078797 
L 284.243567 232.305892 
L 289.021946 232.307115 
L 293.800341 232.076849 
L 298.578711 231.60759 
L 303.35709 230.899139 
L 308.135468 229.951346 
L 312.913847 228.764038 
L 317.692225 227.337041 
L 322.470596 225.670187 
L 327.248974 223.763303 
L 332.027349 221.616229 
L 336.805739 219.228256 
L 341.58411 216.592811 
L 346.362496 213.699434 
L 351.140867 210.537674 
L 355.919237 207.097025 
L 360.697624 203.366976 
L 365.475994 199.337061 
L 370.254381 194.996771 
L 374.634563 190.736575 
L 379.412949 185.772158 
L 384.19132 180.470698 
L 388.96969 174.831461 
L 393.748077 168.854165 
L 398.526447 162.538598 
L 403.703014 155.314695 
L 408.879614 147.693125 
L 414.056181 139.673676 
L 419.232765 131.25596 
L 424.807537 121.74663 
L 430.780514 111.092852 
L 437.549869 98.555206 
L 446.310232 81.822564 
L 466.220156 43.209631 
L 466.220156 43.209631 
" clip-path="url(#pd57fdbc963)" style="fill: none; stroke: #2196f3; stroke-width: 1.5; stroke-linecap: round"/>
   </g>
   <g id="line2d_15">
    <path d="M 68.420156 141.502679 
L 101.684157 161.128163 
L 107.217739 164.043369 
L 127.977739 174.091384 
L 128.55913 174.352579 
L 131.71583 175.751541 
L 136.507215 177.812948 
L 144.167402 180.953304 
L 158.543728 186.331165 
L 168.376872 189.621916 
L 173.959988 191.350212 
L 182.563886 193.814865 
L 186.77962 194.934502 
L 190.715222 195.927504 
L 191.045901 196.00864 
L 196.313531 197.253124 
L 207.100032 199.519482 
L 214.516647 200.857975 
L 222.120836 202.044343 
L 229.089422 202.966193 
L 238.832902 203.989999 
L 254.790183 204.998968 
L 255.107647 205.010628 
L 259.105034 205.129367 
L 261.214565 205.171054 
L 265.494399 205.211103 
L 298.457287 203.520707 
L 302.079475 203.119187 
L 303.926237 202.898028 
L 307.268149 202.469579 
L 323.08898 199.947661 
L 324.044508 199.769243 
L 332.465703 198.06826 
L 344.604698 195.209952 
L 353.806434 192.723529 
L 355.297709 192.294604 
L 364.906654 189.357181 
L 369.978139 187.68562 
L 370.398241 187.543394 
L 373.803498 186.369365 
L 395.249906 178.107472 
L 401.669803 175.343022 
L 405.72494 173.527686 
L 421.484356 165.964342 
L 426.648672 163.309916 
L 437.253772 157.586662 
L 445.794984 152.710949 
L 452.11041 148.953056 
L 463.782309 141.666027 
L 466.220156 140.088025 
" clip-path="url(#pd57fdbc963)" style="fill: none; stroke-dasharray: 5.55,2.4; stroke-dashoffset: 0; stroke: #2cd3cb; stroke-width: 1.5"/>
   </g>
   <g id="line2d_16">
    <path d="M 68.420156 197.074922 
L 87.53367 197.143136 
L 110.230964 196.992485 
L 140.494039 196.549107 
L 232.477805 194.839439 
L 257.962486 194.162968 
L 279.863394 193.360904 
L 300.171507 192.397946 
L 340.389527 190.180066 
L 410.472401 186.31819 
L 434.364294 184.698881 
L 466.220156 182.295928 
L 466.220156 182.295928 
" clip-path="url(#pd57fdbc963)" style="fill: none; stroke: #2cd3cb; stroke-width: 1.5; stroke-linecap: round"/>
   </g>
   <g id="line2d_17">
    <path d="M 68.420156 264.402173 
L 101.684157 264.332364 
L 107.217739 264.31263 
L 127.977739 264.202666 
L 128.55913 264.198538 
L 131.71583 264.174886 
L 136.507215 264.134653 
L 144.167402 264.057805 
L 158.543728 263.860558 
L 168.376872 263.673278 
L 173.959988 263.542928 
L 182.563886 263.301205 
L 186.77962 263.162176 
L 190.715222 263.01875 
L 191.045901 263.006066 
L 196.313531 262.790075 
L 207.100032 262.258555 
L 214.516647 261.816274 
L 222.120836 261.292952 
L 229.089422 260.749978 
L 238.832902 259.892666 
L 254.790183 258.283934 
L 255.107647 258.250034 
L 259.105034 257.819187 
L 261.214565 257.58945 
L 265.494399 257.120546 
L 298.457287 253.748225 
L 302.079475 253.436867 
L 303.926237 253.284191 
L 307.268149 253.018571 
L 323.08898 251.949681 
L 324.044508 251.894894 
L 332.465703 251.457039 
L 344.604698 250.955518 
L 353.806434 250.662201 
L 355.297709 250.620754 
L 364.906654 250.38897 
L 369.978139 250.288451 
L 370.398241 250.280723 
L 373.803498 250.221236 
L 395.249906 249.951669 
L 401.669803 249.897906 
L 405.72494 249.868693 
L 421.484356 249.782666 
L 426.648672 249.762014 
L 437.253772 249.728215 
L 445.794984 249.707676 
L 452.11041 249.69548 
L 463.782309 249.678122 
L 466.220156 249.67519 
" clip-path="url(#pd57fdbc963)" style="fill: none; stroke-dasharray: 5.55,2.4; stroke-dashoffset: 0; stroke: #e69f00; stroke-width: 1.5"/>
   </g>
   <g id="line2d_18">
    <path d="M 68.420156 234.35989 
L 79.967906 236.125614 
L 93.904836 238.487607 
L 115.805737 242.460141 
L 140.494039 246.876755 
L 154.829158 249.215799 
L 167.173302 251.00521 
L 178.721051 252.452053 
L 189.472407 253.577932 
L 199.825558 254.440088 
L 209.78052 255.050291 
L 220.531867 255.485021 
L 232.079609 255.725933 
L 244.821949 255.76376 
L 259.555281 255.575148 
L 279.465189 255.077671 
L 328.045368 253.572154 
L 346.362496 252.756008 
L 363.086821 251.789304 
L 379.014744 250.647502 
L 396.535455 249.153486 
L 466.220156 242.782103 
L 466.220156 242.782103 
" clip-path="url(#pd57fdbc963)" style="fill: none; stroke: #e69f00; stroke-width: 1.5; stroke-linecap: round"/>
   </g>
   <g id="patch_3">
    <path d="M 48.530156 450.017812 
L 48.530156 23.837812 
" style="fill: none; stroke: #cccccc; stroke-width: 1.25; stroke-linejoin: miter; stroke-linecap: square"/>
   </g>
   <g id="patch_4">
    <path d="M 486.110156 450.017812 
L 486.110156 23.837812 
" style="fill: none; stroke: #cccccc; stroke-width: 1.25; stroke-linejoin: miter; stroke-linecap: square"/>
   </g>
   <g id="patch_5">
    <path d="M 48.530156 450.017812 
L 486.110156 450.017812 
" style="fill: none; stroke: #cccccc; stroke-width: 1.25; stroke-linejoin: miter; stroke-linecap: square"/>
   </g>
   <g id="patch_6">
    <path d="M 48.530156 23.837812 
L 486.110156 23.837812 
" style="fill: none; stroke: #cccccc; stroke-width: 1.25; stroke-linejoin: miter; stroke-linecap: square"/>
   </g>
   <g id="text_15">
    <!-- Comparison of True vs. Predicted GPD Parameters: N=50 -->
    <g style="fill: #262626" transform="translate(42.499844 17.837812) scale(0.14 -0.14)">
     <defs>
      <path id="DejaVuSans-Bold-43" d="M 4288 256 
Q 3956 84 3597 -3 
Q 3238 -91 2847 -91 
Q 1681 -91 1000 561 
Q 319 1213 319 2328 
Q 319 3447 1000 4098 
Q 1681 4750 2847 4750 
Q 3238 4750 3597 4662 
Q 3956 4575 4288 4403 
L 4288 3438 
Q 3953 3666 3628 3772 
Q 3303 3878 2944 3878 
Q 2300 3878 1931 3465 
Q 1563 3053 1563 2328 
Q 1563 1606 1931 1193 
Q 2300 781 2944 781 
Q 3303 781 3628 887 
Q 3953 994 4288 1222 
L 4288 256 
z
" transform="scale(0.015625)"/>
      <path id="DejaVuSans-Bold-6f" d="M 2203 2784 
Q 1831 2784 1636 2517 
Q 1441 2250 1441 1747 
Q 1441 1244 1636 976 
Q 1831 709 2203 709 
Q 2569 709 2762 976 
Q 2956 1244 2956 1747 
Q 2956 2250 2762 2517 
Q 2569 2784 2203 2784 
z
M 2203 3584 
Q 3106 3584 3614 3096 
Q 4122 2609 4122 1747 
Q 4122 884 3614 396 
Q 3106 -91 2203 -91 
Q 1297 -91 786 396 
Q 275 884 275 1747 
Q 275 2609 786 3096 
Q 1297 3584 2203 3584 
z
" transform="scale(0.015625)"/>
      <path id="DejaVuSans-Bold-6d" d="M 3781 2919 
Q 3994 3244 4286 3414 
Q 4578 3584 4928 3584 
Q 5531 3584 5847 3212 
Q 6163 2841 6163 2131 
L 6163 0 
L 5038 0 
L 5038 1825 
Q 5041 1866 5042 1909 
Q 5044 1953 5044 2034 
Q 5044 2406 4934 2573 
Q 4825 2741 4581 2741 
Q 4263 2741 4089 2478 
Q 3916 2216 3909 1719 
L 3909 0 
L 2784 0 
L 2784 1825 
Q 2784 2406 2684 2573 
Q 2584 2741 2328 2741 
Q 2006 2741 1831 2477 
Q 1656 2213 1656 1722 
L 1656 0 
L 531 0 
L 531 3500 
L 1656 3500 
L 1656 2988 
Q 1863 3284 2130 3434 
Q 2397 3584 2719 3584 
Q 3081 3584 3359 3409 
Q 3638 3234 3781 2919 
z
" transform="scale(0.015625)"/>
      <path id="DejaVuSans-Bold-70" d="M 1656 506 
L 1656 -1331 
L 538 -1331 
L 538 3500 
L 1656 3500 
L 1656 2988 
Q 1888 3294 2169 3439 
Q 2450 3584 2816 3584 
Q 3463 3584 3878 3070 
Q 4294 2556 4294 1747 
Q 4294 938 3878 423 
Q 3463 -91 2816 -91 
Q 2450 -91 2169 54 
Q 1888 200 1656 506 
z
M 2400 2772 
Q 2041 2772 1848 2508 
Q 1656 2244 1656 1747 
Q 1656 1250 1848 986 
Q 2041 722 2400 722 
Q 2759 722 2948 984 
Q 3138 1247 3138 1747 
Q 3138 2247 2948 2509 
Q 2759 2772 2400 2772 
z
" transform="scale(0.015625)"/>
      <path id="DejaVuSans-Bold-61" d="M 2106 1575 
Q 1756 1575 1579 1456 
Q 1403 1338 1403 1106 
Q 1403 894 1545 773 
Q 1688 653 1941 653 
Q 2256 653 2472 879 
Q 2688 1106 2688 1447 
L 2688 1575 
L 2106 1575 
z
M 3816 1997 
L 3816 0 
L 2688 0 
L 2688 519 
Q 2463 200 2181 54 
Q 1900 -91 1497 -91 
Q 953 -91 614 226 
Q 275 544 275 1050 
Q 275 1666 698 1953 
Q 1122 2241 2028 2241 
L 2688 2241 
L 2688 2328 
Q 2688 2594 2478 2717 
Q 2269 2841 1825 2841 
Q 1466 2841 1156 2769 
Q 847 2697 581 2553 
L 581 3406 
Q 941 3494 1303 3539 
Q 1666 3584 2028 3584 
Q 2975 3584 3395 3211 
Q 3816 2838 3816 1997 
z
" transform="scale(0.015625)"/>
      <path id="DejaVuSans-Bold-72" d="M 3138 2547 
Q 2991 2616 2845 2648 
Q 2700 2681 2553 2681 
Q 2122 2681 1889 2404 
Q 1656 2128 1656 1613 
L 1656 0 
L 538 0 
L 538 3500 
L 1656 3500 
L 1656 2925 
Q 1872 3269 2151 3426 
Q 2431 3584 2822 3584 
Q 2878 3584 2943 3579 
Q 3009 3575 3134 3559 
L 3138 2547 
z
" transform="scale(0.015625)"/>
      <path id="DejaVuSans-Bold-69" d="M 538 3500 
L 1656 3500 
L 1656 0 
L 538 0 
L 538 3500 
z
M 538 4863 
L 1656 4863 
L 1656 3950 
L 538 3950 
L 538 4863 
z
" transform="scale(0.015625)"/>
      <path id="DejaVuSans-Bold-73" d="M 3272 3391 
L 3272 2541 
Q 2913 2691 2578 2766 
Q 2244 2841 1947 2841 
Q 1628 2841 1473 2761 
Q 1319 2681 1319 2516 
Q 1319 2381 1436 2309 
Q 1553 2238 1856 2203 
L 2053 2175 
Q 2913 2066 3209 1816 
Q 3506 1566 3506 1031 
Q 3506 472 3093 190 
Q 2681 -91 1863 -91 
Q 1516 -91 1145 -36 
Q 775 19 384 128 
L 384 978 
Q 719 816 1070 734 
Q 1422 653 1784 653 
Q 2113 653 2278 743 
Q 2444 834 2444 1013 
Q 2444 1163 2330 1236 
Q 2216 1309 1875 1350 
L 1678 1375 
Q 931 1469 631 1722 
Q 331 1975 331 2491 
Q 331 3047 712 3315 
Q 1094 3584 1881 3584 
Q 2191 3584 2531 3537 
Q 2872 3491 3272 3391 
z
" transform="scale(0.015625)"/>
      <path id="DejaVuSans-Bold-6e" d="M 4056 2131 
L 4056 0 
L 2931 0 
L 2931 347 
L 2931 1631 
Q 2931 2084 2911 2256 
Q 2891 2428 2841 2509 
Q 2775 2619 2662 2680 
Q 2550 2741 2406 2741 
Q 2056 2741 1856 2470 
Q 1656 2200 1656 1722 
L 1656 0 
L 538 0 
L 538 3500 
L 1656 3500 
L 1656 2988 
Q 1909 3294 2193 3439 
Q 2478 3584 2822 3584 
Q 3428 3584 3742 3212 
Q 4056 2841 4056 2131 
z
" transform="scale(0.015625)"/>
      <path id="DejaVuSans-Bold-20" transform="scale(0.015625)"/>
      <path id="DejaVuSans-Bold-66" d="M 2841 4863 
L 2841 4128 
L 2222 4128 
Q 1984 4128 1890 4042 
Q 1797 3956 1797 3744 
L 1797 3500 
L 2753 3500 
L 2753 2700 
L 1797 2700 
L 1797 0 
L 678 0 
L 678 2700 
L 122 2700 
L 122 3500 
L 678 3500 
L 678 3744 
Q 678 4316 997 4589 
Q 1316 4863 1984 4863 
L 2841 4863 
z
" transform="scale(0.015625)"/>
      <path id="DejaVuSans-Bold-54" d="M 31 4666 
L 4331 4666 
L 4331 3756 
L 2784 3756 
L 2784 0 
L 1581 0 
L 1581 3756 
L 31 3756 
L 31 4666 
z
" transform="scale(0.015625)"/>
      <path id="DejaVuSans-Bold-75" d="M 500 1363 
L 500 3500 
L 1625 3500 
L 1625 3150 
Q 1625 2866 1622 2436 
Q 1619 2006 1619 1863 
Q 1619 1441 1641 1255 
Q 1663 1069 1716 984 
Q 1784 875 1895 815 
Q 2006 756 2150 756 
Q 2500 756 2700 1025 
Q 2900 1294 2900 1772 
L 2900 3500 
L 4019 3500 
L 4019 0 
L 2900 0 
L 2900 506 
Q 2647 200 2364 54 
Q 2081 -91 1741 -91 
Q 1134 -91 817 281 
Q 500 653 500 1363 
z
" transform="scale(0.015625)"/>
      <path id="DejaVuSans-Bold-65" d="M 4031 1759 
L 4031 1441 
L 1416 1441 
Q 1456 1047 1700 850 
Q 1944 653 2381 653 
Q 2734 653 3104 758 
Q 3475 863 3866 1075 
L 3866 213 
Q 3469 63 3072 -14 
Q 2675 -91 2278 -91 
Q 1328 -91 801 392 
Q 275 875 275 1747 
Q 275 2603 792 3093 
Q 1309 3584 2216 3584 
Q 3041 3584 3536 3087 
Q 4031 2591 4031 1759 
z
M 2881 2131 
Q 2881 2450 2695 2645 
Q 2509 2841 2209 2841 
Q 1884 2841 1681 2658 
Q 1478 2475 1428 2131 
L 2881 2131 
z
" transform="scale(0.015625)"/>
      <path id="DejaVuSans-Bold-76" d="M 97 3500 
L 1216 3500 
L 2088 1081 
L 2956 3500 
L 4078 3500 
L 2700 0 
L 1472 0 
L 97 3500 
z
" transform="scale(0.015625)"/>
      <path id="DejaVuSans-Bold-2e" d="M 653 1209 
L 1778 1209 
L 1778 0 
L 653 0 
L 653 1209 
z
" transform="scale(0.015625)"/>
      <path id="DejaVuSans-Bold-50" d="M 588 4666 
L 2584 4666 
Q 3475 4666 3951 4270 
Q 4428 3875 4428 3144 
Q 4428 2409 3951 2014 
Q 3475 1619 2584 1619 
L 1791 1619 
L 1791 0 
L 588 0 
L 588 4666 
z
M 1791 3794 
L 1791 2491 
L 2456 2491 
Q 2806 2491 2997 2661 
Q 3188 2831 3188 3144 
Q 3188 3456 2997 3625 
Q 2806 3794 2456 3794 
L 1791 3794 
z
" transform="scale(0.015625)"/>
      <path id="DejaVuSans-Bold-64" d="M 2919 2988 
L 2919 4863 
L 4044 4863 
L 4044 0 
L 2919 0 
L 2919 506 
Q 2688 197 2409 53 
Q 2131 -91 1766 -91 
Q 1119 -91 703 423 
Q 288 938 288 1747 
Q 288 2556 703 3070 
Q 1119 3584 1766 3584 
Q 2128 3584 2408 3439 
Q 2688 3294 2919 2988 
z
M 2181 722 
Q 2541 722 2730 984 
Q 2919 1247 2919 1747 
Q 2919 2247 2730 2509 
Q 2541 2772 2181 2772 
Q 1825 2772 1636 2509 
Q 1447 2247 1447 1747 
Q 1447 1247 1636 984 
Q 1825 722 2181 722 
z
" transform="scale(0.015625)"/>
      <path id="DejaVuSans-Bold-63" d="M 3366 3391 
L 3366 2478 
Q 3138 2634 2908 2709 
Q 2678 2784 2431 2784 
Q 1963 2784 1702 2511 
Q 1441 2238 1441 1747 
Q 1441 1256 1702 982 
Q 1963 709 2431 709 
Q 2694 709 2930 787 
Q 3166 866 3366 1019 
L 3366 103 
Q 3103 6 2833 -42 
Q 2563 -91 2291 -91 
Q 1344 -91 809 395 
Q 275 881 275 1747 
Q 275 2613 809 3098 
Q 1344 3584 2291 3584 
Q 2566 3584 2833 3536 
Q 3100 3488 3366 3391 
z
" transform="scale(0.015625)"/>
      <path id="DejaVuSans-Bold-74" d="M 1759 4494 
L 1759 3500 
L 2913 3500 
L 2913 2700 
L 1759 2700 
L 1759 1216 
Q 1759 972 1856 886 
Q 1953 800 2241 800 
L 2816 800 
L 2816 0 
L 1856 0 
Q 1194 0 917 276 
Q 641 553 641 1216 
L 641 2700 
L 84 2700 
L 84 3500 
L 641 3500 
L 641 4494 
L 1759 4494 
z
" transform="scale(0.015625)"/>
      <path id="DejaVuSans-Bold-47" d="M 4781 347 
Q 4331 128 3847 18 
Q 3363 -91 2847 -91 
Q 1681 -91 1000 561 
Q 319 1213 319 2328 
Q 319 3456 1012 4103 
Q 1706 4750 2913 4750 
Q 3378 4750 3804 4662 
Q 4231 4575 4609 4403 
L 4609 3438 
Q 4219 3659 3833 3768 
Q 3447 3878 3059 3878 
Q 2341 3878 1952 3476 
Q 1563 3075 1563 2328 
Q 1563 1588 1938 1184 
Q 2313 781 3003 781 
Q 3191 781 3352 804 
Q 3513 828 3641 878 
L 3641 1784 
L 2906 1784 
L 2906 2591 
L 4781 2591 
L 4781 347 
z
" transform="scale(0.015625)"/>
      <path id="DejaVuSans-Bold-44" d="M 1791 3756 
L 1791 909 
L 2222 909 
Q 2959 909 3348 1275 
Q 3738 1641 3738 2338 
Q 3738 3031 3350 3393 
Q 2963 3756 2222 3756 
L 1791 3756 
z
M 588 4666 
L 1856 4666 
Q 2919 4666 3439 4514 
Q 3959 4363 4331 4000 
Q 4659 3684 4818 3271 
Q 4978 2859 4978 2338 
Q 4978 1809 4818 1395 
Q 4659 981 4331 666 
Q 3956 303 3431 151 
Q 2906 0 1856 0 
L 588 0 
L 588 4666 
z
" transform="scale(0.015625)"/>
      <path id="DejaVuSans-Bold-3a" d="M 716 3500 
L 1844 3500 
L 1844 2291 
L 716 2291 
L 716 3500 
z
M 716 1209 
L 1844 1209 
L 1844 0 
L 716 0 
L 716 1209 
z
" transform="scale(0.015625)"/>
      <path id="DejaVuSans-Bold-4e" d="M 588 4666 
L 1931 4666 
L 3628 1466 
L 3628 4666 
L 4769 4666 
L 4769 0 
L 3425 0 
L 1728 3200 
L 1728 0 
L 588 0 
L 588 4666 
z
" transform="scale(0.015625)"/>
      <path id="DejaVuSans-Bold-3d" d="M 678 3084 
L 4684 3084 
L 4684 2350 
L 678 2350 
L 678 3084 
z
M 678 1663 
L 4684 1663 
L 4684 922 
L 678 922 
L 678 1663 
z
" transform="scale(0.015625)"/>
      <path id="DejaVuSans-Bold-35" d="M 678 4666 
L 3669 4666 
L 3669 3781 
L 1638 3781 
L 1638 3059 
Q 1775 3097 1914 3117 
Q 2053 3138 2203 3138 
Q 3056 3138 3531 2711 
Q 4006 2284 4006 1522 
Q 4006 766 3489 337 
Q 2972 -91 2053 -91 
Q 1656 -91 1267 -14 
Q 878 63 494 219 
L 494 1166 
Q 875 947 1217 837 
Q 1559 728 1863 728 
Q 2300 728 2551 942 
Q 2803 1156 2803 1522 
Q 2803 1891 2551 2103 
Q 2300 2316 1863 2316 
Q 1603 2316 1309 2248 
Q 1016 2181 678 2041 
L 678 4666 
z
" transform="scale(0.015625)"/>
      <path id="DejaVuSans-Bold-30" d="M 2944 2338 
Q 2944 3213 2780 3570 
Q 2616 3928 2228 3928 
Q 1841 3928 1675 3570 
Q 1509 3213 1509 2338 
Q 1509 1453 1675 1090 
Q 1841 728 2228 728 
Q 2613 728 2778 1090 
Q 2944 1453 2944 2338 
z
M 4147 2328 
Q 4147 1169 3647 539 
Q 3147 -91 2228 -91 
Q 1306 -91 806 539 
Q 306 1169 306 2328 
Q 306 3491 806 4120 
Q 1306 4750 2228 4750 
Q 3147 4750 3647 4120 
Q 4147 3491 4147 2328 
z
" transform="scale(0.015625)"/>
     </defs>
     <use xlink:href="#DejaVuSans-Bold-43"/>
     <use xlink:href="#DejaVuSans-Bold-6f" x="73.388672"/>
     <use xlink:href="#DejaVuSans-Bold-6d" x="142.089844"/>
     <use xlink:href="#DejaVuSans-Bold-70" x="246.289062"/>
     <use xlink:href="#DejaVuSans-Bold-61" x="317.871094"/>
     <use xlink:href="#DejaVuSans-Bold-72" x="385.351562"/>
     <use xlink:href="#DejaVuSans-Bold-69" x="434.667969"/>
     <use xlink:href="#DejaVuSans-Bold-73" x="468.945312"/>
     <use xlink:href="#DejaVuSans-Bold-6f" x="528.466797"/>
     <use xlink:href="#DejaVuSans-Bold-6e" x="597.167969"/>
     <use xlink:href="#DejaVuSans-Bold-20" x="668.359375"/>
     <use xlink:href="#DejaVuSans-Bold-6f" x="703.173828"/>
     <use xlink:href="#DejaVuSans-Bold-66" x="771.875"/>
     <use xlink:href="#DejaVuSans-Bold-20" x="815.380859"/>
     <use xlink:href="#DejaVuSans-Bold-54" x="850.195312"/>
     <use xlink:href="#DejaVuSans-Bold-72" x="907.408203"/>
     <use xlink:href="#DejaVuSans-Bold-75" x="956.724609"/>
     <use xlink:href="#DejaVuSans-Bold-65" x="1027.916016"/>
     <use xlink:href="#DejaVuSans-Bold-20" x="1095.738281"/>
     <use xlink:href="#DejaVuSans-Bold-76" x="1130.552734"/>
     <use xlink:href="#DejaVuSans-Bold-73" x="1195.738281"/>
     <use xlink:href="#DejaVuSans-Bold-2e" x="1255.259766"/>
     <use xlink:href="#DejaVuSans-Bold-20" x="1293.248047"/>
     <use xlink:href="#DejaVuSans-Bold-50" x="1328.0625"/>
     <use xlink:href="#DejaVuSans-Bold-72" x="1401.353516"/>
     <use xlink:href="#DejaVuSans-Bold-65" x="1450.669922"/>
     <use xlink:href="#DejaVuSans-Bold-64" x="1518.492188"/>
     <use xlink:href="#DejaVuSans-Bold-69" x="1590.074219"/>
     <use xlink:href="#DejaVuSans-Bold-63" x="1624.351562"/>
     <use xlink:href="#DejaVuSans-Bold-74" x="1683.628906"/>
     <use xlink:href="#DejaVuSans-Bold-65" x="1731.431641"/>
     <use xlink:href="#DejaVuSans-Bold-64" x="1799.253906"/>
     <use xlink:href="#DejaVuSans-Bold-20" x="1870.835938"/>
     <use xlink:href="#DejaVuSans-Bold-47" x="1905.650391"/>
     <use xlink:href="#DejaVuSans-Bold-50" x="1987.730469"/>
     <use xlink:href="#DejaVuSans-Bold-44" x="2061.021484"/>
     <use xlink:href="#DejaVuSans-Bold-20" x="2144.029297"/>
     <use xlink:href="#DejaVuSans-Bold-50" x="2178.84375"/>
     <use xlink:href="#DejaVuSans-Bold-61" x="2249.509766"/>
     <use xlink:href="#DejaVuSans-Bold-72" x="2316.990234"/>
     <use xlink:href="#DejaVuSans-Bold-61" x="2366.306641"/>
     <use xlink:href="#DejaVuSans-Bold-6d" x="2433.787109"/>
     <use xlink:href="#DejaVuSans-Bold-65" x="2537.986328"/>
     <use xlink:href="#DejaVuSans-Bold-74" x="2605.808594"/>
     <use xlink:href="#DejaVuSans-Bold-65" x="2653.611328"/>
     <use xlink:href="#DejaVuSans-Bold-72" x="2721.433594"/>
     <use xlink:href="#DejaVuSans-Bold-73" x="2770.75"/>
     <use xlink:href="#DejaVuSans-Bold-3a" x="2830.271484"/>
     <use xlink:href="#DejaVuSans-Bold-20" x="2870.261719"/>
     <use xlink:href="#DejaVuSans-Bold-4e" x="2905.076172"/>
     <use xlink:href="#DejaVuSans-Bold-3d" x="2988.767578"/>
     <use xlink:href="#DejaVuSans-Bold-35" x="3072.556641"/>
     <use xlink:href="#DejaVuSans-Bold-30" x="3142.136719"/>
    </g>
   </g>
   <g id="legend_1">
    <g id="patch_7">
     <path d="M 55.530156 119.906562 
L 179.945781 119.906562 
Q 181.945781 119.906562 181.945781 117.906562 
L 181.945781 30.837812 
Q 181.945781 28.837812 179.945781 28.837812 
L 55.530156 28.837812 
Q 53.530156 28.837812 53.530156 30.837812 
L 53.530156 117.906562 
Q 53.530156 119.906562 55.530156 119.906562 
z
" style="fill: #ffffff; opacity: 0.8; stroke: #cccccc; stroke-linejoin: miter"/>
    </g>
    <g id="line2d_19">
     <path d="M 57.530156 36.93625 
L 67.530156 36.93625 
L 77.530156 36.93625 
" style="fill: none; stroke-dasharray: 5.55,2.4; stroke-dashoffset: 0; stroke: #2196f3; stroke-width: 1.5"/>
    </g>
    <g id="text_16">
     <!-- True Location -->
     <g style="fill: #262626" transform="translate(85.530156 40.43625) scale(0.1 -0.1)">
      <defs>
       <path id="DejaVuSans-54" d="M -19 4666 
L 3928 4666 
L 3928 4134 
L 2272 4134 
L 2272 0 
L 1638 0 
L 1638 4134 
L -19 4134 
L -19 4666 
z
" transform="scale(0.015625)"/>
       <path id="DejaVuSans-4c" d="M 628 4666 
L 1259 4666 
L 1259 531 
L 3531 531 
L 3531 0 
L 628 0 
L 628 4666 
z
" transform="scale(0.015625)"/>
       <path id="DejaVuSans-6f" d="M 1959 3097 
Q 1497 3097 1228 2736 
Q 959 2375 959 1747 
Q 959 1119 1226 758 
Q 1494 397 1959 397 
Q 2419 397 2687 759 
Q 2956 1122 2956 1747 
Q 2956 2369 2687 2733 
Q 2419 3097 1959 3097 
z
M 1959 3584 
Q 2709 3584 3137 3096 
Q 3566 2609 3566 1747 
Q 3566 888 3137 398 
Q 2709 -91 1959 -91 
Q 1206 -91 779 398 
Q 353 888 353 1747 
Q 353 2609 779 3096 
Q 1206 3584 1959 3584 
z
" transform="scale(0.015625)"/>
       <path id="DejaVuSans-63" d="M 3122 3366 
L 3122 2828 
Q 2878 2963 2633 3030 
Q 2388 3097 2138 3097 
Q 1578 3097 1268 2742 
Q 959 2388 959 1747 
Q 959 1106 1268 751 
Q 1578 397 2138 397 
Q 2388 397 2633 464 
Q 2878 531 3122 666 
L 3122 134 
Q 2881 22 2623 -34 
Q 2366 -91 2075 -91 
Q 1284 -91 818 406 
Q 353 903 353 1747 
Q 353 2603 823 3093 
Q 1294 3584 2113 3584 
Q 2378 3584 2631 3529 
Q 2884 3475 3122 3366 
z
" transform="scale(0.015625)"/>
       <path id="DejaVuSans-69" d="M 603 3500 
L 1178 3500 
L 1178 0 
L 603 0 
L 603 3500 
z
M 603 4863 
L 1178 4863 
L 1178 4134 
L 603 4134 
L 603 4863 
z
" transform="scale(0.015625)"/>
       <path id="DejaVuSans-6e" d="M 3513 2113 
L 3513 0 
L 2938 0 
L 2938 2094 
Q 2938 2591 2744 2837 
Q 2550 3084 2163 3084 
Q 1697 3084 1428 2787 
Q 1159 2491 1159 1978 
L 1159 0 
L 581 0 
L 581 3500 
L 1159 3500 
L 1159 2956 
Q 1366 3272 1645 3428 
Q 1925 3584 2291 3584 
Q 2894 3584 3203 3211 
Q 3513 2838 3513 2113 
z
" transform="scale(0.015625)"/>
      </defs>
      <use xlink:href="#DejaVuSans-54"/>
      <use xlink:href="#DejaVuSans-72" x="46.333984"/>
      <use xlink:href="#DejaVuSans-75" x="87.447266"/>
      <use xlink:href="#DejaVuSans-65" x="150.826172"/>
      <use xlink:href="#DejaVuSans-20" x="212.349609"/>
      <use xlink:href="#DejaVuSans-4c" x="244.136719"/>
      <use xlink:href="#DejaVuSans-6f" x="298.099609"/>
      <use xlink:href="#DejaVuSans-63" x="359.28125"/>
      <use xlink:href="#DejaVuSans-61" x="414.261719"/>
      <use xlink:href="#DejaVuSans-74" x="475.541016"/>
      <use xlink:href="#DejaVuSans-69" x="514.75"/>
      <use xlink:href="#DejaVuSans-6f" x="542.533203"/>
      <use xlink:href="#DejaVuSans-6e" x="603.714844"/>
     </g>
    </g>
    <g id="line2d_20">
     <path d="M 57.530156 51.614375 
L 67.530156 51.614375 
L 77.530156 51.614375 
" style="fill: none; stroke: #2196f3; stroke-width: 1.5; stroke-linecap: round"/>
    </g>
    <g id="text_17">
     <!-- Predicted Location -->
     <g style="fill: #262626" transform="translate(85.530156 55.114375) scale(0.1 -0.1)">
      <defs>
       <path id="DejaVuSans-64" d="M 2906 2969 
L 2906 4863 
L 3481 4863 
L 3481 0 
L 2906 0 
L 2906 525 
Q 2725 213 2448 61 
Q 2172 -91 1784 -91 
Q 1150 -91 751 415 
Q 353 922 353 1747 
Q 353 2572 751 3078 
Q 1150 3584 1784 3584 
Q 2172 3584 2448 3432 
Q 2725 3281 2906 2969 
z
M 947 1747 
Q 947 1113 1208 752 
Q 1469 391 1925 391 
Q 2381 391 2643 752 
Q 2906 1113 2906 1747 
Q 2906 2381 2643 2742 
Q 2381 3103 1925 3103 
Q 1469 3103 1208 2742 
Q 947 2381 947 1747 
z
" transform="scale(0.015625)"/>
      </defs>
      <use xlink:href="#DejaVuSans-50"/>
      <use xlink:href="#DejaVuSans-72" x="58.552734"/>
      <use xlink:href="#DejaVuSans-65" x="97.416016"/>
      <use xlink:href="#DejaVuSans-64" x="158.939453"/>
      <use xlink:href="#DejaVuSans-69" x="222.416016"/>
      <use xlink:href="#DejaVuSans-63" x="250.199219"/>
      <use xlink:href="#DejaVuSans-74" x="305.179688"/>
      <use xlink:href="#DejaVuSans-65" x="344.388672"/>
      <use xlink:href="#DejaVuSans-64" x="405.912109"/>
      <use xlink:href="#DejaVuSans-20" x="469.388672"/>
      <use xlink:href="#DejaVuSans-4c" x="501.175781"/>
      <use xlink:href="#DejaVuSans-6f" x="555.138672"/>
      <use xlink:href="#DejaVuSans-63" x="616.320312"/>
      <use xlink:href="#DejaVuSans-61" x="671.300781"/>
      <use xlink:href="#DejaVuSans-74" x="732.580078"/>
      <use xlink:href="#DejaVuSans-69" x="771.789062"/>
      <use xlink:href="#DejaVuSans-6f" x="799.572266"/>
      <use xlink:href="#DejaVuSans-6e" x="860.753906"/>
     </g>
    </g>
    <g id="line2d_21">
     <path d="M 57.530156 66.2925 
L 67.530156 66.2925 
L 77.530156 66.2925 
" style="fill: none; stroke-dasharray: 5.55,2.4; stroke-dashoffset: 0; stroke: #2cd3cb; stroke-width: 1.5"/>
    </g>
    <g id="text_18">
     <!-- True Scale -->
     <g style="fill: #262626" transform="translate(85.530156 69.7925) scale(0.1 -0.1)">
      <defs>
       <path id="DejaVuSans-53" d="M 3425 4513 
L 3425 3897 
Q 3066 4069 2747 4153 
Q 2428 4238 2131 4238 
Q 1616 4238 1336 4038 
Q 1056 3838 1056 3469 
Q 1056 3159 1242 3001 
Q 1428 2844 1947 2747 
L 2328 2669 
Q 3034 2534 3370 2195 
Q 3706 1856 3706 1288 
Q 3706 609 3251 259 
Q 2797 -91 1919 -91 
Q 1588 -91 1214 -16 
Q 841 59 441 206 
L 441 856 
Q 825 641 1194 531 
Q 1563 422 1919 422 
Q 2459 422 2753 634 
Q 3047 847 3047 1241 
Q 3047 1584 2836 1778 
Q 2625 1972 2144 2069 
L 1759 2144 
Q 1053 2284 737 2584 
Q 422 2884 422 3419 
Q 422 4038 858 4394 
Q 1294 4750 2059 4750 
Q 2388 4750 2728 4690 
Q 3069 4631 3425 4513 
z
" transform="scale(0.015625)"/>
      </defs>
      <use xlink:href="#DejaVuSans-54"/>
      <use xlink:href="#DejaVuSans-72" x="46.333984"/>
      <use xlink:href="#DejaVuSans-75" x="87.447266"/>
      <use xlink:href="#DejaVuSans-65" x="150.826172"/>
      <use xlink:href="#DejaVuSans-20" x="212.349609"/>
      <use xlink:href="#DejaVuSans-53" x="244.136719"/>
      <use xlink:href="#DejaVuSans-63" x="307.613281"/>
      <use xlink:href="#DejaVuSans-61" x="362.59375"/>
      <use xlink:href="#DejaVuSans-6c" x="423.873047"/>
      <use xlink:href="#DejaVuSans-65" x="451.65625"/>
     </g>
    </g>
    <g id="line2d_22">
     <path d="M 57.530156 80.970625 
L 67.530156 80.970625 
L 77.530156 80.970625 
" style="fill: none; stroke: #2cd3cb; stroke-width: 1.5; stroke-linecap: round"/>
    </g>
    <g id="text_19">
     <!-- Predicted Scale -->
     <g style="fill: #262626" transform="translate(85.530156 84.470625) scale(0.1 -0.1)">
      <use xlink:href="#DejaVuSans-50"/>
      <use xlink:href="#DejaVuSans-72" x="58.552734"/>
      <use xlink:href="#DejaVuSans-65" x="97.416016"/>
      <use xlink:href="#DejaVuSans-64" x="158.939453"/>
      <use xlink:href="#DejaVuSans-69" x="222.416016"/>
      <use xlink:href="#DejaVuSans-63" x="250.199219"/>
      <use xlink:href="#DejaVuSans-74" x="305.179688"/>
      <use xlink:href="#DejaVuSans-65" x="344.388672"/>
      <use xlink:href="#DejaVuSans-64" x="405.912109"/>
      <use xlink:href="#DejaVuSans-20" x="469.388672"/>
      <use xlink:href="#DejaVuSans-53" x="501.175781"/>
      <use xlink:href="#DejaVuSans-63" x="564.652344"/>
      <use xlink:href="#DejaVuSans-61" x="619.632812"/>
      <use xlink:href="#DejaVuSans-6c" x="680.912109"/>
      <use xlink:href="#DejaVuSans-65" x="708.695312"/>
     </g>
    </g>
    <g id="line2d_23">
     <path d="M 57.530156 95.64875 
L 67.530156 95.64875 
L 77.530156 95.64875 
" style="fill: none; stroke-dasharray: 5.55,2.4; stroke-dashoffset: 0; stroke: #e69f00; stroke-width: 1.5"/>
    </g>
    <g id="text_20">
     <!-- True Shape -->
     <g style="fill: #262626" transform="translate(85.530156 99.14875) scale(0.1 -0.1)">
      <defs>
       <path id="DejaVuSans-68" d="M 3513 2113 
L 3513 0 
L 2938 0 
L 2938 2094 
Q 2938 2591 2744 2837 
Q 2550 3084 2163 3084 
Q 1697 3084 1428 2787 
Q 1159 2491 1159 1978 
L 1159 0 
L 581 0 
L 581 4863 
L 1159 4863 
L 1159 2956 
Q 1366 3272 1645 3428 
Q 1925 3584 2291 3584 
Q 2894 3584 3203 3211 
Q 3513 2838 3513 2113 
z
" transform="scale(0.015625)"/>
       <path id="DejaVuSans-70" d="M 1159 525 
L 1159 -1331 
L 581 -1331 
L 581 3500 
L 1159 3500 
L 1159 2969 
Q 1341 3281 1617 3432 
Q 1894 3584 2278 3584 
Q 2916 3584 3314 3078 
Q 3713 2572 3713 1747 
Q 3713 922 3314 415 
Q 2916 -91 2278 -91 
Q 1894 -91 1617 61 
Q 1341 213 1159 525 
z
M 3116 1747 
Q 3116 2381 2855 2742 
Q 2594 3103 2138 3103 
Q 1681 3103 1420 2742 
Q 1159 2381 1159 1747 
Q 1159 1113 1420 752 
Q 1681 391 2138 391 
Q 2594 391 2855 752 
Q 3116 1113 3116 1747 
z
" transform="scale(0.015625)"/>
      </defs>
      <use xlink:href="#DejaVuSans-54"/>
      <use xlink:href="#DejaVuSans-72" x="46.333984"/>
      <use xlink:href="#DejaVuSans-75" x="87.447266"/>
      <use xlink:href="#DejaVuSans-65" x="150.826172"/>
      <use xlink:href="#DejaVuSans-20" x="212.349609"/>
      <use xlink:href="#DejaVuSans-53" x="244.136719"/>
      <use xlink:href="#DejaVuSans-68" x="307.613281"/>
      <use xlink:href="#DejaVuSans-61" x="370.992188"/>
      <use xlink:href="#DejaVuSans-70" x="432.271484"/>
      <use xlink:href="#DejaVuSans-65" x="495.748047"/>
     </g>
    </g>
    <g id="line2d_24">
     <path d="M 57.530156 110.326875 
L 67.530156 110.326875 
L 77.530156 110.326875 
" style="fill: none; stroke: #e69f00; stroke-width: 1.5; stroke-linecap: round"/>
    </g>
    <g id="text_21">
     <!-- Predicted Shape -->
     <g style="fill: #262626" transform="translate(85.530156 113.826875) scale(0.1 -0.1)">
      <use xlink:href="#DejaVuSans-50"/>
      <use xlink:href="#DejaVuSans-72" x="58.552734"/>
      <use xlink:href="#DejaVuSans-65" x="97.416016"/>
      <use xlink:href="#DejaVuSans-64" x="158.939453"/>
      <use xlink:href="#DejaVuSans-69" x="222.416016"/>
      <use xlink:href="#DejaVuSans-63" x="250.199219"/>
      <use xlink:href="#DejaVuSans-74" x="305.179688"/>
      <use xlink:href="#DejaVuSans-65" x="344.388672"/>
      <use xlink:href="#DejaVuSans-64" x="405.912109"/>
      <use xlink:href="#DejaVuSans-20" x="469.388672"/>
      <use xlink:href="#DejaVuSans-53" x="501.175781"/>
      <use xlink:href="#DejaVuSans-68" x="564.652344"/>
      <use xlink:href="#DejaVuSans-61" x="628.03125"/>
      <use xlink:href="#DejaVuSans-70" x="689.310547"/>
      <use xlink:href="#DejaVuSans-65" x="752.787109"/>
     </g>
    </g>
   </g>
  </g>
 </g>
 <defs>
  <clipPath id="pd57fdbc963">
   <rect x="48.530156" y="23.837812" width="437.58" height="426.18"/>
  </clipPath>
 </defs>
</svg>
