<?xml version="1.0" encoding="utf-8" standalone="no"?>
<!DOCTYPE svg PUBLIC "-//W3C//DTD SVG 1.1//EN"
  "http://www.w3.org/Graphics/SVG/1.1/DTD/svg11.dtd">
<svg xmlns:xlink="http://www.w3.org/1999/xlink" width="492.045pt" height="480.145313pt" viewBox="0 0 492.045 480.145313" xmlns="http://www.w3.org/2000/svg" version="1.1">
 <metadata>
  <rdf:RDF xmlns:dc="http://purl.org/dc/elements/1.1/" xmlns:cc="http://creativecommons.org/ns#" xmlns:rdf="http://www.w3.org/1999/02/22-rdf-syntax-ns#">
   <cc:Work>
    <dc:type rdf:resource="http://purl.org/dc/dcmitype/StillImage"/>
    <dc:date>2025-02-25T01:04:36.045851</dc:date>
    <dc:format>image/svg+xml</dc:format>
    <dc:creator>
     <cc:Agent>
      <dc:title>Matplotlib v3.8.4, https://matplotlib.org/</dc:title>
     </cc:Agent>
    </dc:creator>
   </cc:Work>
  </rdf:RDF>
 </metadata>
 <defs>
  <style type="text/css">*{stroke-linejoin: round; stroke-linecap: butt}</style>
 </defs>
 <g id="figure_1">
  <g id="patch_1">
   <path d="M 0 480.145313 
L 492.045 480.145313 
L 492.045 0 
L 0 0 
z
" style="fill: #ffffff"/>
  </g>
  <g id="axes_1">
   <g id="patch_2">
    <path d="M 50.775 436.217813 
L 484.845 436.217813 
L 484.845 23.837813 
L 50.775 23.837813 
z
" style="fill: #ffffff"/>
   </g>
   <g id="matplotlib.axis_1">
    <g id="xtick_1">
     <g id="line2d_1">
      <path d="M 66.049 436.217813 
L 66.049 23.837813 
" clip-path="url(#p7a2896edf0)" style="fill: none; stroke: #cccccc; stroke-linecap: round"/>
     </g>
     <g id="text_1">
      <!-- −3 -->
      <g style="fill: #262626" transform="translate(57.940797 454.076094) scale(0.11 -0.11)">
       <defs>
        <path id="DejaVuSans-2212" d="M 678 2272 
L 4684 2272 
L 4684 1741 
L 678 1741 
L 678 2272 
z
" transform="scale(0.015625)"/>
        <path id="DejaVuSans-33" d="M 2597 2516 
Q 3050 2419 3304 2112 
Q 3559 1806 3559 1356 
Q 3559 666 3084 287 
Q 2609 -91 1734 -91 
Q 1441 -91 1130 -33 
Q 819 25 488 141 
L 488 750 
Q 750 597 1062 519 
Q 1375 441 1716 441 
Q 2309 441 2620 675 
Q 2931 909 2931 1356 
Q 2931 1769 2642 2001 
Q 2353 2234 1838 2234 
L 1294 2234 
L 1294 2753 
L 1863 2753 
Q 2328 2753 2575 2939 
Q 2822 3125 2822 3475 
Q 2822 3834 2567 4026 
Q 2313 4219 1838 4219 
Q 1578 4219 1281 4162 
Q 984 4106 628 3988 
L 628 4550 
Q 988 4650 1302 4700 
Q 1616 4750 1894 4750 
Q 2613 4750 3031 4423 
Q 3450 4097 3450 3541 
Q 3450 3153 3228 2886 
Q 3006 2619 2597 2516 
z
" transform="scale(0.015625)"/>
       </defs>
       <use xlink:href="#DejaVuSans-2212"/>
       <use xlink:href="#DejaVuSans-33" x="83.789062"/>
      </g>
     </g>
    </g>
    <g id="xtick_2">
     <g id="line2d_2">
      <path d="M 132.94157 436.217813 
L 132.94157 23.837813 
" clip-path="url(#p7a2896edf0)" style="fill: none; stroke: #cccccc; stroke-linecap: round"/>
     </g>
     <g id="text_2">
      <!-- −2 -->
      <g style="fill: #262626" transform="translate(124.833367 454.076094) scale(0.11 -0.11)">
       <defs>
        <path id="DejaVuSans-32" d="M 1228 531 
L 3431 531 
L 3431 0 
L 469 0 
L 469 531 
Q 828 903 1448 1529 
Q 2069 2156 2228 2338 
Q 2531 2678 2651 2914 
Q 2772 3150 2772 3378 
Q 2772 3750 2511 3984 
Q 2250 4219 1831 4219 
Q 1534 4219 1204 4116 
Q 875 4013 500 3803 
L 500 4441 
Q 881 4594 1212 4672 
Q 1544 4750 1819 4750 
Q 2544 4750 2975 4387 
Q 3406 4025 3406 3419 
Q 3406 3131 3298 2873 
Q 3191 2616 2906 2266 
Q 2828 2175 2409 1742 
Q 1991 1309 1228 531 
z
" transform="scale(0.015625)"/>
       </defs>
       <use xlink:href="#DejaVuSans-2212"/>
       <use xlink:href="#DejaVuSans-32" x="83.789062"/>
      </g>
     </g>
    </g>
    <g id="xtick_3">
     <g id="line2d_3">
      <path d="M 199.834141 436.217813 
L 199.834141 23.837813 
" clip-path="url(#p7a2896edf0)" style="fill: none; stroke: #cccccc; stroke-linecap: round"/>
     </g>
     <g id="text_3">
      <!-- −1 -->
      <g style="fill: #262626" transform="translate(191.725937 454.076094) scale(0.11 -0.11)">
       <defs>
        <path id="DejaVuSans-31" d="M 794 531 
L 1825 531 
L 1825 4091 
L 703 3866 
L 703 4441 
L 1819 4666 
L 2450 4666 
L 2450 531 
L 3481 531 
L 3481 0 
L 794 0 
L 794 531 
z
" transform="scale(0.015625)"/>
       </defs>
       <use xlink:href="#DejaVuSans-2212"/>
       <use xlink:href="#DejaVuSans-31" x="83.789062"/>
      </g>
     </g>
    </g>
    <g id="xtick_4">
     <g id="line2d_4">
      <path d="M 266.726711 436.217813 
L 266.726711 23.837813 
" clip-path="url(#p7a2896edf0)" style="fill: none; stroke: #cccccc; stroke-linecap: round"/>
     </g>
     <g id="text_4">
      <!-- 0 -->
      <g style="fill: #262626" transform="translate(263.227336 454.076094) scale(0.11 -0.11)">
       <defs>
        <path id="DejaVuSans-30" d="M 2034 4250 
Q 1547 4250 1301 3770 
Q 1056 3291 1056 2328 
Q 1056 1369 1301 889 
Q 1547 409 2034 409 
Q 2525 409 2770 889 
Q 3016 1369 3016 2328 
Q 3016 3291 2770 3770 
Q 2525 4250 2034 4250 
z
M 2034 4750 
Q 2819 4750 3233 4129 
Q 3647 3509 3647 2328 
Q 3647 1150 3233 529 
Q 2819 -91 2034 -91 
Q 1250 -91 836 529 
Q 422 1150 422 2328 
Q 422 3509 836 4129 
Q 1250 4750 2034 4750 
z
" transform="scale(0.015625)"/>
       </defs>
       <use xlink:href="#DejaVuSans-30"/>
      </g>
     </g>
    </g>
    <g id="xtick_5">
     <g id="line2d_5">
      <path d="M 333.619281 436.217813 
L 333.619281 23.837813 
" clip-path="url(#p7a2896edf0)" style="fill: none; stroke: #cccccc; stroke-linecap: round"/>
     </g>
     <g id="text_5">
      <!-- 1 -->
      <g style="fill: #262626" transform="translate(330.119906 454.076094) scale(0.11 -0.11)">
       <use xlink:href="#DejaVuSans-31"/>
      </g>
     </g>
    </g>
    <g id="xtick_6">
     <g id="line2d_6">
      <path d="M 400.511851 436.217813 
L 400.511851 23.837813 
" clip-path="url(#p7a2896edf0)" style="fill: none; stroke: #cccccc; stroke-linecap: round"/>
     </g>
     <g id="text_6">
      <!-- 2 -->
      <g style="fill: #262626" transform="translate(397.012476 454.076094) scale(0.11 -0.11)">
       <use xlink:href="#DejaVuSans-32"/>
      </g>
     </g>
    </g>
    <g id="xtick_7">
     <g id="line2d_7">
      <path d="M 467.404421 436.217813 
L 467.404421 23.837813 
" clip-path="url(#p7a2896edf0)" style="fill: none; stroke: #cccccc; stroke-linecap: round"/>
     </g>
     <g id="text_7">
      <!-- 3 -->
      <g style="fill: #262626" transform="translate(463.905046 454.076094) scale(0.11 -0.11)">
       <use xlink:href="#DejaVuSans-33"/>
      </g>
     </g>
    </g>
    <g id="text_8">
     <!-- X -->
     <g style="fill: #262626" transform="translate(263.3575 470.241719) scale(0.13 -0.13)">
      <defs>
       <path id="DejaVuSans-58" d="M 403 4666 
L 1081 4666 
L 2241 2931 
L 3406 4666 
L 4084 4666 
L 2584 2425 
L 4184 0 
L 3506 0 
L 2194 1984 
L 872 0 
L 191 0 
L 1856 2491 
L 403 4666 
z
" transform="scale(0.015625)"/>
      </defs>
      <use xlink:href="#DejaVuSans-58"/>
     </g>
    </g>
   </g>
   <g id="matplotlib.axis_2">
    <g id="ytick_1">
     <g id="line2d_8">
      <path d="M 50.775 417.473267 
L 484.845 417.473267 
" clip-path="url(#p7a2896edf0)" style="fill: none; stroke: #cccccc; stroke-linecap: round"/>
     </g>
     <g id="text_9">
      <!-- 0.0 -->
      <g style="fill: #262626" transform="translate(23.781563 421.652408) scale(0.11 -0.11)">
       <defs>
        <path id="DejaVuSans-2e" d="M 684 794 
L 1344 794 
L 1344 0 
L 684 0 
L 684 794 
z
" transform="scale(0.015625)"/>
       </defs>
       <use xlink:href="#DejaVuSans-30"/>
       <use xlink:href="#DejaVuSans-2e" x="63.623047"/>
       <use xlink:href="#DejaVuSans-30" x="95.410156"/>
      </g>
     </g>
    </g>
    <g id="ytick_2">
     <g id="line2d_9">
      <path d="M 50.775 360.326298 
L 484.845 360.326298 
" clip-path="url(#p7a2896edf0)" style="fill: none; stroke: #cccccc; stroke-linecap: round"/>
     </g>
     <g id="text_10">
      <!-- 0.2 -->
      <g style="fill: #262626" transform="translate(23.781563 364.505439) scale(0.11 -0.11)">
       <use xlink:href="#DejaVuSans-30"/>
       <use xlink:href="#DejaVuSans-2e" x="63.623047"/>
       <use xlink:href="#DejaVuSans-32" x="95.410156"/>
      </g>
     </g>
    </g>
    <g id="ytick_3">
     <g id="line2d_10">
      <path d="M 50.775 303.179329 
L 484.845 303.179329 
" clip-path="url(#p7a2896edf0)" style="fill: none; stroke: #cccccc; stroke-linecap: round"/>
     </g>
     <g id="text_11">
      <!-- 0.4 -->
      <g style="fill: #262626" transform="translate(23.781563 307.35847) scale(0.11 -0.11)">
       <defs>
        <path id="DejaVuSans-34" d="M 2419 4116 
L 825 1625 
L 2419 1625 
L 2419 4116 
z
M 2253 4666 
L 3047 4666 
L 3047 1625 
L 3713 1625 
L 3713 1100 
L 3047 1100 
L 3047 0 
L 2419 0 
L 2419 1100 
L 313 1100 
L 313 1709 
L 2253 4666 
z
" transform="scale(0.015625)"/>
       </defs>
       <use xlink:href="#DejaVuSans-30"/>
       <use xlink:href="#DejaVuSans-2e" x="63.623047"/>
       <use xlink:href="#DejaVuSans-34" x="95.410156"/>
      </g>
     </g>
    </g>
    <g id="ytick_4">
     <g id="line2d_11">
      <path d="M 50.775 246.03236 
L 484.845 246.03236 
" clip-path="url(#p7a2896edf0)" style="fill: none; stroke: #cccccc; stroke-linecap: round"/>
     </g>
     <g id="text_12">
      <!-- 0.6 -->
      <g style="fill: #262626" transform="translate(23.781563 250.211501) scale(0.11 -0.11)">
       <defs>
        <path id="DejaVuSans-36" d="M 2113 2584 
Q 1688 2584 1439 2293 
Q 1191 2003 1191 1497 
Q 1191 994 1439 701 
Q 1688 409 2113 409 
Q 2538 409 2786 701 
Q 3034 994 3034 1497 
Q 3034 2003 2786 2293 
Q 2538 2584 2113 2584 
z
M 3366 4563 
L 3366 3988 
Q 3128 4100 2886 4159 
Q 2644 4219 2406 4219 
Q 1781 4219 1451 3797 
Q 1122 3375 1075 2522 
Q 1259 2794 1537 2939 
Q 1816 3084 2150 3084 
Q 2853 3084 3261 2657 
Q 3669 2231 3669 1497 
Q 3669 778 3244 343 
Q 2819 -91 2113 -91 
Q 1303 -91 875 529 
Q 447 1150 447 2328 
Q 447 3434 972 4092 
Q 1497 4750 2381 4750 
Q 2619 4750 2861 4703 
Q 3103 4656 3366 4563 
z
" transform="scale(0.015625)"/>
       </defs>
       <use xlink:href="#DejaVuSans-30"/>
       <use xlink:href="#DejaVuSans-2e" x="63.623047"/>
       <use xlink:href="#DejaVuSans-36" x="95.410156"/>
      </g>
     </g>
    </g>
    <g id="ytick_5">
     <g id="line2d_12">
      <path d="M 50.775 188.885392 
L 484.845 188.885392 
" clip-path="url(#p7a2896edf0)" style="fill: none; stroke: #cccccc; stroke-linecap: round"/>
     </g>
     <g id="text_13">
      <!-- 0.8 -->
      <g style="fill: #262626" transform="translate(23.781563 193.064532) scale(0.11 -0.11)">
       <defs>
        <path id="DejaVuSans-38" d="M 2034 2216 
Q 1584 2216 1326 1975 
Q 1069 1734 1069 1313 
Q 1069 891 1326 650 
Q 1584 409 2034 409 
Q 2484 409 2743 651 
Q 3003 894 3003 1313 
Q 3003 1734 2745 1975 
Q 2488 2216 2034 2216 
z
M 1403 2484 
Q 997 2584 770 2862 
Q 544 3141 544 3541 
Q 544 4100 942 4425 
Q 1341 4750 2034 4750 
Q 2731 4750 3128 4425 
Q 3525 4100 3525 3541 
Q 3525 3141 3298 2862 
Q 3072 2584 2669 2484 
Q 3125 2378 3379 2068 
Q 3634 1759 3634 1313 
Q 3634 634 3220 271 
Q 2806 -91 2034 -91 
Q 1263 -91 848 271 
Q 434 634 434 1313 
Q 434 1759 690 2068 
Q 947 2378 1403 2484 
z
M 1172 3481 
Q 1172 3119 1398 2916 
Q 1625 2713 2034 2713 
Q 2441 2713 2670 2916 
Q 2900 3119 2900 3481 
Q 2900 3844 2670 4047 
Q 2441 4250 2034 4250 
Q 1625 4250 1398 4047 
Q 1172 3844 1172 3481 
z
" transform="scale(0.015625)"/>
       </defs>
       <use xlink:href="#DejaVuSans-30"/>
       <use xlink:href="#DejaVuSans-2e" x="63.623047"/>
       <use xlink:href="#DejaVuSans-38" x="95.410156"/>
      </g>
     </g>
    </g>
    <g id="ytick_6">
     <g id="line2d_13">
      <path d="M 50.775 131.738423 
L 484.845 131.738423 
" clip-path="url(#p7a2896edf0)" style="fill: none; stroke: #cccccc; stroke-linecap: round"/>
     </g>
     <g id="text_14">
      <!-- 1.0 -->
      <g style="fill: #262626" transform="translate(23.781563 135.917563) scale(0.11 -0.11)">
       <use xlink:href="#DejaVuSans-31"/>
       <use xlink:href="#DejaVuSans-2e" x="63.623047"/>
       <use xlink:href="#DejaVuSans-30" x="95.410156"/>
      </g>
     </g>
    </g>
    <g id="ytick_7">
     <g id="line2d_14">
      <path d="M 50.775 74.591454 
L 484.845 74.591454 
" clip-path="url(#p7a2896edf0)" style="fill: none; stroke: #cccccc; stroke-linecap: round"/>
     </g>
     <g id="text_15">
      <!-- 1.2 -->
      <g style="fill: #262626" transform="translate(23.781563 78.770594) scale(0.11 -0.11)">
       <use xlink:href="#DejaVuSans-31"/>
       <use xlink:href="#DejaVuSans-2e" x="63.623047"/>
       <use xlink:href="#DejaVuSans-32" x="95.410156"/>
      </g>
     </g>
    </g>
    <g id="text_16">
     <!-- Y ~ GPD(loc(X), scale(X), shape(X)) -->
     <g style="fill: #262626" transform="translate(17.077969 345.166172) rotate(-90) scale(0.13 -0.13)">
      <defs>
       <path id="DejaVuSans-59" d="M -13 4666 
L 666 4666 
L 1959 2747 
L 3244 4666 
L 3922 4666 
L 2272 2222 
L 2272 0 
L 1638 0 
L 1638 2222 
L -13 4666 
z
" transform="scale(0.015625)"/>
       <path id="DejaVuSans-20" transform="scale(0.015625)"/>
       <path id="DejaVuSans-7e" d="M 4684 2553 
L 4684 1997 
Q 4356 1750 4076 1644 
Q 3797 1538 3494 1538 
Q 3150 1538 2694 1722 
Q 2659 1734 2644 1741 
Q 2622 1750 2575 1766 
Q 2091 1959 1797 1959 
Q 1522 1959 1253 1839 
Q 984 1719 678 1459 
L 678 2016 
Q 1006 2263 1286 2370 
Q 1566 2478 1869 2478 
Q 2213 2478 2672 2291 
Q 2703 2278 2719 2272 
Q 2744 2263 2788 2247 
Q 3272 2053 3566 2053 
Q 3834 2053 4098 2172 
Q 4363 2291 4684 2553 
z
" transform="scale(0.015625)"/>
       <path id="DejaVuSans-47" d="M 3809 666 
L 3809 1919 
L 2778 1919 
L 2778 2438 
L 4434 2438 
L 4434 434 
Q 4069 175 3628 42 
Q 3188 -91 2688 -91 
Q 1594 -91 976 548 
Q 359 1188 359 2328 
Q 359 3472 976 4111 
Q 1594 4750 2688 4750 
Q 3144 4750 3555 4637 
Q 3966 4525 4313 4306 
L 4313 3634 
Q 3963 3931 3569 4081 
Q 3175 4231 2741 4231 
Q 1884 4231 1454 3753 
Q 1025 3275 1025 2328 
Q 1025 1384 1454 906 
Q 1884 428 2741 428 
Q 3075 428 3337 486 
Q 3600 544 3809 666 
z
" transform="scale(0.015625)"/>
       <path id="DejaVuSans-50" d="M 1259 4147 
L 1259 2394 
L 2053 2394 
Q 2494 2394 2734 2622 
Q 2975 2850 2975 3272 
Q 2975 3691 2734 3919 
Q 2494 4147 2053 4147 
L 1259 4147 
z
M 628 4666 
L 2053 4666 
Q 2838 4666 3239 4311 
Q 3641 3956 3641 3272 
Q 3641 2581 3239 2228 
Q 2838 1875 2053 1875 
L 1259 1875 
L 1259 0 
L 628 0 
L 628 4666 
z
" transform="scale(0.015625)"/>
       <path id="DejaVuSans-44" d="M 1259 4147 
L 1259 519 
L 2022 519 
Q 2988 519 3436 956 
Q 3884 1394 3884 2338 
Q 3884 3275 3436 3711 
Q 2988 4147 2022 4147 
L 1259 4147 
z
M 628 4666 
L 1925 4666 
Q 3281 4666 3915 4102 
Q 4550 3538 4550 2338 
Q 4550 1131 3912 565 
Q 3275 0 1925 0 
L 628 0 
L 628 4666 
z
" transform="scale(0.015625)"/>
       <path id="DejaVuSans-28" d="M 1984 4856 
Q 1566 4138 1362 3434 
Q 1159 2731 1159 2009 
Q 1159 1288 1364 580 
Q 1569 -128 1984 -844 
L 1484 -844 
Q 1016 -109 783 600 
Q 550 1309 550 2009 
Q 550 2706 781 3412 
Q 1013 4119 1484 4856 
L 1984 4856 
z
" transform="scale(0.015625)"/>
       <path id="DejaVuSans-6c" d="M 603 4863 
L 1178 4863 
L 1178 0 
L 603 0 
L 603 4863 
z
" transform="scale(0.015625)"/>
       <path id="DejaVuSans-6f" d="M 1959 3097 
Q 1497 3097 1228 2736 
Q 959 2375 959 1747 
Q 959 1119 1226 758 
Q 1494 397 1959 397 
Q 2419 397 2687 759 
Q 2956 1122 2956 1747 
Q 2956 2369 2687 2733 
Q 2419 3097 1959 3097 
z
M 1959 3584 
Q 2709 3584 3137 3096 
Q 3566 2609 3566 1747 
Q 3566 888 3137 398 
Q 2709 -91 1959 -91 
Q 1206 -91 779 398 
Q 353 888 353 1747 
Q 353 2609 779 3096 
Q 1206 3584 1959 3584 
z
" transform="scale(0.015625)"/>
       <path id="DejaVuSans-63" d="M 3122 3366 
L 3122 2828 
Q 2878 2963 2633 3030 
Q 2388 3097 2138 3097 
Q 1578 3097 1268 2742 
Q 959 2388 959 1747 
Q 959 1106 1268 751 
Q 1578 397 2138 397 
Q 2388 397 2633 464 
Q 2878 531 3122 666 
L 3122 134 
Q 2881 22 2623 -34 
Q 2366 -91 2075 -91 
Q 1284 -91 818 406 
Q 353 903 353 1747 
Q 353 2603 823 3093 
Q 1294 3584 2113 3584 
Q 2378 3584 2631 3529 
Q 2884 3475 3122 3366 
z
" transform="scale(0.015625)"/>
       <path id="DejaVuSans-29" d="M 513 4856 
L 1013 4856 
Q 1481 4119 1714 3412 
Q 1947 2706 1947 2009 
Q 1947 1309 1714 600 
Q 1481 -109 1013 -844 
L 513 -844 
Q 928 -128 1133 580 
Q 1338 1288 1338 2009 
Q 1338 2731 1133 3434 
Q 928 4138 513 4856 
z
" transform="scale(0.015625)"/>
       <path id="DejaVuSans-2c" d="M 750 794 
L 1409 794 
L 1409 256 
L 897 -744 
L 494 -744 
L 750 256 
L 750 794 
z
" transform="scale(0.015625)"/>
       <path id="DejaVuSans-73" d="M 2834 3397 
L 2834 2853 
Q 2591 2978 2328 3040 
Q 2066 3103 1784 3103 
Q 1356 3103 1142 2972 
Q 928 2841 928 2578 
Q 928 2378 1081 2264 
Q 1234 2150 1697 2047 
L 1894 2003 
Q 2506 1872 2764 1633 
Q 3022 1394 3022 966 
Q 3022 478 2636 193 
Q 2250 -91 1575 -91 
Q 1294 -91 989 -36 
Q 684 19 347 128 
L 347 722 
Q 666 556 975 473 
Q 1284 391 1588 391 
Q 1994 391 2212 530 
Q 2431 669 2431 922 
Q 2431 1156 2273 1281 
Q 2116 1406 1581 1522 
L 1381 1569 
Q 847 1681 609 1914 
Q 372 2147 372 2553 
Q 372 3047 722 3315 
Q 1072 3584 1716 3584 
Q 2034 3584 2315 3537 
Q 2597 3491 2834 3397 
z
" transform="scale(0.015625)"/>
       <path id="DejaVuSans-61" d="M 2194 1759 
Q 1497 1759 1228 1600 
Q 959 1441 959 1056 
Q 959 750 1161 570 
Q 1363 391 1709 391 
Q 2188 391 2477 730 
Q 2766 1069 2766 1631 
L 2766 1759 
L 2194 1759 
z
M 3341 1997 
L 3341 0 
L 2766 0 
L 2766 531 
Q 2569 213 2275 61 
Q 1981 -91 1556 -91 
Q 1019 -91 701 211 
Q 384 513 384 1019 
Q 384 1609 779 1909 
Q 1175 2209 1959 2209 
L 2766 2209 
L 2766 2266 
Q 2766 2663 2505 2880 
Q 2244 3097 1772 3097 
Q 1472 3097 1187 3025 
Q 903 2953 641 2809 
L 641 3341 
Q 956 3463 1253 3523 
Q 1550 3584 1831 3584 
Q 2591 3584 2966 3190 
Q 3341 2797 3341 1997 
z
" transform="scale(0.015625)"/>
       <path id="DejaVuSans-65" d="M 3597 1894 
L 3597 1613 
L 953 1613 
Q 991 1019 1311 708 
Q 1631 397 2203 397 
Q 2534 397 2845 478 
Q 3156 559 3463 722 
L 3463 178 
Q 3153 47 2828 -22 
Q 2503 -91 2169 -91 
Q 1331 -91 842 396 
Q 353 884 353 1716 
Q 353 2575 817 3079 
Q 1281 3584 2069 3584 
Q 2775 3584 3186 3129 
Q 3597 2675 3597 1894 
z
M 3022 2063 
Q 3016 2534 2758 2815 
Q 2500 3097 2075 3097 
Q 1594 3097 1305 2825 
Q 1016 2553 972 2059 
L 3022 2063 
z
" transform="scale(0.015625)"/>
       <path id="DejaVuSans-68" d="M 3513 2113 
L 3513 0 
L 2938 0 
L 2938 2094 
Q 2938 2591 2744 2837 
Q 2550 3084 2163 3084 
Q 1697 3084 1428 2787 
Q 1159 2491 1159 1978 
L 1159 0 
L 581 0 
L 581 4863 
L 1159 4863 
L 1159 2956 
Q 1366 3272 1645 3428 
Q 1925 3584 2291 3584 
Q 2894 3584 3203 3211 
Q 3513 2838 3513 2113 
z
" transform="scale(0.015625)"/>
       <path id="DejaVuSans-70" d="M 1159 525 
L 1159 -1331 
L 581 -1331 
L 581 3500 
L 1159 3500 
L 1159 2969 
Q 1341 3281 1617 3432 
Q 1894 3584 2278 3584 
Q 2916 3584 3314 3078 
Q 3713 2572 3713 1747 
Q 3713 922 3314 415 
Q 2916 -91 2278 -91 
Q 1894 -91 1617 61 
Q 1341 213 1159 525 
z
M 3116 1747 
Q 3116 2381 2855 2742 
Q 2594 3103 2138 3103 
Q 1681 3103 1420 2742 
Q 1159 2381 1159 1747 
Q 1159 1113 1420 752 
Q 1681 391 2138 391 
Q 2594 391 2855 752 
Q 3116 1113 3116 1747 
z
" transform="scale(0.015625)"/>
      </defs>
      <use xlink:href="#DejaVuSans-59"/>
      <use xlink:href="#DejaVuSans-20" x="61.083984"/>
      <use xlink:href="#DejaVuSans-7e" x="92.871094"/>
      <use xlink:href="#DejaVuSans-20" x="176.660156"/>
      <use xlink:href="#DejaVuSans-47" x="208.447266"/>
      <use xlink:href="#DejaVuSans-50" x="285.9375"/>
      <use xlink:href="#DejaVuSans-44" x="346.240234"/>
      <use xlink:href="#DejaVuSans-28" x="423.242188"/>
      <use xlink:href="#DejaVuSans-6c" x="462.255859"/>
      <use xlink:href="#DejaVuSans-6f" x="490.039062"/>
      <use xlink:href="#DejaVuSans-63" x="551.220703"/>
      <use xlink:href="#DejaVuSans-28" x="606.201172"/>
      <use xlink:href="#DejaVuSans-58" x="645.214844"/>
      <use xlink:href="#DejaVuSans-29" x="713.720703"/>
      <use xlink:href="#DejaVuSans-2c" x="752.734375"/>
      <use xlink:href="#DejaVuSans-20" x="784.521484"/>
      <use xlink:href="#DejaVuSans-73" x="816.308594"/>
      <use xlink:href="#DejaVuSans-63" x="868.408203"/>
      <use xlink:href="#DejaVuSans-61" x="923.388672"/>
      <use xlink:href="#DejaVuSans-6c" x="984.667969"/>
      <use xlink:href="#DejaVuSans-65" x="1012.451172"/>
      <use xlink:href="#DejaVuSans-28" x="1073.974609"/>
      <use xlink:href="#DejaVuSans-58" x="1112.988281"/>
      <use xlink:href="#DejaVuSans-29" x="1181.494141"/>
      <use xlink:href="#DejaVuSans-2c" x="1220.507812"/>
      <use xlink:href="#DejaVuSans-20" x="1252.294922"/>
      <use xlink:href="#DejaVuSans-73" x="1284.082031"/>
      <use xlink:href="#DejaVuSans-68" x="1336.181641"/>
      <use xlink:href="#DejaVuSans-61" x="1399.560547"/>
      <use xlink:href="#DejaVuSans-70" x="1460.839844"/>
      <use xlink:href="#DejaVuSans-65" x="1524.316406"/>
      <use xlink:href="#DejaVuSans-28" x="1585.839844"/>
      <use xlink:href="#DejaVuSans-58" x="1624.853516"/>
      <use xlink:href="#DejaVuSans-29" x="1693.359375"/>
      <use xlink:href="#DejaVuSans-29" x="1732.373047"/>
     </g>
    </g>
    <g id="text_17">
     <!-- 1e17 -->
     <g style="fill: #262626" transform="translate(50.775 20.837813) scale(0.11 -0.11)">
      <defs>
       <path id="DejaVuSans-37" d="M 525 4666 
L 3525 4666 
L 3525 4397 
L 1831 0 
L 1172 0 
L 2766 4134 
L 525 4134 
L 525 4666 
z
" transform="scale(0.015625)"/>
      </defs>
      <use xlink:href="#DejaVuSans-31"/>
      <use xlink:href="#DejaVuSans-65" x="63.623047"/>
      <use xlink:href="#DejaVuSans-31" x="125.146484"/>
      <use xlink:href="#DejaVuSans-37" x="188.769531"/>
     </g>
    </g>
   </g>
   <g id="PolyCollection_1"/>
   <g id="PolyCollection_2">
    <path d="M 70.505455 330.256356 
L 70.505455 380.396316 
L 70.505455 330.256356 
L 70.505455 330.256356 
z
" clip-path="url(#p7a2896edf0)" style="fill-opacity: 0.2; stroke: #000000; stroke-opacity: 0.2"/>
    <path d="M 465.114545 347.59368 
L 465.114545 387.98217 
L 465.114545 347.59368 
L 465.114545 347.59368 
z
" clip-path="url(#p7a2896edf0)" style="fill-opacity: 0.2; stroke: #000000; stroke-opacity: 0.2"/>
   </g>
   <g id="PolyCollection_3"/>
   <g id="PolyCollection_4">
    <path d="M 70.505455 417.473267 
L 70.505455 417.473267 
L 70.505455 417.473267 
L 70.505455 417.473267 
z
" clip-path="url(#p7a2896edf0)" style="fill-opacity: 0.2; stroke: #000000; stroke-opacity: 0.2"/>
    <path d="M 465.114545 417.473267 
L 465.114545 417.473267 
L 465.114545 417.473267 
L 465.114545 417.473267 
z
" clip-path="url(#p7a2896edf0)" style="fill-opacity: 0.2; stroke: #000000; stroke-opacity: 0.2"/>
   </g>
   <g id="PolyCollection_5"/>
   <g id="PolyCollection_6">
    <path d="M 70.505455 417.473267 
L 70.505455 417.473267 
L 70.505455 417.473267 
L 70.505455 417.473267 
z
" clip-path="url(#p7a2896edf0)" style="fill: #808080; fill-opacity: 0.2; stroke: #808080; stroke-opacity: 0.2"/>
    <path d="M 465.114545 417.473267 
L 465.114545 417.473267 
L 465.114545 417.473267 
L 465.114545 417.473267 
z
" clip-path="url(#p7a2896edf0)" style="fill: #808080; fill-opacity: 0.2; stroke: #808080; stroke-opacity: 0.2"/>
   </g>
   <g id="PolyCollection_7"/>
   <g id="line2d_15"/>
   <g id="line2d_16">
    <path d="M 70.505455 355.326336 
L 71.295476 325.813831 
L 71.690455 379.910354 
L 72.085466 370.417594 
L 72.480476 393.256059 
L 72.875487 367.205823 
L 73.665477 361.913567 
L 74.060488 42.582358 
L 74.455498 365.551427 
L 74.850509 388.498959 
L 75.245488 256.649813 
L 75.640499 390.394756 
L 76.035509 390.61911 
L 76.43052 345.855511 
L 76.825531 332.94399 
L 77.22051 275.084218 
L 77.61552 370.12407 
L 78.010531 372.987418 
L 78.405542 392.085533 
L 78.800537 323.451926 
L 79.195532 352.299738 
L 79.590542 390.739574 
L 79.985553 387.531362 
L 80.380564 342.437489 
L 80.775559 351.981992 
L 81.170553 379.023911 
L 81.565564 374.626272 
L 81.960575 353.733575 
L 82.35557 398.421719 
L 82.750581 407.426447 
L 83.145575 385.561327 
L 83.540586 386.380829 
L 83.935597 372.494235 
L 84.330592 351.370609 
L 85.515608 383.638041 
L 85.910619 396.421032 
L 86.305614 391.313368 
L 86.700608 369.844334 
L 87.095619 384.70021 
L 87.49063 358.294962 
L 87.885625 261.765339 
L 88.280635 373.571395 
L 88.67563 366.276479 
L 89.070641 370.540801 
L 89.465652 402.770091 
L 89.860646 399.306442 
L 90.255657 341.799923 
L 90.650652 387.458769 
L 91.045663 340.840131 
L 91.440658 370.228234 
L 91.835668 349.987309 
L 92.230679 387.770173 
L 92.62569 395.943113 
L 93.020701 401.404509 
L 93.415695 401.723757 
L 93.81069 294.705163 
L 94.205701 388.112231 
L 94.995722 393.779455 
L 95.390717 383.79426 
L 95.785712 396.392397 
L 96.180723 386.223116 
L 96.575734 382.42784 
L 96.970744 402.906986 
L 97.365739 400.261805 
L 97.760734 343.181087 
L 98.155745 380.732955 
L 98.550755 397.55527 
L 98.94575 392.003759 
L 99.340761 413.154081 
L 99.735756 387.981022 
L 100.130767 395.142586 
L 100.525777 385.659867 
L 100.920772 399.758636 
L 101.315767 375.2615 
L 101.710778 386.085093 
L 102.105788 402.343607 
L 102.500783 379.865708 
L 102.895794 410.32294 
L 103.290789 392.252251 
L 103.502632 403.329528 
L 103.6858 374.657992 
L 104.08081 398.657203 
L 104.475805 405.148602 
L 104.870816 400.264575 
L 105.265811 405.45412 
L 105.660821 399.943602 
L 106.055832 385.386642 
L 106.450827 393.24787 
L 106.845838 398.558116 
L 107.240833 381.242378 
L 107.635843 386.098507 
L 108.030838 405.022837 
L 108.425849 375.951579 
L 108.82086 405.882438 
L 108.991827 407.915614 
L 109.215854 412.530248 
L 109.610865 402.048008 
L 110.00586 396.620504 
L 110.400871 397.841437 
L 110.795865 392.979144 
L 111.190876 400.541355 
L 111.585887 413.757601 
L 111.980882 406.264011 
L 112.375893 394.013713 
L 112.770887 386.420205 
L 113.165898 402.789899 
L 113.560893 410.823437 
L 113.955904 404.411392 
L 114.350914 410.00202 
L 114.745909 393.427465 
L 115.14092 411.205036 
L 115.535915 404.091705 
L 115.930926 387.918047 
L 116.325936 404.689699 
L 116.720931 410.365617 
L 117.905947 405.263129 
L 118.300942 377.21968 
L 118.695953 411.676334 
L 119.090948 398.806031 
L 119.880969 409.377034 
L 120.670975 413.861806 
L 121.06597 404.662483 
L 121.46098 401.119891 
L 121.855991 400.985238 
L 122.250986 405.523726 
L 122.645981 403.906195 
L 123.040991 407.361987 
L 123.436002 403.584261 
L 123.831013 411.324549 
L 124.226008 410.828149 
L 124.621003 405.46008 
L 125.016013 412.093782 
L 125.411024 412.911887 
L 125.806035 409.860641 
L 126.20103 403.847247 
L 126.59604 414.246647 
L 127.386046 404.62458 
L 127.781057 405.180089 
L 128.176052 404.044236 
L 128.571062 404.517979 
L 128.966073 404.411296 
L 129.585303 413.557201 
L 129.756063 411.396104 
L 130.151073 409.402128 
L 130.16203 409.902601 
L 130.546084 411.495966 
L 130.941095 407.600111 
L 131.33609 412.419477 
L 131.731084 413.534639 
L 132.126095 412.309787 
L 132.521106 411.466379 
L 132.916117 409.569325 
L 133.293409 406.382986 
L 133.311104 406.899823 
L 133.706106 407.048621 
L 134.101117 412.685754 
L 134.496128 411.42016 
L 134.891115 409.618813 
L 135.286125 411.233501 
L 135.681128 415.093123 
L 136.076139 410.131521 
L 136.47115 410.350494 
L 136.866137 413.304997 
L 137.261139 410.925338 
L 137.65615 409.288622 
L 138.04636 411.654123 
L 138.051161 414.206821 
L 138.446172 412.644615 
L 138.841158 408.929239 
L 139.236161 414.985706 
L 139.631172 411.400096 
L 140.026183 414.247337 
L 140.421193 412.822233 
L 140.81618 409.49669 
L 141.211183 407.86264 
L 141.606194 413.777666 
L 142.001205 412.674696 
L 142.396207 409.788688 
L 142.791194 414.906243 
L 143.186205 410.345926 
L 143.581216 413.473385 
L 143.976226 412.180059 
L 144.371213 411.578165 
L 144.766216 415.593097 
L 145.161227 414.252411 
L 145.556238 413.748252 
L 145.645102 414.666694 
L 145.95124 414.875856 
L 146.346235 416.026781 
L 146.741238 414.509618 
L 147.136249 414.58549 
L 147.531259 414.504473 
L 147.926262 415.531915 
L 148.321249 414.197007 
L 149.111271 415.878343 
L 150.296271 415.074982 
L 150.691282 410.999622 
L 151.086292 414.143639 
L 151.481295 416.030758 
L 151.876298 413.859506 
L 152.666303 414.650739 
L 153.061314 410.647161 
L 153.456317 414.70166 
L 153.851304 414.054473 
L 154.246315 414.855821 
L 154.641325 415.036896 
L 155.036328 413.447963 
L 155.431339 410.666992 
L 155.826326 411.672525 
L 156.221336 414.53365 
L 156.616347 413.228528 
L 157.01135 415.328873 
L 157.406353 416.491065 
L 158.196358 413.864863 
L 158.986372 415.772867 
L 159.381375 412.475916 
L 159.776369 416.598411 
L 160.17138 411.291059 
L 160.566383 412.676414 
L 160.961386 416.255223 
L 161.356396 414.74669 
L 161.751391 415.406331 
L 162.146402 414.470236 
L 162.541405 412.299301 
L 162.936408 415.003235 
L 163.331402 415.576884 
L 163.726413 415.394488 
L 164.121416 415.821074 
L 164.516427 415.991807 
L 164.911429 415.422729 
L 165.306424 416.828872 
L 165.701435 416.392861 
L 166.096438 416.588298 
L 166.491441 413.331041 
L 166.886451 416.113573 
L 167.281446 413.722777 
L 167.676457 416.80649 
L 168.07146 416.318436 
L 168.466462 416.538178 
L 168.861473 415.752085 
L 169.651471 414.990018 
L 169.660378 415.858063 
L 170.046474 414.442921 
L 170.441484 417.029626 
L 170.836479 416.129559 
L 171.23149 416.426351 
L 171.626493 415.981189 
L 172.021495 415.988462 
L 172.416506 416.604443 
L 172.811501 415.465211 
L 173.206512 415.371654 
L 173.601515 417.023913 
L 173.996517 414.804645 
L 174.391528 416.28895 
L 174.786523 417.006267 
L 175.181526 415.940488 
L 175.19871 416.933794 
L 175.576528 416.653116 
L 175.971539 416.73664 
L 176.36655 416.657818 
L 176.761545 417.081599 
L 177.156547 416.41996 
L 177.55155 416.624872 
L 177.946561 416.627902 
L 178.341572 416.919783 
L 179.131569 416.055168 
L 179.526572 416.882546 
L 179.921583 416.363479 
L 180.316578 415.311805 
L 180.71158 416.28939 
L 181.501594 416.868297 
L 181.896605 415.976691 
L 182.291615 416.633315 
L 182.686618 416.624851 
L 183.081621 416.853881 
L 183.476632 416.439808 
L 183.733593 416.916749 
L 183.871627 416.326671 
L 184.266629 416.52899 
L 184.661632 416.065821 
L 185.056643 417.087462 
L 185.451654 416.420225 
L 185.846648 415.973596 
L 186.636654 416.302574 
L 187.031665 416.723082 
L 187.42666 416.648741 
L 187.821662 417.104154 
L 187.915511 416.919119 
L 188.216673 416.674721 
L 188.611676 417.051696 
L 189.006687 416.928505 
L 189.401681 417.027747 
L 189.796684 416.452956 
L 190.191687 416.715236 
L 190.586698 417.206137 
L 190.981709 416.928135 
L 191.376703 416.925773 
L 191.771706 417.187579 
L 191.819543 417.093983 
L 192.147571 417.189186 
L 192.166709 416.780463 
L 192.56172 416.721596 
L 192.95673 417.111552 
L 193.351717 417.24597 
L 193.74672 417.050119 
L 194.141731 417.022884 
L 194.536741 417.144449 
L 195.721742 417.023441 
L 196.116753 416.689541 
L 196.511747 417.238732 
L 196.906758 416.960083 
L 197.301769 416.892332 
L 197.372947 417.117318 
L 197.696764 417.128607 
L 198.091774 417.277277 
L 198.486769 417.027258 
L 199.276775 417.145493 
L 199.671786 417.154361 
L 200.066796 416.881246 
L 200.461795 417.290432 
L 200.856802 417.073094 
L 201.251801 417.03189 
L 201.646807 417.138172 
L 202.041822 416.554636 
L 202.436829 417.224052 
L 202.831828 417.36838 
L 203.226838 415.543412 
L 203.621837 417.227944 
L 204.01684 416.609052 
L 204.806854 417.132209 
L 205.201856 417.108426 
L 205.596859 417.25509 
L 206.386865 417.27519 
L 206.781867 416.873196 
L 207.176878 417.18753 
L 207.571881 416.629318 
L 207.966884 416.535159 
L 208.072925 417.188022 
L 208.361887 417.305593 
L 208.756889 417.108342 
L 209.151892 417.185295 
L 209.546895 417.102734 
L 209.941906 417.294016 
L 210.336908 416.908372 
L 211.126914 417.14022 
L 212.311922 417.285996 
L 213.496939 417.272606 
L 213.891941 416.94953 
L 214.286944 417.259388 
L 217.841977 417.285692 
L 218.236988 417.163006 
L 218.631983 417.361103 
L 220.607005 417.271575 
L 221.002015 417.111763 
L 221.397018 417.336238 
L 221.792021 417.356739 
L 222.187032 417.183464 
L 222.582026 417.351799 
L 222.973241 417.340112 
L 222.977037 417.19827 
L 223.372032 417.405426 
L 223.767043 417.254068 
L 224.162046 417.33243 
L 224.557048 417.210439 
L 224.952051 417.396109 
L 225.347054 417.305135 
L 225.742065 416.997839 
L 226.137067 417.338946 
L 227.322076 417.423108 
L 227.717078 417.341245 
L 228.507092 417.401916 
L 230.877117 417.204383 
L 231.272119 417.371593 
L 231.667122 417.263989 
L 232.852131 417.395547 
L 234.43215 417.35794 
L 234.827152 417.328653 
L 235.617166 417.390718 
L 236.012161 417.372086 
L 236.407172 417.082033 
L 236.802166 417.374019 
L 289.337711 417.428093 
L 289.732714 417.282159 
L 290.52272 417.419576 
L 292.892752 417.389438 
L 295.657788 417.401494 
L 298.817818 417.396964 
L 301.977848 417.405843 
L 302.290501 417.192001 
L 302.372851 417.28516 
L 303.162864 417.379842 
L 311.457947 417.294422 
L 311.852949 417.09819 
L 312.642955 417.402347 
L 315.012987 417.325858 
L 315.802993 417.384487 
L 316.197988 417.185259 
L 316.592999 417.183971 
L 317.383004 417.36866 
L 318.17301 417.254376 
L 318.56802 417.321762 
L 319.358026 417.262277 
L 319.753029 416.958734 
L 320.148032 417.357968 
L 320.938037 417.389507 
L 321.333048 416.871307 
L 321.728051 417.350098 
L 322.123053 417.13007 
L 322.518056 417.3307 
L 323.308062 417.333137 
L 323.703065 417.100003 
L 324.079344 417.069005 
L 324.098075 417.251541 
L 324.493078 417.376288 
L 325.283084 417.257026 
L 325.678086 417.363147 
L 326.073089 417.159507 
L 327.653108 417.194165 
L 328.048111 416.884476 
L 328.443114 417.304781 
L 328.838117 417.136507 
L 330.023133 417.065192 
L 330.418136 417.357439 
L 330.813138 417.182459 
L 331.208145 417.282684 
L 331.603144 417.197532 
L 332.393162 417.248241 
L 332.432989 416.975962 
L 332.78816 417.288985 
L 333.183167 417.08664 
L 333.578178 417.16765 
L 333.973185 416.917194 
L 335.948206 417.297798 
L 336.343209 416.864509 
L 336.738212 416.739656 
L 337.133215 417.268747 
L 337.52821 417.06672 
L 337.92322 417.338334 
L 338.318231 416.683704 
L 338.713234 416.5119 
L 339.108237 417.223342 
L 339.503231 417.107741 
L 339.898242 417.234986 
L 340.293253 416.965685 
L 340.688256 417.129302 
L 341.083243 416.621858 
L 341.478253 416.880966 
L 341.873264 416.96849 
L 342.268275 416.167823 
L 342.663278 416.938561 
L 343.848286 416.86557 
L 344.243289 417.069723 
L 344.474613 416.818207 
L 344.638299 417.252457 
L 345.033286 415.936611 
L 345.428297 417.096029 
L 345.823308 416.917355 
L 347.008308 417.177647 
L 347.403319 416.828686 
L 347.79833 417.243632 
L 348.588319 416.761287 
L 348.98333 417.015913 
L 349.378341 417.024554 
L 349.773352 417.307384 
L 350.168354 416.250429 
L 350.563341 416.78036 
L 350.958352 416.246778 
L 351.353363 416.999073 
L 351.748373 416.789648 
L 352.933374 416.754718 
L 353.328385 416.317161 
L 353.602538 416.837422 
L 353.723387 416.541766 
L 354.118382 416.964183 
L 354.513385 415.995756 
L 354.908396 416.885274 
L 355.081851 416.929972 
L 355.303406 416.746675 
L 355.698393 417.203458 
L 356.093396 416.998667 
L 357.278428 416.950328 
L 357.673415 416.070038 
L 358.068418 415.938029 
L 358.463429 415.592727 
L 358.858439 416.787679 
L 359.25345 416.516301 
L 359.648437 416.868083 
L 360.04344 415.632879 
L 360.43845 416.239912 
L 360.833461 415.853733 
L 361.228456 415.170085 
L 361.623459 416.766447 
L 362.018462 416.82161 
L 362.413472 415.956066 
L 362.808483 416.899505 
L 363.993483 415.87969 
L 364.388494 416.127686 
L 364.613718 416.62369 
L 364.783489 416.218962 
L 365.178492 415.687677 
L 365.573495 414.683272 
L 365.968505 416.6316 
L 366.363516 416.12753 
L 366.758511 415.368631 
L 367.153514 416.468506 
L 367.548516 416.06308 
L 367.943527 416.513989 
L 368.338538 414.286774 
L 368.733533 415.641046 
L 369.128535 415.804991 
L 369.523538 416.249545 
L 369.644523 416.093247 
L 369.918549 416.287219 
L 370.061256 416.796227 
L 370.313544 415.661047 
L 370.708555 415.824977 
L 371.49856 415.410656 
L 371.893571 414.777838 
L 372.288566 416.369887 
L 372.683568 414.461277 
L 373.439197 415.478195 
L 373.473582 414.940179 
L 373.868609 416.315902 
L 374.263596 414.454628 
L 374.658598 415.50494 
L 375.053609 415.13803 
L 375.44862 416.272998 
L 375.843615 416.185391 
L 376.238617 415.803099 
L 376.63362 414.560004 
L 377.028631 416.342768 
L 377.423642 414.172808 
L 377.818629 415.617411 
L 378.213639 415.023588 
L 378.608642 416.309076 
L 379.003653 414.590444 
L 379.398648 414.498987 
L 379.79365 416.095702 
L 380.188653 415.622829 
L 380.583664 414.469719 
L 380.978675 415.412821 
L 381.373669 414.764132 
L 381.768672 413.800211 
L 382.163675 415.368978 
L 382.558686 416.019359 
L 382.953697 415.111849 
L 383.743694 411.85118 
L 384.138697 416.1509 
L 384.533708 414.557714 
L 384.928702 416.010708 
L 385.718716 415.255633 
L 386.113719 411.345978 
L 386.508729 413.270103 
L 386.903724 410.68351 
L 387.298727 413.734967 
L 387.693738 413.13141 
L 388.088741 416.090595 
L 388.483735 414.606393 
L 388.878746 409.823181 
L 389.273749 414.076201 
L 389.668752 414.865395 
L 390.063762 413.287955 
L 390.458757 413.122147 
L 390.853768 414.19745 
L 391.643774 413.004808 
L 392.038784 410.88248 
L 392.433779 414.862647 
L 392.82879 412.596841 
L 393.223793 409.137154 
L 393.618795 414.09696 
L 394.01379 415.44266 
L 394.408801 413.006936 
L 394.713576 409.419513 
L 394.803812 413.678946 
L 395.198815 413.02428 
L 395.593817 408.211979 
L 395.988812 409.323459 
L 396.383823 409.133111 
L 396.778826 411.605334 
L 397.173836 412.966439 
L 397.568823 409.133161 
L 397.963834 408.979156 
L 398.358845 414.506742 
L 398.753848 410.0446 
L 399.148858 414.097462 
L 399.543845 416.234967 
L 399.938856 406.944385 
L 400.333867 413.47487 
L 400.728877 409.534526 
L 401.081976 412.726476 
L 401.123872 410.392504 
L 401.518867 413.412242 
L 401.913878 412.449827 
L 402.308888 410.159755 
L 402.703899 415.417613 
L 403.098878 409.427955 
L 403.493889 411.113407 
L 403.8889 408.147439 
L 404.28391 403.792833 
L 404.678921 414.934128 
L 405.0739 408.472292 
L 405.104585 411.203018 
L 405.468911 412.842066 
L 405.863921 407.932869 
L 406.258932 412.51401 
L 406.653927 411.10986 
L 407.048922 412.246208 
L 407.443933 408.882268 
L 407.838943 411.860995 
L 408.233954 390.011887 
L 409.418954 408.542519 
L 409.813965 409.719244 
L 410.208976 411.265209 
L 410.603955 393.940155 
L 410.998966 404.812894 
L 411.393976 402.365665 
L 411.788987 408.349269 
L 412.183966 404.960627 
L 412.578977 405.223736 
L 412.973987 409.880461 
L 413.764009 406.384897 
L 414.554014 408.875219 
L 414.949025 408.947886 
L 415.34402 409.551763 
L 415.739031 409.586904 
L 416.134026 409.345027 
L 416.529036 394.1493 
L 416.924047 408.96664 
L 417.714037 399.754221 
L 418.109047 405.3436 
L 418.504058 405.435039 
L 418.899069 403.031918 
L 419.294064 407.494978 
L 419.689059 408.482846 
L 420.084069 395.0744 
L 420.47908 410.034229 
L 420.737588 406.143678 
L 420.874091 393.892086 
L 421.26907 398.891555 
L 421.66408 395.688816 
L 422.059091 400.771432 
L 422.454102 399.492518 
L 422.849113 396.04494 
L 423.244092 398.29942 
L 423.639102 407.688775 
L 424.034113 406.128066 
L 424.429124 408.711277 
L 424.824119 382.666725 
L 425.219113 406.404196 
L 425.614124 402.771932 
L 425.86048 408.526738 
L 426.009135 339.756807 
L 426.404146 410.139037 
L 426.79914 408.064689 
L 427.194135 364.866355 
L 427.589146 397.329185 
L 427.984157 398.52341 
L 428.379167 407.665368 
L 428.774162 398.504762 
L 429.169157 393.06706 
L 429.564168 398.420042 
L 429.959179 412.802383 
L 430.749168 390.680812 
L 431.144179 403.069487 
L 431.53919 364.424457 
L 431.9342 402.366121 
L 432.329195 407.306455 
L 432.72419 408.438274 
L 433.119201 387.911052 
L 433.514212 393.287035 
L 433.909222 392.22432 
L 434.304217 396.73939 
L 434.699212 398.838485 
L 435.094223 390.946549 
L 435.489233 360.93903 
L 435.884228 403.882563 
L 436.279239 390.636614 
L 436.380512 391.187664 
L 436.674234 408.206553 
L 437.069245 402.658271 
L 437.464255 383.126213 
L 438.254245 393.073776 
L 438.649256 406.188783 
L 439.044266 383.075541 
L 439.439277 396.184767 
L 439.834272 390.743946 
L 440.229267 386.971565 
L 440.624278 400.657888 
L 441.414283 373.726381 
L 441.809294 391.004345 
L 442.204289 341.904599 
L 442.599299 381.450785 
L 442.99431 382.517866 
L 443.389305 386.462679 
L 443.784316 384.002314 
L 444.179311 387.832924 
L 444.574321 407.152594 
L 444.853211 395.379465 
L 444.969316 369.565565 
L 445.364327 394.263533 
L 445.759338 394.39641 
L 446.154332 288.222855 
L 446.549343 370.880772 
L 446.944338 379.720249 
L 447.339349 325.958612 
L 447.734343 390.262348 
L 448.129354 356.472139 
L 448.524365 367.844245 
L 448.91936 395.895905 
L 449.314371 395.912121 
L 449.709365 339.879529 
L 450.104376 401.732081 
L 450.499371 389.501538 
L 450.894382 370.910554 
L 451.117979 390.386003 
L 451.289392 388.352462 
L 451.684387 365.162189 
L 452.079398 387.909202 
L 452.474393 336.698748 
L 452.869404 402.192082 
L 453.264414 395.478709 
L 453.659409 343.618383 
L 454.054404 370.614705 
L 454.449415 384.674472 
L 454.844425 316.134555 
L 455.239436 401.224593 
L 455.634447 394.40511 
L 456.029442 381.011356 
L 456.424452 352.232425 
L 456.819447 385.913887 
L 457.214458 323.065952 
L 457.609469 376.287004 
L 458.004464 372.701991 
L 458.399474 365.710499 
L 458.794469 377.66976 
L 459.18948 325.565116 
L 459.584475 338.345422 
L 459.979485 340.111886 
L 460.37448 388.650107 
L 460.769491 370.218609 
L 461.164502 385.390633 
L 461.559497 383.052414 
L 461.954507 234.131556 
L 462.349502 384.195742 
L 462.696253 343.322451 
L 462.744513 390.090745 
L 463.139524 390.889176 
L 463.534518 361.268999 
L 463.929529 346.230488 
L 464.324524 387.824831 
L 464.719535 325.740106 
L 465.114545 367.787925 
L 465.114545 367.787925 
" clip-path="url(#p7a2896edf0)" style="fill: none; stroke-dasharray: 2.2,3.63; stroke-dashoffset: 0; stroke: #000000; stroke-width: 2.2"/>
   </g>
   <g id="line2d_17"/>
   <g id="line2d_18">
    <path d="M 70.505455 417.473267 
L 465.114545 417.473267 
L 465.114545 417.473267 
" clip-path="url(#p7a2896edf0)" style="fill: none; stroke-dasharray: 8.14,3.52; stroke-dashoffset: 0; stroke: #000000; stroke-width: 2.2"/>
   </g>
   <g id="line2d_19">
    <path d="M 70.505455 417.473267 
L 465.114545 417.473267 
L 465.114545 417.473267 
" clip-path="url(#p7a2896edf0)" style="fill: none; stroke: #808080; stroke-opacity: 0.15; stroke-width: 1.5; stroke-linecap: round"/>
   </g>
   <g id="line2d_20"/>
   <g id="patch_3">
    <path d="M 50.775 436.217813 
L 50.775 23.837813 
" style="fill: none; stroke: #cccccc; stroke-width: 1.25; stroke-linejoin: miter; stroke-linecap: square"/>
   </g>
   <g id="patch_4">
    <path d="M 484.845 436.217813 
L 484.845 23.837813 
" style="fill: none; stroke: #cccccc; stroke-width: 1.25; stroke-linejoin: miter; stroke-linecap: square"/>
   </g>
   <g id="patch_5">
    <path d="M 50.775 436.217813 
L 484.845 436.217813 
" style="fill: none; stroke: #cccccc; stroke-width: 1.25; stroke-linejoin: miter; stroke-linecap: square"/>
   </g>
   <g id="patch_6">
    <path d="M 50.775 23.837813 
L 484.845 23.837813 
" style="fill: none; stroke: #cccccc; stroke-width: 1.25; stroke-linejoin: miter; stroke-linecap: square"/>
   </g>
   <g id="text_18">
    <!-- Prior Predictive Check on Synthetic GPD Data -->
    <g style="fill: #262626" transform="translate(87.681406 17.837813) scale(0.14 -0.14)">
     <defs>
      <path id="DejaVuSans-Bold-50" d="M 588 4666 
L 2584 4666 
Q 3475 4666 3951 4270 
Q 4428 3875 4428 3144 
Q 4428 2409 3951 2014 
Q 3475 1619 2584 1619 
L 1791 1619 
L 1791 0 
L 588 0 
L 588 4666 
z
M 1791 3794 
L 1791 2491 
L 2456 2491 
Q 2806 2491 2997 2661 
Q 3188 2831 3188 3144 
Q 3188 3456 2997 3625 
Q 2806 3794 2456 3794 
L 1791 3794 
z
" transform="scale(0.015625)"/>
      <path id="DejaVuSans-Bold-72" d="M 3138 2547 
Q 2991 2616 2845 2648 
Q 2700 2681 2553 2681 
Q 2122 2681 1889 2404 
Q 1656 2128 1656 1613 
L 1656 0 
L 538 0 
L 538 3500 
L 1656 3500 
L 1656 2925 
Q 1872 3269 2151 3426 
Q 2431 3584 2822 3584 
Q 2878 3584 2943 3579 
Q 3009 3575 3134 3559 
L 3138 2547 
z
" transform="scale(0.015625)"/>
      <path id="DejaVuSans-Bold-69" d="M 538 3500 
L 1656 3500 
L 1656 0 
L 538 0 
L 538 3500 
z
M 538 4863 
L 1656 4863 
L 1656 3950 
L 538 3950 
L 538 4863 
z
" transform="scale(0.015625)"/>
      <path id="DejaVuSans-Bold-6f" d="M 2203 2784 
Q 1831 2784 1636 2517 
Q 1441 2250 1441 1747 
Q 1441 1244 1636 976 
Q 1831 709 2203 709 
Q 2569 709 2762 976 
Q 2956 1244 2956 1747 
Q 2956 2250 2762 2517 
Q 2569 2784 2203 2784 
z
M 2203 3584 
Q 3106 3584 3614 3096 
Q 4122 2609 4122 1747 
Q 4122 884 3614 396 
Q 3106 -91 2203 -91 
Q 1297 -91 786 396 
Q 275 884 275 1747 
Q 275 2609 786 3096 
Q 1297 3584 2203 3584 
z
" transform="scale(0.015625)"/>
      <path id="DejaVuSans-Bold-20" transform="scale(0.015625)"/>
      <path id="DejaVuSans-Bold-65" d="M 4031 1759 
L 4031 1441 
L 1416 1441 
Q 1456 1047 1700 850 
Q 1944 653 2381 653 
Q 2734 653 3104 758 
Q 3475 863 3866 1075 
L 3866 213 
Q 3469 63 3072 -14 
Q 2675 -91 2278 -91 
Q 1328 -91 801 392 
Q 275 875 275 1747 
Q 275 2603 792 3093 
Q 1309 3584 2216 3584 
Q 3041 3584 3536 3087 
Q 4031 2591 4031 1759 
z
M 2881 2131 
Q 2881 2450 2695 2645 
Q 2509 2841 2209 2841 
Q 1884 2841 1681 2658 
Q 1478 2475 1428 2131 
L 2881 2131 
z
" transform="scale(0.015625)"/>
      <path id="DejaVuSans-Bold-64" d="M 2919 2988 
L 2919 4863 
L 4044 4863 
L 4044 0 
L 2919 0 
L 2919 506 
Q 2688 197 2409 53 
Q 2131 -91 1766 -91 
Q 1119 -91 703 423 
Q 288 938 288 1747 
Q 288 2556 703 3070 
Q 1119 3584 1766 3584 
Q 2128 3584 2408 3439 
Q 2688 3294 2919 2988 
z
M 2181 722 
Q 2541 722 2730 984 
Q 2919 1247 2919 1747 
Q 2919 2247 2730 2509 
Q 2541 2772 2181 2772 
Q 1825 2772 1636 2509 
Q 1447 2247 1447 1747 
Q 1447 1247 1636 984 
Q 1825 722 2181 722 
z
" transform="scale(0.015625)"/>
      <path id="DejaVuSans-Bold-63" d="M 3366 3391 
L 3366 2478 
Q 3138 2634 2908 2709 
Q 2678 2784 2431 2784 
Q 1963 2784 1702 2511 
Q 1441 2238 1441 1747 
Q 1441 1256 1702 982 
Q 1963 709 2431 709 
Q 2694 709 2930 787 
Q 3166 866 3366 1019 
L 3366 103 
Q 3103 6 2833 -42 
Q 2563 -91 2291 -91 
Q 1344 -91 809 395 
Q 275 881 275 1747 
Q 275 2613 809 3098 
Q 1344 3584 2291 3584 
Q 2566 3584 2833 3536 
Q 3100 3488 3366 3391 
z
" transform="scale(0.015625)"/>
      <path id="DejaVuSans-Bold-74" d="M 1759 4494 
L 1759 3500 
L 2913 3500 
L 2913 2700 
L 1759 2700 
L 1759 1216 
Q 1759 972 1856 886 
Q 1953 800 2241 800 
L 2816 800 
L 2816 0 
L 1856 0 
Q 1194 0 917 276 
Q 641 553 641 1216 
L 641 2700 
L 84 2700 
L 84 3500 
L 641 3500 
L 641 4494 
L 1759 4494 
z
" transform="scale(0.015625)"/>
      <path id="DejaVuSans-Bold-76" d="M 97 3500 
L 1216 3500 
L 2088 1081 
L 2956 3500 
L 4078 3500 
L 2700 0 
L 1472 0 
L 97 3500 
z
" transform="scale(0.015625)"/>
      <path id="DejaVuSans-Bold-43" d="M 4288 256 
Q 3956 84 3597 -3 
Q 3238 -91 2847 -91 
Q 1681 -91 1000 561 
Q 319 1213 319 2328 
Q 319 3447 1000 4098 
Q 1681 4750 2847 4750 
Q 3238 4750 3597 4662 
Q 3956 4575 4288 4403 
L 4288 3438 
Q 3953 3666 3628 3772 
Q 3303 3878 2944 3878 
Q 2300 3878 1931 3465 
Q 1563 3053 1563 2328 
Q 1563 1606 1931 1193 
Q 2300 781 2944 781 
Q 3303 781 3628 887 
Q 3953 994 4288 1222 
L 4288 256 
z
" transform="scale(0.015625)"/>
      <path id="DejaVuSans-Bold-68" d="M 4056 2131 
L 4056 0 
L 2931 0 
L 2931 347 
L 2931 1625 
Q 2931 2084 2911 2256 
Q 2891 2428 2841 2509 
Q 2775 2619 2662 2680 
Q 2550 2741 2406 2741 
Q 2056 2741 1856 2470 
Q 1656 2200 1656 1722 
L 1656 0 
L 538 0 
L 538 4863 
L 1656 4863 
L 1656 2988 
Q 1909 3294 2193 3439 
Q 2478 3584 2822 3584 
Q 3428 3584 3742 3212 
Q 4056 2841 4056 2131 
z
" transform="scale(0.015625)"/>
      <path id="DejaVuSans-Bold-6b" d="M 538 4863 
L 1656 4863 
L 1656 2216 
L 2944 3500 
L 4244 3500 
L 2534 1894 
L 4378 0 
L 3022 0 
L 1656 1459 
L 1656 0 
L 538 0 
L 538 4863 
z
" transform="scale(0.015625)"/>
      <path id="DejaVuSans-Bold-6e" d="M 4056 2131 
L 4056 0 
L 2931 0 
L 2931 347 
L 2931 1631 
Q 2931 2084 2911 2256 
Q 2891 2428 2841 2509 
Q 2775 2619 2662 2680 
Q 2550 2741 2406 2741 
Q 2056 2741 1856 2470 
Q 1656 2200 1656 1722 
L 1656 0 
L 538 0 
L 538 3500 
L 1656 3500 
L 1656 2988 
Q 1909 3294 2193 3439 
Q 2478 3584 2822 3584 
Q 3428 3584 3742 3212 
Q 4056 2841 4056 2131 
z
" transform="scale(0.015625)"/>
      <path id="DejaVuSans-Bold-53" d="M 3834 4519 
L 3834 3531 
Q 3450 3703 3084 3790 
Q 2719 3878 2394 3878 
Q 1963 3878 1756 3759 
Q 1550 3641 1550 3391 
Q 1550 3203 1689 3098 
Q 1828 2994 2194 2919 
L 2706 2816 
Q 3484 2659 3812 2340 
Q 4141 2022 4141 1434 
Q 4141 663 3683 286 
Q 3225 -91 2284 -91 
Q 1841 -91 1394 -6 
Q 947 78 500 244 
L 500 1259 
Q 947 1022 1364 901 
Q 1781 781 2169 781 
Q 2563 781 2772 912 
Q 2981 1044 2981 1288 
Q 2981 1506 2839 1625 
Q 2697 1744 2272 1838 
L 1806 1941 
Q 1106 2091 782 2419 
Q 459 2747 459 3303 
Q 459 4000 909 4375 
Q 1359 4750 2203 4750 
Q 2588 4750 2994 4692 
Q 3400 4634 3834 4519 
z
" transform="scale(0.015625)"/>
      <path id="DejaVuSans-Bold-79" d="M 78 3500 
L 1197 3500 
L 2138 1125 
L 2938 3500 
L 4056 3500 
L 2584 -331 
Q 2363 -916 2067 -1148 
Q 1772 -1381 1288 -1381 
L 641 -1381 
L 641 -647 
L 991 -647 
Q 1275 -647 1404 -556 
Q 1534 -466 1606 -231 
L 1638 -134 
L 78 3500 
z
" transform="scale(0.015625)"/>
      <path id="DejaVuSans-Bold-47" d="M 4781 347 
Q 4331 128 3847 18 
Q 3363 -91 2847 -91 
Q 1681 -91 1000 561 
Q 319 1213 319 2328 
Q 319 3456 1012 4103 
Q 1706 4750 2913 4750 
Q 3378 4750 3804 4662 
Q 4231 4575 4609 4403 
L 4609 3438 
Q 4219 3659 3833 3768 
Q 3447 3878 3059 3878 
Q 2341 3878 1952 3476 
Q 1563 3075 1563 2328 
Q 1563 1588 1938 1184 
Q 2313 781 3003 781 
Q 3191 781 3352 804 
Q 3513 828 3641 878 
L 3641 1784 
L 2906 1784 
L 2906 2591 
L 4781 2591 
L 4781 347 
z
" transform="scale(0.015625)"/>
      <path id="DejaVuSans-Bold-44" d="M 1791 3756 
L 1791 909 
L 2222 909 
Q 2959 909 3348 1275 
Q 3738 1641 3738 2338 
Q 3738 3031 3350 3393 
Q 2963 3756 2222 3756 
L 1791 3756 
z
M 588 4666 
L 1856 4666 
Q 2919 4666 3439 4514 
Q 3959 4363 4331 4000 
Q 4659 3684 4818 3271 
Q 4978 2859 4978 2338 
Q 4978 1809 4818 1395 
Q 4659 981 4331 666 
Q 3956 303 3431 151 
Q 2906 0 1856 0 
L 588 0 
L 588 4666 
z
" transform="scale(0.015625)"/>
      <path id="DejaVuSans-Bold-61" d="M 2106 1575 
Q 1756 1575 1579 1456 
Q 1403 1338 1403 1106 
Q 1403 894 1545 773 
Q 1688 653 1941 653 
Q 2256 653 2472 879 
Q 2688 1106 2688 1447 
L 2688 1575 
L 2106 1575 
z
M 3816 1997 
L 3816 0 
L 2688 0 
L 2688 519 
Q 2463 200 2181 54 
Q 1900 -91 1497 -91 
Q 953 -91 614 226 
Q 275 544 275 1050 
Q 275 1666 698 1953 
Q 1122 2241 2028 2241 
L 2688 2241 
L 2688 2328 
Q 2688 2594 2478 2717 
Q 2269 2841 1825 2841 
Q 1466 2841 1156 2769 
Q 847 2697 581 2553 
L 581 3406 
Q 941 3494 1303 3539 
Q 1666 3584 2028 3584 
Q 2975 3584 3395 3211 
Q 3816 2838 3816 1997 
z
" transform="scale(0.015625)"/>
     </defs>
     <use xlink:href="#DejaVuSans-Bold-50"/>
     <use xlink:href="#DejaVuSans-Bold-72" x="73.291016"/>
     <use xlink:href="#DejaVuSans-Bold-69" x="122.607422"/>
     <use xlink:href="#DejaVuSans-Bold-6f" x="156.884766"/>
     <use xlink:href="#DejaVuSans-Bold-72" x="225.585938"/>
     <use xlink:href="#DejaVuSans-Bold-20" x="274.902344"/>
     <use xlink:href="#DejaVuSans-Bold-50" x="309.716797"/>
     <use xlink:href="#DejaVuSans-Bold-72" x="383.007812"/>
     <use xlink:href="#DejaVuSans-Bold-65" x="432.324219"/>
     <use xlink:href="#DejaVuSans-Bold-64" x="500.146484"/>
     <use xlink:href="#DejaVuSans-Bold-69" x="571.728516"/>
     <use xlink:href="#DejaVuSans-Bold-63" x="606.005859"/>
     <use xlink:href="#DejaVuSans-Bold-74" x="665.283203"/>
     <use xlink:href="#DejaVuSans-Bold-69" x="713.085938"/>
     <use xlink:href="#DejaVuSans-Bold-76" x="747.363281"/>
     <use xlink:href="#DejaVuSans-Bold-65" x="812.548828"/>
     <use xlink:href="#DejaVuSans-Bold-20" x="880.371094"/>
     <use xlink:href="#DejaVuSans-Bold-43" x="915.185547"/>
     <use xlink:href="#DejaVuSans-Bold-68" x="988.574219"/>
     <use xlink:href="#DejaVuSans-Bold-65" x="1059.765625"/>
     <use xlink:href="#DejaVuSans-Bold-63" x="1127.587891"/>
     <use xlink:href="#DejaVuSans-Bold-6b" x="1186.865234"/>
     <use xlink:href="#DejaVuSans-Bold-20" x="1253.369141"/>
     <use xlink:href="#DejaVuSans-Bold-6f" x="1288.183594"/>
     <use xlink:href="#DejaVuSans-Bold-6e" x="1356.884766"/>
     <use xlink:href="#DejaVuSans-Bold-20" x="1428.076172"/>
     <use xlink:href="#DejaVuSans-Bold-53" x="1462.890625"/>
     <use xlink:href="#DejaVuSans-Bold-79" x="1534.912109"/>
     <use xlink:href="#DejaVuSans-Bold-6e" x="1600.097656"/>
     <use xlink:href="#DejaVuSans-Bold-74" x="1671.289062"/>
     <use xlink:href="#DejaVuSans-Bold-68" x="1719.091797"/>
     <use xlink:href="#DejaVuSans-Bold-65" x="1790.283203"/>
     <use xlink:href="#DejaVuSans-Bold-74" x="1858.105469"/>
     <use xlink:href="#DejaVuSans-Bold-69" x="1905.908203"/>
     <use xlink:href="#DejaVuSans-Bold-63" x="1940.185547"/>
     <use xlink:href="#DejaVuSans-Bold-20" x="1999.462891"/>
     <use xlink:href="#DejaVuSans-Bold-47" x="2034.277344"/>
     <use xlink:href="#DejaVuSans-Bold-50" x="2116.357422"/>
     <use xlink:href="#DejaVuSans-Bold-44" x="2189.648438"/>
     <use xlink:href="#DejaVuSans-Bold-20" x="2272.65625"/>
     <use xlink:href="#DejaVuSans-Bold-44" x="2307.470703"/>
     <use xlink:href="#DejaVuSans-Bold-61" x="2390.478516"/>
     <use xlink:href="#DejaVuSans-Bold-74" x="2457.958984"/>
     <use xlink:href="#DejaVuSans-Bold-61" x="2505.761719"/>
    </g>
   </g>
   <g id="legend_1">
    <g id="patch_7">
     <path d="M 57.775 105.228438 
L 235.1125 105.228438 
Q 237.1125 105.228438 237.1125 103.228438 
L 237.1125 30.837813 
Q 237.1125 28.837813 235.1125 28.837813 
L 57.775 28.837813 
Q 55.775 28.837813 55.775 30.837813 
L 55.775 103.228438 
Q 55.775 105.228438 57.775 105.228438 
z
" style="fill: #ffffff; opacity: 0.8; stroke: #cccccc; stroke-linejoin: miter"/>
    </g>
    <g id="line2d_21">
     <path d="M 59.775 36.93625 
L 69.775 36.93625 
L 79.775 36.93625 
" style="fill: none; stroke: #000000; stroke-width: 2.2; stroke-linecap: round"/>
    </g>
    <g id="text_19">
     <!-- Prior predictive 0.75 quantile -->
     <g style="fill: #262626" transform="translate(87.775 40.43625) scale(0.1 -0.1)">
      <defs>
       <path id="DejaVuSans-72" d="M 2631 2963 
Q 2534 3019 2420 3045 
Q 2306 3072 2169 3072 
Q 1681 3072 1420 2755 
Q 1159 2438 1159 1844 
L 1159 0 
L 581 0 
L 581 3500 
L 1159 3500 
L 1159 2956 
Q 1341 3275 1631 3429 
Q 1922 3584 2338 3584 
Q 2397 3584 2469 3576 
Q 2541 3569 2628 3553 
L 2631 2963 
z
" transform="scale(0.015625)"/>
       <path id="DejaVuSans-69" d="M 603 3500 
L 1178 3500 
L 1178 0 
L 603 0 
L 603 3500 
z
M 603 4863 
L 1178 4863 
L 1178 4134 
L 603 4134 
L 603 4863 
z
" transform="scale(0.015625)"/>
       <path id="DejaVuSans-64" d="M 2906 2969 
L 2906 4863 
L 3481 4863 
L 3481 0 
L 2906 0 
L 2906 525 
Q 2725 213 2448 61 
Q 2172 -91 1784 -91 
Q 1150 -91 751 415 
Q 353 922 353 1747 
Q 353 2572 751 3078 
Q 1150 3584 1784 3584 
Q 2172 3584 2448 3432 
Q 2725 3281 2906 2969 
z
M 947 1747 
Q 947 1113 1208 752 
Q 1469 391 1925 391 
Q 2381 391 2643 752 
Q 2906 1113 2906 1747 
Q 2906 2381 2643 2742 
Q 2381 3103 1925 3103 
Q 1469 3103 1208 2742 
Q 947 2381 947 1747 
z
" transform="scale(0.015625)"/>
       <path id="DejaVuSans-74" d="M 1172 4494 
L 1172 3500 
L 2356 3500 
L 2356 3053 
L 1172 3053 
L 1172 1153 
Q 1172 725 1289 603 
Q 1406 481 1766 481 
L 2356 481 
L 2356 0 
L 1766 0 
Q 1100 0 847 248 
Q 594 497 594 1153 
L 594 3053 
L 172 3053 
L 172 3500 
L 594 3500 
L 594 4494 
L 1172 4494 
z
" transform="scale(0.015625)"/>
       <path id="DejaVuSans-76" d="M 191 3500 
L 800 3500 
L 1894 563 
L 2988 3500 
L 3597 3500 
L 2284 0 
L 1503 0 
L 191 3500 
z
" transform="scale(0.015625)"/>
       <path id="DejaVuSans-35" d="M 691 4666 
L 3169 4666 
L 3169 4134 
L 1269 4134 
L 1269 2991 
Q 1406 3038 1543 3061 
Q 1681 3084 1819 3084 
Q 2600 3084 3056 2656 
Q 3513 2228 3513 1497 
Q 3513 744 3044 326 
Q 2575 -91 1722 -91 
Q 1428 -91 1123 -41 
Q 819 9 494 109 
L 494 744 
Q 775 591 1075 516 
Q 1375 441 1709 441 
Q 2250 441 2565 725 
Q 2881 1009 2881 1497 
Q 2881 1984 2565 2268 
Q 2250 2553 1709 2553 
Q 1456 2553 1204 2497 
Q 953 2441 691 2322 
L 691 4666 
z
" transform="scale(0.015625)"/>
       <path id="DejaVuSans-71" d="M 947 1747 
Q 947 1113 1208 752 
Q 1469 391 1925 391 
Q 2381 391 2643 752 
Q 2906 1113 2906 1747 
Q 2906 2381 2643 2742 
Q 2381 3103 1925 3103 
Q 1469 3103 1208 2742 
Q 947 2381 947 1747 
z
M 2906 525 
Q 2725 213 2448 61 
Q 2172 -91 1784 -91 
Q 1150 -91 751 415 
Q 353 922 353 1747 
Q 353 2572 751 3078 
Q 1150 3584 1784 3584 
Q 2172 3584 2448 3432 
Q 2725 3281 2906 2969 
L 2906 3500 
L 3481 3500 
L 3481 -1331 
L 2906 -1331 
L 2906 525 
z
" transform="scale(0.015625)"/>
       <path id="DejaVuSans-75" d="M 544 1381 
L 544 3500 
L 1119 3500 
L 1119 1403 
Q 1119 906 1312 657 
Q 1506 409 1894 409 
Q 2359 409 2629 706 
Q 2900 1003 2900 1516 
L 2900 3500 
L 3475 3500 
L 3475 0 
L 2900 0 
L 2900 538 
Q 2691 219 2414 64 
Q 2138 -91 1772 -91 
Q 1169 -91 856 284 
Q 544 659 544 1381 
z
M 1991 3584 
L 1991 3584 
z
" transform="scale(0.015625)"/>
       <path id="DejaVuSans-6e" d="M 3513 2113 
L 3513 0 
L 2938 0 
L 2938 2094 
Q 2938 2591 2744 2837 
Q 2550 3084 2163 3084 
Q 1697 3084 1428 2787 
Q 1159 2491 1159 1978 
L 1159 0 
L 581 0 
L 581 3500 
L 1159 3500 
L 1159 2956 
Q 1366 3272 1645 3428 
Q 1925 3584 2291 3584 
Q 2894 3584 3203 3211 
Q 3513 2838 3513 2113 
z
" transform="scale(0.015625)"/>
      </defs>
      <use xlink:href="#DejaVuSans-50"/>
      <use xlink:href="#DejaVuSans-72" x="58.552734"/>
      <use xlink:href="#DejaVuSans-69" x="99.666016"/>
      <use xlink:href="#DejaVuSans-6f" x="127.449219"/>
      <use xlink:href="#DejaVuSans-72" x="188.630859"/>
      <use xlink:href="#DejaVuSans-20" x="229.744141"/>
      <use xlink:href="#DejaVuSans-70" x="261.53125"/>
      <use xlink:href="#DejaVuSans-72" x="325.007812"/>
      <use xlink:href="#DejaVuSans-65" x="363.871094"/>
      <use xlink:href="#DejaVuSans-64" x="425.394531"/>
      <use xlink:href="#DejaVuSans-69" x="488.871094"/>
      <use xlink:href="#DejaVuSans-63" x="516.654297"/>
      <use xlink:href="#DejaVuSans-74" x="571.634766"/>
      <use xlink:href="#DejaVuSans-69" x="610.84375"/>
      <use xlink:href="#DejaVuSans-76" x="638.626953"/>
      <use xlink:href="#DejaVuSans-65" x="697.806641"/>
      <use xlink:href="#DejaVuSans-20" x="759.330078"/>
      <use xlink:href="#DejaVuSans-30" x="791.117188"/>
      <use xlink:href="#DejaVuSans-2e" x="854.740234"/>
      <use xlink:href="#DejaVuSans-37" x="886.527344"/>
      <use xlink:href="#DejaVuSans-35" x="950.150391"/>
      <use xlink:href="#DejaVuSans-20" x="1013.773438"/>
      <use xlink:href="#DejaVuSans-71" x="1045.560547"/>
      <use xlink:href="#DejaVuSans-75" x="1109.037109"/>
      <use xlink:href="#DejaVuSans-61" x="1172.416016"/>
      <use xlink:href="#DejaVuSans-6e" x="1233.695312"/>
      <use xlink:href="#DejaVuSans-74" x="1297.074219"/>
      <use xlink:href="#DejaVuSans-69" x="1336.283203"/>
      <use xlink:href="#DejaVuSans-6c" x="1364.066406"/>
      <use xlink:href="#DejaVuSans-65" x="1391.849609"/>
     </g>
    </g>
    <g id="line2d_22">
     <path d="M 59.775 51.614375 
L 69.775 51.614375 
L 79.775 51.614375 
" style="fill: none; stroke-dasharray: 2.2,3.63; stroke-dashoffset: 0; stroke: #000000; stroke-width: 2.2"/>
    </g>
    <g id="text_20">
     <!-- Prior predictive mean -->
     <g style="fill: #262626" transform="translate(87.775 55.114375) scale(0.1 -0.1)">
      <defs>
       <path id="DejaVuSans-6d" d="M 3328 2828 
Q 3544 3216 3844 3400 
Q 4144 3584 4550 3584 
Q 5097 3584 5394 3201 
Q 5691 2819 5691 2113 
L 5691 0 
L 5113 0 
L 5113 2094 
Q 5113 2597 4934 2840 
Q 4756 3084 4391 3084 
Q 3944 3084 3684 2787 
Q 3425 2491 3425 1978 
L 3425 0 
L 2847 0 
L 2847 2094 
Q 2847 2600 2669 2842 
Q 2491 3084 2119 3084 
Q 1678 3084 1418 2786 
Q 1159 2488 1159 1978 
L 1159 0 
L 581 0 
L 581 3500 
L 1159 3500 
L 1159 2956 
Q 1356 3278 1631 3431 
Q 1906 3584 2284 3584 
Q 2666 3584 2933 3390 
Q 3200 3197 3328 2828 
z
" transform="scale(0.015625)"/>
      </defs>
      <use xlink:href="#DejaVuSans-50"/>
      <use xlink:href="#DejaVuSans-72" x="58.552734"/>
      <use xlink:href="#DejaVuSans-69" x="99.666016"/>
      <use xlink:href="#DejaVuSans-6f" x="127.449219"/>
      <use xlink:href="#DejaVuSans-72" x="188.630859"/>
      <use xlink:href="#DejaVuSans-20" x="229.744141"/>
      <use xlink:href="#DejaVuSans-70" x="261.53125"/>
      <use xlink:href="#DejaVuSans-72" x="325.007812"/>
      <use xlink:href="#DejaVuSans-65" x="363.871094"/>
      <use xlink:href="#DejaVuSans-64" x="425.394531"/>
      <use xlink:href="#DejaVuSans-69" x="488.871094"/>
      <use xlink:href="#DejaVuSans-63" x="516.654297"/>
      <use xlink:href="#DejaVuSans-74" x="571.634766"/>
      <use xlink:href="#DejaVuSans-69" x="610.84375"/>
      <use xlink:href="#DejaVuSans-76" x="638.626953"/>
      <use xlink:href="#DejaVuSans-65" x="697.806641"/>
      <use xlink:href="#DejaVuSans-20" x="759.330078"/>
      <use xlink:href="#DejaVuSans-6d" x="791.117188"/>
      <use xlink:href="#DejaVuSans-65" x="888.529297"/>
      <use xlink:href="#DejaVuSans-61" x="950.052734"/>
      <use xlink:href="#DejaVuSans-6e" x="1011.332031"/>
     </g>
    </g>
    <g id="line2d_23">
     <path d="M 59.775 66.2925 
L 69.775 66.2925 
L 79.775 66.2925 
" style="fill: none; stroke-dasharray: 14.08,3.52,2.2,3.52; stroke-dashoffset: 0; stroke: #000000; stroke-width: 2.2"/>
    </g>
    <g id="text_21">
     <!-- Prior predictive 0.25 quantile -->
     <g style="fill: #262626" transform="translate(87.775 69.7925) scale(0.1 -0.1)">
      <use xlink:href="#DejaVuSans-50"/>
      <use xlink:href="#DejaVuSans-72" x="58.552734"/>
      <use xlink:href="#DejaVuSans-69" x="99.666016"/>
      <use xlink:href="#DejaVuSans-6f" x="127.449219"/>
      <use xlink:href="#DejaVuSans-72" x="188.630859"/>
      <use xlink:href="#DejaVuSans-20" x="229.744141"/>
      <use xlink:href="#DejaVuSans-70" x="261.53125"/>
      <use xlink:href="#DejaVuSans-72" x="325.007812"/>
      <use xlink:href="#DejaVuSans-65" x="363.871094"/>
      <use xlink:href="#DejaVuSans-64" x="425.394531"/>
      <use xlink:href="#DejaVuSans-69" x="488.871094"/>
      <use xlink:href="#DejaVuSans-63" x="516.654297"/>
      <use xlink:href="#DejaVuSans-74" x="571.634766"/>
      <use xlink:href="#DejaVuSans-69" x="610.84375"/>
      <use xlink:href="#DejaVuSans-76" x="638.626953"/>
      <use xlink:href="#DejaVuSans-65" x="697.806641"/>
      <use xlink:href="#DejaVuSans-20" x="759.330078"/>
      <use xlink:href="#DejaVuSans-30" x="791.117188"/>
      <use xlink:href="#DejaVuSans-2e" x="854.740234"/>
      <use xlink:href="#DejaVuSans-32" x="886.527344"/>
      <use xlink:href="#DejaVuSans-35" x="950.150391"/>
      <use xlink:href="#DejaVuSans-20" x="1013.773438"/>
      <use xlink:href="#DejaVuSans-71" x="1045.560547"/>
      <use xlink:href="#DejaVuSans-75" x="1109.037109"/>
      <use xlink:href="#DejaVuSans-61" x="1172.416016"/>
      <use xlink:href="#DejaVuSans-6e" x="1233.695312"/>
      <use xlink:href="#DejaVuSans-74" x="1297.074219"/>
      <use xlink:href="#DejaVuSans-69" x="1336.283203"/>
      <use xlink:href="#DejaVuSans-6c" x="1364.066406"/>
      <use xlink:href="#DejaVuSans-65" x="1391.849609"/>
     </g>
    </g>
    <g id="line2d_24">
     <path d="M 59.775 80.970625 
L 69.775 80.970625 
L 79.775 80.970625 
" style="fill: none; stroke-dasharray: 8.14,3.52; stroke-dashoffset: 0; stroke: #000000; stroke-width: 2.2"/>
    </g>
    <g id="text_22">
     <!-- Prior predictive 0.0 quantile -->
     <g style="fill: #262626" transform="translate(87.775 84.470625) scale(0.1 -0.1)">
      <use xlink:href="#DejaVuSans-50"/>
      <use xlink:href="#DejaVuSans-72" x="58.552734"/>
      <use xlink:href="#DejaVuSans-69" x="99.666016"/>
      <use xlink:href="#DejaVuSans-6f" x="127.449219"/>
      <use xlink:href="#DejaVuSans-72" x="188.630859"/>
      <use xlink:href="#DejaVuSans-20" x="229.744141"/>
      <use xlink:href="#DejaVuSans-70" x="261.53125"/>
      <use xlink:href="#DejaVuSans-72" x="325.007812"/>
      <use xlink:href="#DejaVuSans-65" x="363.871094"/>
      <use xlink:href="#DejaVuSans-64" x="425.394531"/>
      <use xlink:href="#DejaVuSans-69" x="488.871094"/>
      <use xlink:href="#DejaVuSans-63" x="516.654297"/>
      <use xlink:href="#DejaVuSans-74" x="571.634766"/>
      <use xlink:href="#DejaVuSans-69" x="610.84375"/>
      <use xlink:href="#DejaVuSans-76" x="638.626953"/>
      <use xlink:href="#DejaVuSans-65" x="697.806641"/>
      <use xlink:href="#DejaVuSans-20" x="759.330078"/>
      <use xlink:href="#DejaVuSans-30" x="791.117188"/>
      <use xlink:href="#DejaVuSans-2e" x="854.740234"/>
      <use xlink:href="#DejaVuSans-30" x="886.527344"/>
      <use xlink:href="#DejaVuSans-20" x="950.150391"/>
      <use xlink:href="#DejaVuSans-71" x="981.9375"/>
      <use xlink:href="#DejaVuSans-75" x="1045.414062"/>
      <use xlink:href="#DejaVuSans-61" x="1108.792969"/>
      <use xlink:href="#DejaVuSans-6e" x="1170.072266"/>
      <use xlink:href="#DejaVuSans-74" x="1233.451172"/>
      <use xlink:href="#DejaVuSans-69" x="1272.660156"/>
      <use xlink:href="#DejaVuSans-6c" x="1300.443359"/>
      <use xlink:href="#DejaVuSans-65" x="1328.226562"/>
     </g>
    </g>
    <g id="patch_8">
     <path d="M 59.775 99.14875 
L 79.775 99.14875 
L 79.775 92.14875 
L 59.775 92.14875 
z
" style="fill: #808080; fill-opacity: 0.15; stroke: #808080; stroke-opacity: 0.15; stroke-linejoin: miter"/>
    </g>
    <g id="text_23">
     <!-- 95% prior predictive HDI -->
     <g style="fill: #262626" transform="translate(87.775 99.14875) scale(0.1 -0.1)">
      <defs>
       <path id="DejaVuSans-39" d="M 703 97 
L 703 672 
Q 941 559 1184 500 
Q 1428 441 1663 441 
Q 2288 441 2617 861 
Q 2947 1281 2994 2138 
Q 2813 1869 2534 1725 
Q 2256 1581 1919 1581 
Q 1219 1581 811 2004 
Q 403 2428 403 3163 
Q 403 3881 828 4315 
Q 1253 4750 1959 4750 
Q 2769 4750 3195 4129 
Q 3622 3509 3622 2328 
Q 3622 1225 3098 567 
Q 2575 -91 1691 -91 
Q 1453 -91 1209 -44 
Q 966 3 703 97 
z
M 1959 2075 
Q 2384 2075 2632 2365 
Q 2881 2656 2881 3163 
Q 2881 3666 2632 3958 
Q 2384 4250 1959 4250 
Q 1534 4250 1286 3958 
Q 1038 3666 1038 3163 
Q 1038 2656 1286 2365 
Q 1534 2075 1959 2075 
z
" transform="scale(0.015625)"/>
       <path id="DejaVuSans-25" d="M 4653 2053 
Q 4381 2053 4226 1822 
Q 4072 1591 4072 1178 
Q 4072 772 4226 539 
Q 4381 306 4653 306 
Q 4919 306 5073 539 
Q 5228 772 5228 1178 
Q 5228 1588 5073 1820 
Q 4919 2053 4653 2053 
z
M 4653 2450 
Q 5147 2450 5437 2106 
Q 5728 1763 5728 1178 
Q 5728 594 5436 251 
Q 5144 -91 4653 -91 
Q 4153 -91 3862 251 
Q 3572 594 3572 1178 
Q 3572 1766 3864 2108 
Q 4156 2450 4653 2450 
z
M 1428 4353 
Q 1159 4353 1004 4120 
Q 850 3888 850 3481 
Q 850 3069 1003 2837 
Q 1156 2606 1428 2606 
Q 1700 2606 1854 2837 
Q 2009 3069 2009 3481 
Q 2009 3884 1853 4118 
Q 1697 4353 1428 4353 
z
M 4250 4750 
L 4750 4750 
L 1831 -91 
L 1331 -91 
L 4250 4750 
z
M 1428 4750 
Q 1922 4750 2215 4408 
Q 2509 4066 2509 3481 
Q 2509 2891 2217 2550 
Q 1925 2209 1428 2209 
Q 931 2209 642 2551 
Q 353 2894 353 3481 
Q 353 4063 643 4406 
Q 934 4750 1428 4750 
z
" transform="scale(0.015625)"/>
       <path id="DejaVuSans-48" d="M 628 4666 
L 1259 4666 
L 1259 2753 
L 3553 2753 
L 3553 4666 
L 4184 4666 
L 4184 0 
L 3553 0 
L 3553 2222 
L 1259 2222 
L 1259 0 
L 628 0 
L 628 4666 
z
" transform="scale(0.015625)"/>
       <path id="DejaVuSans-49" d="M 628 4666 
L 1259 4666 
L 1259 0 
L 628 0 
L 628 4666 
z
" transform="scale(0.015625)"/>
      </defs>
      <use xlink:href="#DejaVuSans-39"/>
      <use xlink:href="#DejaVuSans-35" x="63.623047"/>
      <use xlink:href="#DejaVuSans-25" x="127.246094"/>
      <use xlink:href="#DejaVuSans-20" x="222.265625"/>
      <use xlink:href="#DejaVuSans-70" x="254.052734"/>
      <use xlink:href="#DejaVuSans-72" x="317.529297"/>
      <use xlink:href="#DejaVuSans-69" x="358.642578"/>
      <use xlink:href="#DejaVuSans-6f" x="386.425781"/>
      <use xlink:href="#DejaVuSans-72" x="447.607422"/>
      <use xlink:href="#DejaVuSans-20" x="488.720703"/>
      <use xlink:href="#DejaVuSans-70" x="520.507812"/>
      <use xlink:href="#DejaVuSans-72" x="583.984375"/>
      <use xlink:href="#DejaVuSans-65" x="622.847656"/>
      <use xlink:href="#DejaVuSans-64" x="684.371094"/>
      <use xlink:href="#DejaVuSans-69" x="747.847656"/>
      <use xlink:href="#DejaVuSans-63" x="775.630859"/>
      <use xlink:href="#DejaVuSans-74" x="830.611328"/>
      <use xlink:href="#DejaVuSans-69" x="869.820312"/>
      <use xlink:href="#DejaVuSans-76" x="897.603516"/>
      <use xlink:href="#DejaVuSans-65" x="956.783203"/>
      <use xlink:href="#DejaVuSans-20" x="1018.306641"/>
      <use xlink:href="#DejaVuSans-48" x="1050.09375"/>
      <use xlink:href="#DejaVuSans-44" x="1125.289062"/>
      <use xlink:href="#DejaVuSans-49" x="1202.291016"/>
     </g>
    </g>
   </g>
  </g>
 </g>
 <defs>
  <clipPath id="p7a2896edf0">
   <rect x="50.775" y="23.837813" width="434.07" height="412.38"/>
  </clipPath>
 </defs>
</svg>
